<svg width="327" height="665" fill="none" xmlns="http://www.w3.org/2000/svg"><g clip-path="url(#clip0_4_166)"><g opacity=".03" clip-path="url(#clip1_4_166)"><path d="M340.283 636.501C340.283 731.217 264.03 808 169.967 808S-.35 731.217-.35 636.501c0-94.717 76.254-171.5 170.317-171.5s170.316 76.783 170.316 171.5z" fill="#000"/><path fill-rule="evenodd" clip-rule="evenodd" d="M257.902 806.916a190.18 190.18 0 00100.564-168.067c0-75.83-44.109-141.286-107.9-171.772A170.435 170.435 0 01277.148 465c94.064 0 170.317 76.783 170.317 171.499 0 94.717-76.253 171.5-170.317 171.5a171.08 171.08 0 01-19.246-1.083z" fill="#000"/><rect x="134.472" y="544.933" width="35.483" height="132.197" rx="17.741" fill="#E8D296"/><rect width="35.668" height="113.742" rx="17.834" transform="matrix(.4974 -.86752 .86452 .5026 130.117 667.437)" fill="#E8D296"/></g><g clip-path="url(#clip2_4_166)"><g filter="url(#filter0_d_4_166)"><rect x="48" y="228.512" width="783.111" height="491.954" rx="26.244" fill="#FFFEFE"/><path d="M77.064 411.071a2.976 2.976 0 00-.39-.854 2.416 2.416 0 00-.615-.635 2.634 2.634 0 00-.82-.403 3.454 3.454 0 00-1.013-.139c-.692 0-1.301.172-1.826.516-.52.344-.926.844-1.217 1.502-.291.652-.437 1.451-.437 2.394 0 .944.143 1.747.43 2.409.287.661.693 1.166 1.217 1.515.525.344 1.145.516 1.86.516.648 0 1.201-.115 1.66-.344a2.47 2.47 0 001.059-.986c.247-.424.37-.924.37-1.502l.582.086h-3.493v-2.157h5.67v1.707c0 1.191-.252 2.214-.754 3.07a5.14 5.14 0 01-2.078 1.971c-.882.459-1.892.688-3.03.688-1.27 0-2.386-.28-3.347-.84-.962-.564-1.712-1.365-2.25-2.401-.533-1.041-.8-2.276-.8-3.705 0-1.098.159-2.077.476-2.937.322-.865.772-1.597 1.35-2.197a5.827 5.827 0 012.017-1.369 6.523 6.523 0 012.495-.47c.767 0 1.482.112 2.143.337a5.716 5.716 0 011.76.94 5.08 5.08 0 011.264 1.449c.326.555.535 1.168.628 1.839h-2.91zm5.136 9.169v-10.162h2.686v1.793h.119a2.82 2.82 0 011.058-1.409c.494-.344 1.085-.516 1.773-.516.697 0 1.29.174 1.78.523.49.344.816.811.98 1.402h.105a2.707 2.707 0 011.125-1.396c.547-.352 1.193-.529 1.938-.529.948 0 1.718.302 2.309.906.595.6.893 1.452.893 2.554v6.834h-2.812v-6.278c0-.565-.15-.988-.45-1.27-.3-.283-.674-.424-1.124-.424-.512 0-.911.163-1.198.49-.286.322-.43.747-.43 1.277v6.205H88.22v-6.338c0-.498-.143-.895-.43-1.191-.282-.295-.655-.443-1.118-.443-.313 0-.596.08-.847.238a1.641 1.641 0 00-.589.655 2.084 2.084 0 00-.218.979v6.1H82.2zm19.89.192c-.648 0-1.226-.112-1.733-.337a2.792 2.792 0 01-1.204-1.013c-.291-.449-.437-1.01-.437-1.68 0-.564.104-1.039.31-1.422.208-.384.49-.693.848-.927.357-.233.763-.41 1.217-.529a9.227 9.227 0 011.442-.251 36.698 36.698 0 001.429-.172c.362-.058.624-.141.787-.252.164-.11.245-.273.245-.489v-.04c0-.419-.132-.743-.397-.972-.26-.23-.63-.344-1.111-.344-.507 0-.911.112-1.211.337a1.55 1.55 0 00-.595.834l-2.607-.212a3.54 3.54 0 01.78-1.601c.389-.454.89-.803 1.503-1.045.617-.247 1.332-.371 2.143-.371.565 0 1.105.066 1.621.199.52.132.981.337 1.383.615.405.278.725.635.959 1.072.234.432.351.95.351 1.554v6.854h-2.673v-1.409h-.08a2.842 2.842 0 01-.655.84 3.04 3.04 0 01-.985.563 4.086 4.086 0 01-1.33.198zm.807-1.945c.415 0 .781-.082 1.098-.245.318-.167.567-.392.748-.675.181-.282.271-.602.271-.959v-1.078c-.088.057-.209.11-.364.159-.15.044-.32.086-.509.125-.19.036-.379.069-.569.1l-.516.072a3.5 3.5 0 00-.867.232 1.379 1.379 0 00-.575.43 1.045 1.045 0 00-.205.661c0 .384.138.677.416.88.283.199.64.298 1.072.298zm7.102 1.753v-10.162h2.818v10.162h-2.818zm1.416-11.472c-.419 0-.779-.138-1.078-.416a1.352 1.352 0 01-.444-1.013c0-.388.148-.721.444-.998a1.513 1.513 0 011.078-.424c.419 0 .776.141 1.072.424.3.277.45.61.45.998 0 .393-.15.73-.45 1.013a1.508 1.508 0 01-1.072.416zm6.478-2.077v13.549h-2.818v-13.549h2.818z" fill="#E1E4EB"/><path fill-rule="evenodd" clip-rule="evenodd" d="M699.338 228.512c-1.29 0-2.549.129-3.767.377v-.377H66.825C56.428 228.512 48 236.94 48 247.337c0 1.926.29 3.786.829 5.536h-.827v8.859H48v42.079h154.55a3.579 3.579 0 003.579-3.579v-7.495h.002v-36.285a3.579 3.579 0 013.549-3.579h236.369a3.579 3.579 0 013.549 3.579v6.511a2.083 2.083 0 00-.002.079v37.19a3.578 3.578 0 003.578 3.579h377.939v-50.938h-.83c.539-1.75.829-3.61.829-5.536 0-10.397-8.428-18.825-18.825-18.825H699.338z" fill="#F0F1F5"/><circle cx="91.925" cy="267.416" r="8.785" fill="#FF7970"/><circle cx="122.044" cy="267.416" r="8.785" fill="#FDD171"/><circle cx="152.164" cy="267.416" r="8.785" fill="#65C157"/><circle cx="238.759" cy="273.691" r="10.04" fill="#E1E4EB"/><circle cx="246.114" cy="592.608" r="15.301" fill="#F0F1F5"/><path fill="#E1E4EB" d="M261.348 271.182h120.479v7.53H261.348z"/><rect x="248.799" y="313.852" width="341.356" height="47.69" rx="23.845" fill="#F0F1F5"/><path fill="#E1E4EB" d="M314.057 333.93h215.858v7.53H314.057z"/><path d="M289.958 335.439h-14.052a2.008 2.008 0 00-2.008 2.008v7.026c0 1.109.899 2.007 2.008 2.007h14.052a2.007 2.007 0 002.008-2.007v-7.026a2.008 2.008 0 00-2.008-2.008zm-12.044 0v-4.015a5.02 5.02 0 014.514-4.998 5.019 5.019 0 015.423 3.994" stroke="#D0D4DD" stroke-width="2.386" stroke-linecap="round" stroke-linejoin="round"/><path d="M287.85 335.444v-4.015a5.017 5.017 0 00-4.515-4.998 5.02 5.02 0 00-5.422 3.994" stroke="#D0D4DD" stroke-width="2.386" stroke-linecap="round" stroke-linejoin="round"/><path d="M106.461 337.694H87.427m9.517 9.518l-9.517-9.517 9.517-9.517m41.415 10.25h19.034m-9.517 9.516l9.517-9.517-9.517-9.517m58.724 14.119l7.059-7.06-7.059-7.059" stroke="#DBDEE4" stroke-width="2.386" stroke-linecap="round" stroke-linejoin="round"/><path d="M191.068 351.5v-9.883a5.646 5.646 0 015.648-5.647h16.942" stroke="#DBDEE4" stroke-width="2.386" stroke-linecap="round" stroke-linejoin="round"/><path fill="#F0F1F5" d="M48 371.58h783.111v2.51H48z"/><rect x="95.621" y="451.203" width="29.379" height="2.825" rx="1.412" fill="#F0F1F5"/><rect x="95.621" y="520.883" width="29.379" height="2.825" rx="1.412" fill="#F0F1F5"/><rect x="95.621" y="590.562" width="29.379" height="2.825" rx="1.412" fill="#F0F1F5"/><rect x="95.621" y="486.043" width="29.379" height="2.825" rx="1.412" fill="#F0F1F5"/><rect x="95.621" y="555.723" width="29.379" height="2.825" rx="1.412" fill="#F0F1F5"/><rect x="273.656" y="624.857" width="64.972" height="11.77" rx="5.885" fill="#F0F1F5"/><rect x="273.656" y="589.547" width="85.216" height="6.12" rx="3.06" fill="#F0F1F5"/><rect x="273.656" y="606.025" width="71.563" height="2.825" rx="1.412" fill="#F0F1F5"/><circle cx="176.114" cy="415.006" r="15.301" fill="#F0F1F5"/><rect x="203.656" y="447.256" width="64.972" height="11.77" rx="5.885" fill="#F0F1F5"/><rect x="203.75" y="411.749" width="366.253" height="6.315" rx="3.157" fill="#F0F1F5"/><rect x="203.656" y="475.976" width="220.809" height="2.825" rx="1.412" fill="#F0F1F5"/><rect x="203.75" y="428.325" width="307.842" height="3.157" rx="1.579" fill="#F0F1F5"/><circle cx="246.114" cy="509.727" r="15.301" fill="#F0F1F5"/><rect x="273.656" y="541.977" width="64.972" height="11.77" rx="5.885" fill="#F0F1F5"/><rect x="273.75" y="506.47" width="316.525" height="6.315" rx="3.157" fill="#F0F1F5"/><rect x="273.656" y="570.695" width="220.809" height="2.825" rx="1.412" fill="#F0F1F5"/><rect x="273.75" y="523.045" width="307.842" height="3.157" rx="1.579" fill="#F0F1F5"/><circle cx="246.114" cy="588.661" r="15.301" fill="#F0F1F5"/><rect x="273.656" y="620.912" width="64.972" height="11.77" rx="5.885" fill="#F0F1F5"/><rect x="273.75" y="585.404" width="366.253" height="6.315" rx="3.157" fill="#F0F1F5"/><rect x="273.656" y="649.631" width="220.809" height="2.825" rx="1.412" fill="#F0F1F5"/><rect x="273.75" y="601.98" width="307.842" height="3.157" rx="1.579" fill="#F0F1F5"/></g><path d="M86.541 449.831h-5.326l-1.776 2.663h-3.551l-1.776-2.663h-5.327" stroke="#E1E4EB" stroke-width="2.386" stroke-linecap="round" stroke-linejoin="round"/><path d="M71.848 443.714l-3.063 6.117v5.327a1.774 1.774 0 001.776 1.775h14.205a1.776 1.776 0 001.775-1.775v-5.327l-3.063-6.117a1.774 1.774 0 00-1.589-.985h-8.452a1.774 1.774 0 00-1.589.985v0zm5.815 31.075l2.744 5.519 6.134.891-4.439 4.294 1.048 6.066-5.487-2.866-5.486 2.866 1.047-6.066-4.439-4.294 6.135-.891 2.743-5.519zm0 52.282a8.878 8.878 0 008.878-8.878 8.878 8.878 0 10-8.878 8.878z" stroke="#E1E4EB" stroke-width="2.386" stroke-linecap="round" stroke-linejoin="round"/><path d="M77.663 512.865v5.327l3.551 1.776m5.327 24.858l-9.766 9.766m9.766-9.766l-6.214 17.756-3.552-7.99-7.99-3.551 17.756-6.215zm-5.327 37.288h1.776a1.775 1.775 0 011.776 1.776v12.429a1.777 1.777 0 01-1.776 1.776H72.336a1.776 1.776 0 01-1.775-1.776V583.89a1.777 1.777 0 011.775-1.776h1.776" stroke="#E1E4EB" stroke-width="2.386" stroke-linecap="round" stroke-linejoin="round"/><path d="M80.326 580.339h-5.327a.888.888 0 00-.888.888v1.775c0 .491.398.888.888.888h5.327c.49 0 .888-.397.888-.888v-1.775a.888.888 0 00-.888-.888z" stroke="#E1E4EB" stroke-width="2.386" stroke-linecap="round" stroke-linejoin="round"/><path fill="#FFE7B4" d="M162.119 439.375h216.572v30.132H162.119z"/><path d="M181.451 465.767c-1.174 0-2.219-.19-3.134-.572-.91-.386-1.624-.912-2.143-1.578a3.593 3.593 0 01-.778-2.265 3.7 3.7 0 01.443-1.792c.3-.549.706-1.004 1.22-1.365a4.025 4.025 0 011.723-.701v-.107c-.834-.168-1.51-.572-2.028-1.212-.519-.646-.778-1.396-.778-2.25 0-.808.236-1.527.709-2.158.473-.635 1.121-1.133 1.944-1.494.829-.366 1.77-.549 2.822-.549s1.99.183 2.813.549c.829.366 1.48.867 1.953 1.502.472.63.711 1.347.716 2.15-.005.859-.269 1.609-.793 2.25a3.408 3.408 0 01-2.013 1.212v.107a3.968 3.968 0 011.701.701c.513.361.92.816 1.22 1.365.305.544.46 1.142.465 1.792a3.624 3.624 0 01-.786 2.265c-.518.666-1.235 1.192-2.15 1.578-.91.382-1.952.572-3.126.572zm0-2.425c.523 0 .981-.094 1.372-.282.392-.193.697-.457.915-.793.224-.34.336-.732.336-1.174 0-.452-.115-.851-.343-1.197a2.364 2.364 0 00-.931-.824c-.391-.203-.841-.305-1.349-.305-.503 0-.953.102-1.35.305a2.357 2.357 0 00-.938.824 2.161 2.161 0 00-.335 1.197c0 .442.109.834.328 1.174.218.336.526.6.922.793.397.188.854.282 1.373.282zm0-6.977c.437 0 .826-.089 1.166-.267a2 2 0 00.801-.739c.193-.315.29-.679.29-1.091a1.954 1.954 0 00-1.083-1.791c-.335-.178-.727-.267-1.174-.267-.442 0-.834.089-1.174.267a1.965 1.965 0 00-.801.724 1.993 1.993 0 00-.282 1.067c0 .412.096.776.289 1.091.194.315.461.562.801.739.341.178.73.267 1.167.267zm10.3 7.374c-.504 0-.936-.178-1.297-.534a1.765 1.765 0 01-.534-1.296c0-.498.178-.925.534-1.281a1.781 1.781 0 011.297-.534c.488 0 .915.178 1.281.534.366.356.549.783.549 1.281 0 .335-.087.643-.26.923a1.974 1.974 0 01-.663.663 1.745 1.745 0 01-.907.244zm0-7.663c-.504 0-.936-.178-1.297-.534a1.765 1.765 0 01-.534-1.296c0-.499.178-.923.534-1.274a1.781 1.781 0 011.297-.534c.488 0 .915.178 1.281.534a1.7 1.7 0 01.549 1.274c0 .34-.087.65-.26.93a1.91 1.91 0 01-.663.656 1.754 1.754 0 01-.907.244zm10.238 9.691c-1.138 0-2.153-.195-3.042-.587-.885-.396-1.584-.94-2.097-1.632-.509-.696-.77-1.499-.786-2.409h3.325c.02.381.145.716.374 1.006.234.285.544.506.93.664.386.157.821.236 1.304.236.503 0 .948-.089 1.334-.267a2.19 2.19 0 00.908-.739c.218-.316.328-.679.328-1.091 0-.417-.117-.785-.351-1.106-.229-.325-.559-.579-.992-.762-.427-.183-.935-.275-1.525-.275h-1.456v-2.424h1.456c.499 0 .938-.087 1.32-.26.386-.172.686-.411.899-.716a1.86 1.86 0 00.321-1.083 1.874 1.874 0 00-1.06-1.731c-.331-.168-.717-.252-1.159-.252-.448 0-.857.082-1.228.244a2.151 2.151 0 00-.892.679 1.78 1.78 0 00-.358 1.037h-3.165c.015-.9.272-1.693.77-2.379.498-.686 1.169-1.223 2.013-1.609.849-.391 1.807-.587 2.875-.587 1.078 0 2.021.196 2.829.587.808.391 1.436.92 1.883 1.586.453.661.676 1.403.671 2.227.005.874-.267 1.603-.816 2.188-.543.585-1.253.956-2.127 1.113v.122c1.149.148 2.023.547 2.623 1.197.605.646.905 1.454.9 2.425.005.89-.252 1.68-.77 2.372-.514.691-1.223 1.235-2.128 1.631-.905.397-1.942.595-3.111.595zm14.505.13c-1.311-.005-2.44-.328-3.385-.969-.941-.64-1.665-1.568-2.174-2.783-.503-1.215-.752-2.676-.747-4.384 0-1.703.252-3.155.755-4.354.508-1.2 1.233-2.112 2.173-2.738.946-.63 2.072-.945 3.378-.945 1.307 0 2.43.315 3.371.945.945.631 1.672 1.546 2.18 2.745.509 1.195.76 2.644.755 4.347 0 1.713-.254 3.177-.762 4.392-.504 1.215-1.225 2.143-2.166 2.783-.94.641-2.066.961-3.378.961zm0-2.738c.895 0 1.609-.449 2.143-1.349.534-.9.798-2.25.793-4.049 0-1.185-.122-2.171-.366-2.959-.239-.788-.58-1.38-1.022-1.776a2.226 2.226 0 00-1.548-.595c-.889 0-1.601.445-2.135 1.334-.534.89-.803 2.222-.808 3.996 0 1.199.119 2.201.358 3.004.244.798.587 1.398 1.03 1.8.442.396.96.594 1.555.594zm13.722 2.395v-15.617h6.161c1.184 0 2.193.227 3.027.679a4.59 4.59 0 011.906 1.868c.443.793.664 1.708.664 2.745 0 1.037-.224 1.952-.671 2.745-.448.793-1.096 1.411-1.945 1.853-.844.442-1.865.664-3.065.664h-3.927v-2.646h3.393c.636 0 1.159-.11 1.571-.328a2.17 2.17 0 00.93-.923c.209-.396.313-.851.313-1.365 0-.518-.104-.971-.313-1.357a2.083 2.083 0 00-.93-.907c-.417-.219-.946-.328-1.586-.328h-2.227v12.917h-3.301zm13.902-15.617h4.072l4.301 10.493h.183l4.3-10.493h4.072v15.617h-3.202v-10.165h-.13l-4.041 10.088h-2.181l-4.041-10.126h-.13v10.203h-3.203v-15.617zm31.855 6.52v2.577h-7.122v-2.577h7.122zm13.357-6.733a6.75 6.75 0 012.318.404 5.337 5.337 0 011.998 1.289c.589.589 1.055 1.372 1.395 2.348.346.971.521 2.163.526 3.576 0 1.327-.15 2.512-.45 3.554-.294 1.037-.719 1.919-1.273 2.646a5.565 5.565 0 01-2.005 1.662c-.783.376-1.658.564-2.623.564-1.043 0-1.963-.201-2.761-.602a5.182 5.182 0 01-1.929-1.655 5.151 5.151 0 01-.877-2.364h3.256c.127.57.394 1.012.801 1.327.406.31.91.465 1.51.465 1.016 0 1.789-.442 2.318-1.327.528-.889.795-2.107.8-3.652h-.106a3.74 3.74 0 01-.946 1.182 4.412 4.412 0 01-1.365.755 4.879 4.879 0 01-1.624.267c-.92 0-1.741-.216-2.463-.648a4.655 4.655 0 01-1.708-1.785c-.417-.757-.625-1.621-.625-2.592-.005-1.047.236-1.98.724-2.799a5.099 5.099 0 012.044-1.921c.879-.468 1.901-.699 3.065-.694zm.023 2.592c-.514 0-.971.122-1.373.366a2.704 2.704 0 00-.945.984 2.735 2.735 0 00-.336 1.38c0 .514.112.976.336 1.388.229.407.539.732.93.976.397.239.849.358 1.357.358a2.617 2.617 0 001.907-.8c.244-.254.434-.547.571-.877.138-.331.206-.681.206-1.052a2.817 2.817 0 00-.35-1.358 2.684 2.684 0 00-.946-.991 2.522 2.522 0 00-1.357-.374zm10.431 11.423a1.78 1.78 0 01-1.296-.534 1.765 1.765 0 01-.534-1.296c0-.498.178-.925.534-1.281a1.78 1.78 0 011.296-.534c.488 0 .915.178 1.281.534.366.356.549.783.549 1.281 0 .335-.086.643-.259.923a1.977 1.977 0 01-.664.663 1.742 1.742 0 01-.907.244zm0-7.663a1.78 1.78 0 01-1.296-.534 1.765 1.765 0 01-.534-1.296c0-.499.178-.923.534-1.274a1.78 1.78 0 011.296-.534c.488 0 .915.178 1.281.534a1.7 1.7 0 01.549 1.274c0 .34-.086.65-.259.93a1.913 1.913 0 01-.664.656 1.752 1.752 0 01-.907.244zm10.239 9.691c-1.139 0-2.153-.195-3.043-.587-.884-.396-1.583-.94-2.097-1.632-.508-.696-.77-1.499-.785-2.409h3.325c.02.381.144.716.373 1.006.234.285.544.506.93.664.387.157.821.236 1.304.236.504 0 .948-.089 1.335-.267.386-.178.689-.424.907-.739.219-.316.328-.679.328-1.091 0-.417-.117-.785-.351-1.106-.228-.325-.559-.579-.991-.762-.427-.183-.935-.275-1.525-.275h-1.456v-2.424h1.456c.498 0 .938-.087 1.319-.26a2.12 2.12 0 00.9-.716c.213-.31.32-.671.32-1.083a1.874 1.874 0 00-1.06-1.731c-.33-.168-.716-.252-1.159-.252-.447 0-.856.082-1.227.244a2.154 2.154 0 00-.893.679c-.223.295-.343.64-.358 1.037h-3.164c.015-.9.272-1.693.77-2.379.498-.686 1.169-1.223 2.013-1.609.849-.391 1.807-.587 2.875-.587 1.077 0 2.02.196 2.828.587.809.391 1.437.92 1.884 1.586.452.661.676 1.403.671 2.227.005.874-.267 1.603-.816 2.188-.544.585-1.253.956-2.127 1.113v.122c1.148.148 2.023.547 2.623 1.197.605.646.904 1.454.899 2.425a3.81 3.81 0 01-.77 2.372c-.513.691-1.222 1.235-2.127 1.631-.905.397-1.942.595-3.111.595zm14.505.13c-1.312-.005-2.44-.328-3.386-.969-.94-.64-1.665-1.568-2.173-2.783-.503-1.215-.752-2.676-.747-4.384 0-1.703.251-3.155.755-4.354.508-1.2 1.232-2.112 2.173-2.738.945-.63 2.071-.945 3.378-.945 1.306 0 2.43.315 3.37.945.946.631 1.673 1.546 2.181 2.745.508 1.195.76 2.644.755 4.347 0 1.713-.254 3.177-.763 4.392-.503 1.215-1.225 2.143-2.165 2.783-.941.641-2.067.961-3.378.961zm0-2.738c.894 0 1.609-.449 2.142-1.349.534-.9.799-2.25.793-4.049 0-1.185-.122-2.171-.366-2.959-.238-.788-.579-1.38-1.021-1.776a2.226 2.226 0 00-1.548-.595c-.89 0-1.602.445-2.135 1.334-.534.89-.803 2.222-.809 3.996 0 1.199.12 2.201.359 3.004.244.798.587 1.398 1.029 1.8a2.26 2.26 0 001.556.594zm13.721 2.395v-15.617h6.161c1.185 0 2.194.227 3.028.679a4.596 4.596 0 011.906 1.868c.442.793.663 1.708.663 2.745 0 1.037-.223 1.952-.671 2.745-.447.793-1.095 1.411-1.944 1.853-.844.442-1.866.664-3.065.664H340.4v-2.646h3.393c.635 0 1.159-.11 1.571-.328.416-.224.727-.531.93-.923.208-.396.312-.851.312-1.365 0-.518-.104-.971-.312-1.357a2.088 2.088 0 00-.93-.907c-.417-.219-.946-.328-1.586-.328h-2.227v12.917h-3.302zm13.903-15.617h4.072l4.3 10.493h.183l4.301-10.493h4.072v15.617h-3.203v-10.165h-.129l-4.042 10.088h-2.181l-4.041-10.126h-.13v10.203h-3.202v-15.617zm-162.657 31.468h-3.339a3.275 3.275 0 00-.374-1.152c-.188-.34-.43-.63-.724-.869a3.191 3.191 0 00-1.022-.549 3.916 3.916 0 00-1.243-.191c-.808 0-1.513.201-2.112.603-.6.396-1.065.976-1.396 1.738-.33.758-.495 1.678-.495 2.761 0 1.113.165 2.048.495 2.806.336.757.803 1.329 1.403 1.715.6.387 1.294.58 2.082.58.442 0 .851-.059 1.228-.176a3.244 3.244 0 001.014-.51c.295-.229.539-.506.732-.832.198-.325.335-.696.412-1.113l3.339.015a6.024 6.024 0 01-.648 2.074c-.34.661-.8 1.253-1.38 1.777a6.484 6.484 0 01-2.059 1.235c-.793.3-1.69.45-2.691.45-1.393 0-2.639-.315-3.737-.945-1.093-.631-1.957-1.543-2.592-2.738-.631-1.194-.946-2.641-.946-4.338 0-1.703.32-3.152.961-4.347.64-1.194 1.51-2.104 2.608-2.73 1.098-.63 2.333-.945 3.706-.945.904 0 1.743.127 2.516.381a6.374 6.374 0 012.066 1.113 5.73 5.73 0 011.464 1.777c.382.702.626 1.505.732 2.41zm2.368 10.149v-15.617h10.523v2.723h-7.221v3.721h6.679v2.722h-6.679v3.729h7.251v2.722h-10.553zm12.553-12.894v-2.723h12.825v2.723h-4.781v12.894h-3.263V478.66h-4.781z" fill="#59606B"/><g filter="url(#filter1_d_4_166)"><rect x="161" y="469.999" width="290" height="167" rx="18.49" fill="#F7F5F2"/><path d="M196.159 533.801h-2.505a2.45 2.45 0 00-.28-.863 2.206 2.206 0 00-.544-.652 2.383 2.383 0 00-.766-.412 2.941 2.941 0 00-.932-.143c-.606 0-1.135.151-1.584.452-.45.297-.799.732-1.047 1.304-.248.568-.372 1.258-.372 2.07 0 .835.124 1.536.372 2.104.252.569.602.997 1.052 1.287.45.29.971.435 1.562.435.331 0 .638-.044.92-.132a2.4 2.4 0 00.761-.383c.221-.171.404-.379.549-.623.149-.244.252-.523.309-.835l2.505.011a4.544 4.544 0 01-.486 1.556c-.256.495-.601.94-1.036 1.332-.43.389-.945.698-1.544.927-.594.225-1.267.337-2.018.337-1.045 0-1.979-.236-2.803-.709-.819-.473-1.468-1.157-1.944-2.053-.473-.896-.709-1.981-.709-3.254 0-1.277.24-2.364.72-3.26.481-.896 1.133-1.578 1.956-2.047.824-.473 1.75-.709 2.78-.709a6 6 0 011.887.286c.583.19 1.1.469 1.55.835.449.362.815.806 1.098 1.332.286.526.469 1.129.549 1.807zm5.733 7.784c-.904 0-1.682-.183-2.333-.549a3.764 3.764 0 01-1.499-1.567c-.351-.679-.526-1.482-.526-2.408 0-.904.175-1.697.526-2.379a3.904 3.904 0 011.481-1.596c.641-.381 1.392-.571 2.254-.571.579 0 1.119.093 1.618.28.503.183.942.459 1.315.829.378.37.671.835.881 1.395.21.557.315 1.209.315 1.956v.669h-7.418v-1.509h5.124c0-.351-.076-.662-.228-.933a1.646 1.646 0 00-.635-.634 1.805 1.805 0 00-.932-.235c-.37 0-.698.086-.984.257a1.806 1.806 0 00-.663.681 1.905 1.905 0 00-.246.944v1.435c0 .435.08.81.24 1.127.164.316.394.56.692.732.297.171.65.257 1.058.257.271 0 .518-.038.743-.114a1.56 1.56 0 00.578-.343c.16-.153.282-.34.366-.561l2.253.149a3.078 3.078 0 01-.703 1.418c-.351.4-.805.713-1.361.938-.553.221-1.192.332-1.916.332zm10.294-8.956v1.83h-5.29v-1.83h5.29zm-4.089-2.105h2.436v8.19c0 .225.034.4.103.526a.566.566 0 00.286.257c.126.05.271.075.435.075.114 0 .228-.01.343-.029l.263-.051.383 1.812a6.638 6.638 0 01-.515.132c-.221.053-.49.086-.806.097-.587.023-1.102-.055-1.544-.234a2.155 2.155 0 01-1.024-.835c-.244-.378-.364-.854-.36-1.43v-8.51zm9.941 5.033c0-1.418.188-2.724.566-3.917a10.82 10.82 0 011.744-3.317h2.328a7.061 7.061 0 00-.83 1.384 12.418 12.418 0 00-.669 1.784 15.59 15.59 0 00-.446 2.013c-.107.69-.16 1.374-.16 2.053 0 .904.092 1.817.275 2.739.186.919.438 1.773.755 2.562.32.79.678 1.436 1.075 1.939h-2.328a10.83 10.83 0 01-1.744-3.317c-.378-1.193-.566-2.501-.566-3.923zm16.431-1.756h-2.504a2.45 2.45 0 00-.281-.863 2.188 2.188 0 00-.543-.652 2.394 2.394 0 00-.766-.412 2.941 2.941 0 00-.932-.143c-.607 0-1.135.151-1.585.452-.449.297-.798.732-1.046 1.304-.248.568-.372 1.258-.372 2.07 0 .835.124 1.536.372 2.104.251.569.602.997 1.052 1.287.45.29.97.435 1.561.435.332 0 .639-.044.921-.132a2.4 2.4 0 00.761-.383c.221-.171.404-.379.549-.623.148-.244.251-.523.309-.835l2.504.011a4.501 4.501 0 01-.486 1.556c-.255.495-.6.94-1.035 1.332a4.873 4.873 0 01-1.544.927c-.595.225-1.268.337-2.019.337-1.044 0-1.978-.236-2.802-.709-.82-.473-1.468-1.157-1.944-2.053-.473-.896-.709-1.981-.709-3.254 0-1.277.24-2.364.72-3.26.481-.896 1.132-1.578 1.956-2.047.823-.473 1.75-.709 2.779-.709.679 0 1.308.095 1.888.286.583.19 1.1.469 1.549.835.45.362.816.806 1.098 1.332.286.526.469 1.129.549 1.807zm5.734 7.784c-.904 0-1.682-.183-2.334-.549a3.768 3.768 0 01-1.498-1.567c-.351-.679-.526-1.482-.526-2.408 0-.904.175-1.697.526-2.379a3.897 3.897 0 011.481-1.596c.641-.381 1.392-.571 2.253-.571.58 0 1.119.093 1.619.28.503.183.942.459 1.315.829.378.37.671.835.881 1.395.21.557.314 1.209.314 1.956v.669h-7.417v-1.509h5.124c0-.351-.076-.662-.229-.933a1.637 1.637 0 00-.634-.634 1.806 1.806 0 00-.933-.235 1.88 1.88 0 00-.983.257 1.816 1.816 0 00-.664.681c-.16.282-.242.597-.246.944v1.435c0 .435.081.81.241 1.127.164.316.394.56.692.732.297.171.65.257 1.058.257.27 0 .518-.038.743-.114a1.56 1.56 0 00.578-.343c.16-.153.282-.34.366-.561l2.253.149a3.078 3.078 0 01-.703 1.418c-.351.4-.805.713-1.362.938-.552.221-1.191.332-1.915.332zm8.058-5.25v5.078h-2.437v-8.784h2.322v1.55h.103a2.46 2.46 0 01.978-1.213c.458-.301 1.012-.451 1.664-.451.61 0 1.142.133 1.596.4.453.267.806.648 1.058 1.144.251.491.377 1.079.377 1.761v5.593h-2.436v-5.158c.004-.538-.133-.957-.412-1.259-.278-.305-.661-.457-1.149-.457-.328 0-.618.071-.87.212a1.48 1.48 0 00-.583.617c-.137.267-.208.589-.211.967zm12.254-3.706v1.83h-5.29v-1.83h5.29zm-4.089-2.105h2.436v8.19c0 .225.034.4.103.526a.562.562 0 00.286.257c.126.05.271.075.434.075.115 0 .229-.01.344-.029l.263-.051.383 1.812a6.638 6.638 0 01-.515.132c-.221.053-.49.086-.806.097-.587.023-1.102-.055-1.544-.234a2.155 2.155 0 01-1.024-.835c-.244-.378-.364-.854-.36-1.43v-8.51zm5.676 10.889v-8.784h2.362v1.533h.091c.16-.546.429-.957.806-1.236a2.123 2.123 0 011.304-.423c.122 0 .254.008.395.023.141.015.265.036.372.063v2.162a3.149 3.149 0 00-.475-.092 4.21 4.21 0 00-.555-.04c-.358 0-.678.078-.961.235a1.727 1.727 0 00-.663.64c-.16.275-.24.591-.24.949v4.97h-2.436zm8.842.166c-.56 0-1.059-.097-1.498-.292a2.417 2.417 0 01-1.041-.875c-.251-.389-.377-.873-.377-1.452 0-.488.089-.898.269-1.23a2.18 2.18 0 01.732-.801 3.539 3.539 0 011.052-.457 8.007 8.007 0 011.247-.217 32.24 32.24 0 001.235-.149c.313-.05.539-.122.68-.217a.478.478 0 00.212-.424v-.034c0-.362-.114-.642-.343-.841-.225-.198-.545-.297-.961-.297-.438 0-.787.097-1.046.292-.26.19-.431.431-.515.72l-2.253-.183c.114-.533.339-.995.675-1.384a3.233 3.233 0 011.298-.903c.533-.214 1.151-.32 1.853-.32.488 0 .955.057 1.401.171.45.114.848.292 1.195.532.351.24.627.549.829.926.202.374.303.822.303 1.344v5.925h-2.31v-1.218h-.069a2.48 2.48 0 01-.566.726c-.236.206-.52.368-.852.486a3.508 3.508 0 01-1.15.172zm.698-1.681c.359 0 .675-.071.95-.212a1.69 1.69 0 00.646-.583c.156-.244.234-.521.234-.83v-.932c-.076.05-.181.096-.314.137-.13.039-.277.075-.441.109-.164.031-.328.059-.491.086l-.447.063a3.055 3.055 0 00-.749.2 1.197 1.197 0 00-.497.372.906.906 0 00-.178.572c0 .331.121.585.361.76.244.172.553.258.926.258zm8.576-10.197v11.712h-2.437v-11.712h2.437zm5.724 11.712v-11.712h7.892v2.041h-5.415v2.791h5.009v2.042h-5.009v2.796h5.438v2.042h-7.915zm15.448-3.74v-5.044h2.437v8.784h-2.339v-1.595h-.092a2.598 2.598 0 01-.989 1.241c-.458.312-1.016.468-1.676.468-.587 0-1.104-.133-1.55-.4a2.747 2.747 0 01-1.046-1.138c-.248-.492-.374-1.081-.378-1.767v-5.593h2.437v5.158c.003.519.143.929.417 1.23.275.301.642.452 1.104.452.293 0 .568-.067.823-.2.256-.138.462-.34.618-.607.16-.267.238-.596.234-.989zm4.385 3.74v-8.784h2.362v1.533h.092c.16-.546.429-.957.806-1.236a2.121 2.121 0 011.304-.423c.122 0 .254.008.395.023.141.015.265.036.371.063v2.162a3.106 3.106 0 00-.474-.092 4.21 4.21 0 00-.555-.04c-.358 0-.679.078-.961.235a1.727 1.727 0 00-.663.64c-.16.275-.24.591-.24.949v4.97h-2.437zm10.15.172c-.888 0-1.657-.189-2.305-.567a3.87 3.87 0 01-1.492-1.589c-.351-.683-.527-1.474-.527-2.374 0-.907.176-1.7.527-2.379a3.83 3.83 0 011.492-1.59c.648-.381 1.417-.571 2.305-.571.888 0 1.655.19 2.299.571a3.82 3.82 0 011.498 1.59c.351.679.526 1.472.526 2.379 0 .9-.175 1.691-.526 2.374a3.859 3.859 0 01-1.498 1.589c-.644.378-1.411.567-2.299.567zm.011-1.888c.405 0 .742-.114 1.013-.343.27-.232.474-.549.612-.949a4.1 4.1 0 00.211-1.367c0-.511-.07-.966-.211-1.367-.138-.4-.342-.716-.612-.949-.271-.233-.608-.349-1.013-.349-.408 0-.751.116-1.029.349-.275.233-.482.549-.623.949a4.187 4.187 0 00-.206 1.367c0 .511.068.967.206 1.367.141.4.348.717.623.949.278.229.621.343 1.029.343zm5.897 5.01v-12.078h2.401v1.475h.109c.107-.236.261-.476.463-.72.206-.248.473-.454.801-.618.332-.168.743-.251 1.235-.251.641 0 1.232.167 1.773.503.542.331.974.833 1.298 1.504.324.667.486 1.504.486 2.51 0 .98-.158 1.808-.474 2.482-.313.671-.74 1.18-1.281 1.527a3.29 3.29 0 01-1.807.515c-.473 0-.875-.078-1.207-.234a2.5 2.5 0 01-.806-.589 3.017 3.017 0 01-.481-.727h-.074v4.701h-2.436zm2.384-7.686c0 .522.073.978.218 1.367.145.389.354.692.629.909.274.214.608.32 1.001.32.396 0 .732-.108 1.006-.326.275-.221.482-.526.623-.915.145-.392.218-.844.218-1.355 0-.507-.071-.953-.212-1.338-.141-.385-.349-.687-.623-.904-.275-.217-.612-.326-1.012-.326-.397 0-.732.105-1.007.315-.271.209-.478.507-.623.892-.145.385-.218.839-.218 1.361zm11.81 4.564c-.904 0-1.682-.183-2.333-.549a3.764 3.764 0 01-1.499-1.567c-.351-.679-.526-1.482-.526-2.408 0-.904.175-1.697.526-2.379a3.904 3.904 0 011.481-1.596c.641-.381 1.392-.571 2.254-.571.579 0 1.119.093 1.618.28.503.183.942.459 1.315.829.378.37.671.835.881 1.395.21.557.315 1.209.315 1.956v.669h-7.418v-1.509h5.124c0-.351-.076-.662-.228-.933a1.64 1.64 0 00-.635-.634 1.805 1.805 0 00-.932-.235c-.37 0-.698.086-.984.257a1.806 1.806 0 00-.663.681 1.916 1.916 0 00-.246.944v1.435c0 .435.08.81.24 1.127.164.316.394.56.692.732.297.171.65.257 1.058.257.271 0 .518-.038.743-.114a1.56 1.56 0 00.578-.343c.16-.153.282-.34.366-.561l2.253.149a3.078 3.078 0 01-.703 1.418c-.351.4-.805.713-1.361.938-.553.221-1.192.332-1.916.332zm8.126-.006c-.56 0-1.06-.097-1.498-.292a2.417 2.417 0 01-1.041-.875c-.251-.389-.377-.873-.377-1.452 0-.488.089-.898.269-1.23a2.18 2.18 0 01.732-.801 3.539 3.539 0 011.052-.457 8.007 8.007 0 011.247-.217c.51-.054.922-.103 1.235-.149.312-.05.539-.122.68-.217a.48.48 0 00.212-.424v-.034c0-.362-.114-.642-.343-.841-.225-.198-.545-.297-.961-.297-.438 0-.787.097-1.046.292-.26.19-.431.431-.515.72l-2.253-.183c.114-.533.339-.995.674-1.384a3.243 3.243 0 011.299-.903c.533-.214 1.151-.32 1.853-.32.488 0 .955.057 1.401.171.45.114.848.292 1.195.532.351.24.627.549.829.926.202.374.303.822.303 1.344v5.925h-2.31v-1.218h-.069a2.48 2.48 0 01-.566.726c-.236.206-.52.368-.852.486a3.508 3.508 0 01-1.15.172zm.698-1.681c.358 0 .675-.071.949-.212.275-.145.49-.339.647-.583.156-.244.234-.521.234-.83v-.932c-.076.05-.181.096-.314.137-.13.039-.277.075-.441.109-.164.031-.328.059-.492.086l-.446.063a3.042 3.042 0 00-.749.2 1.197 1.197 0 00-.497.372.9.9 0 00-.178.572c0 .331.12.585.361.76.244.172.552.258.926.258zm8.576-3.563v5.078h-2.437v-8.784h2.322v1.55h.103a2.46 2.46 0 01.978-1.213c.458-.301 1.012-.451 1.664-.451.61 0 1.142.133 1.596.4a2.72 2.72 0 011.058 1.144c.251.491.377 1.079.377 1.761v5.593h-2.436v-5.158c.004-.538-.133-.957-.412-1.259-.278-.305-.661-.457-1.149-.457-.328 0-.618.071-.87.212a1.48 1.48 0 00-.583.617c-.137.267-.208.589-.211.967zm10.908-4.593v-2.041h9.619v2.041h-3.585v9.671h-2.448v-9.671h-3.586zm11.158 9.671v-8.784h2.436v8.784h-2.436zm1.224-9.916c-.362 0-.673-.121-.932-.361a1.166 1.166 0 01-.384-.875c0-.335.128-.623.384-.863.259-.244.57-.366.932-.366.362 0 .671.122.926.366.259.24.389.528.389.863 0 .34-.13.631-.389.875-.255.24-.564.361-.926.361zm3.164 9.916v-8.784h2.322v1.55h.102a2.44 2.44 0 01.916-1.218c.427-.298.937-.446 1.532-.446.603 0 1.115.15 1.539.451.423.298.705.702.846 1.213h.091a2.34 2.34 0 01.973-1.207c.472-.305 1.031-.457 1.675-.457.82 0 1.485.261 1.996.783.515.518.772 1.254.772 2.207v5.908h-2.43v-5.427c0-.488-.13-.854-.389-1.098-.259-.244-.583-.366-.972-.366-.443 0-.788.141-1.035.423-.248.278-.372.646-.372 1.104v5.364h-2.362v-5.479c0-.43-.124-.774-.372-1.029-.244-.255-.566-.383-.966-.383-.271 0-.515.068-.732.206a1.401 1.401 0 00-.509.566c-.126.24-.189.522-.189.846v5.273h-2.436zm18.692.172c-.904 0-1.681-.183-2.333-.549a3.764 3.764 0 01-1.499-1.567c-.351-.679-.526-1.482-.526-2.408 0-.904.175-1.697.526-2.379a3.904 3.904 0 011.481-1.596c.641-.381 1.392-.571 2.254-.571.579 0 1.119.093 1.618.28.503.183.942.459 1.315.829.378.37.671.835.881 1.395.21.557.315 1.209.315 1.956v.669h-7.418v-1.509h5.124c0-.351-.076-.662-.228-.933a1.64 1.64 0 00-.635-.634 1.805 1.805 0 00-.932-.235c-.37 0-.698.086-.984.257a1.806 1.806 0 00-.663.681c-.16.282-.242.597-.246.944v1.435c0 .435.08.81.24 1.127.164.316.395.56.692.732.297.171.65.257 1.058.257.271 0 .518-.038.743-.114a1.56 1.56 0 00.578-.343c.16-.153.282-.34.366-.561l2.253.149a3.078 3.078 0 01-.703 1.418c-.351.4-.805.713-1.361.938-.553.221-1.192.332-1.916.332zm9.728-4.867c0 1.422-.191 2.73-.572 3.923a10.73 10.73 0 01-1.739 3.317h-2.327a7.14 7.14 0 00.829-1.384c.255-.545.478-1.14.669-1.784.191-.648.339-1.319.446-2.013.107-.694.16-1.38.16-2.059 0-.904-.093-1.815-.28-2.734a14.022 14.022 0 00-.755-2.562c-.316-.789-.673-1.435-1.069-1.939h2.327a10.73 10.73 0 011.739 3.317c.381 1.194.572 2.5.572 3.918zm-215.82 73.415c-.061-.541-.312-.961-.755-1.258-.442-.301-.998-.452-1.669-.452-.481 0-.896.076-1.247.229a1.924 1.924 0 00-.818.617c-.191.26-.286.555-.286.887 0 .278.065.518.195.72.133.203.306.372.52.509.217.134.45.246.698.338.247.088.486.16.715.217l1.143.298c.374.091.757.215 1.15.371a4.63 4.63 0 011.092.618c.336.255.606.572.812.949.21.378.315.83.315 1.356 0 .663-.172 1.252-.515 1.767-.339.515-.833.921-1.481 1.218-.644.297-1.424.446-2.339.446-.877 0-1.636-.139-2.276-.417-.641-.279-1.142-.673-1.504-1.184-.363-.515-.563-1.125-.601-1.83h1.773c.034.423.172.776.412 1.058.244.278.555.486.932.623.381.133.799.2 1.252.2.5 0 .944-.078 1.333-.234a2.23 2.23 0 00.926-.664 1.57 1.57 0 00.338-1c0-.347-.099-.631-.298-.853a2.192 2.192 0 00-.795-.549 7.909 7.909 0 00-1.126-.383l-1.384-.377c-.938-.256-1.681-.631-2.231-1.127-.545-.495-.817-1.151-.817-1.967 0-.675.183-1.264.549-1.767.366-.504.861-.894 1.487-1.173.625-.282 1.33-.423 2.116-.423.793 0 1.492.139 2.098.418.61.278 1.091.661 1.442 1.149.35.484.533 1.041.549 1.67h-1.705zm3.976 8.636v-11.713h7.343v1.522h-5.575v3.568h5.192v1.516h-5.192v3.585h5.644v1.522h-7.412zm9.704 0v-11.713h7.343v1.522h-5.576v3.568h5.193v1.516h-5.193v3.585h5.645v1.522h-7.412zm13.965-11.713h2.145l3.729 9.105h.137l3.729-9.105h2.144v11.713h-1.681v-8.476h-.109l-3.454 8.458h-1.395l-3.455-8.464h-.108v8.482h-1.682v-11.713zm24.627 5.856c0 1.251-.228 2.326-.686 3.226-.457.896-1.085 1.586-1.881 2.07-.793.48-1.695.721-2.705.721-1.015 0-1.92-.241-2.717-.721-.793-.484-1.418-1.176-1.876-2.076-.457-.9-.686-1.973-.686-3.22 0-1.25.229-2.323.686-3.219.458-.9 1.083-1.59 1.876-2.071.797-.484 1.702-.726 2.717-.726 1.01 0 1.912.242 2.705.726.796.481 1.424 1.171 1.881 2.071.458.896.686 1.969.686 3.219zm-1.75 0c0-.953-.154-1.755-.463-2.407-.305-.656-.724-1.152-1.258-1.487a3.27 3.27 0 00-1.801-.509c-.675 0-1.278.17-1.808.509-.53.335-.949.831-1.258 1.487-.305.652-.457 1.454-.457 2.407 0 .954.152 1.758.457 2.414.309.652.728 1.147 1.258 1.487.53.335 1.133.503 1.808.503.671 0 1.271-.168 1.801-.503.534-.34.953-.835 1.258-1.487.309-.656.463-1.46.463-2.414zm3.954 5.857v-11.713h4.174c.908 0 1.661.157 2.259.469.603.313 1.053.746 1.35 1.298.297.549.446 1.184.446 1.905 0 .717-.15 1.348-.452 1.893-.297.541-.747.962-1.349 1.264-.599.301-1.352.451-2.259.451h-3.163v-1.521h3.003c.571 0 1.037-.082 1.395-.246.362-.164.627-.402.795-.715.168-.312.252-.688.252-1.126 0-.442-.086-.826-.258-1.15a1.66 1.66 0 00-.795-.743c-.358-.176-.829-.263-1.412-.263h-2.219v10.197h-1.767zm5.781-5.285l2.894 5.285h-2.013l-2.836-5.285h1.955zm4.598 5.285v-11.713h7.343v1.522h-5.575v3.568h5.192v1.516h-5.192v3.585h5.644v1.522h-7.412zm13.388-10.191v-1.522h9.065v1.522h-3.655v10.191h-1.761v-10.191h-3.649zm12.835-1.522v11.713h-1.767v-11.713h1.767zm2.573 0h2.145l3.729 9.105h.137l3.729-9.105h2.144v11.713h-1.681v-8.476h-.109l-3.454 8.458h-1.395l-3.455-8.464h-.108v8.482h-1.682v-11.713zm14.453 11.713v-11.713h7.344v1.522h-5.576v3.568h5.192v1.516h-5.192v3.585h5.644v1.522h-7.412zm13.663 0v-1.179l6.159-9.012h-6.211v-1.522h8.373v1.178l-6.159 9.013h6.21v1.522h-8.372zm20.212-5.857c0 1.251-.229 2.326-.686 3.226-.458.896-1.085 1.586-1.882 2.07-.793.48-1.695.721-2.705.721-1.014 0-1.92-.241-2.716-.721-.793-.484-1.419-1.176-1.876-2.076-.458-.9-.686-1.973-.686-3.22 0-1.25.228-2.323.686-3.219.457-.9 1.083-1.59 1.876-2.071.796-.484 1.702-.726 2.716-.726 1.01 0 1.912.242 2.705.726.797.481 1.424 1.171 1.882 2.071.457.896.686 1.969.686 3.219zm-1.75 0c0-.953-.155-1.755-.463-2.407-.305-.656-.725-1.152-1.258-1.487a3.273 3.273 0 00-1.802-.509 3.28 3.28 0 00-1.807.509c-.53.335-.949.831-1.258 1.487-.305.652-.458 1.454-.458 2.407 0 .954.153 1.758.458 2.414.309.652.728 1.147 1.258 1.487a3.31 3.31 0 001.807.503c.671 0 1.272-.168 1.802-.503.533-.34.953-.835 1.258-1.487.308-.656.463-1.46.463-2.414zm13.406-5.856v11.713h-1.624l-5.953-8.59h-.109v8.59h-1.767v-11.713h1.636l5.959 8.601h.108v-8.601h1.75zm2.578 11.713v-11.713h7.343v1.522h-5.576v3.568h5.193v1.516h-5.193v3.585h5.645v1.522h-7.412zm16.092-8.636a1.671 1.671 0 00-.755-1.258c-.442-.301-.999-.452-1.67-.452-.481 0-.896.076-1.247.229a1.924 1.924 0 00-.818.617c-.19.26-.286.555-.286.887 0 .278.065.518.195.72.133.203.307.372.52.509.218.134.45.246.698.338.248.088.486.16.715.217l1.144.298c.373.091.756.215 1.149.371a4.63 4.63 0 011.092.618c.336.255.607.572.813.949.209.378.314.83.314 1.356 0 .663-.172 1.252-.515 1.767-.339.515-.833.921-1.481 1.218-.644.297-1.424.446-2.339.446-.877 0-1.635-.139-2.276-.417-.64-.279-1.142-.673-1.504-1.184-.362-.515-.562-1.125-.601-1.83h1.773c.035.423.172.776.412 1.058.244.278.555.486.932.623.382.133.799.2 1.253.2.499 0 .943-.078 1.332-.234.393-.16.702-.382.927-.664a1.57 1.57 0 00.337-1c0-.347-.099-.631-.297-.853a2.21 2.21 0 00-.795-.549 7.924 7.924 0 00-1.127-.383l-1.384-.377c-.938-.256-1.681-.631-2.23-1.127-.545-.495-.818-1.151-.818-1.967 0-.675.183-1.264.549-1.767.366-.504.862-.894 1.487-1.173.625-.282 1.331-.423 2.116-.423.793 0 1.493.139 2.099.418.61.278 1.09.661 1.441 1.149.351.484.534 1.041.549 1.67h-1.704z" fill="#6A6A6A"/><path d="M193.762 554.953v17.352h-3.669v-13.87h-.101l-3.974 2.491v-3.253l4.296-2.72h3.448zm11.673 0v17.352h-3.669v-13.87h-.101l-3.974 2.491v-3.253l4.296-2.72h3.448zm6.267 15.335a1.976 1.976 0 01-1.44-.593 1.96 1.96 0 01-.593-1.44c0-.554.198-1.028.593-1.423a1.977 1.977 0 011.44-.594c.543 0 1.017.198 1.424.594.406.395.61.869.61 1.423 0 .373-.096.714-.288 1.025a2.192 2.192 0 01-.737.737 1.942 1.942 0 01-1.009.271zm0-8.515a1.976 1.976 0 01-1.44-.593 1.96 1.96 0 01-.593-1.44c0-.553.198-1.025.593-1.415a1.98 1.98 0 011.44-.593c.543 0 1.017.198 1.424.593.406.39.61.862.61 1.415 0 .379-.096.723-.288 1.034a2.114 2.114 0 01-.737.728 1.942 1.942 0 01-1.009.271zm11.377 10.769c-1.266 0-2.392-.218-3.381-.652-.983-.441-1.759-1.045-2.33-1.814-.565-.773-.855-1.666-.872-2.677h3.694c.022.424.161.797.415 1.119.26.316.604.562 1.033.737.43.175.913.262 1.449.262.559 0 1.054-.099 1.483-.296a2.438 2.438 0 001.008-.822c.243-.35.364-.754.364-1.212 0-.463-.13-.872-.389-1.228-.255-.362-.622-.644-1.102-.847-.474-.204-1.039-.305-1.694-.305h-1.618v-2.695h1.618c.553 0 1.042-.096 1.465-.288.43-.192.763-.457 1-.796.237-.345.356-.746.356-1.203a2.082 2.082 0 00-1.178-1.923c-.367-.187-.796-.28-1.287-.28-.497 0-.952.09-1.364.271a2.39 2.39 0 00-.992.754 1.99 1.99 0 00-.398 1.152h-3.516c.017-.999.302-1.88.856-2.643.553-.763 1.299-1.358 2.236-1.788.944-.435 2.008-.652 3.195-.652 1.197 0 2.245.217 3.143.652.898.435 1.595 1.023 2.092 1.763.503.734.752 1.559.746 2.474.006.971-.296 1.782-.906 2.431-.605.65-1.393 1.062-2.364 1.237v.136c1.276.163 2.248.607 2.914 1.33.672.717 1.006 1.615 1 2.694a4.233 4.233 0 01-.856 2.635c-.57.768-1.358 1.373-2.364 1.813-1.005.441-2.157.661-3.456.661zm16.116.144c-1.457-.006-2.711-.364-3.761-1.076-1.045-.712-1.85-1.743-2.415-3.092-.559-1.35-.836-2.974-.83-4.872 0-1.892.279-3.505.838-4.838.565-1.333 1.37-2.347 2.415-3.041 1.051-.701 2.302-1.051 3.753-1.051 1.452 0 2.7.35 3.745 1.051 1.051.7 1.858 1.717 2.423 3.05.565 1.327.845 2.937.839 4.829 0 1.903-.282 3.53-.847 4.88-.559 1.35-1.361 2.381-2.406 3.092-1.045.712-2.296 1.068-3.754 1.068zm0-3.042c.994 0 1.788-.5 2.381-1.499.593-1 .887-2.5.881-4.499 0-1.316-.135-2.412-.406-3.287-.266-.876-.644-1.534-1.136-1.975a2.476 2.476 0 00-1.72-.66c-.988 0-1.779.494-2.372 1.482-.593.989-.892 2.469-.898 4.44 0 1.333.133 2.446.398 3.338.271.887.653 1.553 1.144 1.999a2.504 2.504 0 001.728.661zm18.237 2.661h-3.931l5.99-17.352h4.728l5.981 17.352h-3.931l-4.346-13.387h-.136l-4.355 13.387zm-.245-6.821h9.285v2.864h-9.285v-2.864zm15.102-10.531h4.524l4.778 11.658h.204l4.778-11.658h4.524v17.352h-3.558v-11.294h-.144l-4.49 11.209h-2.424l-4.49-11.251h-.144v11.336h-3.558v-17.352zm35.393 7.244v2.864h-7.913v-2.864h7.913zm16.113-7.244v17.352h-3.669v-13.87h-.102l-3.973 2.491v-3.253l4.295-2.72h3.449zm4.124 17.352v-2.644l6.176-5.719a23.32 23.32 0 001.322-1.372c.361-.407.635-.805.821-1.195.187-.395.28-.822.28-1.279 0-.508-.116-.946-.347-1.313a2.285 2.285 0 00-.949-.856 2.979 2.979 0 00-1.364-.305c-.531 0-.994.107-1.39.322-.395.215-.7.522-.915.923-.214.401-.322.879-.322 1.432h-3.482c0-1.135.257-2.121.771-2.957.514-.836 1.234-1.482 2.161-1.94.926-.457 1.993-.686 3.202-.686 1.243 0 2.324.22 3.245.661.926.435 1.647 1.039 2.161 1.813s.771 1.66.771 2.66c0 .655-.13 1.302-.39 1.94-.254.639-.709 1.348-1.364 2.127-.655.774-1.579 1.703-2.771 2.787l-2.533 2.483v.118h7.286v3h-12.369zm17.171-2.017a1.976 1.976 0 01-1.44-.593 1.957 1.957 0 01-.593-1.44c0-.554.197-1.028.593-1.423a1.977 1.977 0 011.44-.594c.542 0 1.017.198 1.423.594.407.395.61.869.61 1.423 0 .373-.096.714-.288 1.025a2.183 2.183 0 01-.737.737 1.938 1.938 0 01-1.008.271zm0-8.515a1.976 1.976 0 01-1.44-.593 1.957 1.957 0 01-.593-1.44c0-.553.197-1.025.593-1.415a1.98 1.98 0 011.44-.593c.542 0 1.017.198 1.423.593.407.39.61.862.61 1.415 0 .379-.096.723-.288 1.034a2.105 2.105 0 01-.737.728 1.938 1.938 0 01-1.008.271zm11.376 10.769c-1.265 0-2.392-.218-3.38-.652-.983-.441-1.76-1.045-2.33-1.814-.565-.773-.856-1.666-.873-2.677h3.694c.023.424.161.797.415 1.119.26.316.605.562 1.034.737.429.175.912.262 1.449.262.559 0 1.053-.099 1.483-.296a2.438 2.438 0 001.008-.822c.243-.35.364-.754.364-1.212 0-.463-.13-.872-.39-1.228-.254-.362-.621-.644-1.101-.847-.475-.204-1.039-.305-1.695-.305h-1.618v-2.695h1.618c.554 0 1.043-.096 1.466-.288.429-.192.763-.457 1-.796.237-.345.356-.746.356-1.203 0-.435-.105-.816-.314-1.144a2.064 2.064 0 00-.864-.779c-.367-.187-.796-.28-1.288-.28-.497 0-.951.09-1.364.271a2.387 2.387 0 00-.991.754 1.983 1.983 0 00-.398 1.152h-3.516c.017-.999.302-1.88.855-2.643.554-.763 1.3-1.358 2.237-1.788.943-.435 2.008-.652 3.194-.652 1.198 0 2.245.217 3.143.652.899.435 1.596 1.023 2.093 1.763.503.734.751 1.559.746 2.474.005.971-.297 1.782-.907 2.431-.604.65-1.392 1.062-2.364 1.237v.136c1.277.163 2.248.607 2.915 1.33.672.717 1.005 1.615 1 2.694.005.988-.28 1.867-.856 2.635-.571.768-1.358 1.373-2.364 1.813-1.005.441-2.158.661-3.457.661zm16.117.144c-1.457-.006-2.711-.364-3.762-1.076-1.045-.712-1.85-1.743-2.414-3.092-.56-1.35-.836-2.974-.831-4.872 0-1.892.28-3.505.839-4.838.565-1.333 1.37-2.347 2.415-3.041 1.05-.701 2.301-1.051 3.753-1.051s2.7.35 3.745 1.051c1.05.7 1.858 1.717 2.423 3.05.565 1.327.844 2.937.839 4.829 0 1.903-.283 3.53-.847 4.88-.56 1.35-1.362 2.381-2.407 3.092-1.045.712-2.296 1.068-3.753 1.068zm0-3.042c.994 0 1.788-.5 2.381-1.499.593-1 .887-2.5.881-4.499 0-1.316-.136-2.412-.407-3.287-.265-.876-.644-1.534-1.135-1.975a2.478 2.478 0 00-1.72-.66c-.988 0-1.779.494-2.372 1.482-.593.989-.893 2.469-.898 4.44 0 1.333.132 2.446.398 3.338.271.887.652 1.553 1.144 1.999a2.503 2.503 0 001.728.661zm15.246 2.661v-17.352h6.846c1.316 0 2.437.252 3.363.754.927.497 1.633 1.189 2.119 2.076.491.881.737 1.898.737 3.05s-.249 2.169-.746 3.05c-.497.881-1.217 1.567-2.16 2.059-.938.491-2.073.737-3.406.737h-4.364v-2.94h3.771c.706 0 1.287-.121 1.745-.364.463-.249.808-.59 1.034-1.025.231-.441.347-.946.347-1.517 0-.576-.116-1.079-.347-1.508a2.32 2.32 0 00-1.034-1.008c-.463-.243-1.051-.365-1.762-.365h-2.474v14.353h-3.669zm15.448-17.352h4.524l4.778 11.658h.204l4.778-11.658h4.524v17.352h-3.558v-11.294h-.144l-4.491 11.209h-2.423l-4.49-11.251h-.144v11.336h-3.558v-17.352z" fill="#2D2A21"/><path fill="#DFDFDF" d="M161 586.999h290v1H161z"/></g><rect x="185.565" y="488.564" width="88.871" height="25.974" rx="12.987" fill="#fff"/><g clip-path="url(#clip3_4_166)"><path d="M198.55 492.375a9.177 9.177 0 00-6.488 15.663 9.177 9.177 0 0010 1.989 9.17 9.17 0 002.973-14.962 9.186 9.186 0 00-6.485-2.69zm4.37 7.569l-5.176 4.94a.705.705 0 01-.976 0l-2.588-2.47a.707.707 0 01.976-1.022l2.1 2.006 4.688-4.476a.706.706 0 01.976 1.022z" fill="#174EA6"/></g><path d="M212.994 497.176h2.003l2.682 6.546h.106l2.682-6.546h2.003v9.034h-1.571v-6.207h-.084l-2.496 6.181h-1.174l-2.497-6.194h-.083v6.22h-1.571v-9.034zm12.18 11.575c-.218 0-.419-.018-.605-.053a2.152 2.152 0 01-.436-.115l.37-1.244c.233.068.44.1.622.097a.755.755 0 00.481-.172c.141-.108.26-.291.357-.547l.137-.366-2.457-6.917h1.694l1.562 5.117h.07l1.566-5.117h1.699l-2.713 7.597a3.062 3.062 0 01-.503.922 2.061 2.061 0 01-.768.591c-.3.138-.659.207-1.076.207zm8.919-10.203v-1.372h7.209v1.372h-2.793v7.662h-1.623v-7.662h-2.793zm8.528 7.662v-6.776h1.596v6.776h-1.596zm.802-7.737a.932.932 0 01-.653-.252.81.81 0 01-.273-.613c0-.241.091-.445.273-.613a.922.922 0 01.653-.256.91.91 0 01.653.256.8.8 0 01.274.613.808.808 0 01-.274.613.92.92 0 01-.653.252zm2.437 7.737v-6.776h1.526v1.152h.079c.141-.388.375-.691.702-.909.326-.221.716-.331 1.169-.331.458 0 .845.112 1.16.335.317.221.541.522.67.905h.071c.15-.377.403-.677.759-.9.358-.227.783-.34 1.275-.34.623 0 1.132.197 1.526.591.394.394.591.969.591 1.725v4.548h-1.601v-4.301c0-.42-.112-.728-.336-.922a1.195 1.195 0 00-.82-.295c-.385 0-.687.12-.904.361-.215.239-.322.549-.322.931v4.226h-1.566v-4.367c0-.35-.106-.629-.318-.838-.209-.209-.482-.313-.821-.313-.229 0-.438.058-.626.176a1.236 1.236 0 00-.45.49 1.527 1.527 0 00-.168.732v4.12h-1.596zm14.148.132c-.68 0-1.266-.141-1.76-.423a2.862 2.862 0 01-1.134-1.209c-.265-.523-.397-1.139-.397-1.848 0-.697.132-1.309.397-1.835a3 3 0 011.12-1.235c.48-.297 1.043-.446 1.69-.446.417 0 .812.068 1.182.203.374.132.703.338.988.618a2.9 2.9 0 01.68 1.067c.164.43.247.941.247 1.535v.49h-5.554v-1.076h4.023a1.71 1.71 0 00-.199-.816 1.443 1.443 0 00-.542-.57 1.529 1.529 0 00-.803-.207c-.327 0-.613.08-.86.238-.247.156-.44.362-.578.618a1.783 1.783 0 00-.208.834v.939c0 .394.073.733.217 1.015.144.279.345.494.604.644.259.147.562.22.909.22.232 0 .442-.032.631-.097.188-.067.351-.166.489-.295.138-.13.243-.29.313-.481l1.491.168a2.319 2.319 0 01-.538 1.032 2.61 2.61 0 01-1.006.679c-.408.159-.876.238-1.402.238z" fill="#2D2A21"/><rect x="185.565" y="488.564" width="88.871" height="25.974" rx="12.987" stroke="#E8D296" stroke-width="1.129"/></g></g><defs><clipPath id="clip0_4_166"><rect width="327" height="665" rx="30" fill="#fff"/></clipPath><clipPath id="clip1_4_166"><path fill="#fff" transform="translate(0 465)" d="M0 0h375v210H0z"/></clipPath><clipPath id="clip2_4_166"><path fill="#fff" transform="translate(48 229)" d="M0 0h379v446H0z"/></clipPath><clipPath id="clip3_4_166"><path fill="#fff" transform="translate(187.259 490.258)" d="M0 0h22.586v22.586H0z"/></clipPath><filter id="filter0_d_4_166" x="48" y="228.512" width="791.113" height="503.993" filterUnits="userSpaceOnUse" color-interpolation-filters="sRGB"><feFlood flood-opacity="0" result="BackgroundImageFix"/><feColorMatrix in="SourceAlpha" values="0 0 0 0 0 0 0 0 0 0 0 0 0 0 0 0 0 0 127 0" result="hardAlpha"/><feOffset dx="8" dy="12"/><feComposite in2="hardAlpha" operator="out"/><feColorMatrix values="0 0 0 0 0 0 0 0 0 0 0 0 0 0 0 0 0 0 0.15 0"/><feBlend in2="BackgroundImageFix" result="effect1_dropShadow_4_166"/><feBlend in="SourceGraphic" in2="effect1_dropShadow_4_166" result="shape"/></filter><filter id="filter1_d_4_166" x="161" y="469.999" width="298" height="175" filterUnits="userSpaceOnUse" color-interpolation-filters="sRGB"><feFlood flood-opacity="0" result="BackgroundImageFix"/><feColorMatrix in="SourceAlpha" values="0 0 0 0 0 0 0 0 0 0 0 0 0 0 0 0 0 0 127 0" result="hardAlpha"/><feOffset dx="8" dy="8"/><feComposite in2="hardAlpha" operator="out"/><feColorMatrix values="0 0 0 0 0 0 0 0 0 0 0 0 0 0 0 0 0 0 0.15 0"/><feBlend in2="BackgroundImageFix" result="effect1_dropShadow_4_166"/><feBlend in="SourceGraphic" in2="effect1_dropShadow_4_166" result="shape"/></filter></defs></svg>