<svg width="375" height="1586" fill="none" xmlns="http://www.w3.org/2000/svg"><g clip-path="url(#clip0_1_43)"><path d="M2178.74 1639.98l-2923.605-525.35L1974.31 105.895l204.43 1534.085z" fill="url(#paint0_linear_1_43)"/></g><g clip-path="url(#clip1_1_43)" fill-rule="evenodd" clip-rule="evenodd"><path d="M-7.578 71.248H453v44.015L-7.578 283V71.248z" fill="url(#paint1_linear_1_43)"/><path d="M-7.578-6.32H453L-7.578 163.819V-6.319z" fill="url(#paint2_linear_1_43)"/><path d="M-7.736-6.433v116.039L314.532-8.154l23.982-76.866L-7.736-6.433z" fill="url(#paint3_linear_1_43)"/></g><defs><linearGradient id="paint0_linear_1_43" x1="-141.5" y1="1108" x2="1837.5" y2="390.5" gradientUnits="userSpaceOnUse"><stop stop-color="#F7F5F2" stop-opacity=".15"/><stop offset="1" stop-color="#F7F5F2" stop-opacity=".48"/></linearGradient><linearGradient id="paint1_linear_1_43" x1="222.711" y1="71.248" x2="222.711" y2="230.869" gradientUnits="userSpaceOnUse"><stop stop-color="#F8FBFF" stop-opacity="0"/><stop offset="1" stop-color="#F8FBFF"/></linearGradient><linearGradient id="paint2_linear_1_43" x1="211.464" y1="76.407" x2="273.96" y2="-79.109" gradientUnits="userSpaceOnUse"><stop stop-color="#F8FBFF" stop-opacity="0"/><stop offset="1" stop-color="#E8E8F5"/></linearGradient><linearGradient id="paint3_linear_1_43" x1="284.383" y1="3.196" x2="116.618" y2="64.207" gradientUnits="userSpaceOnUse"><stop stop-color="#E8E8F5" stop-opacity="0"/><stop offset="1" stop-color="#E8E8F5" stop-opacity=".48"/></linearGradient><clipPath id="clip0_1_43"><path fill="#fff" transform="translate(0 682)" d="M0 0h375v904H0z"/></clipPath><clipPath id="clip1_1_43"><path fill="#fff" d="M0 0h375v283H0z"/></clipPath></defs></svg>