<svg width="375" height="762" fill="none" xmlns="http://www.w3.org/2000/svg"><g clip-path="url(#clip0_2_15)"><g opacity=".03" clip-path="url(#clip1_2_15)"><path d="M340.283 731.501C340.283 826.217 264.03 903 169.967 903S-.35 826.217-.35 731.501c0-94.717 76.254-171.5 170.317-171.5s170.316 76.783 170.316 171.5z" fill="#000"/><path fill-rule="evenodd" clip-rule="evenodd" d="M257.902 901.916a190.18 190.18 0 00100.564-168.067c0-75.83-44.109-141.286-107.9-171.772A170.435 170.435 0 01277.148 560c94.064 0 170.317 76.783 170.317 171.499 0 94.717-76.253 171.5-170.317 171.5a171.08 171.08 0 01-19.246-1.083z" fill="#000"/><rect x="134.472" y="639.933" width="35.483" height="132.197" rx="17.741" fill="#E8D296"/><rect width="35.668" height="113.742" rx="17.834" transform="matrix(.4974 -.86752 .86452 .5026 130.117 762.437)" fill="#E8D296"/></g><g clip-path="url(#clip2_2_15)"><g filter="url(#filter0_d_2_15)"><rect x="-176" y="403.402" width="456" height="453" rx="26.244" fill="#FFFEFE"/><rect x="-124.906" y="568.008" width="167.549" height="2.245" rx="1.123" fill="#F0F1F5"/><rect x="-124.906" y="592.146" width="167.549" height="2.245" rx="1.123" fill="#F0F1F5"/><rect x="-124.906" y="580.076" width="155.702" height="2.245" rx="1.123" fill="#F0F1F5"/><rect x="-124.906" y="640.614" width="167.549" height="2.245" rx="1.123" fill="#F0F1F5"/><rect x="-124.906" y="664.752" width="167.549" height="2.245" rx="1.123" fill="#F0F1F5"/><rect x="-124.906" y="652.683" width="155.702" height="2.245" rx="1.123" fill="#F0F1F5"/><rect x="-124.906" y="713.221" width="167.549" height="2.245" rx="1.123" fill="#F0F1F5"/><rect x="-124.906" y="737.359" width="167.549" height="2.245" rx="1.123" fill="#F0F1F5"/><rect x="-124.906" y="725.29" width="155.702" height="2.245" rx="1.123" fill="#F0F1F5"/><path fill-rule="evenodd" clip-rule="evenodd" d="M-172.421 403a3.579 3.579 0 00-3.579 3.579v40.267h88.498a3.579 3.579 0 003.579-3.579v-22.503a3.57 3.57 0 011.098-2.579H56.749a3.57 3.57 0 011.097 2.579v22.503a3.579 3.579 0 003.579 3.579h218.573v-3.509l.001-.07v-26.081h-.003c.002-.095.003-.189.003-.284 0-7.456-6.044-13.5-13.5-13.5h-108c-1.387 0-2.725.21-3.985.598h-243.92a3.568 3.568 0 00-2.48-1h-80.535z" fill="#F0F1F5"/><path fill="#E1E4EB" d="M-51.77 427.846h70.154v4.385H-51.77z"/><path d="M39.378 426.917l5.313 5.313m-5.313 0l5.313-5.313" stroke="#DBDEE4" stroke-width="2.386" stroke-linecap="round" stroke-linejoin="round"/><path d="M79.815 422.047v11.065m-5.532-5.532h11.065" stroke="#D0D4DD" stroke-width="3.579" stroke-linecap="round" stroke-linejoin="round"/><rect x="-59.076" y="452.692" width="198.769" height="27.769" rx="13.885" fill="#F0F1F5"/><path fill="#E1E4EB" d="M-21.076 464.384h125.692v4.385H-21.076z"/><path fill="#F0F1F5" d="M-176 486.307h455.999v1.462H-176z"/><circle cx="254.085" cy="461.855" r="1.855" fill="#E1E4EB"/><circle cx="254.085" cy="468.038" r="1.855" fill="#E1E4EB"/><circle cx="254.085" cy="474.221" r="1.855" fill="#E1E4EB"/><circle cx="229.849" cy="467.602" r="11.692" fill="#E1E4EB"/><rect x="55.654" y="528.987" width="133.578" height="7.054" rx="3.527" fill="#F0F1F5"/><rect x="55.654" y="550.368" width="131.586" height="1.763" rx=".882" fill="#F0F1F5"/><rect x="55.654" y="588.261" width="83.998" height="1.787" rx=".894" fill="#F0F1F5"/><rect x="55.654" y="569.325" width="131.586" height="1.763" rx=".882" fill="#F0F1F5"/><rect x="55.654" y="559.846" width="122.282" height="1.763" rx=".882" fill="#F0F1F5"/><rect x="55.654" y="578.803" width="135.84" height="1.763" rx=".882" fill="#F0F1F5"/><path d="M61.958 508.724a1.491 1.491 0 00-2.688 0l-1.191 2.48-2.646.398a1.49 1.49 0 00-.834 2.528l1.938 1.941-.459 2.752a1.49 1.49 0 002.18 1.557l2.356-1.274 2.356 1.274a1.493 1.493 0 002.18-1.557l-.46-2.752 1.939-1.941a1.491 1.491 0 00-.834-2.528l-2.646-.398-1.19-2.48zm14.872-.012a1.492 1.492 0 00-2.677 0l-1.22 2.488-2.728.401a1.49 1.49 0 00-.827 2.54l1.978 1.937-.467 2.739a1.492 1.492 0 002.167 1.569l2.436-1.288 2.436 1.288a1.49 1.49 0 002.167-1.569l-.467-2.739 1.977-1.937a1.49 1.49 0 00-.827-2.54l-2.727-.401-1.22-2.488zm14.77 0a1.492 1.492 0 00-2.677 0l-1.221 2.488-2.727.401a1.49 1.49 0 00-.827 2.54l1.977 1.937-.467 2.739a1.492 1.492 0 002.167 1.569l2.436-1.288 2.436 1.288a1.49 1.49 0 002.167-1.569l-.467-2.739 1.977-1.937a1.49 1.49 0 00-.826-2.54l-2.727-.401-1.221-2.488zm14.768 0a1.49 1.49 0 00-2.677 0l-1.221 2.488-2.727.401a1.49 1.49 0 00-.826 2.54l1.977 1.937-.467 2.739a1.49 1.49 0 002.167 1.569l2.436-1.288 2.436 1.288a1.49 1.49 0 002.167-1.569l-.467-2.739 1.977-1.937c.405-.396.55-.987.374-1.526a1.489 1.489 0 00-1.201-1.014l-2.727-.401-1.221-2.488z" fill="#F0F1F5" stroke="#F0F1F5" stroke-width="2.982" stroke-linecap="round" stroke-linejoin="round"/><path d="M121.253 508.724a1.491 1.491 0 00-2.688 0l-1.191 2.48-2.646.398a1.49 1.49 0 00-.834 2.528l1.938 1.941-.459 2.752a1.49 1.49 0 002.18 1.557l2.356-1.274 2.356 1.274a1.491 1.491 0 002.18-1.557l-.459-2.752 1.938-1.941a1.492 1.492 0 00-.834-2.528l-2.646-.398-1.191-2.48z" stroke="#F0F1F5" stroke-width="2.982" stroke-linecap="round" stroke-linejoin="round"/><path d="M62.746 622.695c-1.175 0-2.22-.19-3.134-.571-.91-.387-1.625-.913-2.143-1.579a3.59 3.59 0 01-.778-2.265c0-.65.148-1.248.442-1.791a3.98 3.98 0 011.22-1.365 4.027 4.027 0 011.724-.702v-.107a3.386 3.386 0 01-2.029-1.212 3.487 3.487 0 01-.777-2.249 3.5 3.5 0 01.709-2.158c.473-.636 1.12-1.134 1.944-1.495.829-.366 1.77-.549 2.822-.549s1.99.183 2.813.549c.829.366 1.48.867 1.952 1.502a3.53 3.53 0 01.717 2.151c-.005.859-.27 1.608-.793 2.249a3.407 3.407 0 01-2.013 1.212v.107a3.963 3.963 0 011.7.702c.514.361.92.816 1.22 1.365.305.543.46 1.141.466 1.791a3.626 3.626 0 01-.786 2.265c-.518.666-1.235 1.192-2.15 1.579-.91.381-1.952.571-3.126.571zm0-2.424c.523 0 .98-.094 1.372-.282.392-.194.697-.458.915-.794a2.09 2.09 0 00.336-1.174 2.12 2.12 0 00-.343-1.197 2.354 2.354 0 00-.93-.823c-.392-.204-.842-.305-1.35-.305-.504 0-.954.101-1.35.305-.397.198-.71.472-.938.823a2.156 2.156 0 00-.335 1.197c0 .442.109.834.327 1.174.219.336.527.6.923.794.397.188.854.282 1.373.282zm0-6.977c.437 0 .826-.089 1.166-.267.34-.178.608-.425.8-.74.194-.315.29-.679.29-1.09a1.953 1.953 0 00-1.082-1.792c-.336-.178-.727-.267-1.174-.267a2.5 2.5 0 00-1.175.267c-.34.173-.607.414-.8.724a1.993 1.993 0 00-.282 1.068c0 .411.096.775.29 1.09.192.315.46.562.8.74.34.178.73.267 1.167.267zm10.3 7.373a1.78 1.78 0 01-1.297-.534 1.763 1.763 0 01-.534-1.296c0-.498.178-.925.534-1.281a1.78 1.78 0 011.296-.534c.488 0 .915.178 1.281.534.366.356.55.783.55 1.281 0 .336-.087.643-.26.923a1.977 1.977 0 01-.663.663 1.744 1.744 0 01-.908.244zm0-7.663a1.78 1.78 0 01-1.297-.534 1.765 1.765 0 01-.534-1.296c0-.498.178-.923.534-1.274a1.784 1.784 0 011.296-.533c.488 0 .915.178 1.281.533a1.7 1.7 0 01.55 1.274c0 .34-.087.65-.26.93a1.904 1.904 0 01-.663.656 1.744 1.744 0 01-.908.244zm10.238 9.691c-1.139 0-2.153-.195-3.042-.587-.885-.396-1.584-.94-2.097-1.631-.509-.697-.77-1.5-.786-2.41h3.325c.02.381.145.717.374 1.006.233.285.543.506.93.664.386.157.82.236 1.304.236.503 0 .948-.089 1.334-.267a2.19 2.19 0 00.907-.739c.22-.315.328-.679.328-1.091 0-.417-.117-.785-.35-1.105-.23-.326-.56-.58-.992-.763-.427-.183-.935-.274-1.525-.274h-1.456v-2.425h1.456c.499 0 .938-.087 1.32-.259.386-.173.686-.412.9-.717.213-.31.32-.671.32-1.083a1.87 1.87 0 00-.283-1.029 1.865 1.865 0 00-.777-.702c-.33-.168-.717-.251-1.16-.251a3.02 3.02 0 00-1.227.244 2.139 2.139 0 00-.892.678 1.787 1.787 0 00-.359 1.037h-3.164c.015-.9.272-1.693.77-2.379.498-.686 1.17-1.222 2.013-1.609.849-.391 1.807-.587 2.875-.587 1.078 0 2.02.196 2.829.587.808.392 1.436.92 1.883 1.586.453.661.676 1.403.671 2.227.005.874-.267 1.604-.816 2.188-.544.585-1.253.956-2.127 1.114v.122c1.149.147 2.023.546 2.623 1.197.605.645.905 1.454.9 2.424a3.81 3.81 0 01-.77 2.372c-.514.691-1.223 1.235-2.128 1.632-.905.396-1.942.594-3.111.594zm14.505.13c-1.311-.005-2.44-.328-3.386-.968-.94-.641-1.664-1.569-2.173-2.784-.503-1.214-.752-2.676-.747-4.384 0-1.703.252-3.154.755-4.354.508-1.2 1.233-2.112 2.173-2.737.946-.631 2.072-.946 3.378-.946s2.43.315 3.37.946c.946.63 1.673 1.545 2.181 2.745.509 1.194.76 2.643.755 4.346 0 1.713-.254 3.177-.762 4.392-.504 1.215-1.226 2.143-2.166 2.783-.94.641-2.066.961-3.378.961zm0-2.737c.895 0 1.609-.45 2.143-1.35.533-.9.798-2.249.793-4.049 0-1.184-.122-2.171-.366-2.959-.239-.787-.58-1.38-1.022-1.776a2.227 2.227 0 00-1.548-.595c-.89 0-1.601.445-2.135 1.334-.534.89-.803 2.222-.808 3.996 0 1.2.12 2.201.358 3.004.244.798.587 1.398 1.03 1.8.442.396.96.595 1.555.595zm13.722 2.394v-15.616h6.161c1.184 0 2.193.226 3.027.678a4.596 4.596 0 011.906 1.868c.442.793.664 1.708.664 2.745 0 1.037-.224 1.953-.671 2.746-.448.793-1.096 1.41-1.945 1.852-.844.443-1.865.664-3.065.664h-3.927v-2.646h3.393c.635 0 1.159-.109 1.571-.328a2.17 2.17 0 00.93-.923c.209-.396.313-.851.313-1.365 0-.518-.104-.97-.313-1.357a2.083 2.083 0 00-.93-.907c-.417-.219-.946-.328-1.586-.328h-2.227v12.917h-3.301zm13.902-15.616h4.072l4.301 10.492h.183l4.3-10.492h4.072v15.616h-3.203v-10.164h-.129l-4.041 10.088h-2.181l-4.042-10.127h-.129v10.203h-3.203v-15.616zm31.854 6.519v2.577h-7.122v-2.577h7.122zM62.57 632.652a6.75 6.75 0 012.318.404c.748.27 1.413.699 1.998 1.289.59.59 1.055 1.372 1.395 2.348.346.971.522 2.163.527 3.577 0 1.326-.15 2.511-.45 3.553-.295 1.037-.72 1.919-1.274 2.646a5.56 5.56 0 01-2.005 1.662c-.783.376-1.657.564-2.623.564-1.042 0-1.962-.2-2.76-.602a5.18 5.18 0 01-1.93-1.655 5.149 5.149 0 01-.877-2.363h3.256c.127.569.394 1.011.801 1.326.407.31.91.466 1.51.466 1.017 0 1.79-.443 2.318-1.327.529-.89.796-2.107.8-3.653h-.106a3.728 3.728 0 01-.946 1.182 4.392 4.392 0 01-1.365.755 4.88 4.88 0 01-1.624.267c-.92 0-1.74-.216-2.463-.648a4.652 4.652 0 01-1.708-1.784c-.417-.758-.625-1.622-.625-2.593-.005-1.047.236-1.98.724-2.798a5.104 5.104 0 012.044-1.922c.88-.468 1.901-.699 3.065-.694zm.023 2.593c-.513 0-.97.122-1.372.366a2.705 2.705 0 00-.946.983c-.229.412-.34.872-.335 1.38 0 .514.111.976.335 1.388.229.407.539.732.93.976.397.239.85.359 1.358.359a2.62 2.62 0 001.906-.801c.244-.254.434-.546.572-.877a2.806 2.806 0 00-.145-2.409 2.68 2.68 0 00-.946-.992 2.523 2.523 0 00-1.357-.373zm10.431 11.422a1.78 1.78 0 01-1.296-.534 1.763 1.763 0 01-.534-1.296c0-.498.178-.925.534-1.281a1.78 1.78 0 011.296-.534c.488 0 .915.178 1.281.534.366.356.55.783.55 1.281 0 .336-.087.643-.26.923a1.978 1.978 0 01-.663.663 1.744 1.744 0 01-.908.244zm0-7.663a1.78 1.78 0 01-1.296-.534 1.765 1.765 0 01-.534-1.296c0-.498.178-.923.534-1.274a1.784 1.784 0 011.296-.533c.488 0 .915.178 1.281.533a1.7 1.7 0 01.55 1.274c0 .34-.087.65-.26.93a1.905 1.905 0 01-.663.656 1.744 1.744 0 01-.908.244zm10.24 9.691c-1.14 0-2.154-.195-3.043-.587-.885-.396-1.584-.94-2.097-1.631-.509-.697-.77-1.5-.786-2.41h3.325c.02.381.145.717.374 1.006.233.285.543.506.93.664.386.157.82.236 1.304.236.503 0 .948-.089 1.334-.267a2.19 2.19 0 00.907-.739c.22-.315.328-.679.328-1.091 0-.417-.117-.785-.35-1.105-.23-.326-.56-.58-.992-.763-.427-.183-.935-.274-1.525-.274h-1.456v-2.425h1.456c.499 0 .938-.087 1.32-.259.386-.173.686-.412.9-.717.213-.31.32-.671.32-1.083a1.87 1.87 0 00-.283-1.029 1.865 1.865 0 00-.777-.702c-.33-.168-.717-.251-1.16-.251a3.02 3.02 0 00-1.227.244 2.138 2.138 0 00-.892.678 1.787 1.787 0 00-.359 1.037h-3.164c.015-.9.272-1.693.77-2.379.498-.686 1.17-1.222 2.013-1.609.85-.391 1.807-.587 2.875-.587 1.078 0 2.02.196 2.829.587.808.392 1.436.92 1.883 1.586.453.661.676 1.403.671 2.227.005.874-.267 1.604-.816 2.188-.544.585-1.253.956-2.127 1.114v.122c1.149.147 2.023.546 2.623 1.197.605.645.905 1.454.9 2.424a3.81 3.81 0 01-.77 2.372c-.514.691-1.223 1.235-2.128 1.632-.905.396-1.942.594-3.11.594zm14.504.13c-1.311-.005-2.44-.328-3.386-.968-.94-.641-1.664-1.569-2.173-2.784-.503-1.214-.752-2.676-.747-4.384 0-1.703.252-3.154.755-4.354.508-1.2 1.233-2.112 2.173-2.737.946-.631 2.072-.946 3.378-.946s2.43.315 3.37.946c.946.63 1.673 1.545 2.181 2.745.509 1.194.76 2.643.755 4.346 0 1.713-.254 3.177-.762 4.392-.504 1.215-1.226 2.143-2.166 2.783-.94.641-2.066.961-3.378.961zm0-2.737c.895 0 1.609-.45 2.143-1.35.534-.9.798-2.249.793-4.049 0-1.184-.122-2.171-.366-2.959-.239-.787-.58-1.38-1.022-1.776a2.226 2.226 0 00-1.548-.595c-.89 0-1.601.445-2.135 1.334-.534.89-.803 2.222-.808 3.996 0 1.2.12 2.201.358 3.004.244.798.587 1.398 1.03 1.8.442.396.96.595 1.555.595zm13.722 2.394v-15.616h6.161c1.184 0 2.193.226 3.027.678a4.596 4.596 0 011.906 1.868c.442.793.664 1.708.664 2.745 0 1.037-.224 1.953-.671 2.746-.448.793-1.096 1.41-1.945 1.852-.844.443-1.865.664-3.065.664h-3.927v-2.646h3.393c.636 0 1.159-.109 1.571-.328a2.17 2.17 0 00.93-.923c.209-.396.313-.851.313-1.365 0-.518-.104-.97-.313-1.357a2.083 2.083 0 00-.93-.907c-.417-.219-.946-.328-1.586-.328h-2.227v12.917h-3.301zm13.902-15.616h4.072l4.301 10.492h.183l4.3-10.492h4.072v15.616h-3.202v-10.164h-.13l-4.041 10.088h-2.181l-4.042-10.127h-.129v10.203h-3.203v-15.616zM70.79 664.333h-3.34a3.273 3.273 0 00-.373-1.152c-.188-.34-.43-.63-.725-.869a3.184 3.184 0 00-1.021-.549 3.911 3.911 0 00-1.243-.19c-.809 0-1.513.2-2.112.602-.6.396-1.066.976-1.396 1.738-.33.758-.496 1.678-.496 2.761 0 1.113.166 2.048.496 2.806.336.757.803 1.329 1.403 1.715.6.387 1.294.58 2.082.58.442 0 .851-.058 1.227-.175a3.24 3.24 0 001.015-.511c.294-.229.538-.506.732-.831.198-.326.335-.697.411-1.114l3.34.016a6.232 6.232 0 01-2.028 3.85 6.489 6.489 0 01-2.059 1.236c-.793.299-1.69.449-2.692.449-1.392 0-2.638-.315-3.736-.945-1.093-.63-1.957-1.543-2.593-2.738-.63-1.194-.945-2.64-.945-4.338 0-1.703.32-3.152.96-4.347.641-1.194 1.51-2.104 2.609-2.729 1.098-.631 2.333-.946 3.705-.946a8.02 8.02 0 012.517.381 6.397 6.397 0 012.066 1.114 5.731 5.731 0 011.464 1.776c.381.702.625 1.505.732 2.41zm2.368 10.149v-15.616H83.68v2.722h-7.22v3.721h6.68v2.722h-6.68v3.729h7.251v2.722H73.158zm12.553-12.894v-2.722h12.825v2.722h-4.78v12.894h-3.264v-12.894H85.71z" fill="#E1E4EB"/><path fill="#F0F1F5" d="M261.812 487.163h1.645v202.321h-1.645z"/><path fill="#F0F1F5" d="M262.361 534.865h15.352v40.3h-15.352z"/></g><g filter="url(#filter1_d_2_15)"><rect x="30.151" y="451.681" width="212.501" height="287.596" rx="12.49" fill="#F7F5F2"/><path d="M63.338 471.619c0 5.365-4.353 9.714-9.723 9.714-5.37 0-9.722-4.349-9.722-9.714 0-5.364 4.353-9.713 9.722-9.713 5.37 0 9.723 4.349 9.723 9.713z" fill="#174EA6"/><path fill-rule="evenodd" clip-rule="evenodd" d="M58.634 481.271a10.759 10.759 0 005.741-9.519c0-4.294-2.518-8.001-6.16-9.728a9.74 9.74 0 011.519-.118c5.37 0 9.723 4.349 9.723 9.713 0 5.365-4.353 9.714-9.723 9.714-.372 0-.739-.021-1.1-.062z" fill="#E8D296"/><rect x="51.59" y="466.434" width="2.026" height="7.487" rx="1.013" fill="#E8D296"/><rect width="2.024" height="6.48" rx="1.012" transform="rotate(-59.975 435.829 192.2) skewX(.05)" fill="#E8D296"/><path d="M47.745 504.96h2.934l3.098 7.559h.132l3.099-7.559h2.933v11.251h-2.307v-7.323h-.093l-2.912 7.268h-1.571l-2.912-7.296h-.093v7.351h-2.308V504.96zm16.518 11.41c-.538 0-1.018-.093-1.439-.28a2.319 2.319 0 01-1-.84c-.241-.374-.362-.839-.362-1.396 0-.469.086-.862.258-1.181.172-.319.406-.575.703-.769a3.417 3.417 0 011.01-.44c.382-.098.78-.168 1.198-.208.491-.052.887-.099 1.187-.143.3-.048.518-.117.654-.209a.458.458 0 00.203-.406v-.033c0-.348-.11-.617-.33-.808-.216-.19-.523-.286-.922-.286-.422 0-.757.094-1.006.281a1.282 1.282 0 00-.494.692l-2.165-.176a2.94 2.94 0 01.648-1.329 3.1 3.1 0 011.248-.868c.512-.206 1.106-.308 1.78-.308.468 0 .917.055 1.345.165.433.11.815.28 1.149.511.337.23.602.527.796.89.194.358.291.789.291 1.291v5.691h-2.22v-1.17h-.065a2.382 2.382 0 01-.544.697c-.227.198-.5.354-.818.467a3.38 3.38 0 01-1.105.165zm.67-1.615c.345 0 .649-.068.912-.203.264-.139.471-.326.621-.56.15-.235.226-.5.226-.797v-.896a1.226 1.226 0 01-.303.132 5.35 5.35 0 01-.423.105c-.157.029-.315.056-.472.082l-.429.061a2.9 2.9 0 00-.72.192 1.153 1.153 0 00-.477.357.87.87 0 00-.17.549c0 .319.115.562.346.731.234.165.53.247.89.247zm8.238-3.422v4.878h-2.34v-8.438h2.23v1.489h.1c.186-.491.5-.879.939-1.165.44-.289.972-.434 1.598-.434.586 0 1.097.128 1.533.384.436.257.775.623 1.016 1.099.242.473.363 1.037.363 1.692v5.373h-2.34v-4.955c.003-.517-.129-.92-.396-1.209-.267-.293-.635-.439-1.104-.439-.315 0-.593.067-.835.203a1.413 1.413 0 00-.56.593c-.132.257-.2.566-.204.929zm9.69 5.037c-.539 0-1.019-.093-1.44-.28a2.32 2.32 0 01-1-.84c-.241-.374-.362-.839-.362-1.396 0-.469.086-.862.258-1.181a2.09 2.09 0 01.703-.769 3.418 3.418 0 011.011-.44c.38-.098.78-.168 1.198-.208.49-.052.886-.099 1.186-.143.3-.048.518-.117.654-.209a.458.458 0 00.203-.406v-.033c0-.348-.11-.617-.33-.808-.215-.19-.523-.286-.922-.286-.421 0-.757.094-1.006.281a1.286 1.286 0 00-.494.692l-2.164-.176a2.94 2.94 0 01.648-1.329 3.1 3.1 0 011.247-.868c.512-.206 1.106-.308 1.78-.308a5.4 5.4 0 011.346.165c.432.11.815.28 1.148.511.337.23.602.527.796.89.195.358.292.789.292 1.291v5.691h-2.22v-1.17h-.066a2.382 2.382 0 01-.544.697c-.227.198-.5.354-.818.467a3.38 3.38 0 01-1.104.165zm.67-1.615c.344 0 .648-.068.912-.203.263-.139.47-.326.62-.56.15-.235.226-.5.226-.797v-.896a1.228 1.228 0 01-.302.132 5.338 5.338 0 01-.423.105c-.158.029-.315.056-.473.082l-.428.061c-.275.04-.515.104-.72.192a1.153 1.153 0 00-.478.357.87.87 0 00-.17.549c0 .319.115.562.346.731.234.165.53.247.89.247zm9.699 4.796c-.758 0-1.408-.104-1.95-.313-.539-.205-.967-.485-1.286-.841a2.582 2.582 0 01-.62-1.197l2.164-.291c.066.168.17.326.313.472.143.147.331.264.566.352.238.091.527.137.868.137.509 0 .928-.125 1.258-.374.333-.245.5-.657.5-1.236v-1.543h-.1a2.217 2.217 0 01-.46.664 2.324 2.324 0 01-.792.511c-.322.132-.707.198-1.153.198a3.46 3.46 0 01-1.73-.439c-.517-.297-.93-.749-1.237-1.357-.304-.612-.456-1.385-.456-2.319 0-.956.156-1.754.467-2.395.311-.641.725-1.121 1.242-1.439a3.205 3.205 0 011.708-.478c.472 0 .868.08 1.187.242.318.157.575.355.769.593.198.234.35.465.456.692h.088v-1.417h2.324v8.52c0 .718-.176 1.319-.528 1.802-.352.484-.839.846-1.461 1.088-.62.245-1.332.368-2.137.368zm.05-5.219c.376 0 .695-.093.955-.28.264-.19.465-.462.604-.813.143-.355.215-.78.215-1.275 0-.494-.07-.923-.21-1.285-.138-.366-.34-.65-.603-.852-.264-.201-.585-.302-.962-.302-.384 0-.709.105-.972.313-.264.205-.463.491-.599.857-.135.367-.203.79-.203 1.269 0 .487.068.909.203 1.264.14.351.339.624.599.818.263.191.588.286.972.286zm9.783 2.044c-.868 0-1.615-.176-2.241-.528a3.61 3.61 0 01-1.44-1.505c-.336-.652-.505-1.423-.505-2.313 0-.868.169-1.629.506-2.285a3.736 3.736 0 011.422-1.533c.616-.366 1.337-.549 2.165-.549.557 0 1.075.09 1.555.269.483.176.904.441 1.263.797.363.355.645.802.846 1.34.202.535.302 1.161.302 1.879v.643h-7.125v-1.451h4.922c0-.337-.073-.635-.219-.895a1.582 1.582 0 00-.61-.61 1.743 1.743 0 00-.896-.225 1.8 1.8 0 00-.945.247 1.731 1.731 0 00-.637.654 1.847 1.847 0 00-.236.906v1.379c0 .418.077.778.231 1.082.157.304.379.539.664.704.286.164.625.247 1.017.247.26 0 .498-.037.714-.11a1.421 1.421 0 00.906-.868l2.165.143c-.11.52-.335.974-.676 1.362-.337.385-.773.685-1.307.901-.531.213-1.145.319-1.841.319zm8.596-9.455v-1.961h9.241v1.961h-3.445v9.29h-2.351v-9.29h-3.445zm10.718 9.29v-8.438h2.341v8.438h-2.341zm1.176-9.526c-.348 0-.646-.115-.895-.346a1.12 1.12 0 01-.368-.841c0-.322.122-.598.368-.829.249-.235.547-.352.895-.352s.645.117.89.352c.249.231.374.507.374.829 0 .326-.125.607-.374.841a1.25 1.25 0 01-.89.346zm3.039 9.526v-8.438h2.231v1.489h.099c.176-.495.469-.885.879-1.171.41-.285.901-.428 1.472-.428.579 0 1.071.145 1.478.434.406.286.677.674.813 1.165h.088c.172-.484.483-.87.934-1.16.454-.293.99-.439 1.609-.439.788 0 1.427.251 1.918.753.494.498.741 1.204.741 2.12v5.675h-2.335v-5.213c0-.469-.124-.821-.373-1.055-.249-.235-.561-.352-.934-.352-.425 0-.756.136-.994.407-.238.267-.358.62-.358 1.06v5.153h-2.268v-5.263c0-.414-.119-.743-.357-.989-.235-.245-.544-.368-.929-.368-.26 0-.494.066-.703.198a1.355 1.355 0 00-.489.544 1.728 1.728 0 00-.181.813v5.065h-2.341zm17.956.165c-.868 0-1.615-.176-2.241-.528a3.609 3.609 0 01-1.439-1.505c-.337-.652-.506-1.423-.506-2.313 0-.868.169-1.629.506-2.285a3.735 3.735 0 011.422-1.533c.616-.366 1.337-.549 2.165-.549.557 0 1.075.09 1.555.269.483.176.904.441 1.263.797.363.355.645.802.846 1.34.202.535.302 1.161.302 1.879v.643h-7.125v-1.451h4.922c0-.337-.073-.635-.219-.895a1.582 1.582 0 00-.61-.61 1.743 1.743 0 00-.896-.225 1.8 1.8 0 00-.945.247 1.731 1.731 0 00-.637.654 1.847 1.847 0 00-.236.906v1.379c0 .418.077.778.231 1.082.157.304.379.539.664.704.286.164.625.247 1.017.247.26 0 .498-.037.714-.11a1.421 1.421 0 00.906-.868l2.165.143c-.11.52-.335.974-.676 1.362-.337.385-.773.685-1.307.901-.531.213-1.145.319-1.841.319zm8.904-.165v-1.412l5.615-7.878h-5.626v-1.961h8.614v1.412l-5.62 7.878h5.631v1.961h-8.614zm14.208.165c-.853 0-1.591-.182-2.214-.544a3.72 3.72 0 01-1.434-1.527c-.337-.656-.505-1.416-.505-2.28 0-.872.168-1.634.505-2.286a3.683 3.683 0 011.434-1.527c.623-.366 1.361-.549 2.214-.549s1.589.183 2.208.549a3.672 3.672 0 011.44 1.527c.337.652.505 1.414.505 2.286 0 .864-.168 1.624-.505 2.28a3.708 3.708 0 01-1.44 1.527c-.619.362-1.355.544-2.208.544zm.011-1.813c.388 0 .712-.11.972-.33.26-.223.456-.527.588-.912.136-.384.203-.822.203-1.313 0-.49-.067-.928-.203-1.313-.132-.384-.328-.688-.588-.912-.26-.223-.584-.335-.972-.335-.392 0-.722.112-.989.335-.264.224-.463.528-.599.912a4.039 4.039 0 00-.198 1.313c0 .491.066.929.198 1.313.136.385.335.689.599.912.267.22.597.33.989.33zm8.004-3.23v4.878h-2.34v-8.438h2.23v1.489h.099c.187-.491.5-.879.94-1.165.439-.289.972-.434 1.598-.434.586 0 1.097.128 1.533.384.436.257.774.623 1.016 1.099.242.473.363 1.037.363 1.692v5.373h-2.341v-4.955c.004-.517-.128-.92-.395-1.209-.267-.293-.635-.439-1.104-.439-.315 0-.594.067-.835.203a1.418 1.418 0 00-.561.593c-.131.257-.199.566-.203.929zm11.129 5.043c-.868 0-1.615-.176-2.242-.528a3.615 3.615 0 01-1.439-1.505c-.337-.652-.505-1.423-.505-2.313 0-.868.168-1.629.505-2.285a3.73 3.73 0 011.423-1.533c.615-.366 1.337-.549 2.164-.549.557 0 1.075.09 1.555.269.483.176.905.441 1.264.797.362.355.644.802.846 1.34.201.535.302 1.161.302 1.879v.643h-7.125v-1.451h4.922c0-.337-.073-.635-.22-.895a1.576 1.576 0 00-.61-.61 1.74 1.74 0 00-.895-.225 1.8 1.8 0 00-.945.247 1.724 1.724 0 00-.637.654 1.848 1.848 0 00-.237.906v1.379c0 .418.077.778.231 1.082.158.304.379.539.665.704.286.164.624.247 1.016.247.26 0 .498-.037.714-.11a1.435 1.435 0 00.907-.868l2.164.143a2.96 2.96 0 01-.675 1.362c-.337.385-.773.685-1.308.901-.531.213-1.144.319-1.84.319zm12.421-6.197l-2.143.132a1.104 1.104 0 00-.236-.495 1.256 1.256 0 00-.478-.357 1.633 1.633 0 00-.698-.137c-.362 0-.668.077-.917.231-.249.15-.374.351-.374.604 0 .201.081.372.242.511.161.139.438.251.83.335l1.527.308c.82.168 1.432.439 1.835.813.403.373.604.864.604 1.472a2.3 2.3 0 01-.489 1.456c-.322.417-.765.743-1.329.978-.561.23-1.207.346-1.94.346-1.117 0-2.007-.233-2.669-.698a2.719 2.719 0 01-1.16-1.912l2.302-.121c.07.341.238.601.506.781.267.175.609.263 1.027.263.41 0 .74-.079.989-.236.253-.161.381-.368.384-.621a.645.645 0 00-.269-.522c-.176-.139-.447-.245-.813-.318l-1.461-.291c-.824-.165-1.438-.451-1.841-.857-.399-.407-.598-.925-.598-1.555 0-.542.146-1.009.439-1.401.297-.392.712-.694 1.247-.906.539-.213 1.169-.319 1.89-.319 1.066 0 1.904.225 2.516.676.615.45.974 1.064 1.077 1.84zm-152.48 30.465v-1.055h4.97v1.055h-1.853v4.996h-1.265v-4.996h-1.852zm5.764 4.996v-4.539h1.259v4.539h-1.259zm.632-5.124a.684.684 0 01-.481-.186.602.602 0 01-.198-.452c0-.173.066-.322.198-.446a.678.678 0 01.481-.189c.187 0 .347.063.479.189.134.124.2.273.2.446a.598.598 0 01-.2.452.674.674 0 01-.479.186zm1.635 5.124v-4.539h1.2v.801h.053c.094-.266.252-.476.472-.629.22-.154.485-.231.792-.231.311 0 .576.078.795.234a1.1 1.1 0 01.437.626h.047c.093-.26.26-.468.503-.623.244-.158.532-.237.865-.237.424 0 .768.135 1.032.405.265.268.398.648.398 1.141v3.052h-1.255v-2.804c0-.252-.067-.441-.201-.567a.7.7 0 00-.503-.19c-.228 0-.406.073-.534.219-.128.144-.192.334-.192.57v2.772h-1.22v-2.831c0-.222-.065-.4-.193-.532a.659.659 0 00-.499-.198.693.693 0 00-.378.107.73.73 0 00-.263.292.93.93 0 00-.097.438v2.724h-1.26zm9.657.088c-.467 0-.869-.094-1.206-.283a1.941 1.941 0 01-.774-.81c-.181-.351-.272-.765-.272-1.244 0-.467.091-.876.272-1.229a2.01 2.01 0 01.765-.824c.331-.197.72-.296 1.165-.296.299 0 .578.049.836.145.26.095.486.237.68.429.194.191.346.431.454.72.109.288.163.625.163 1.011v.346h-3.832v-.78h2.647a.964.964 0 00-.118-.482.847.847 0 00-.328-.328.933.933 0 00-.482-.121.965.965 0 00-.508.133.939.939 0 00-.343.351.997.997 0 00-.127.488v.742c0 .224.042.418.124.582a.913.913 0 00.358.378c.154.088.336.133.547.133.14 0 .267-.02.384-.059a.766.766 0 00.488-.467l1.163.077c-.059.279-.18.524-.363.732a1.823 1.823 0 01-.703.485 2.657 2.657 0 01-.99.171zm4.806-.088v-.751l2.222-2.75v-.033h-2.145v-1.005h3.66v.819l-2.085 2.683v.032h2.162v1.005H69.24zm6.697.088c-.459 0-.856-.097-1.19-.292a2.001 2.001 0 01-.771-.822c-.182-.352-.272-.761-.272-1.226 0-.469.09-.878.272-1.229a1.98 1.98 0 01.77-.821c.335-.197.732-.296 1.191-.296.46 0 .855.099 1.188.296.335.195.593.469.774.821.181.351.272.76.272 1.229 0 .465-.09.874-.272 1.226a2 2 0 01-.774.822c-.333.195-.729.292-1.188.292zm.006-.975a.783.783 0 00.523-.177 1.1 1.1 0 00.316-.49 2.12 2.12 0 00.11-.707c0-.264-.037-.499-.11-.706a1.096 1.096 0 00-.316-.49.775.775 0 00-.523-.18c-.21 0-.388.06-.532.18-.141.12-.249.283-.322.49-.07.207-.106.442-.106.706 0 .264.035.5.106.707.073.206.18.37.322.49a.81.81 0 00.532.177zm4.305-1.737v2.624h-1.259v-4.539h1.2v.801h.053c.1-.264.269-.473.505-.626.237-.156.523-.234.86-.234.315 0 .59.069.824.207.235.138.417.335.547.591.13.254.195.558.195.91v2.89h-1.259v-2.665c.002-.278-.069-.495-.212-.65-.144-.158-.342-.237-.594-.237-.17 0-.32.037-.45.11a.756.756 0 00-.3.319 1.09 1.09 0 00-.11.499zm5.985 2.712c-.467 0-.868-.094-1.205-.283a1.941 1.941 0 01-.774-.81c-.182-.351-.272-.765-.272-1.244 0-.467.09-.876.272-1.229.18-.352.436-.627.765-.824.33-.197.719-.296 1.164-.296.3 0 .578.049.836.145.26.095.487.237.68.429.195.191.346.431.455.72.108.288.162.625.162 1.011v.346h-3.832v-.78h2.647a.964.964 0 00-.118-.482.847.847 0 00-.328-.328.933.933 0 00-.481-.121.965.965 0 00-.509.133.938.938 0 00-.342.351.996.996 0 00-.127.488v.742c0 .224.041.418.124.582a.912.912 0 00.357.378c.154.088.336.133.547.133.14 0 .268-.02.384-.059a.764.764 0 00.487-.467l1.165.077c-.06.279-.18.524-.364.732a1.821 1.821 0 01-.703.485 2.656 2.656 0 01-.99.171zm6.68-3.332l-1.152.07a.59.59 0 00-.127-.265.669.669 0 00-.257-.192.862.862 0 00-.375-.074.92.92 0 00-.494.124c-.133.08-.2.189-.2.325 0 .108.043.2.13.275.086.074.235.134.446.18l.821.165c.441.091.77.237.987.437.216.201.325.465.325.792 0 .298-.088.559-.263.783-.174.225-.412.4-.715.526-.301.124-.65.186-1.043.186-.6 0-1.08-.125-1.436-.375a1.462 1.462 0 01-.623-1.028l1.237-.065a.634.634 0 00.272.419.983.983 0 00.553.142c.22 0 .398-.042.532-.127.136-.086.204-.198.207-.334a.347.347 0 00-.145-.28c-.095-.075-.24-.132-.438-.172l-.785-.156c-.444-.089-.774-.243-.99-.461-.215-.219-.322-.498-.322-.836 0-.292.078-.543.236-.754a1.52 1.52 0 01.67-.487c.29-.115.63-.172 1.017-.172.573 0 1.024.122 1.353.364.331.242.524.572.58.99zm4.116 3.329c-.29 0-.547-.05-.774-.15a1.25 1.25 0 01-.538-.452c-.13-.201-.195-.451-.195-.751 0-.252.046-.464.14-.635a1.13 1.13 0 01.377-.414c.16-.104.341-.183.544-.236a4.09 4.09 0 01.644-.112c.264-.028.477-.054.638-.077a.917.917 0 00.352-.112.249.249 0 00.11-.219v-.018a.544.544 0 00-.178-.434c-.116-.103-.282-.154-.496-.154-.227 0-.407.05-.541.151a.69.69 0 00-.266.372l-1.164-.094c.059-.276.175-.514.348-.715a1.67 1.67 0 01.671-.467c.276-.11.595-.166.957-.166.252 0 .494.03.724.089.233.059.439.151.618.275.181.124.324.283.428.478.105.193.157.425.157.695v3.061H98.39v-.63h-.035a1.28 1.28 0 01-.293.376 1.36 1.36 0 01-.44.251c-.171.059-.37.088-.594.088zm.36-.868c.186 0 .35-.037.491-.11a.862.862 0 00.334-.301.777.777 0 00.121-.428v-.482a.672.672 0 01-.163.071c-.067.02-.142.038-.227.056a7.5 7.5 0 01-.485.077 1.584 1.584 0 00-.387.103.631.631 0 00-.257.192.47.47 0 00-.091.296c0 .171.062.302.186.393a.817.817 0 00.478.133zm6.082-1.15v-2.606h1.259v4.539h-1.208v-.825h-.048a1.33 1.33 0 01-.511.641c-.236.162-.525.243-.865.243-.304 0-.571-.069-.801-.207a1.42 1.42 0 01-.541-.588c-.128-.254-.193-.558-.195-.913v-2.89h1.259v2.665c.002.268.074.48.216.636a.733.733 0 00.57.233.905.905 0 00.425-.103.813.813 0 00.319-.313.96.96 0 00.121-.512zm4.68-2.606v.946h-2.733v-.946h2.733zm-2.113-1.087h1.259v4.231a.58.58 0 00.053.272.298.298 0 00.148.133c.065.025.14.038.224.038a1.186 1.186 0 00.314-.041l.197.937a3.655 3.655 0 01-.265.067 2.118 2.118 0 01-.417.051 1.922 1.922 0 01-.798-.121 1.12 1.12 0 01-.529-.432c-.126-.195-.188-.441-.186-.738v-4.397zm4.934 5.714c-.459 0-.856-.097-1.19-.292a2.007 2.007 0 01-.772-.822c-.181-.352-.271-.761-.271-1.226 0-.469.09-.878.271-1.229.182-.352.439-.626.772-.821.334-.197.731-.296 1.19-.296.459 0 .855.099 1.188.296.335.195.593.469.774.821.181.351.272.76.272 1.229 0 .465-.091.874-.272 1.226a1.993 1.993 0 01-.774.822c-.333.195-.729.292-1.188.292zm.006-.975a.783.783 0 00.523-.177 1.1 1.1 0 00.316-.49 2.12 2.12 0 00.11-.707c0-.264-.037-.499-.11-.706a1.095 1.095 0 00-.316-.49.775.775 0 00-.523-.18.803.803 0 00-.532.18c-.141.12-.249.283-.322.49a2.17 2.17 0 00-.106.706c0 .264.035.5.106.707.073.206.181.37.322.49a.811.811 0 00.532.177zm6.644.961c-.344 0-.657-.089-.936-.266a1.85 1.85 0 01-.662-.789c-.162-.349-.242-.776-.242-1.283 0-.52.083-.952.251-1.297.167-.346.39-.605.667-.777.28-.173.586-.26.919-.26.254 0 .466.044.636.13.171.085.309.191.413.319.107.127.187.251.242.373h.039v-2.275h1.256v6.051h-1.241v-.727h-.054a1.596 1.596 0 01-.251.375 1.236 1.236 0 01-.416.304c-.17.081-.376.122-.621.122zm.399-1.002a.8.8 0 00.514-.166c.142-.112.25-.268.325-.469.077-.201.115-.437.115-.706 0-.27-.037-.505-.112-.704a1.013 1.013 0 00-.325-.461.828.828 0 00-.517-.162.818.818 0 00-.523.168 1.034 1.034 0 00-.322.467c-.073.199-.109.43-.109.692 0 .263.036.497.109.7.075.201.182.358.322.473a.818.818 0 00.523.168zm5.287 1.016c-.467 0-.869-.094-1.206-.283a1.939 1.939 0 01-.774-.81c-.181-.351-.272-.765-.272-1.244 0-.467.091-.876.272-1.229a2.01 2.01 0 01.765-.824c.331-.197.719-.296 1.164-.296.3 0 .578.049.836.145.26.095.487.237.68.429.195.191.347.431.455.72.108.288.163.625.163 1.011v.346h-3.833v-.78h2.648a.972.972 0 00-.118-.482.854.854 0 00-.328-.328.935.935 0 00-.482-.121.965.965 0 00-.508.133.94.94 0 00-.343.351.994.994 0 00-.127.488v.742c0 .224.041.418.124.582a.914.914 0 00.358.378c.153.088.335.133.546.133.14 0 .268-.02.384-.059a.802.802 0 00.299-.178.781.781 0 00.189-.289l1.164.077c-.059.279-.18.524-.363.732a1.827 1.827 0 01-.704.485 2.65 2.65 0 01-.989.171zm5.318-4.627v.946h-2.733v-.946h2.733zm-2.113-1.087h1.259v4.231a.58.58 0 00.053.272.298.298 0 00.148.133c.065.025.14.038.224.038a1.186 1.186 0 00.314-.041l.197.937a3.655 3.655 0 01-.265.067 2.118 2.118 0 01-.417.051 1.922 1.922 0 01-.798-.121 1.12 1.12 0 01-.529-.432c-.126-.195-.188-.441-.186-.738v-4.397zm4.952 5.714c-.467 0-.869-.094-1.205-.283a1.939 1.939 0 01-.774-.81c-.182-.351-.272-.765-.272-1.244 0-.467.09-.876.272-1.229a2.01 2.01 0 01.765-.824c.331-.197.719-.296 1.164-.296.299 0 .578.049.836.145.26.095.486.237.68.429.195.191.346.431.455.72.108.288.162.625.162 1.011v.346h-3.832v-.78h2.647a.962.962 0 00-.118-.482.848.848 0 00-.328-.328.932.932 0 00-.481-.121.966.966 0 00-.509.133.937.937 0 00-.342.351.994.994 0 00-.127.488v.742c0 .224.041.418.124.582a.911.911 0 00.357.378c.154.088.336.133.547.133.14 0 .268-.02.384-.059a.798.798 0 00.298-.178.757.757 0 00.189-.289l1.164.077c-.059.279-.18.524-.363.732a1.823 1.823 0 01-.703.485 2.66 2.66 0 01-.99.171zm4.955 0c-.465 0-.865-.098-1.2-.295a1.998 1.998 0 01-.768-.827 2.682 2.682 0 01-.266-1.218c0-.465.09-.872.269-1.223.181-.352.438-.627.771-.824.333-.199.729-.299 1.188-.299.396 0 .742.072 1.04.216.297.144.533.346.706.606.173.26.269.565.287.916h-1.188a.92.92 0 00-.266-.547.76.76 0 00-.558-.21.843.843 0 00-.512.16 1.012 1.012 0 00-.336.458 1.952 1.952 0 00-.122.73c0 .289.04.535.119.738.08.203.194.358.339.464a.85.85 0 00.512.16c.143 0 .272-.03.387-.089a.75.75 0 00.286-.257.985.985 0 00.151-.411h1.188c-.02.347-.115.652-.284.916a1.715 1.715 0 01-.694.615c-.296.147-.645.221-1.049.221zm5.246-4.627v.946h-2.733v-.946h2.733zm-2.112-1.087h1.258v4.231c0 .116.018.207.054.272a.292.292 0 00.147.133c.065.025.14.038.225.038a1.173 1.173 0 00.313-.041l.198.937a3.706 3.706 0 01-.266.067 2.097 2.097 0 01-.416.051 1.917 1.917 0 01-.798-.121 1.115 1.115 0 01-.529-.432c-.126-.195-.188-.441-.186-.738v-4.397zm2.932 5.626v-4.539h1.259v4.539h-1.259zm.633-5.124a.684.684 0 01-.482-.186.602.602 0 01-.198-.452c0-.173.066-.322.198-.446a.678.678 0 01.482-.189c.187 0 .346.063.478.189a.587.587 0 01.201.446.598.598 0 01-.201.452.673.673 0 01-.478.186zm3.685 5.212c-.459 0-.856-.097-1.191-.292a1.999 1.999 0 01-.771-.822c-.181-.352-.272-.761-.272-1.226 0-.469.091-.878.272-1.229.181-.352.438-.626.771-.821.335-.197.732-.296 1.191-.296.459 0 .854.099 1.187.296.335.195.593.469.774.821.182.351.272.76.272 1.229 0 .465-.09.874-.272 1.226a1.993 1.993 0 01-.774.822c-.333.195-.728.292-1.187.292zm.005-.975a.781.781 0 00.523-.177c.14-.12.246-.284.317-.49.072-.207.109-.443.109-.707a2.14 2.14 0 00-.109-.706 1.097 1.097 0 00-.317-.49.773.773 0 00-.523-.18.8.8 0 00-.531.18c-.142.12-.25.283-.322.49a2.168 2.168 0 00-.107.706c0 .264.036.5.107.707.072.206.18.37.322.49a.808.808 0 00.531.177zm4.305-1.737v2.624h-1.258v-4.539h1.199v.801h.053c.101-.264.269-.473.506-.626.236-.156.523-.234.859-.234.315 0 .59.069.825.207.234.138.416.335.546.591.13.254.195.558.195.91v2.89h-1.258v-2.665c.002-.278-.069-.495-.213-.65-.144-.158-.342-.237-.594-.237a.902.902 0 00-.449.11.75.75 0 00-.301.319 1.104 1.104 0 00-.11.499z" fill="#000"/><path fill="#FFFEFE" d="M29.832 488.109h212.821v1.598H29.832z"/><rect x="192.483" y="536.042" width="34.511" height="15.658" rx="7.829" fill="#174EA6"/><path d="M203.445 543.895c0 .569-.104 1.057-.312 1.466a2.281 2.281 0 01-.856.941c-.36.219-.77.328-1.229.328-.461 0-.873-.109-1.235-.328a2.292 2.292 0 01-.852-.943c-.208-.409-.312-.897-.312-1.464 0-.568.104-1.056.312-1.463.208-.409.492-.723.852-.941.362-.22.774-.33 1.235-.33.459 0 .869.11 1.229.33.363.218.648.532.856.941.208.407.312.895.312 1.463zm-.796 0c0-.433-.07-.798-.21-1.094a1.547 1.547 0 00-.572-.676 1.488 1.488 0 00-.819-.231c-.307 0-.581.077-.821.231a1.56 1.56 0 00-.572.676c-.139.296-.208.661-.208 1.094 0 .433.069.799.208 1.097.14.297.331.522.572.676.24.153.514.229.821.229.305 0 .578-.076.819-.229.242-.154.433-.379.572-.676.14-.298.21-.664.21-1.097zm6.094-2.662v5.324h-.738l-2.706-3.904h-.05v3.904h-.803v-5.324h.743l2.709 3.91h.049v-3.91h.796z" fill="#fff"/><circle cx="219.165" cy="543.871" r="5.273" fill="#fff"/><path d="M46.886 575.636v-5.04h1.989c.382 0 .708.073.977.219.269.144.474.345.615.603.143.256.214.551.214.886 0 .334-.072.63-.216.886a1.495 1.495 0 01-.628.598c-.272.142-.602.214-.99.214H47.58v-.854h1.095c.206 0 .375-.036.507-.106a.702.702 0 00.3-.298.934.934 0 00.102-.44.906.906 0 00-.101-.438.67.67 0 00-.3-.293 1.09 1.09 0 00-.513-.106h-.718v4.169h-1.066zm4.467 0v-3.78h1.017v.659h.04a.974.974 0 01.346-.531.909.909 0 01.561-.182c.053 0 .11.003.17.009.06.007.114.016.16.028v.93a1.92 1.92 0 00-.443-.057.841.841 0 00-.413.101.748.748 0 00-.39.684v2.139h-1.048zm2.836 0v-3.78h1.048v3.78H54.19zm.527-4.268a.567.567 0 01-.401-.155.502.502 0 01-.165-.376c0-.144.055-.268.165-.372a.564.564 0 01.4-.157c.157 0 .29.052.4.157a.498.498 0 010 .748.558.558 0 01-.4.155zm1.361 4.268v-3.78h1v.667h.044c.078-.222.21-.397.393-.525.184-.127.404-.191.66-.191.26 0 .48.064.662.194a.916.916 0 01.364.522h.04c.077-.217.216-.39.418-.52.203-.131.444-.196.721-.196.353 0 .639.112.859.337.221.223.332.539.332.95v2.542h-1.046V573.3c0-.21-.056-.367-.167-.472a.587.587 0 00-.419-.158.563.563 0 00-.445.182.69.69 0 00-.16.475v2.309h-1.016v-2.358a.61.61 0 00-.16-.443.549.549 0 00-.416-.165.578.578 0 00-.315.089.607.607 0 00-.22.244.771.771 0 00-.08.364v2.269h-1.049zm7.4.071a1.59 1.59 0 01-.646-.125 1.041 1.041 0 01-.448-.377 1.128 1.128 0 01-.162-.625c0-.21.039-.386.116-.529a.936.936 0 01.315-.345c.133-.087.283-.152.453-.197.17-.044.349-.075.536-.093.22-.023.397-.044.532-.064a.747.747 0 00.292-.094.205.205 0 00.091-.182v-.014a.453.453 0 00-.147-.362c-.097-.085-.235-.128-.414-.128a.739.739 0 00-.45.125.58.58 0 00-.221.31l-.97-.078c.05-.23.146-.428.29-.596a1.4 1.4 0 01.559-.389c.23-.092.495-.137.797-.137.21 0 .411.024.603.073.194.05.365.126.515.229a1.114 1.114 0 01.487.977v2.55h-.994v-.524h-.03a1.063 1.063 0 01-.61.521c-.143.05-.308.074-.495.074zm.3-.723a.89.89 0 00.408-.091.728.728 0 00.278-.251.647.647 0 00.1-.357v-.401a.573.573 0 01-.135.059 2.337 2.337 0 01-.189.046c-.07.013-.141.026-.212.037l-.192.027a1.31 1.31 0 00-.322.086.523.523 0 00-.214.16.392.392 0 00-.076.247.38.38 0 00.155.327.676.676 0 00.398.111zm2.641.652v-3.78h1.016v.659h.04a.973.973 0 01.347-.531.908.908 0 01.561-.182c.052 0 .11.003.17.009.06.007.114.016.16.028v.93a1.923 1.923 0 00-.443-.057.842.842 0 00-.414.101.747.747 0 00-.389.684v2.139h-1.048zm3.598 1.417a2.016 2.016 0 01-.66-.108l.237-.783c.123.038.233.059.332.062.1.003.186-.02.258-.069a.513.513 0 00.18-.251l.061-.16-1.355-3.888h1.102l.783 2.776h.039l.79-2.776h1.11l-1.47 4.188a1.75 1.75 0 01-.287.532c-.12.152-.272.27-.456.352a1.607 1.607 0 01-.664.125zm4.845-5.579v-.878h4.14v.878h-1.544v4.162h-1.053v-4.162h-1.543zm4.801 4.162v-3.78h1.049v3.78h-1.049zm.527-4.268a.567.567 0 01-.401-.155.502.502 0 01-.165-.376c0-.144.055-.268.165-.372a.564.564 0 01.4-.157c.157 0 .29.052.4.157a.498.498 0 010 .748.558.558 0 01-.4.155zm1.361 4.268v-3.78h1v.667h.044c.079-.222.21-.397.394-.525.183-.127.403-.191.66-.191.258 0 .479.064.661.194a.916.916 0 01.364.522h.04c.077-.217.216-.39.418-.52.204-.131.444-.196.721-.196.353 0 .64.112.859.337.222.223.332.539.332.95v2.542h-1.046V573.3c0-.21-.055-.367-.167-.472a.587.587 0 00-.418-.158.563.563 0 00-.446.182.69.69 0 00-.16.475v2.309H83.79v-2.358a.61.61 0 00-.16-.443.548.548 0 00-.416-.165.578.578 0 00-.315.089.608.608 0 00-.219.244.771.771 0 00-.081.364v2.269H81.55zm8.044.074c-.389 0-.723-.079-1.004-.237a1.618 1.618 0 01-.645-.674c-.15-.292-.226-.637-.226-1.036 0-.389.075-.73.226-1.024.151-.293.364-.522.638-.686a1.86 1.86 0 01.97-.246c.249 0 .48.04.696.12a1.557 1.557 0 01.945.957c.09.24.135.52.135.842v.288h-3.192v-.65h2.205a.804.804 0 00-.098-.401.71.71 0 00-.273-.273.781.781 0 00-.402-.101c-.159 0-.3.037-.423.111a.776.776 0 00-.285.293.823.823 0 00-.106.406v.617c0 .187.034.349.103.485.07.136.17.241.298.315.128.074.28.111.455.111a.987.987 0 00.32-.049.646.646 0 00.406-.389l.97.064c-.05.233-.15.436-.303.61-.15.173-.346.307-.586.404a2.211 2.211 0 01-.824.143zm3.989-.074v-.633l2.515-3.529h-2.52v-.878h3.858v.632l-2.517 3.529h2.522v.879h-3.858zm6.364.074a1.94 1.94 0 01-.992-.244 1.667 1.667 0 01-.642-.684 2.205 2.205 0 01-.226-1.021 2.2 2.2 0 01.226-1.024c.151-.294.365-.522.642-.684.28-.164.61-.246.992-.246s.712.082.989.246c.279.162.494.39.645.684.151.292.227.633.227 1.024 0 .387-.076.727-.227 1.021-.151.292-.366.52-.645.684-.277.162-.607.244-.989.244zm.005-.813a.655.655 0 00.436-.147.916.916 0 00.263-.409c.061-.172.091-.368.091-.588 0-.22-.03-.416-.091-.588a.927.927 0 00-.263-.409.647.647 0 00-.436-.15.668.668 0 00-.443.15.932.932 0 00-.268.409 1.78 1.78 0 00-.089.588c0 .22.03.416.089.588a.92.92 0 00.268.409c.12.098.268.147.443.147zm3.586-1.447v2.186h-1.049v-3.78h.999v.667h.045a1.05 1.05 0 01.421-.522c.196-.13.435-.194.716-.194.262 0 .491.057.686.172.196.115.347.279.456.492.108.212.162.464.162.758v2.407h-1.048v-2.22c.001-.231-.058-.412-.178-.541-.119-.132-.284-.197-.494-.197a.748.748 0 00-.374.091.622.622 0 00-.251.266.908.908 0 00-.091.415zm4.985 2.26c-.389 0-.724-.079-1.004-.237a1.62 1.62 0 01-.645-.674c-.151-.292-.226-.637-.226-1.036 0-.389.075-.73.226-1.024.151-.293.363-.522.637-.686.276-.164.599-.246.97-.246.249 0 .482.04.697.12a1.557 1.557 0 01.945.957c.09.24.135.52.135.842v.288h-3.192v-.65h2.205a.81.81 0 00-.098-.401.712.712 0 00-.274-.273.778.778 0 00-.401-.101c-.159 0-.3.037-.423.111a.816.816 0 00-.391.699v.617c0 .187.034.349.103.485.071.136.17.241.298.315.128.074.28.111.455.111a.986.986 0 00.32-.049.642.642 0 00.406-.389l.97.064c-.049.233-.15.436-.303.61a1.513 1.513 0 01-.586.404 2.209 2.209 0 01-.824.143z" fill="#AAADB4"/><path fill="#FFFEFE" d="M41.975 558.41H230.51v1.598H41.975z"/><path d="M54.202 583.612h87.707a7.158 7.158 0 017.158 7.158v5.902a7.158 7.158 0 01-7.158 7.157H54.202a7.158 7.158 0 01-7.157-7.157v-5.902a7.158 7.158 0 017.157-7.158z" fill="#FFFEFE" stroke="#C4C4C4" stroke-width="1.193"/><path d="M53.215 596.046v-4.313h.911v3.561h1.85v.752h-2.761zm4.809.063a1.66 1.66 0 01-.849-.208 1.431 1.431 0 01-.55-.586 1.883 1.883 0 01-.193-.874c0-.334.064-.626.194-.876a1.41 1.41 0 01.55-.585c.238-.141.52-.211.848-.211.327 0 .61.07.846.211.24.139.423.334.552.585.13.25.194.542.194.876 0 .332-.065.623-.194.874-.129.25-.313.445-.552.586a1.643 1.643 0 01-.846.208zm.004-.695a.559.559 0 00.373-.126.783.783 0 00.225-.35c.052-.147.078-.315.078-.503s-.026-.356-.078-.503a.783.783 0 00-.225-.35.55.55 0 00-.373-.128.57.57 0 00-.379.128.79.79 0 00-.23.35c-.05.147-.075.315-.075.503s.025.356.075.503a.79.79 0 00.23.35.579.579 0 00.38.126zm4.862-1.68l-.82.05a.423.423 0 00-.091-.189.48.48 0 00-.184-.137.624.624 0 00-.267-.053.657.657 0 00-.352.089c-.095.057-.143.134-.143.231 0 .077.031.143.093.196.062.053.168.096.318.129l.585.118c.315.064.55.168.703.311a.733.733 0 01.232.565.881.881 0 01-.187.558c-.124.16-.294.285-.51.374a1.93 1.93 0 01-.743.133c-.428 0-.77-.089-1.024-.267-.252-.18-.4-.424-.444-.733l.882-.047a.455.455 0 00.194.3.707.707 0 00.394.101.705.705 0 00.379-.091c.097-.062.146-.141.147-.238a.248.248 0 00-.103-.2.745.745 0 00-.312-.122l-.56-.112c-.316-.063-.55-.172-.705-.328a.816.816 0 01-.23-.596.87.87 0 01.169-.537 1.09 1.09 0 01.478-.348c.206-.081.448-.122.724-.122.409 0 .73.087.965.259a.999.999 0 01.412.706zm2.772 2.312h-.977l1.488-4.313h1.175l1.487 4.313h-.977l-1.08-3.327h-.034l-1.082 3.327zm-.061-1.695h2.308v.711H65.6v-.711zm4.633-.175v1.87h-.897v-3.235h.855v.571h.038a.9.9 0 01.36-.446c.169-.111.373-.167.613-.167.225 0 .42.049.588.148a.998.998 0 01.39.421c.092.181.138.397.138.648v2.06h-.897v-1.9c.002-.198-.049-.352-.151-.463a.545.545 0 00-.424-.168.643.643 0 00-.32.078.54.54 0 00-.215.227.788.788 0 00-.078.356zm4.25 3.15c-.291 0-.54-.04-.748-.12a1.235 1.235 0 01-.493-.322.988.988 0 01-.238-.459l.83-.112a.566.566 0 00.337.316.932.932 0 00.333.053.78.78 0 00.482-.143c.128-.094.191-.252.191-.474v-.592h-.037a.851.851 0 01-.48.451c-.124.05-.272.076-.443.076-.243 0-.464-.057-.663-.169a1.209 1.209 0 01-.474-.52c-.117-.234-.175-.531-.175-.889 0-.366.06-.672.18-.918a1.29 1.29 0 01.475-.552c.2-.122.418-.183.655-.183a1 1 0 01.455.093c.122.06.22.136.295.227.076.09.134.179.175.266h.033v-.544h.891v3.266c0 .276-.067.506-.202.691a1.215 1.215 0 01-.56.417c-.238.094-.51.141-.82.141zm.019-2a.61.61 0 00.366-.108.684.684 0 00.231-.311 1.31 1.31 0 00.083-.489c0-.189-.027-.354-.08-.493a.72.72 0 00-.232-.326.59.59 0 00-.368-.116.582.582 0 00-.373.12.72.72 0 00-.23.329c-.052.14-.078.302-.078.486 0 .187.026.348.078.484.053.135.13.24.23.314a.62.62 0 00.373.11zm3.75.783c-.333 0-.62-.067-.86-.202a1.387 1.387 0 01-.551-.577 1.908 1.908 0 01-.194-.887c0-.332.065-.624.194-.876a1.43 1.43 0 01.545-.587c.236-.141.513-.211.83-.211.213 0 .412.035.596.103a1.334 1.334 0 01.809.82c.077.205.115.445.115.72v.246h-2.73v-.556h1.886a.688.688 0 00-.084-.343.601.601 0 00-.234-.234.672.672 0 00-.343-.086.683.683 0 00-.697.693v.528c0 .16.03.299.088.415a.65.65 0 00.255.27c.11.063.24.094.39.094.1 0 .19-.014.273-.042a.55.55 0 00.348-.332l.83.054a1.13 1.13 0 01-.26.523 1.308 1.308 0 01-.5.345 1.899 1.899 0 01-.706.122zm2.967-4.376v4.313h-.897v-4.313h.897zm2.193 4.376c-.333 0-.62-.067-.86-.202a1.387 1.387 0 01-.551-.577 1.908 1.908 0 01-.194-.887c0-.332.065-.624.194-.876a1.43 1.43 0 01.545-.587c.236-.141.513-.211.83-.211.213 0 .412.035.596.103a1.334 1.334 0 01.808.82c.078.205.116.445.116.72v.246h-2.73v-.556h1.886a.688.688 0 00-.084-.343.601.601 0 00-.234-.234.672.672 0 00-.343-.086.683.683 0 00-.697.693v.528c0 .16.03.299.088.415a.65.65 0 00.255.27c.11.063.24.094.39.094.1 0 .19-.014.273-.042a.55.55 0 00.347-.332l.83.054c-.042.2-.128.374-.259.523a1.308 1.308 0 01-.5.345 1.899 1.899 0 01-.706.122zm4.761-2.375l-.821.05a.423.423 0 00-.09-.189.48.48 0 00-.184-.137.624.624 0 00-.267-.053.657.657 0 00-.352.089c-.096.057-.143.134-.143.231 0 .077.03.143.092.196.062.053.168.096.318.129l.586.118c.314.064.549.168.703.311a.733.733 0 01.232.565.881.881 0 01-.188.558 1.2 1.2 0 01-.51.374 1.93 1.93 0 01-.743.133c-.428 0-.769-.089-1.023-.267-.253-.18-.4-.424-.445-.733l.883-.047a.455.455 0 00.194.3.707.707 0 00.393.101.705.705 0 00.38-.091c.096-.062.146-.141.147-.238a.248.248 0 00-.103-.2.745.745 0 00-.312-.122l-.56-.112c-.316-.063-.551-.172-.706-.328a.816.816 0 01-.23-.596.87.87 0 01.17-.537 1.09 1.09 0 01.477-.348 1.98 1.98 0 01.725-.122c.408 0 .73.087.964.259a1 1 0 01.413.706z" fill="#4F5055"/><rect x="156.651" y="583.612" width="60.8" height="20.217" rx="7.157" fill="#FFFEFE" stroke="#C4C4C4" stroke-width="1.193"/><path d="M167.294 596.046v-4.313h.912v3.561h1.849v.752h-2.761zm4.809.063a1.66 1.66 0 01-.849-.208 1.43 1.43 0 01-.549-.586 1.886 1.886 0 01-.194-.874c0-.334.065-.626.194-.876a1.41 1.41 0 01.549-.585 1.64 1.64 0 01.849-.211c.327 0 .609.07.846.211.239.139.423.334.552.585.129.25.194.542.194.876 0 .332-.065.623-.194.874-.129.25-.313.445-.552.586a1.643 1.643 0 01-.846.208zm.004-.695a.56.56 0 00.373-.126.776.776 0 00.225-.35c.052-.147.078-.315.078-.503s-.026-.356-.078-.503a.776.776 0 00-.225-.35.55.55 0 00-.373-.128.57.57 0 00-.379.128.79.79 0 00-.229.35 1.532 1.532 0 00-.076.503c0 .188.025.356.076.503a.79.79 0 00.229.35.58.58 0 00.379.126zm4.863-1.68l-.822.05a.425.425 0 00-.09-.189.486.486 0 00-.184-.137.62.62 0 00-.267-.053.66.66 0 00-.352.089c-.095.057-.143.134-.143.231 0 .077.031.143.093.196.062.053.168.096.318.129l.585.118c.315.064.549.168.704.311a.734.734 0 01.231.565.88.88 0 01-.187.558c-.124.16-.294.285-.51.374a1.928 1.928 0 01-.743.133c-.428 0-.769-.089-1.024-.267-.252-.18-.4-.424-.444-.733l.882-.047a.458.458 0 00.194.3.709.709 0 00.394.101.704.704 0 00.379-.091c.097-.062.146-.141.147-.238a.245.245 0 00-.103-.2.742.742 0 00-.311-.122l-.561-.112c-.315-.063-.551-.172-.705-.328a.817.817 0 01-.23-.596c0-.208.057-.387.169-.537.114-.15.273-.266.478-.348.206-.081.448-.122.724-.122.409 0 .73.087.965.259.236.173.373.408.413.706zm2.771 2.312h-.977l1.488-4.313h1.176l1.486 4.313h-.977l-1.08-3.327h-.034l-1.082 3.327zm-.061-1.695h2.308v.711h-2.308v-.711zm4.634-.175v1.87h-.898v-3.235h.855v.571h.038a.904.904 0 01.36-.446c.169-.111.373-.167.613-.167.225 0 .421.049.588.148a.992.992 0 01.389.421c.093.181.139.397.139.648v2.06h-.897v-1.9c.002-.198-.049-.352-.151-.463a.547.547 0 00-.424-.168.645.645 0 00-.32.078.543.543 0 00-.215.227.79.79 0 00-.077.356zm4.249 3.15c-.291 0-.54-.04-.748-.12a1.238 1.238 0 01-.493-.322.995.995 0 01-.238-.459l.83-.112a.566.566 0 00.337.316.93.93 0 00.333.053.78.78 0 00.482-.143c.128-.094.192-.252.192-.474v-.592h-.038a.876.876 0 01-.177.255.902.902 0 01-.304.196 1.17 1.17 0 01-.442.076c-.243 0-.464-.057-.663-.169a1.21 1.21 0 01-.474-.52c-.116-.234-.175-.531-.175-.889 0-.366.06-.672.179-.918.12-.246.278-.429.476-.552.2-.122.418-.183.655-.183a1 1 0 01.455.093c.122.06.22.136.295.227.076.09.134.179.175.266h.033v-.544h.891v3.266c0 .276-.067.506-.202.691a1.218 1.218 0 01-.56.417 2.214 2.214 0 01-.819.141zm.019-2a.61.61 0 00.366-.108.69.69 0 00.232-.311c.054-.137.082-.299.082-.489 0-.189-.027-.354-.08-.493a.726.726 0 00-.232-.326.59.59 0 00-.368-.116.581.581 0 00-.373.12.723.723 0 00-.23.329c-.052.14-.078.302-.078.486 0 .187.026.348.078.484.054.135.13.24.23.314a.62.62 0 00.373.11zm3.75.783c-.333 0-.619-.067-.859-.202a1.384 1.384 0 01-.552-.577 1.909 1.909 0 01-.194-.887c0-.332.065-.624.194-.876.129-.251.311-.447.546-.587.235-.141.512-.211.829-.211.214 0 .412.035.596.103.185.068.347.17.485.306.138.136.247.307.324.514.077.205.116.445.116.72v.246h-2.732v-.556h1.887a.69.69 0 00-.084-.343.598.598 0 00-.234-.234.67.67 0 00-.343-.086.682.682 0 00-.697.693v.528c0 .16.029.299.088.415a.658.658 0 00.255.27c.11.063.24.094.39.094a.856.856 0 00.274-.042.552.552 0 00.347-.332l.83.054c-.042.2-.129.374-.259.523a1.308 1.308 0 01-.502.345 1.893 1.893 0 01-.705.122zm2.967-4.376v4.313h-.897v-4.313h.897zm2.193 4.376c-.333 0-.619-.067-.859-.202a1.384 1.384 0 01-.552-.577 1.909 1.909 0 01-.194-.887c0-.332.065-.624.194-.876.129-.251.311-.447.545-.587.236-.141.513-.211.83-.211.213 0 .412.035.596.103.185.068.347.17.484.306.139.136.247.307.325.514.077.205.115.445.115.72v.246h-2.731v-.556h1.887a.69.69 0 00-.084-.343.598.598 0 00-.234-.234.672.672 0 00-.343-.086.682.682 0 00-.697.693v.528c0 .16.029.299.088.415a.652.652 0 00.255.27.766.766 0 00.39.094.85.85 0 00.273-.042.552.552 0 00.348-.332l.829.054c-.042.2-.128.374-.259.523a1.304 1.304 0 01-.501.345 1.893 1.893 0 01-.705.122zm4.761-2.375l-.821.05a.416.416 0 00-.091-.189.475.475 0 00-.183-.137.62.62 0 00-.267-.053.657.657 0 00-.352.089c-.096.057-.143.134-.143.231 0 .077.031.143.092.196.062.053.168.096.318.129l.586.118c.314.064.549.168.703.311a.732.732 0 01.232.565.88.88 0 01-.188.558c-.123.16-.293.285-.509.374a1.933 1.933 0 01-.744.133c-.428 0-.769-.089-1.023-.267a1.04 1.04 0 01-.444-.733l.882-.047a.454.454 0 00.194.3.704.704 0 00.394.101.706.706 0 00.379-.091c.096-.062.146-.141.147-.238a.248.248 0 00-.103-.2.747.747 0 00-.312-.122l-.56-.112c-.316-.063-.551-.172-.705-.328a.817.817 0 01-.23-.596c0-.208.056-.387.168-.537.114-.15.274-.266.478-.348a1.98 1.98 0 01.725-.122c.408 0 .73.087.964.259a1 1 0 01.413.706z" fill="#4F5055"/><path d="M135.129 592.283l2.558 2.47 2.558-2.47" stroke="#AAADB4" stroke-linecap="round" stroke-linejoin="round"/><path d="M48.075 629.321h-1.142l1.74-5.04h1.373l1.738 5.04h-1.142l-1.262-3.888h-.04l-1.265 3.888zm-.071-1.981H50.7v.832h-2.697v-.832zm5.584 2.042c-.287 0-.547-.074-.78-.221a1.534 1.534 0 01-.552-.657c-.134-.291-.201-.647-.201-1.068 0-.433.07-.794.209-1.081.14-.288.325-.504.556-.647.233-.144.488-.216.765-.216.212 0 .388.036.53.108.142.07.257.159.344.266.089.105.156.208.202.31h.032v-1.895h1.046v5.04h-1.034v-.606h-.044c-.05.105-.12.21-.21.313a1.032 1.032 0 01-.346.253 1.184 1.184 0 01-.517.101zm.332-.834a.67.67 0 00.428-.138.87.87 0 00.27-.391 1.64 1.64 0 00.097-.588c0-.225-.031-.42-.094-.586a.838.838 0 00-.27-.384.69.69 0 00-.431-.135.683.683 0 00-.436.14.859.859 0 00-.268.389 1.69 1.69 0 00-.09.576c0 .22.03.414.09.583a.903.903 0 00.268.394c.119.093.264.14.436.14zm4.073.834c-.287 0-.547-.074-.78-.221a1.534 1.534 0 01-.55-.657c-.135-.291-.203-.647-.203-1.068 0-.433.07-.794.21-1.081.139-.288.324-.504.556-.647.233-.144.488-.216.765-.216.212 0 .388.036.53.108.142.07.257.159.344.266.088.105.155.208.201.31h.032v-1.895h1.046v5.04h-1.033v-.606h-.044c-.05.105-.12.21-.21.313a1.032 1.032 0 01-.347.253 1.184 1.184 0 01-.517.101zm.333-.834a.67.67 0 00.428-.138.87.87 0 00.27-.391 1.64 1.64 0 00.097-.588c0-.225-.032-.42-.094-.586a.838.838 0 00-.27-.384.69.69 0 00-.431-.135.683.683 0 00-.436.14.86.86 0 00-.268.389 1.69 1.69 0 00-.091.576c0 .22.03.414.09.583a.903.903 0 00.27.394.68.68 0 00.435.14zm2.68.773v-3.78h1.049v3.78h-1.049zm.527-4.267a.568.568 0 01-.401-.156.502.502 0 01-.165-.376c0-.144.055-.268.165-.372a.564.564 0 01.4-.157c.157 0 .29.052.4.157a.498.498 0 010 .748.56.56 0 01-.4.156zm3.372.487v.787h-2.276v-.787h2.276zm-1.76-.906h1.049v3.524a.48.48 0 00.044.227c.03.052.07.089.123.11a.494.494 0 00.187.032.92.92 0 00.148-.012l.113-.022.165.78a3.558 3.558 0 01-.222.057 1.7 1.7 0 01-.346.041 1.592 1.592 0 01-.665-.1.93.93 0 01-.44-.36c-.105-.162-.157-.367-.156-.615v-3.662zm2.443 4.686v-3.78h1.048v3.78h-1.048zm.527-4.267a.567.567 0 01-.401-.156.501.501 0 01-.165-.376c0-.144.054-.268.164-.372a.564.564 0 01.402-.157c.156 0 .288.052.398.157a.498.498 0 010 .748.56.56 0 01-.398.156zm3.069 4.341c-.382 0-.713-.082-.992-.244a1.667 1.667 0 01-.642-.684 2.205 2.205 0 01-.227-1.021 2.2 2.2 0 01.227-1.024c.15-.294.365-.522.642-.684.28-.164.61-.246.992-.246s.712.082.99.246c.278.162.493.39.644.684a2.2 2.2 0 01.227 1.024c0 .387-.076.727-.227 1.021-.15.292-.366.52-.645.684-.277.162-.607.244-.989.244zm.005-.812c.174 0 .319-.05.436-.148a.912.912 0 00.263-.409c.06-.172.09-.368.09-.588 0-.22-.03-.416-.09-.588a.914.914 0 00-.264-.408.641.641 0 00-.435-.151.663.663 0 00-.443.151.922.922 0 00-.268.408 1.808 1.808 0 00-.089.588c0 .22.03.416.089.588a.92.92 0 00.268.409c.12.098.267.148.443.148zm3.586-1.448v2.186h-1.049v-3.78h1v.667h.044c.083-.22.224-.394.42-.522a1.27 1.27 0 01.716-.194c.263 0 .492.057.687.172.195.115.347.279.455.492.109.212.163.464.163.758v2.407h-1.049v-2.22c.002-.231-.057-.412-.177-.541-.12-.132-.284-.197-.494-.197a.749.749 0 00-.374.091.633.633 0 00-.251.266.916.916 0 00-.091.415zm4.34 2.257a1.59 1.59 0 01-.645-.125 1.043 1.043 0 01-.448-.377 1.129 1.129 0 01-.162-.625c0-.21.038-.386.116-.529a.936.936 0 01.315-.345c.133-.087.283-.152.452-.196a3.38 3.38 0 01.537-.094c.22-.023.397-.044.531-.064a.75.75 0 00.293-.093.206.206 0 00.091-.183v-.014a.453.453 0 00-.147-.362c-.097-.085-.235-.128-.414-.128a.739.739 0 00-.45.125.578.578 0 00-.222.311l-.97-.079a1.334 1.334 0 01.85-.985c.23-.091.495-.137.797-.137.21 0 .411.024.603.073.194.05.365.126.514.229.151.104.27.237.357.399a1.2 1.2 0 01.13.578v2.55h-.993v-.524h-.03a1.063 1.063 0 01-.61.521c-.143.05-.308.074-.495.074zm.3-.723a.89.89 0 00.409-.091.728.728 0 00.278-.251.647.647 0 00.1-.357v-.401a.573.573 0 01-.135.059 2.337 2.337 0 01-.19.046 5.21 5.21 0 01-.403.064c-.123.018-.23.047-.322.087a.507.507 0 00-.214.16.387.387 0 00-.076.246.38.38 0 00.155.327.675.675 0 00.398.111zm3.69-4.388v5.04h-1.048v-5.04h1.048zm2.272.878v-.878h4.14v.878h-1.544v4.162H84.92v-4.162h-1.543zm4.801 4.162v-3.78h1.049v3.78h-1.049zm.527-4.267a.568.568 0 01-.401-.156.502.502 0 01-.165-.376c0-.144.055-.268.165-.372a.564.564 0 01.4-.157c.157 0 .29.052.4.157a.498.498 0 010 .748.559.559 0 01-.4.156zm1.361 4.267v-3.78h1v.667h.044c.079-.222.21-.396.394-.524.183-.128.403-.192.659-.192.26 0 .48.064.662.194a.916.916 0 01.364.522h.04c.077-.217.216-.39.418-.52.203-.131.444-.196.721-.196.353 0 .639.112.859.337.221.223.332.539.332.95v2.542h-1.046v-2.336c0-.21-.056-.367-.167-.472a.587.587 0 00-.419-.158.563.563 0 00-.445.182.69.69 0 00-.16.475v2.309h-1.016v-2.358a.61.61 0 00-.16-.443.549.549 0 00-.416-.165.578.578 0 00-.315.089.606.606 0 00-.22.244.77.77 0 00-.08.364v2.269h-1.049zm8.044.074c-.389 0-.724-.079-1.004-.237a1.62 1.62 0 01-.645-.674c-.15-.292-.226-.637-.226-1.036 0-.389.075-.73.226-1.024.151-.293.363-.522.637-.686a1.86 1.86 0 01.97-.246c.25 0 .481.04.697.12a1.551 1.551 0 01.945.957c.09.24.135.521.135.842v.288h-3.192v-.65h2.205a.803.803 0 00-.099-.401.71.71 0 00-.273-.273.782.782 0 00-.4-.101.805.805 0 00-.424.111.776.776 0 00-.286.293.826.826 0 00-.105.406v.618c0 .187.034.348.103.484.07.136.17.241.298.315.128.074.28.111.455.111a.986.986 0 00.32-.049.638.638 0 00.406-.389l.97.064c-.05.233-.15.436-.303.61a1.516 1.516 0 01-.586.404 2.211 2.211 0 01-.824.143zm3.988-.074v-.633l2.516-3.529h-2.52v-.878h3.858v.632l-2.517 3.529h2.522v.879h-3.859zm6.365.074c-.382 0-.713-.082-.992-.244a1.668 1.668 0 01-.642-.684 2.203 2.203 0 01-.226-1.021c0-.391.075-.732.226-1.024.151-.294.365-.522.642-.684.279-.164.61-.246.992-.246s.712.082.989.246c.279.162.494.39.645.684.151.292.226.633.226 1.024 0 .387-.075.727-.226 1.021-.151.292-.366.52-.645.684-.277.162-.607.244-.989.244zm.005-.812c.174 0 .319-.05.436-.148a.916.916 0 00.263-.409c.061-.172.091-.368.091-.588 0-.22-.03-.416-.091-.588a.918.918 0 00-.263-.408.643.643 0 00-.436-.151.663.663 0 00-.443.151.917.917 0 00-.268.408 1.807 1.807 0 00-.089.588c0 .22.03.416.089.588.06.173.15.309.268.409.12.098.267.148.443.148zm3.586-1.448v2.186h-1.049v-3.78h.999v.667h.045c.083-.22.224-.394.42-.522.197-.13.436-.194.717-.194.262 0 .491.057.686.172.195.115.347.279.455.492.109.212.163.464.163.758v2.407h-1.048v-2.22c.001-.231-.058-.412-.178-.541-.119-.132-.284-.197-.494-.197a.748.748 0 00-.374.091.627.627 0 00-.251.266.908.908 0 00-.091.415zm4.985 2.26c-.389 0-.724-.079-1.004-.237a1.62 1.62 0 01-.645-.674c-.151-.292-.226-.637-.226-1.036 0-.389.075-.73.226-1.024.151-.293.363-.522.637-.686.276-.164.599-.246.97-.246.249 0 .481.04.696.12.217.079.406.198.566.357.163.159.289.359.379.6.091.24.136.521.136.842v.288h-3.192v-.65h2.205a.8.8 0 00-.099-.401.702.702 0 00-.273-.273.78.78 0 00-.401-.101c-.159 0-.3.037-.423.111a.774.774 0 00-.286.293.829.829 0 00-.105.406v.618c0 .187.034.348.103.484.071.136.17.241.298.315a.892.892 0 00.455.111.99.99 0 00.32-.049.651.651 0 00.406-.389l.97.064c-.05.233-.151.436-.303.61a1.513 1.513 0 01-.586.404 2.212 2.212 0 01-.824.143z" fill="#AAADB4"/><path fill="#FFFEFE" d="M42.295 612.095H230.83v1.598H42.295z"/><path d="M54.523 637.297h87.707a7.157 7.157 0 017.157 7.158v5.902a7.157 7.157 0 01-7.157 7.157H54.523a7.157 7.157 0 01-7.158-7.157v-5.902a7.158 7.158 0 017.158-7.158z" fill="#FFFEFE" stroke="#C4C4C4" stroke-width="1.193"/><path d="M54.98 649.794a1.66 1.66 0 01-.855-.21 1.428 1.428 0 01-.548-.59 1.908 1.908 0 01-.19-.868c0-.331.065-.622.192-.871.13-.252.313-.448.55-.588.237-.142.52-.213.846-.213.283 0 .53.052.742.154.212.103.38.246.503.432.123.185.191.403.204.653h-.846a.652.652 0 00-.19-.39.541.541 0 00-.398-.15.6.6 0 00-.364.114.725.725 0 00-.24.327 1.394 1.394 0 00-.087.52c0 .206.029.382.085.526a.73.73 0 00.242.331.6.6 0 00.364.113.593.593 0 00.276-.063.531.531 0 00.204-.183.698.698 0 00.108-.293h.846a1.326 1.326 0 01-.202.653c-.12.187-.284.333-.495.438-.21.105-.46.158-.747.158zm2.94-.002c-.206 0-.39-.036-.55-.107a.889.889 0 01-.384-.323.963.963 0 01-.14-.534c0-.18.034-.331.1-.453a.8.8 0 01.27-.295c.113-.074.242-.131.387-.168a2.89 2.89 0 01.459-.08c.188-.02.34-.038.455-.055a.642.642 0 00.25-.08.176.176 0 00.078-.156v-.013a.387.387 0 00-.126-.309c-.083-.073-.2-.11-.354-.11a.625.625 0 00-.385.108.492.492 0 00-.19.265l-.83-.067c.043-.197.126-.367.25-.51a1.18 1.18 0 01.477-.333 1.84 1.84 0 01.682-.118c.18 0 .352.021.516.063.166.043.313.108.44.196.13.089.231.202.306.341.074.138.111.303.111.495v2.182h-.85v-.449h-.026a.912.912 0 01-.208.268.97.97 0 01-.314.179 1.301 1.301 0 01-.423.063zm.258-.619a.754.754 0 00.35-.078.615.615 0 00.237-.215.552.552 0 00.087-.305v-.343a.475.475 0 01-.116.05 1.872 1.872 0 01-.162.04l-.181.032-.165.023c-.105.015-.197.04-.276.074a.438.438 0 00-.183.136.337.337 0 00-.065.211c0 .122.044.216.133.28a.58.58 0 00.34.095zm3.158-1.312v1.87h-.898v-3.235h.855v.571h.038a.9.9 0 01.36-.446c.169-.111.373-.167.613-.167.225 0 .42.049.588.148a.997.997 0 01.39.421c.092.181.138.397.138.648v2.06h-.897v-1.899c.002-.198-.049-.353-.151-.464a.545.545 0 00-.424-.168.643.643 0 00-.32.078.54.54 0 00-.215.227.788.788 0 00-.077.356zm3.714 1.931c-.207 0-.39-.036-.552-.107a.888.888 0 01-.383-.323.962.962 0 01-.14-.534c0-.18.034-.331.1-.453a.8.8 0 01.27-.295c.113-.074.242-.131.387-.168.146-.038.299-.065.459-.08.188-.02.34-.038.455-.055a.643.643 0 00.25-.08.176.176 0 00.078-.156v-.013a.387.387 0 00-.126-.309.52.52 0 00-.354-.11.625.625 0 00-.385.108.491.491 0 00-.19.265l-.83-.067a1.13 1.13 0 01.249-.51c.123-.145.283-.256.478-.333a1.84 1.84 0 01.682-.118c.18 0 .352.021.516.063.166.043.313.108.44.196.13.089.231.202.306.341.074.138.111.303.111.495v2.182h-.85v-.449h-.026a.915.915 0 01-.208.268.971.971 0 01-.314.179 1.3 1.3 0 01-.423.063zm.257-.619a.754.754 0 00.35-.078.616.616 0 00.237-.215.553.553 0 00.086-.305v-.343a.475.475 0 01-.115.05 1.863 1.863 0 01-.163.04l-.18.032-.165.023c-.105.015-.197.04-.276.074a.438.438 0 00-.183.136.337.337 0 00-.065.211c0 .122.044.216.132.28a.58.58 0 00.341.095zm2.26.558v-3.235h.87v.565h.034a.833.833 0 01.296-.455.78.78 0 01.48-.156 1.27 1.27 0 01.283.032v.796a1.544 1.544 0 00-.38-.049.713.713 0 00-.353.087.632.632 0 00-.333.585v1.83h-.897zm3.079 1.213a1.8 1.8 0 01-.32-.027 1.152 1.152 0 01-.244-.066l.202-.669c.105.032.2.049.284.052a.36.36 0 00.221-.059.435.435 0 00.154-.215l.052-.136-1.16-3.328h.944l.67 2.376h.033l.676-2.376h.95l-1.258 3.585a1.5 1.5 0 01-.246.454 1.015 1.015 0 01-.39.302 1.375 1.375 0 01-.568.107z" fill="#4F5055"/><rect x="156.971" y="637.297" width="60.8" height="20.217" rx="7.157" fill="#FFFEFE" stroke="#C4C4C4" stroke-width="1.193"/><path d="M169.059 649.794c-.332 0-.617-.07-.855-.21a1.425 1.425 0 01-.548-.59 1.912 1.912 0 01-.189-.868c0-.331.064-.622.191-.871a1.42 1.42 0 01.55-.588c.237-.142.519-.213.846-.213.283 0 .53.052.742.154.212.103.379.246.503.432.124.185.192.403.204.653h-.846a.651.651 0 00-.19-.39.542.542 0 00-.398-.15.6.6 0 00-.364.114.717.717 0 00-.24.327 1.384 1.384 0 00-.086.52c0 .206.028.382.084.526a.725.725 0 00.242.331.599.599 0 00.364.113.59.59 0 00.276-.063.527.527 0 00.204-.183.698.698 0 00.108-.293h.846a1.323 1.323 0 01-.202.653 1.213 1.213 0 01-.495.438c-.21.105-.46.158-.747.158zm2.941-.002c-.206 0-.39-.036-.552-.107a.89.89 0 01-.383-.323.96.96 0 01-.139-.534c0-.18.033-.331.099-.453a.799.799 0 01.27-.295c.113-.074.242-.131.387-.168.146-.038.299-.065.459-.08.188-.02.34-.038.455-.055a.646.646 0 00.251-.08.177.177 0 00.077-.156v-.013a.387.387 0 00-.126-.309.52.52 0 00-.354-.11.624.624 0 00-.385.108.49.49 0 00-.19.265l-.829-.067a1.13 1.13 0 01.248-.51c.124-.145.283-.256.478-.333.197-.078.424-.118.683-.118.179 0 .351.021.515.063.166.043.313.108.441.196a.953.953 0 01.417.836v2.182h-.851v-.449h-.025a.917.917 0 01-.209.268.972.972 0 01-.314.179 1.298 1.298 0 01-.423.063zm.257-.619a.75.75 0 00.349-.078.606.606 0 00.238-.215.55.55 0 00.087-.305v-.343a.477.477 0 01-.116.05 1.922 1.922 0 01-.162.04l-.181.032-.165.023c-.105.015-.197.04-.275.074a.442.442 0 00-.184.136.34.34 0 00-.065.211c0 .122.044.216.133.28a.58.58 0 00.341.095zm3.158-1.312v1.87h-.897v-3.235h.854v.571h.038a.904.904 0 01.36-.446c.169-.111.373-.167.613-.167.225 0 .421.049.588.148a.992.992 0 01.389.421c.093.181.139.397.139.648v2.06h-.897v-1.899c.002-.198-.049-.353-.151-.464a.547.547 0 00-.424-.168.645.645 0 00-.32.078.534.534 0 00-.214.227.776.776 0 00-.078.356zm3.714 1.931c-.207 0-.391-.036-.552-.107a.89.89 0 01-.383-.323.96.96 0 01-.139-.534c0-.18.033-.331.099-.453a.805.805 0 01.269-.295c.114-.074.243-.131.388-.168.146-.038.299-.065.459-.08.188-.02.34-.038.455-.055a.64.64 0 00.25-.08.176.176 0 00.078-.156v-.013a.387.387 0 00-.126-.309.52.52 0 00-.354-.11.624.624 0 00-.385.108.49.49 0 00-.19.265l-.83-.067a1.13 1.13 0 01.249-.51c.124-.145.283-.256.478-.333.197-.078.424-.118.682-.118.18 0 .352.021.516.063.166.043.313.108.44.196a.965.965 0 01.306.341c.074.138.111.303.111.495v2.182h-.85v-.449h-.026a.913.913 0 01-.208.268.972.972 0 01-.314.179 1.298 1.298 0 01-.423.063zm.257-.619a.75.75 0 00.349-.078.613.613 0 00.238-.215.55.55 0 00.087-.305v-.343a.495.495 0 01-.116.05 1.922 1.922 0 01-.162.04l-.182.032-.164.023c-.105.015-.197.04-.276.074a.445.445 0 00-.183.136.34.34 0 00-.065.211c0 .122.044.216.133.28a.577.577 0 00.341.095zm2.26.558v-3.235h.87v.565h.034a.833.833 0 01.297-.455.78.78 0 01.48-.156 1.266 1.266 0 01.282.032v.796a1.532 1.532 0 00-.379-.049.714.714 0 00-.354.087.633.633 0 00-.333.585v1.83h-.897zm3.079 1.213a1.8 1.8 0 01-.32-.027 1.144 1.144 0 01-.244-.066l.202-.669c.105.032.2.049.284.052a.36.36 0 00.221-.059.434.434 0 00.154-.215l.053-.136-1.161-3.328h.944l.669 2.376h.034l.676-2.376h.95l-1.258 3.585c-.06.174-.142.325-.246.454a1.012 1.012 0 01-.389.302 1.379 1.379 0 01-.569.107z" fill="#4F5055"/><path d="M135.449 645.968l2.558 2.47 2.559-2.47" stroke="#AAADB4" stroke-linecap="round" stroke-linejoin="round"/><path d="M48.075 683.644h-1.142l1.74-5.04h1.373l1.738 5.04h-1.142l-1.262-3.888h-.04l-1.265 3.888zm-.071-1.981H50.7v.832h-2.697v-.832zm5.584 2.043c-.287 0-.547-.074-.78-.222a1.534 1.534 0 01-.552-.657c-.134-.29-.201-.646-.201-1.068 0-.433.07-.793.209-1.08.14-.289.325-.505.556-.648.233-.144.488-.216.765-.216.212 0 .388.036.53.108.142.071.257.159.344.266.089.105.156.208.202.31h.032v-1.895h1.046v5.04h-1.034v-.605h-.044c-.05.105-.12.209-.21.312a1.047 1.047 0 01-.346.254 1.199 1.199 0 01-.517.101zm.332-.835a.67.67 0 00.428-.138.865.865 0 00.27-.391 1.64 1.64 0 00.097-.588c0-.225-.031-.42-.094-.586a.849.849 0 00-.27-.384.69.69 0 00-.431-.135.683.683 0 00-.436.14.859.859 0 00-.268.389 1.69 1.69 0 00-.09.576c0 .22.03.414.09.583a.897.897 0 00.268.394.68.68 0 00.436.14zm4.073.835c-.287 0-.547-.074-.78-.222a1.534 1.534 0 01-.55-.657c-.135-.29-.203-.646-.203-1.068 0-.433.07-.793.21-1.08.139-.289.324-.505.556-.648.233-.144.488-.216.765-.216.212 0 .388.036.53.108.142.071.257.159.344.266.088.105.155.208.201.31h.032v-1.895h1.046v5.04h-1.033v-.605h-.044c-.05.105-.12.209-.21.312a1.047 1.047 0 01-.347.254 1.199 1.199 0 01-.517.101zm.333-.835a.67.67 0 00.428-.138.865.865 0 00.27-.391 1.64 1.64 0 00.097-.588c0-.225-.032-.42-.094-.586a.849.849 0 00-.27-.384.69.69 0 00-.431-.135.683.683 0 00-.436.14.86.86 0 00-.268.389 1.69 1.69 0 00-.091.576c0 .22.03.414.09.583a.897.897 0 00.27.394c.117.094.263.14.435.14zm2.68.773v-3.78h1.049v3.78h-1.049zm.527-4.267a.571.571 0 01-.401-.155.504.504 0 010-.748.565.565 0 01.4-.158c.157 0 .29.053.4.158a.5.5 0 010 .748.562.562 0 01-.4.155zm3.372.487v.788h-2.276v-.788h2.276zm-1.76-.906h1.049v3.524a.48.48 0 00.044.227.25.25 0 00.123.111.514.514 0 00.187.032.82.82 0 00.148-.013l.113-.022.165.78a2.538 2.538 0 01-.222.057 1.78 1.78 0 01-.346.042 1.592 1.592 0 01-.665-.101.929.929 0 01-.44-.359 1.107 1.107 0 01-.156-.616v-3.662zm2.443 4.686v-3.78h1.048v3.78h-1.048zm.527-4.267a.57.57 0 01-.401-.155.503.503 0 010-.748.565.565 0 01.4-.158.56.56 0 01.4.158.5.5 0 010 .748.563.563 0 01-.4.155zm3.069 4.341c-.382 0-.713-.081-.992-.244a1.667 1.667 0 01-.642-.684 2.205 2.205 0 01-.227-1.021 2.2 2.2 0 01.227-1.024c.15-.294.365-.522.642-.684.28-.164.61-.246.992-.246s.712.082.99.246c.278.162.493.39.644.684a2.2 2.2 0 01.227 1.024c0 .387-.076.727-.227 1.021-.15.292-.366.52-.645.684-.277.163-.607.244-.989.244zm.005-.812a.65.65 0 00.436-.148.914.914 0 00.263-.408c.06-.173.09-.369.09-.589 0-.219-.03-.415-.09-.588a.914.914 0 00-.264-.408.645.645 0 00-.435-.15.668.668 0 00-.443.15.922.922 0 00-.268.408 1.816 1.816 0 00-.089.588c0 .22.03.416.089.589.06.172.15.308.268.408.12.099.267.148.443.148zm3.586-1.447v2.185h-1.049v-3.78h1v.667h.044c.083-.22.224-.394.42-.522a1.28 1.28 0 01.716-.194c.263 0 .492.057.687.172.195.115.347.279.455.492.109.212.163.465.163.758v2.407h-1.049v-2.22c.002-.231-.057-.412-.177-.541-.12-.131-.284-.197-.494-.197a.749.749 0 00-.374.091.633.633 0 00-.251.266.92.92 0 00-.091.416zm4.34 2.256a1.57 1.57 0 01-.645-.125 1.036 1.036 0 01-.448-.377 1.126 1.126 0 01-.162-.625c0-.21.038-.386.116-.529a.933.933 0 01.315-.344 1.52 1.52 0 01.452-.197 3.38 3.38 0 01.537-.094c.22-.023.397-.044.531-.064a.75.75 0 00.293-.093.206.206 0 00.091-.182v-.015a.453.453 0 00-.147-.362c-.097-.085-.235-.128-.414-.128-.188 0-.338.042-.45.126a.576.576 0 00-.222.31l-.97-.079c.05-.23.147-.428.291-.596a1.39 1.39 0 01.559-.388c.23-.092.495-.138.797-.138.21 0 .411.024.603.074.194.049.365.125.514.229a1.11 1.11 0 01.488.977v2.549h-.995v-.524h-.03a1.063 1.063 0 01-.61.522 1.522 1.522 0 01-.494.073zm.3-.723c.154 0 .29-.03.409-.091a.728.728 0 00.278-.251.647.647 0 00.1-.357v-.401a.573.573 0 01-.135.059 2.81 2.81 0 01-.4.084l-.193.027c-.123.018-.23.046-.322.086a.507.507 0 00-.214.16.387.387 0 00-.076.246c0 .143.051.252.155.327a.675.675 0 00.398.111zm3.69-4.388v5.04h-1.048v-5.04h1.048zm2.272.879v-.879h4.14v.879h-1.544v4.161H84.92v-4.161h-1.543zm4.801 4.161v-3.78h1.049v3.78h-1.049zm.527-4.267a.571.571 0 01-.401-.155.504.504 0 010-.748.565.565 0 01.4-.158c.157 0 .29.053.4.158a.5.5 0 010 .748.562.562 0 01-.4.155zm1.361 4.267v-3.78h1v.667h.044c.079-.222.21-.396.394-.524.183-.128.403-.192.659-.192.26 0 .48.065.662.194a.916.916 0 01.364.522h.04a.999.999 0 01.418-.519c.203-.132.444-.197.721-.197.353 0 .639.112.859.337.221.223.332.54.332.95v2.542h-1.046v-2.335c0-.21-.056-.368-.167-.473a.587.587 0 00-.419-.157.56.56 0 00-.445.182.686.686 0 00-.16.475v2.308h-1.016v-2.358a.61.61 0 00-.16-.443.551.551 0 00-.416-.164.578.578 0 00-.534.332.773.773 0 00-.081.364v2.269h-1.049zm8.044.074c-.389 0-.724-.079-1.004-.236a1.622 1.622 0 01-.645-.675c-.15-.292-.226-.637-.226-1.036 0-.389.075-.73.226-1.023.151-.294.363-.523.637-.687a1.86 1.86 0 01.97-.246c.25 0 .481.04.697.12a1.551 1.551 0 01.945.958c.09.239.135.52.135.841v.288h-3.192v-.649h2.205a.807.807 0 00-.099-.402.71.71 0 00-.273-.273.782.782 0 00-.4-.101.805.805 0 00-.424.111.776.776 0 00-.286.293.826.826 0 00-.105.406v.618c0 .187.034.348.103.485.07.136.17.241.298.315.128.073.28.11.455.11a.986.986 0 00.32-.049.638.638 0 00.406-.389l.97.064a1.33 1.33 0 01-.303.611 1.524 1.524 0 01-.586.403 2.211 2.211 0 01-.824.143zm3.988-.074v-.632l2.516-3.529h-2.52v-.879h3.858v.633l-2.517 3.528h2.522v.879h-3.859zm6.365.074c-.382 0-.713-.081-.992-.244a1.668 1.668 0 01-.642-.684 2.203 2.203 0 01-.226-1.021c0-.391.075-.732.226-1.024.151-.294.365-.522.642-.684.279-.164.61-.246.992-.246s.712.082.989.246c.279.162.494.39.645.684.151.292.226.633.226 1.024 0 .387-.075.727-.226 1.021-.151.292-.366.52-.645.684-.277.163-.607.244-.989.244zm.005-.812a.65.65 0 00.436-.148.918.918 0 00.263-.408c.061-.173.091-.369.091-.589 0-.219-.03-.415-.091-.588a.918.918 0 00-.263-.408.647.647 0 00-.436-.15.668.668 0 00-.443.15.917.917 0 00-.268.408 1.816 1.816 0 00-.089.588c0 .22.03.416.089.589.06.172.15.308.268.408.12.099.267.148.443.148zm3.586-1.447v2.185h-1.049v-3.78h.999v.667h.045c.083-.22.224-.394.42-.522a1.28 1.28 0 01.717-.194c.262 0 .491.057.686.172.195.115.347.279.455.492.109.212.163.465.163.758v2.407h-1.048v-2.22c.001-.231-.058-.412-.178-.541-.119-.131-.284-.197-.494-.197a.748.748 0 00-.374.091.627.627 0 00-.251.266.913.913 0 00-.091.416zm4.985 2.259c-.389 0-.724-.079-1.004-.236a1.622 1.622 0 01-.645-.675c-.151-.292-.226-.637-.226-1.036 0-.389.075-.73.226-1.023.151-.294.363-.523.637-.687.276-.164.599-.246.97-.246.249 0 .481.04.696.12.217.079.406.198.566.357.163.159.289.36.379.601.091.239.136.52.136.841v.288h-3.192v-.649h2.205a.804.804 0 00-.099-.402.702.702 0 00-.273-.273.78.78 0 00-.401-.101c-.159 0-.3.037-.423.111a.774.774 0 00-.286.293.829.829 0 00-.105.406v.618c0 .187.034.348.103.485.071.136.17.241.298.315.128.073.279.11.455.11a.99.99 0 00.32-.049.651.651 0 00.406-.389l.97.064a1.34 1.34 0 01-.303.611 1.522 1.522 0 01-.586.403 2.212 2.212 0 01-.824.143z" fill="#AAADB4"/><path fill="#FFFEFE" d="M42.295 666.418H230.83v1.598H42.295z"/><path d="M54.523 691.62h87.707a7.157 7.157 0 017.157 7.158v5.902a7.157 7.157 0 01-7.157 7.157H54.523a7.157 7.157 0 01-7.158-7.157v-5.902a7.158 7.158 0 017.158-7.158z" fill="#FFFEFE" stroke="#C4C4C4" stroke-width="1.193"/><path d="M54.98 704.117a1.66 1.66 0 01-.855-.21 1.428 1.428 0 01-.548-.59 1.904 1.904 0 01-.19-.867c0-.332.065-.622.192-.872.13-.252.313-.447.55-.588.237-.142.52-.212.846-.212.283 0 .53.051.742.153.212.103.38.247.503.432s.191.403.204.653h-.846a.652.652 0 00-.19-.39.545.545 0 00-.398-.149.606.606 0 00-.364.113.73.73 0 00-.24.327 1.394 1.394 0 00-.087.52c0 .206.029.382.085.526a.73.73 0 00.242.331.6.6 0 00.364.114.593.593 0 00.276-.063.542.542 0 00.204-.184.698.698 0 00.108-.292h.846a1.323 1.323 0 01-.202.652c-.12.187-.284.333-.495.438-.21.106-.46.158-.747.158zm2.916-1.933v1.87h-.898v-4.313h.872v1.649h.038a.914.914 0 01.354-.448c.163-.11.367-.164.613-.164.224 0 .42.049.587.147a.982.982 0 01.392.419c.094.181.14.398.139.651v2.059h-.897v-1.899c.001-.2-.05-.355-.152-.466-.1-.111-.242-.166-.425-.166a.659.659 0 00-.324.078.556.556 0 00-.22.227.773.773 0 00-.08.356zm2.803 1.87v-3.234h.897v3.234H60.7zm.45-3.651a.49.49 0 01-.343-.133.43.43 0 01-.14-.322.42.42 0 01.14-.318.483.483 0 01.344-.135c.133 0 .247.045.34.135a.427.427 0 010 .64.482.482 0 01-.34.133zm2.627 3.714a1.66 1.66 0 01-.855-.21 1.427 1.427 0 01-.547-.59 1.902 1.902 0 01-.19-.867c0-.332.064-.622.192-.872a1.42 1.42 0 01.55-.588c.237-.142.519-.212.846-.212.282 0 .53.051.741.153.212.103.38.247.503.432.124.185.192.403.205.653h-.847a.653.653 0 00-.19-.39.545.545 0 00-.397-.149.606.606 0 00-.365.113.73.73 0 00-.24.327 1.392 1.392 0 00-.086.52c0 .206.028.382.084.526a.73.73 0 00.242.331.6.6 0 00.365.114.593.593 0 00.276-.063.542.542 0 00.204-.184.701.701 0 00.107-.292h.847a1.322 1.322 0 01-.202.652c-.12.187-.285.333-.495.438-.21.106-.46.158-.748.158zm2.941-.002c-.206 0-.39-.036-.551-.107a.893.893 0 01-.383-.322.968.968 0 01-.14-.535c0-.18.034-.331.1-.453a.807.807 0 01.269-.295 1.32 1.32 0 01.388-.168c.145-.038.298-.065.459-.08.188-.02.34-.038.454-.055a.643.643 0 00.251-.08.176.176 0 00.078-.156v-.012a.388.388 0 00-.126-.31.519.519 0 00-.354-.11.625.625 0 00-.386.108.491.491 0 00-.19.265l-.829-.067a1.12 1.12 0 01.249-.51c.123-.144.283-.255.478-.333a1.84 1.84 0 01.682-.117c.18 0 .352.021.516.063.166.042.312.107.44.196.13.088.231.202.305.341.075.137.112.302.112.495v2.181h-.85v-.448h-.026a.911.911 0 01-.522.446 1.3 1.3 0 01-.424.063zm.257-.619a.754.754 0 00.35-.078.616.616 0 00.238-.215.55.55 0 00.086-.305v-.343a.475.475 0 01-.116.05 1.869 1.869 0 01-.162.04c-.06.012-.12.022-.18.032l-.165.023a1.13 1.13 0 00-.276.074.44.44 0 00-.183.137.332.332 0 00-.065.21c0 .122.044.216.132.28.09.064.204.095.341.095zm3.718 1.839c-.29 0-.54-.04-.747-.12a1.248 1.248 0 01-.493-.323.988.988 0 01-.238-.459l.83-.111a.548.548 0 00.337.316.933.933 0 00.332.052.78.78 0 00.483-.143c.127-.094.191-.252.191-.474v-.592h-.038a.851.851 0 01-.48.451 1.157 1.157 0 01-.442.076c-.243 0-.464-.056-.664-.169a1.203 1.203 0 01-.473-.52c-.117-.234-.175-.53-.175-.888 0-.367.06-.673.179-.919.12-.245.278-.429.476-.551.2-.122.418-.183.655-.183.18 0 .332.03.455.092a.87.87 0 01.294.228c.076.089.134.178.175.265h.034v-.543h.89v3.266c0 .275-.067.505-.201.69a1.208 1.208 0 01-.56.417 2.198 2.198 0 01-.82.142zm.02-2.001a.616.616 0 00.366-.107.682.682 0 00.231-.312c.055-.136.082-.299.082-.489a1.37 1.37 0 00-.08-.492.718.718 0 00-.231-.327.59.59 0 00-.369-.116.582.582 0 00-.373.12.726.726 0 00-.23.329c-.051.14-.077.302-.077.486 0 .187.026.349.078.485.053.135.13.239.23.314a.62.62 0 00.372.109zm3.737.783a1.66 1.66 0 01-.849-.208 1.426 1.426 0 01-.55-.586 1.883 1.883 0 01-.193-.873c0-.335.065-.627.194-.876.129-.252.312-.447.55-.586.238-.14.52-.21.848-.21.327 0 .61.07.847.21.238.139.422.334.551.586.13.249.194.541.194.876 0 .331-.065.622-.194.873a1.42 1.42 0 01-.551.586 1.65 1.65 0 01-.847.208zm.004-.695a.559.559 0 00.373-.126.785.785 0 00.225-.349c.052-.148.078-.316.078-.504s-.026-.356-.078-.503a.789.789 0 00-.225-.35.555.555 0 00-.373-.128.574.574 0 00-.379.128.797.797 0 00-.23.35c-.05.147-.075.315-.075.503s.025.356.076.504a.794.794 0 00.23.349.579.579 0 00.378.126z" fill="#4F5055"/><rect x="156.971" y="691.62" width="60.8" height="20.217" rx="7.157" fill="#FFFEFE" stroke="#C4C4C4" stroke-width="1.193"/><path d="M169.059 704.117c-.332 0-.617-.07-.855-.21a1.425 1.425 0 01-.548-.59 1.907 1.907 0 01-.189-.867c0-.332.064-.622.191-.872.129-.252.313-.447.55-.588.237-.142.519-.212.846-.212.283 0 .53.051.742.153.212.103.379.247.503.432s.192.403.204.653h-.846a.651.651 0 00-.19-.39.545.545 0 00-.398-.149.606.606 0 00-.364.113.722.722 0 00-.24.327 1.384 1.384 0 00-.086.52c0 .206.028.382.084.526a.725.725 0 00.242.331.6.6 0 00.364.114.59.59 0 00.276-.063.538.538 0 00.204-.184.699.699 0 00.108-.292h.846a1.32 1.32 0 01-.202.652 1.213 1.213 0 01-.495.438c-.21.106-.46.158-.747.158zm2.916-1.933v1.87h-.897v-4.313h.871v1.649h.038a.913.913 0 01.354-.448c.163-.11.367-.164.613-.164.225 0 .42.049.587.147a.982.982 0 01.392.419c.094.181.141.398.139.651v2.059h-.897v-1.899c.001-.2-.049-.355-.152-.466-.101-.111-.242-.166-.425-.166a.658.658 0 00-.324.078.551.551 0 00-.219.227.767.767 0 00-.08.356zm2.803 1.87v-3.234h.897v3.234h-.897zm.451-3.651a.487.487 0 01-.343-.133.427.427 0 01-.142-.322c0-.124.047-.23.142-.318a.48.48 0 01.343-.135c.133 0 .247.045.341.135a.428.428 0 010 .64.482.482 0 01-.341.133zm2.626 3.714c-.331 0-.616-.07-.855-.21a1.43 1.43 0 01-.547-.59 1.895 1.895 0 01-.19-.867c0-.332.064-.622.192-.872.129-.252.312-.447.549-.588.238-.142.52-.212.847-.212.282 0 .529.051.741.153.212.103.38.247.504.432.123.185.191.403.204.653h-.847a.656.656 0 00-.189-.39.545.545 0 00-.398-.149.609.609 0 00-.365.113.737.737 0 00-.24.327 1.404 1.404 0 00-.086.52c0 .206.028.382.084.526a.74.74 0 00.242.331.603.603 0 00.365.114.545.545 0 00.48-.247.698.698 0 00.107-.292h.847a1.33 1.33 0 01-.202.652c-.12.187-.285.333-.495.438-.211.106-.46.158-.748.158zm2.942-.002c-.207 0-.391-.036-.552-.107a.889.889 0 01-.383-.322.966.966 0 01-.139-.535c0-.18.033-.331.099-.453a.804.804 0 01.269-.295c.114-.074.243-.13.388-.168.146-.038.299-.065.459-.08.188-.02.339-.038.454-.055a.64.64 0 00.251-.08.176.176 0 00.078-.156v-.012a.388.388 0 00-.126-.31.52.52 0 00-.354-.11.622.622 0 00-.385.108.49.49 0 00-.19.265l-.83-.067a1.12 1.12 0 01.249-.51c.123-.144.283-.255.478-.333.196-.078.424-.117.682-.117.18 0 .352.021.516.063.166.042.312.107.44.196a.944.944 0 01.305.341c.075.137.112.302.112.495v2.181h-.851v-.448h-.025a.91.91 0 01-.522.446 1.298 1.298 0 01-.423.063zm.256-.619a.755.755 0 00.35-.078.62.62 0 00.238-.215.546.546 0 00.086-.305v-.343a.468.468 0 01-.115.05 1.858 1.858 0 01-.163.04c-.06.012-.12.022-.181.032l-.164.023a1.13 1.13 0 00-.276.074.44.44 0 00-.183.137.329.329 0 00-.065.21c0 .122.044.216.132.28.09.064.204.095.341.095zm3.718 1.839c-.29 0-.539-.04-.747-.12a1.243 1.243 0 01-.493-.323.995.995 0 01-.238-.459l.83-.111a.54.54 0 00.12.181.583.583 0 00.217.135.93.93 0 00.332.052.784.784 0 00.483-.143c.127-.094.191-.252.191-.474v-.592h-.038a.873.873 0 01-.48.451 1.154 1.154 0 01-.442.076c-.243 0-.464-.056-.663-.169a1.204 1.204 0 01-.474-.52c-.117-.234-.175-.53-.175-.888 0-.367.06-.673.179-.919.119-.245.278-.429.476-.551.199-.122.418-.183.655-.183a1 1 0 01.455.092c.122.061.22.136.295.228.075.089.134.178.174.265h.034v-.543h.891v3.266c0 .275-.068.505-.202.69a1.21 1.21 0 01-.561.417 2.19 2.19 0 01-.819.142zm.019-2.001a.617.617 0 00.367-.107.679.679 0 00.231-.312c.055-.136.082-.299.082-.489 0-.189-.026-.353-.08-.492a.715.715 0 00-.231-.327.591.591 0 00-.369-.116.58.58 0 00-.372.12.72.72 0 00-.23.329c-.052.14-.078.302-.078.486 0 .187.026.349.078.485.053.135.13.239.23.314a.618.618 0 00.372.109zm3.738.783a1.66 1.66 0 01-.849-.208 1.424 1.424 0 01-.549-.586 1.884 1.884 0 01-.194-.873c0-.335.065-.627.194-.876.129-.252.312-.447.549-.586.239-.14.522-.21.849-.21.327 0 .609.07.847.21.238.139.422.334.551.586.13.249.194.541.194.876 0 .331-.064.622-.194.873-.129.25-.313.446-.551.586a1.65 1.65 0 01-.847.208zm.004-.695a.56.56 0 00.373-.126.778.778 0 00.225-.349c.052-.148.078-.316.078-.504s-.026-.356-.078-.503a.782.782 0 00-.225-.35.556.556 0 00-.373-.128.576.576 0 00-.379.128.796.796 0 00-.229.35 1.532 1.532 0 00-.076.503c0 .188.025.356.076.504a.793.793 0 00.229.349.58.58 0 00.379.126z" fill="#4F5055"/><path d="M135.449 700.291l2.558 2.47 2.559-2.47" stroke="#AAADB4" stroke-linecap="round" stroke-linejoin="round"/></g><path d="M254.116 438.469c6 0 10.864-4.864 10.864-10.865 0-6-4.864-10.864-10.864-10.864-6.001 0-10.865 4.864-10.865 10.864 0 6.001 4.864 10.865 10.865 10.865z" stroke="#D0D4DD" stroke-width="2.386" stroke-linecap="round" stroke-linejoin="round"/><path d="M254.115 431.951a4.346 4.346 0 100-8.691 4.346 4.346 0 000 8.691zm9.963-8.692h-9.963m-8.746-2.108l4.987 8.626m2.544 8.627l4.976-8.627" stroke="#D0D4DD" stroke-width="2.386" stroke-linecap="round" stroke-linejoin="round"/></g></g><defs><clipPath id="clip0_2_15"><rect width="375" height="762" rx="30" fill="#fff"/></clipPath><clipPath id="clip1_2_15"><path fill="#fff" transform="translate(0 560)" d="M0 0h375v210H0z"/></clipPath><clipPath id="clip2_2_15"><path fill="#fff" transform="translate(0 403)" d="M0 0h280v367H0z"/></clipPath><filter id="filter0_d_2_15" x="-184" y="403" width="464" height="568.604" filterUnits="userSpaceOnUse" color-interpolation-filters="sRGB"><feFlood flood-opacity="0" result="BackgroundImageFix"/><feColorMatrix in="SourceAlpha" values="0 0 0 0 0 0 0 0 0 0 0 0 0 0 0 0 0 0 127 0" result="hardAlpha"/><feOffset dx="-8" dy="12"/><feComposite in2="hardAlpha" operator="out"/><feColorMatrix values="0 0 0 0 0 0 0 0 0 0 0 0 0 0 0 0 0 0 0.15 0"/><feBlend in2="BackgroundImageFix" result="effect1_dropShadow_2_15"/><feBlend in="SourceGraphic" in2="effect1_dropShadow_2_15" result="shape"/></filter><filter id="filter1_d_2_15" x="21.832" y="451.681" width="220.821" height="295.596" filterUnits="userSpaceOnUse" color-interpolation-filters="sRGB"><feFlood flood-opacity="0" result="BackgroundImageFix"/><feColorMatrix in="SourceAlpha" values="0 0 0 0 0 0 0 0 0 0 0 0 0 0 0 0 0 0 127 0" result="hardAlpha"/><feOffset dx="-8" dy="8"/><feComposite in2="hardAlpha" operator="out"/><feColorMatrix values="0 0 0 0 0 0 0 0 0 0 0 0 0 0 0 0 0 0 0.15 0"/><feBlend in2="BackgroundImageFix" result="effect1_dropShadow_2_15"/><feBlend in="SourceGraphic" in2="effect1_dropShadow_2_15" result="shape"/></filter></defs></svg>