<svg width="577" height="686" fill="none" xmlns="http://www.w3.org/2000/svg"><g clip-path="url(#clip0_1_234)"><rect x="-35" y="348" width="456" height="453" rx="26.244" fill="#FFFEFE"/><rect x="16.094" y="485.534" width="38.398" height="8.727" rx="4.363" fill="#F0F1F5"/><rect x="16.094" y="558.141" width="38.398" height="8.727" rx="4.363" fill="#F0F1F5"/><rect x="16.094" y="630.748" width="38.398" height="8.727" rx="4.363" fill="#F0F1F5"/><rect x="16.094" y="512.605" width="167.549" height="2.245" rx="1.123" fill="#F0F1F5"/><rect x="16.094" y="536.743" width="167.549" height="2.245" rx="1.123" fill="#F0F1F5"/><rect x="16.094" y="524.674" width="155.702" height="2.245" rx="1.123" fill="#F0F1F5"/><rect x="16.094" y="585.212" width="167.549" height="2.245" rx="1.123" fill="#F0F1F5"/><rect x="16.094" y="609.35" width="167.549" height="2.245" rx="1.123" fill="#F0F1F5"/><rect x="16.094" y="597.28" width="155.702" height="2.245" rx="1.123" fill="#F0F1F5"/><rect x="16.094" y="657.819" width="167.549" height="2.245" rx="1.123" fill="#F0F1F5"/><rect x="16.094" y="681.957" width="167.549" height="2.245" rx="1.123" fill="#F0F1F5"/><rect x="16.094" y="669.887" width="155.702" height="2.245" rx="1.123" fill="#F0F1F5"/><path fill-rule="evenodd" clip-rule="evenodd" d="M-31.421 347.598A3.578 3.578 0 00-35 351.176v40.268h88.498a3.58 3.58 0 003.579-3.579v-22.503c0-1.013.421-1.928 1.098-2.579h139.574a3.57 3.57 0 011.097 2.579v22.503a3.579 3.579 0 003.578 3.579h218.574v-3.509l.001-.07v-26.082h-.003c.002-.094.003-.188.003-.283 0-7.456-6.044-13.5-13.5-13.5h-108c-1.387 0-2.725.209-3.985.598H51.594a3.56 3.56 0 00-2.48-1h-80.535z" fill="#F0F1F5"/><circle cx="8.115" cy="370.251" r="5.115" fill="#FDD171"/><circle cx="25.654" cy="370.251" r="5.115" fill="#65C157"/><circle cx="76.077" cy="373.905" r="5.846" fill="#E1E4EB"/><path fill="#E1E4EB" d="M89.231 372.443h70.154v4.385H89.231z"/><path d="M180.378 371.515l5.313 5.313m-5.313 0l5.313-5.313" stroke="#DBDEE4" stroke-width="2.386" stroke-linecap="round" stroke-linejoin="round"/><path d="M220.815 366.645v11.065m-5.532-5.533h11.065" stroke="#D0D4DD" stroke-width="3.579" stroke-linecap="round" stroke-linejoin="round"/><rect x="81.924" y="397.29" width="198.769" height="27.769" rx="13.885" fill="#F0F1F5"/><path fill="#E1E4EB" d="M119.924 408.982h125.692v4.385H119.924z"/><path d="M111.322 409.86h-8.182a1.17 1.17 0 00-1.169 1.169v4.092c0 .645.523 1.168 1.169 1.168h8.182c.646 0 1.169-.523 1.169-1.168v-4.092a1.17 1.17 0 00-1.169-1.169zm-7.013 0v-2.338a2.92 2.92 0 012.628-2.91 2.92 2.92 0 013.158 2.326" stroke="#D0D4DD" stroke-width="1.789" stroke-linecap="round" stroke-linejoin="round"/><path d="M110.095 409.863v-2.338a2.925 2.925 0 00-2.629-2.91 2.922 2.922 0 00-3.157 2.326" stroke="#D0D4DD" stroke-width="1.789" stroke-linecap="round" stroke-linejoin="round"/><path d="M17.614 411.6h11.083m-5.541 5.542l5.541-5.542-5.541-5.541" stroke="#AAADB4" stroke-width=".596" stroke-linecap="round" stroke-linejoin="round"/><path d="M57.352 414.28l4.11-4.111-4.11-4.11" stroke="#4F5055" stroke-width=".596" stroke-linecap="round" stroke-linejoin="round"/><path d="M48.309 419.213v-5.755a3.287 3.287 0 013.288-3.289h9.865" stroke="#4F5055" stroke-width=".596" stroke-linecap="round" stroke-linejoin="round"/><path fill="#F0F1F5" d="M-35 430.905h455.999v1.462H-35z"/><circle cx="395.085" cy="406.452" r="1.855" fill="#E1E4EB"/><circle cx="395.085" cy="412.635" r="1.855" fill="#E1E4EB"/><circle cx="395.085" cy="418.819" r="1.855" fill="#E1E4EB"/><circle cx="370.849" cy="412.2" r="11.692" fill="#E1E4EB"/><rect x="196.654" y="473.584" width="133.578" height="7.054" rx="3.527" fill="#F0F1F5"/><rect x="196.654" y="494.966" width="131.586" height="1.763" rx=".882" fill="#F0F1F5"/><rect x="196.654" y="532.858" width="83.998" height="1.787" rx=".894" fill="#F0F1F5"/><rect x="196.654" y="513.922" width="131.586" height="1.763" rx=".882" fill="#F0F1F5"/><rect x="196.654" y="504.444" width="122.282" height="1.763" rx=".882" fill="#F0F1F5"/><rect x="196.654" y="523.401" width="135.84" height="1.763" rx=".882" fill="#F0F1F5"/><path d="M202.958 453.321a1.49 1.49 0 00-2.688 0l-1.191 2.481-2.646.397a1.492 1.492 0 00-.834 2.529l1.938 1.94-.459 2.752a1.491 1.491 0 002.18 1.557l2.356-1.274 2.356 1.274a1.491 1.491 0 002.18-1.557l-.459-2.752 1.938-1.94c.397-.399.537-.987.361-1.521a1.495 1.495 0 00-1.195-1.008l-2.646-.397-1.191-2.481zm14.872-.011a1.49 1.49 0 00-2.677 0l-1.221 2.488-2.727.401a1.49 1.49 0 00-.827 2.54l1.978 1.937-.467 2.739a1.493 1.493 0 002.167 1.569l2.436-1.289 2.436 1.289a1.492 1.492 0 002.167-1.569l-.467-2.739 1.977-1.937c.405-.396.55-.988.374-1.526a1.489 1.489 0 00-1.201-1.014l-2.727-.401-1.221-2.488zm14.77 0a1.491 1.491 0 00-2.677 0l-1.221 2.488-2.727.401a1.492 1.492 0 00-.827 2.54l1.977 1.937-.467 2.739a1.492 1.492 0 002.167 1.569l2.436-1.289 2.436 1.289a1.493 1.493 0 002.167-1.569l-.467-2.739 1.977-1.937a1.49 1.49 0 00-.826-2.54l-2.727-.401-1.221-2.488zm14.768 0a1.491 1.491 0 00-2.677 0l-1.221 2.488-2.727.401a1.49 1.49 0 00-.827 2.54l1.978 1.937-.467 2.739a1.493 1.493 0 002.167 1.569l2.436-1.289 2.436 1.289a1.492 1.492 0 002.167-1.569l-.467-2.739 1.977-1.937c.405-.396.55-.988.374-1.526a1.489 1.489 0 00-1.201-1.014l-2.727-.401-1.221-2.488z" fill="#F0F1F5" stroke="#F0F1F5" stroke-width="2.982" stroke-linecap="round" stroke-linejoin="round"/><path d="M262.253 453.321a1.49 1.49 0 00-2.688 0l-1.191 2.481-2.646.397a1.492 1.492 0 00-.834 2.529l1.938 1.94-.459 2.752a1.491 1.491 0 002.18 1.557l2.356-1.274 2.356 1.274a1.49 1.49 0 002.18-1.557l-.459-2.752 1.938-1.94c.397-.399.537-.987.361-1.521a1.495 1.495 0 00-1.195-1.008l-2.646-.397-1.191-2.481z" stroke="#F0F1F5" stroke-width="2.982" stroke-linecap="round" stroke-linejoin="round"/><path d="M203.746 567.293c-1.175 0-2.219-.191-3.134-.572-.91-.386-1.624-.912-2.143-1.578a3.587 3.587 0 01-.778-2.265c0-.651.148-1.248.442-1.792.3-.549.707-1.004 1.221-1.365a4.007 4.007 0 011.723-.701v-.107c-.834-.168-1.51-.572-2.028-1.212-.519-.646-.778-1.396-.778-2.25 0-.808.236-1.527.709-2.158.473-.635 1.121-1.133 1.944-1.494.829-.366 1.769-.549 2.822-.549 1.052 0 1.99.183 2.813.549.829.366 1.48.866 1.952 1.502.473.63.712 1.347.717 2.15-.005.859-.269 1.609-.793 2.25a3.411 3.411 0 01-2.013 1.212v.107a3.946 3.946 0 011.7.701c.514.361.921.816 1.221 1.365a3.66 3.66 0 01.465 1.792 3.624 3.624 0 01-.786 2.265c-.518.666-1.235 1.192-2.15 1.578-.91.381-1.952.572-3.126.572zm0-2.425c.523 0 .981-.094 1.372-.282.392-.193.697-.457.915-.793.224-.34.336-.732.336-1.174 0-.453-.115-.852-.343-1.197a2.356 2.356 0 00-.931-.824c-.391-.203-.841-.305-1.349-.305-.504 0-.954.102-1.35.305a2.343 2.343 0 00-.938.824 2.148 2.148 0 00-.335 1.197c0 .442.109.834.327 1.174.219.336.527.6.923.793.397.188.854.282 1.373.282zm0-6.977c.437 0 .826-.089 1.166-.267.341-.178.608-.424.801-.739.193-.315.29-.679.29-1.091a1.954 1.954 0 00-1.083-1.792c-.336-.177-.727-.266-1.174-.266-.443 0-.834.089-1.175.266-.34.173-.607.415-.8.725a1.993 1.993 0 00-.282 1.067c0 .412.096.776.289 1.091.193.315.46.561.801.739.341.178.729.267 1.167.267zm10.299 7.374a1.78 1.78 0 01-1.296-.534 1.765 1.765 0 01-.534-1.296c0-.498.178-.925.534-1.281a1.78 1.78 0 011.296-.534c.488 0 .915.178 1.281.534.366.356.549.783.549 1.281 0 .335-.086.643-.259.922a1.977 1.977 0 01-.663.664 1.755 1.755 0 01-.908.244zm0-7.663a1.78 1.78 0 01-1.296-.534 1.765 1.765 0 01-.534-1.297c0-.498.178-.922.534-1.273a1.78 1.78 0 011.296-.534c.488 0 .915.178 1.281.534.366.351.549.775.549 1.273 0 .341-.086.651-.259.931a1.907 1.907 0 01-.663.655 1.747 1.747 0 01-.908.245zm10.239 9.691c-1.139 0-2.153-.196-3.042-.587-.885-.397-1.584-.94-2.097-1.632-.509-.696-.77-1.499-.786-2.409h3.325c.02.381.145.716.373 1.006.234.285.544.506.931.664.386.157.821.236 1.304.236.503 0 .948-.089 1.334-.267.386-.178.689-.424.907-.74.219-.315.328-.678.328-1.09 0-.417-.117-.785-.35-1.106-.229-.325-.56-.579-.992-.762-.427-.183-.935-.275-1.525-.275h-1.456v-2.424h1.456c.498 0 .938-.087 1.319-.26.387-.173.687-.412.9-.717.214-.31.32-.671.32-1.082a1.874 1.874 0 00-1.059-1.731c-.331-.168-.717-.252-1.159-.252-.448 0-.857.082-1.228.244a2.145 2.145 0 00-.892.679c-.224.295-.343.64-.359 1.037h-3.164c.015-.9.272-1.693.77-2.379.498-.686 1.169-1.223 2.013-1.609.849-.392 1.807-.587 2.875-.587 1.077 0 2.02.195 2.829.587.808.391 1.436.92 1.883 1.586.453.661.676 1.403.671 2.226.005.875-.267 1.604-.816 2.189-.544.584-1.253.956-2.127 1.113v.122c1.149.148 2.023.547 2.623 1.197.605.646.905 1.454.9 2.425.005.89-.252 1.68-.77 2.372-.514.691-1.223 1.235-2.128 1.631-.905.397-1.942.595-3.111.595zm14.505.13c-1.311-.005-2.44-.328-3.386-.969-.94-.64-1.664-1.568-2.173-2.783-.503-1.215-.752-2.676-.747-4.384 0-1.703.252-3.155.755-4.354.508-1.2 1.233-2.112 2.173-2.738.946-.63 2.072-.945 3.378-.945s2.43.315 3.37.945c.946.631 1.673 1.546 2.181 2.745.509 1.195.76 2.644.755 4.347 0 1.713-.254 3.177-.762 4.392-.504 1.215-1.226 2.142-2.166 2.783-.94.64-2.066.961-3.378.961zm0-2.738c.895 0 1.609-.45 2.143-1.349.533-.9.798-2.25.793-4.049 0-1.185-.122-2.171-.366-2.959-.239-.788-.58-1.38-1.022-1.777a2.23 2.23 0 00-1.548-.594c-.89 0-1.601.444-2.135 1.334-.534.89-.803 2.222-.808 3.996 0 1.199.119 2.201.358 3.004.244.798.587 1.398 1.03 1.8.442.396.96.594 1.555.594zm13.722 2.395v-15.617h6.161c1.184 0 2.193.226 3.027.679a4.59 4.59 0 011.906 1.868c.442.793.664 1.708.664 2.745 0 1.037-.224 1.952-.671 2.745-.448.793-1.096 1.411-1.945 1.853-.844.442-1.865.663-3.065.663h-3.927v-2.645h3.393c.635 0 1.159-.11 1.571-.328.417-.224.727-.532.93-.923.209-.396.313-.851.313-1.365 0-.518-.104-.971-.313-1.357a2.085 2.085 0 00-.93-.908c-.417-.218-.946-.327-1.586-.327h-2.227v12.917h-3.301zm13.902-15.617h4.072l4.301 10.492h.183l4.3-10.492h4.072v15.617h-3.203v-10.165h-.129l-4.041 10.088h-2.181l-4.042-10.126h-.129v10.203h-3.203v-15.617zm31.854 6.52v2.577h-7.122v-2.577h7.122zM203.57 577.25c.803 0 1.576.134 2.318.404a5.329 5.329 0 011.998 1.289c.59.589 1.055 1.372 1.396 2.348.345.971.521 2.163.526 3.576 0 1.327-.15 2.512-.45 3.554-.295 1.037-.72 1.919-1.274 2.646a5.567 5.567 0 01-2.005 1.662c-.783.376-1.657.564-2.623.564-1.042 0-1.962-.201-2.76-.602a5.186 5.186 0 01-1.93-1.655 5.151 5.151 0 01-.877-2.364h3.256c.128.57.394 1.012.801 1.327.407.31.91.465 1.51.465 1.017 0 1.789-.442 2.318-1.327.529-.889.795-2.107.801-3.652h-.107a3.748 3.748 0 01-.946 1.182 4.4 4.4 0 01-1.365.755 4.875 4.875 0 01-1.624.267c-.92 0-1.741-.216-2.463-.649a4.645 4.645 0 01-1.708-1.784c-.417-.757-.625-1.621-.625-2.592-.005-1.048.236-1.98.724-2.799a5.105 5.105 0 012.044-1.921c.879-.468 1.901-.699 3.065-.694zm.023 2.592c-.513 0-.971.122-1.372.366a2.699 2.699 0 00-.946.984 2.724 2.724 0 00-.335 1.38c0 .514.111.976.335 1.388.229.407.539.732.93.976a2.58 2.58 0 001.358.358c.381 0 .734-.071 1.06-.213.325-.143.607-.338.846-.587.244-.255.435-.547.572-.877a2.806 2.806 0 00-.145-2.41 2.677 2.677 0 00-.946-.991 2.522 2.522 0 00-1.357-.374zm10.431 11.423a1.78 1.78 0 01-1.296-.534 1.765 1.765 0 01-.534-1.296c0-.498.178-.925.534-1.281a1.78 1.78 0 011.296-.534c.488 0 .915.178 1.281.534.366.356.549.783.549 1.281 0 .335-.086.643-.259.922a1.977 1.977 0 01-.663.664 1.755 1.755 0 01-.908.244zm0-7.663a1.78 1.78 0 01-1.296-.534 1.765 1.765 0 01-.534-1.297c0-.498.178-.922.534-1.273a1.78 1.78 0 011.296-.534c.488 0 .915.178 1.281.534.366.351.549.775.549 1.273 0 .341-.086.651-.259.931a1.907 1.907 0 01-.663.655 1.747 1.747 0 01-.908.245zm10.239 9.691c-1.139 0-2.153-.196-3.042-.587-.885-.397-1.584-.94-2.097-1.632-.509-.696-.77-1.499-.786-2.409h3.325c.02.381.145.716.374 1.006.233.285.543.506.93.664.386.157.821.236 1.304.236.503 0 .948-.089 1.334-.267a2.19 2.19 0 00.908-.74c.218-.315.327-.678.327-1.09 0-.417-.117-.785-.35-1.106-.229-.325-.56-.579-.992-.762-.427-.183-.935-.275-1.525-.275h-1.456v-2.424h1.456c.498 0 .938-.087 1.319-.26.387-.173.687-.412.9-.717.214-.31.321-.671.321-1.082 0-.392-.095-.735-.283-1.03a1.864 1.864 0 00-.777-.701c-.331-.168-.717-.252-1.159-.252-.448 0-.857.082-1.228.244a2.145 2.145 0 00-.892.679c-.224.295-.343.64-.359 1.037h-3.164c.015-.9.272-1.693.77-2.379.498-.686 1.169-1.223 2.013-1.609.849-.392 1.807-.587 2.875-.587 1.078 0 2.021.195 2.829.587.808.391 1.436.92 1.883 1.586.453.661.676 1.403.671 2.226.005.875-.267 1.604-.816 2.189-.544.584-1.253.956-2.127 1.113v.122c1.149.148 2.023.547 2.623 1.197.605.646.905 1.454.9 2.425.005.89-.252 1.68-.77 2.372-.514.691-1.223 1.235-2.128 1.631-.905.397-1.942.595-3.111.595zm14.505.13c-1.311-.005-2.44-.328-3.386-.969-.94-.64-1.664-1.568-2.173-2.783-.503-1.215-.752-2.676-.747-4.384 0-1.703.252-3.155.755-4.354.508-1.2 1.233-2.112 2.173-2.738.946-.63 2.072-.945 3.378-.945 1.307 0 2.43.315 3.37.945.946.631 1.673 1.546 2.181 2.745.509 1.195.76 2.644.755 4.347 0 1.713-.254 3.177-.762 4.392-.504 1.215-1.226 2.142-2.166 2.783-.94.64-2.066.961-3.378.961zm0-2.738c.895 0 1.609-.45 2.143-1.349.534-.9.798-2.25.793-4.049 0-1.185-.122-2.171-.366-2.959-.239-.788-.58-1.38-1.022-1.777a2.23 2.23 0 00-1.548-.594c-.89 0-1.601.444-2.135 1.334-.534.89-.803 2.222-.808 3.996 0 1.199.119 2.201.358 3.004.244.798.587 1.398 1.03 1.8.442.396.96.594 1.555.594zm13.722 2.395v-15.617h6.161c1.184 0 2.193.226 3.027.679a4.59 4.59 0 011.906 1.868c.442.793.664 1.708.664 2.745 0 1.037-.224 1.952-.671 2.745-.448.793-1.096 1.411-1.945 1.853-.844.442-1.865.663-3.065.663h-3.927v-2.645h3.393c.636 0 1.159-.11 1.571-.328.417-.224.727-.532.93-.923.209-.396.313-.851.313-1.365 0-.518-.104-.971-.313-1.357a2.085 2.085 0 00-.93-.908c-.417-.218-.946-.327-1.586-.327h-2.227v12.917h-3.301zm13.902-15.617h4.072l4.301 10.492h.183l4.3-10.492h4.072v15.617h-3.202v-10.165h-.13l-4.041 10.088h-2.181l-4.042-10.126h-.129v10.203h-3.203v-15.617zM211.79 608.93h-3.34a3.27 3.27 0 00-.373-1.151 2.922 2.922 0 00-.725-.869 3.186 3.186 0 00-1.021-.549 3.916 3.916 0 00-1.243-.191c-.809 0-1.513.201-2.113.603-.599.396-1.065.976-1.395 1.738-.33.758-.496 1.678-.496 2.76 0 1.114.166 2.049.496 2.806.336.758.803 1.33 1.403 1.716.6.386 1.294.58 2.082.58.442 0 .851-.059 1.227-.176a3.22 3.22 0 001.015-.511 2.95 2.95 0 00.732-.831c.198-.325.335-.696.411-1.113l3.34.015a6.024 6.024 0 01-.648 2.074 6.254 6.254 0 01-1.38 1.777 6.514 6.514 0 01-2.059 1.235c-.793.3-1.69.45-2.692.45-1.392 0-2.638-.315-3.736-.945-1.093-.631-1.957-1.543-2.592-2.738-.631-1.194-.946-2.641-.946-4.339 0-1.703.32-3.151.961-4.346.64-1.195 1.51-2.104 2.608-2.73 1.098-.63 2.333-.945 3.705-.945a8.02 8.02 0 012.517.381 6.384 6.384 0 012.066 1.113 5.72 5.72 0 011.464 1.777c.381.701.625 1.505.732 2.409zm2.368 10.15v-15.617h10.523v2.722h-7.221v3.722h6.679v2.722h-6.679v3.728h7.251v2.723h-10.553zm12.553-12.895v-2.722h12.825v2.722h-4.781v12.895h-3.263v-12.895h-4.781z" fill="#E1E4EB"/><path fill="#F0F1F5" d="M402.812 431.761h1.645v202.321h-1.645z"/><path fill="#F0F1F5" d="M403.361 479.462h15.352v40.3h-15.352z"/><g filter="url(#filter0_d_1_234)"><rect x="171.151" y="396.278" width="212.501" height="287.596" rx="12.49" fill="#F7F5F2"/><path d="M204.338 416.217c0 5.365-4.353 9.713-9.723 9.713-5.369 0-9.722-4.348-9.722-9.713 0-5.364 4.353-9.713 9.722-9.713 5.37 0 9.723 4.349 9.723 9.713z" fill="#174EA6"/><path fill-rule="evenodd" clip-rule="evenodd" d="M199.634 425.869a10.76 10.76 0 005.741-9.519c0-4.295-2.518-8.002-6.159-9.728a9.729 9.729 0 011.518-.118c5.369 0 9.723 4.349 9.723 9.713 0 5.365-4.354 9.713-9.723 9.713-.372 0-.739-.021-1.1-.061z" fill="#E8D296"/><rect x="192.59" y="411.031" width="2.026" height="7.487" rx="1.013" fill="#E8D296"/><rect width="2.024" height="6.48" rx="1.012" transform="rotate(-59.975 458.325 42.328) skewX(.05)" fill="#E8D296"/><path d="M188.745 449.558h2.934l3.098 7.559h.132l3.099-7.559h2.933v11.251h-2.307v-7.323h-.093l-2.912 7.268h-1.571l-2.912-7.296h-.093v7.351h-2.308v-11.251zm16.518 11.41c-.538 0-1.018-.093-1.439-.28a2.326 2.326 0 01-1-.841c-.242-.373-.362-.838-.362-1.395 0-.469.086-.863.258-1.181.172-.319.406-.575.703-.769a3.399 3.399 0 011.011-.44c.381-.099.78-.168 1.197-.209a31.85 31.85 0 001.187-.142c.3-.048.518-.118.654-.209a.46.46 0 00.203-.407v-.033c0-.348-.11-.617-.33-.807-.216-.191-.523-.286-.923-.286-.421 0-.756.093-1.005.28a1.286 1.286 0 00-.494.692l-2.165-.175a2.94 2.94 0 01.649-1.33 3.11 3.11 0 011.247-.868c.512-.205 1.106-.307 1.779-.307.469 0 .918.054 1.346.164.433.11.815.281 1.149.511.337.231.602.528.796.89.194.359.291.789.291 1.291v5.692h-2.219v-1.171h-.066a2.383 2.383 0 01-.544.698c-.227.198-.5.354-.818.467-.319.11-.687.165-1.105.165zm.671-1.615c.344 0 .648-.068.912-.203.263-.14.47-.326.62-.561.15-.234.226-.5.226-.796v-.896a1.234 1.234 0 01-.303.132 5.256 5.256 0 01-.423.104c-.157.03-.315.057-.472.083l-.429.06c-.274.04-.514.105-.719.192a1.144 1.144 0 00-.478.358.865.865 0 00-.17.549c0 .319.115.562.346.731.234.164.531.247.89.247zm8.237-3.423v4.879h-2.34v-8.439h2.23v1.489h.099c.187-.491.5-.879.94-1.164.439-.29.972-.434 1.598-.434.586 0 1.097.128 1.533.384.436.256.775.623 1.016 1.099.242.472.363 1.036.363 1.692v5.373h-2.34v-4.956c.003-.516-.129-.919-.396-1.208-.267-.293-.635-.44-1.104-.44-.315 0-.593.068-.835.204a1.418 1.418 0 00-.561.593c-.131.256-.199.566-.203.928zm9.69 5.038c-.539 0-1.019-.093-1.44-.28a2.326 2.326 0 01-1-.841c-.241-.373-.362-.838-.362-1.395 0-.469.086-.863.258-1.181a2.09 2.09 0 01.703-.769 3.399 3.399 0 011.011-.44c.381-.099.78-.168 1.198-.209.49-.051.886-.099 1.186-.142.301-.048.519-.118.654-.209a.458.458 0 00.203-.407v-.033c0-.348-.11-.617-.329-.807-.216-.191-.524-.286-.923-.286-.421 0-.757.093-1.006.28a1.291 1.291 0 00-.494.692l-2.165-.175a2.94 2.94 0 01.649-1.33 3.117 3.117 0 011.247-.868c.513-.205 1.106-.307 1.78-.307.469 0 .917.054 1.346.164.432.11.815.281 1.148.511.337.231.602.528.796.89.195.359.292.789.292 1.291v5.692h-2.22v-1.171h-.066a2.366 2.366 0 01-.544.698c-.227.198-.5.354-.818.467-.319.11-.687.165-1.104.165zm.67-1.615c.344 0 .648-.068.912-.203.263-.14.47-.326.621-.561.15-.234.225-.5.225-.796v-.896a1.225 1.225 0 01-.302.132 5.476 5.476 0 01-.423.104c-.158.03-.315.057-.473.083l-.428.06a2.92 2.92 0 00-.72.192 1.15 1.15 0 00-.478.358.87.87 0 00-.17.549c0 .319.115.562.346.731.234.164.531.247.89.247zm9.699 4.796c-.758 0-1.408-.105-1.95-.313-.539-.206-.967-.486-1.286-.841a2.575 2.575 0 01-.621-1.198l2.165-.291c.066.169.17.326.313.473.143.146.331.263.566.351.238.092.527.138.868.138.509 0 .928-.125 1.258-.374.333-.245.5-.657.5-1.236v-1.544h-.099a2.232 2.232 0 01-.462.665 2.316 2.316 0 01-.791.511c-.322.132-.707.198-1.153.198a3.465 3.465 0 01-1.731-.44c-.516-.296-.928-.749-1.236-1.357-.304-.611-.456-1.384-.456-2.318 0-.956.156-1.754.467-2.395.311-.641.725-1.121 1.242-1.44a3.211 3.211 0 011.708-.477c.473 0 .868.08 1.187.241.318.158.575.356.769.594.198.234.35.465.456.692h.088v-1.418h2.323v8.521c0 .718-.175 1.318-.527 1.802-.352.483-.839.846-1.461 1.088-.619.245-1.332.368-2.137.368zm.049-5.219c.377 0 .696-.094.956-.28.264-.191.465-.462.604-.813.143-.356.215-.781.215-1.275 0-.494-.07-.923-.209-1.285-.139-.367-.341-.651-.604-.852-.264-.201-.585-.302-.962-.302-.384 0-.708.104-.972.313-.264.205-.463.491-.599.857a3.657 3.657 0 00-.203 1.269c0 .487.068.908.203 1.264.139.351.339.624.599.818.264.191.588.286.972.286zm9.784 2.043c-.868 0-1.615-.175-2.241-.527a3.609 3.609 0 01-1.439-1.505c-.337-.652-.506-1.423-.506-2.313 0-.868.169-1.63.506-2.285a3.735 3.735 0 011.422-1.533c.616-.366 1.337-.549 2.165-.549.557 0 1.075.089 1.555.269.483.176.904.441 1.263.796.363.356.645.802.846 1.341.202.534.302 1.161.302 1.879v.642h-7.125v-1.45h4.922c0-.337-.073-.635-.219-.895a1.576 1.576 0 00-.61-.61 1.743 1.743 0 00-.896-.225 1.8 1.8 0 00-.945.247 1.736 1.736 0 00-.637.653 1.85 1.85 0 00-.236.907v1.379c0 .417.077.778.231 1.082.157.304.379.538.664.703.286.165.625.247 1.017.247.26 0 .498-.036.714-.109.216-.074.401-.184.555-.33.154-.147.271-.326.351-.538l2.165.142c-.11.52-.335.975-.676 1.363a3.402 3.402 0 01-1.307.901c-.531.212-1.145.318-1.841.318zm8.596-9.454v-1.961h9.241v1.961h-3.445v9.29h-2.351v-9.29h-3.445zm10.718 9.29v-8.439h2.341v8.439h-2.341zm1.176-9.526c-.348 0-.646-.116-.895-.346a1.122 1.122 0 01-.368-.841c0-.322.122-.599.368-.829.249-.235.547-.352.895-.352s.645.117.89.352c.249.23.374.507.374.829 0 .326-.125.606-.374.841-.245.23-.542.346-.89.346zm3.039 9.526v-8.439h2.231v1.489h.099c.176-.494.469-.884.879-1.17.41-.286.901-.428 1.472-.428.579 0 1.071.144 1.478.434.406.285.677.673.813 1.164h.088c.172-.483.483-.87.934-1.159.454-.293.99-.439 1.609-.439.788 0 1.427.25 1.918.752.494.498.741 1.205.741 2.121v5.675h-2.335v-5.214c0-.469-.124-.82-.373-1.055-.249-.234-.561-.351-.934-.351-.425 0-.756.135-.994.406-.238.268-.358.621-.358 1.061v5.153h-2.268v-5.263c0-.414-.119-.744-.357-.989-.235-.246-.544-.368-.929-.368-.26 0-.494.066-.703.198a1.359 1.359 0 00-.489.543 1.728 1.728 0 00-.181.813v5.066h-2.341zm17.956.164c-.868 0-1.615-.175-2.241-.527a3.609 3.609 0 01-1.439-1.505c-.337-.652-.506-1.423-.506-2.313 0-.868.169-1.63.506-2.285a3.735 3.735 0 011.422-1.533c.616-.366 1.337-.549 2.165-.549.557 0 1.075.089 1.555.269.483.176.904.441 1.263.796.363.356.645.802.846 1.341.202.534.302 1.161.302 1.879v.642h-7.125v-1.45h4.922c0-.337-.073-.635-.219-.895a1.576 1.576 0 00-.61-.61 1.743 1.743 0 00-.896-.225 1.8 1.8 0 00-.945.247 1.736 1.736 0 00-.637.653 1.85 1.85 0 00-.236.907v1.379c0 .417.077.778.231 1.082.157.304.379.538.664.703.286.165.625.247 1.017.247.26 0 .498-.036.714-.109.216-.074.401-.184.555-.33.154-.147.271-.326.351-.538l2.165.142c-.11.52-.335.975-.676 1.363a3.402 3.402 0 01-1.307.901c-.531.212-1.145.318-1.841.318zm8.904-.164v-1.412l5.615-7.878h-5.626v-1.961h8.614v1.412l-5.62 7.877h5.631v1.962h-8.614zm14.208.164c-.853 0-1.591-.181-2.214-.543a3.728 3.728 0 01-1.434-1.528c-.337-.655-.505-1.415-.505-2.28 0-.871.168-1.633.505-2.285a3.677 3.677 0 011.434-1.527c.623-.366 1.361-.549 2.214-.549s1.589.183 2.208.549a3.666 3.666 0 011.44 1.527c.337.652.505 1.414.505 2.285 0 .865-.168 1.625-.505 2.28a3.716 3.716 0 01-1.44 1.528c-.619.362-1.355.543-2.208.543zm.011-1.812c.388 0 .712-.11.972-.33.26-.224.456-.527.588-.912.136-.385.203-.822.203-1.313s-.067-.928-.203-1.313c-.132-.385-.328-.689-.588-.912-.26-.223-.584-.335-.972-.335-.392 0-.722.112-.989.335-.264.223-.463.527-.599.912a4.035 4.035 0 00-.198 1.313c0 .491.066.928.198 1.313.136.385.335.688.599.912.267.22.597.33.989.33zm8.004-3.231v4.879h-2.34v-8.439h2.23v1.489h.099c.187-.491.5-.879.94-1.164.439-.29.972-.434 1.598-.434.586 0 1.097.128 1.533.384.436.256.774.623 1.016 1.099.242.472.363 1.036.363 1.692v5.373h-2.341v-4.956c.004-.516-.128-.919-.395-1.208-.267-.293-.635-.44-1.104-.44-.315 0-.594.068-.835.204a1.418 1.418 0 00-.561.593c-.131.256-.199.566-.203.928zm11.129 5.043c-.868 0-1.615-.175-2.242-.527a3.615 3.615 0 01-1.439-1.505c-.337-.652-.505-1.423-.505-2.313 0-.868.168-1.63.505-2.285a3.73 3.73 0 011.423-1.533c.615-.366 1.337-.549 2.164-.549.557 0 1.075.089 1.555.269a3.46 3.46 0 011.264.796c.362.356.644.802.846 1.341.201.534.302 1.161.302 1.879v.642h-7.125v-1.45h4.922c0-.337-.073-.635-.22-.895a1.569 1.569 0 00-.61-.61 1.74 1.74 0 00-.895-.225 1.8 1.8 0 00-.945.247 1.729 1.729 0 00-.637.653 1.851 1.851 0 00-.237.907v1.379c0 .417.077.778.231 1.082.158.304.379.538.665.703.286.165.624.247 1.016.247.26 0 .498-.036.714-.109.216-.074.401-.184.555-.33.154-.147.271-.326.352-.538l2.164.142c-.11.52-.335.975-.675 1.363a3.398 3.398 0 01-1.308.901c-.531.212-1.144.318-1.84.318zm12.421-6.196l-2.143.131a1.1 1.1 0 00-.236-.494 1.256 1.256 0 00-.478-.357 1.619 1.619 0 00-.698-.137c-.362 0-.668.077-.917.23-.249.15-.374.352-.374.605 0 .201.081.371.242.511.161.139.438.25.83.335l1.527.307c.82.169 1.432.44 1.835.813.403.374.604.865.604 1.473 0 .553-.163 1.038-.489 1.455-.322.418-.765.744-1.329.978-.561.231-1.207.346-1.94.346-1.117 0-2.007-.232-2.669-.697a2.719 2.719 0 01-1.16-1.912l2.302-.121c.07.341.238.601.506.78.267.176.609.264 1.027.264.41 0 .74-.079.989-.236.253-.162.381-.368.384-.621a.642.642 0 00-.269-.522c-.176-.139-.447-.245-.813-.319l-1.461-.291c-.824-.165-1.438-.45-1.841-.857-.399-.406-.598-.925-.598-1.555 0-.542.146-1.009.439-1.4.297-.392.712-.694 1.247-.907.539-.212 1.169-.318 1.89-.318 1.066 0 1.904.225 2.516.675.615.451.974 1.064 1.077 1.841zm-152.48 30.464v-1.055h4.969v1.055h-1.852v4.996h-1.265v-4.996h-1.852zm5.764 4.996v-4.538h1.259v4.538h-1.259zm.632-5.123a.683.683 0 01-.481-.186.604.604 0 01-.198-.452c0-.173.066-.322.198-.446a.677.677 0 01.481-.189c.187 0 .347.063.479.189a.6.6 0 010 .898.675.675 0 01-.479.186zm1.635 5.123v-4.538h1.199v.801h.054a1.26 1.26 0 01.472-.63c.221-.153.485-.23.792-.23.311 0 .576.078.795.233a1.1 1.1 0 01.437.627h.047c.093-.26.26-.468.503-.624.244-.157.533-.236.865-.236.424 0 .768.135 1.032.405.265.268.398.648.398 1.14v3.052h-1.255v-2.804c0-.252-.067-.441-.201-.567a.705.705 0 00-.502-.189c-.229 0-.407.073-.535.219-.128.144-.192.334-.192.57v2.771h-1.22v-2.83c0-.223-.065-.4-.193-.532a.657.657 0 00-.499-.198.7.7 0 00-.641.399.93.93 0 00-.097.437v2.724h-1.259zm9.657.089c-.467 0-.869-.095-1.206-.284a1.942 1.942 0 01-.774-.809c-.181-.351-.272-.765-.272-1.244 0-.467.091-.877.272-1.229.181-.353.437-.628.765-.825.331-.196.719-.295 1.165-.295.299 0 .578.048.836.145.26.094.486.237.679.428.195.191.347.432.455.721.109.288.163.625.163 1.011v.345h-3.832v-.78h2.647a.96.96 0 00-.118-.481.848.848 0 00-.328-.328.935.935 0 00-.482-.121.965.965 0 00-.508.133.925.925 0 00-.343.351 1.002 1.002 0 00-.127.488v.741c0 .225.042.419.124.582.085.164.204.29.358.378.154.089.336.133.546.133.14 0 .268-.019.385-.059a.76.76 0 00.487-.467l1.164.077a1.59 1.59 0 01-.363.733 1.834 1.834 0 01-.703.485 2.66 2.66 0 01-.99.171zm4.806-.089v-.75l2.222-2.751v-.032h-2.145v-1.005h3.661v.819l-2.086 2.682v.033h2.162v1.004h-3.814zm6.697.089c-.459 0-.856-.098-1.19-.293a1.996 1.996 0 01-.771-.821c-.182-.352-.272-.761-.272-1.226 0-.469.09-.879.272-1.229.181-.353.438-.627.771-.822.334-.196.731-.295 1.19-.295.459 0 .855.099 1.188.295.335.195.593.469.774.822.181.35.272.76.272 1.229 0 .465-.091.874-.272 1.226a1.99 1.99 0 01-.774.821c-.333.195-.729.293-1.188.293zm.006-.975a.783.783 0 00.523-.177c.14-.12.245-.284.316-.491.073-.207.11-.442.11-.706 0-.264-.037-.499-.11-.706a1.104 1.104 0 00-.316-.491.775.775 0 00-.523-.18.803.803 0 00-.532.18 1.122 1.122 0 00-.322.491 2.17 2.17 0 00-.106.706c0 .264.035.499.106.706.073.207.181.371.322.491a.811.811 0 00.532.177zm4.305-1.737v2.623h-1.259v-4.538h1.2v.801h.053c.101-.264.269-.473.505-.627.237-.155.523-.233.86-.233.315 0 .59.069.824.207.235.138.417.335.547.591.13.254.195.557.195.91v2.889h-1.259v-2.665c.002-.277-.069-.494-.212-.65-.144-.157-.342-.236-.594-.236a.9.9 0 00-.449.109.77.77 0 00-.302.319 1.108 1.108 0 00-.109.5zm5.985 2.712c-.467 0-.868-.095-1.205-.284a1.942 1.942 0 01-.774-.809c-.182-.351-.272-.765-.272-1.244 0-.467.09-.877.272-1.229.181-.353.436-.628.765-.825.331-.196.719-.295 1.164-.295.299 0 .578.048.836.145.26.094.487.237.68.428.195.191.346.432.455.721.108.288.162.625.162 1.011v.345h-3.832v-.78h2.647a.96.96 0 00-.118-.481.848.848 0 00-.328-.328.932.932 0 00-.481-.121.969.969 0 00-.509.133.922.922 0 00-.342.351.99.99 0 00-.127.488v.741c0 .225.041.419.124.582a.9.9 0 00.357.378c.154.089.336.133.547.133.14 0 .268-.019.384-.059a.76.76 0 00.487-.467l1.165.077c-.06.28-.181.524-.364.733a1.827 1.827 0 01-.703.485 2.66 2.66 0 01-.99.171zm6.68-3.333l-1.152.071a.603.603 0 00-.127-.266.672.672 0 00-.257-.192.874.874 0 00-.375-.074.93.93 0 00-.494.124c-.134.081-.201.189-.201.325 0 .109.044.2.13.275.087.075.236.135.447.18l.821.166c.441.09.77.236.987.437.216.201.325.465.325.792 0 .297-.088.558-.263.783a1.71 1.71 0 01-.715.526 2.726 2.726 0 01-1.043.186c-.601 0-1.079-.125-1.436-.375a1.46 1.46 0 01-.623-1.028l1.238-.065a.634.634 0 00.271.419.985.985 0 00.553.142c.22 0 .398-.042.532-.127.136-.087.205-.198.206-.334a.346.346 0 00-.144-.281c-.095-.075-.241-.132-.438-.171l-.785-.157c-.444-.088-.774-.242-.99-.461-.215-.218-.322-.497-.322-.836 0-.291.079-.542.236-.753.16-.211.383-.373.671-.488a2.761 2.761 0 011.016-.171c.573 0 1.024.121 1.353.363.331.243.524.573.579.99zm4.116 3.33c-.289 0-.547-.05-.774-.151a1.241 1.241 0 01-.538-.452c-.13-.201-.195-.451-.195-.75 0-.252.047-.464.139-.635.093-.172.219-.31.378-.414.16-.104.341-.183.544-.236a4.08 4.08 0 01.644-.113c.264-.027.477-.053.638-.077a.9.9 0 00.352-.112.245.245 0 00.109-.218v-.018c0-.187-.059-.332-.177-.434-.116-.103-.282-.154-.497-.154-.226 0-.406.05-.54.151a.688.688 0 00-.266.372l-1.164-.095c.059-.275.175-.514.348-.715.174-.203.397-.358.671-.467.276-.11.595-.165.957-.165.253 0 .494.03.724.089.233.059.439.15.618.274.181.125.324.284.428.479.105.193.157.425.157.694v3.061h-1.194v-.629h-.035a1.279 1.279 0 01-.293.375c-.122.107-.269.19-.44.251a1.82 1.82 0 01-.594.089zm.361-.869c.185 0 .348-.036.49-.109a.87.87 0 00.334-.301.776.776 0 00.121-.429v-.481a.71.71 0 01-.163.071 3.29 3.29 0 01-.227.056l-.254.044-.231.033a1.557 1.557 0 00-.387.103.616.616 0 00-.257.192.467.467 0 00-.091.295c0 .172.062.303.186.393a.811.811 0 00.479.133zm6.081-1.149v-2.606h1.259v4.538h-1.208v-.824h-.048a1.33 1.33 0 01-.511.641c-.236.162-.525.242-.865.242-.304 0-.571-.069-.801-.206a1.42 1.42 0 01-.541-.588 2.037 2.037 0 01-.195-.913v-2.89h1.259v2.665c.002.268.074.48.216.635a.73.73 0 00.57.234.905.905 0 00.425-.104.806.806 0 00.319-.313.956.956 0 00.121-.511zm4.68-2.606v.946h-2.733v-.946h2.733zm-2.113-1.087h1.259v4.231a.58.58 0 00.053.272.298.298 0 00.148.133c.065.025.14.038.224.038.059 0 .119-.005.178-.015a3.46 3.46 0 01.136-.026l.197.936c-.063.02-.151.043-.265.068a2.125 2.125 0 01-.417.05 1.906 1.906 0 01-.798-.121 1.112 1.112 0 01-.529-.431c-.126-.195-.188-.441-.186-.739v-4.396zm4.934 5.714c-.459 0-.856-.098-1.19-.293a2.005 2.005 0 01-.772-.821c-.181-.352-.271-.761-.271-1.226 0-.469.09-.879.271-1.229.182-.353.439-.627.772-.822.334-.196.731-.295 1.19-.295.459 0 .855.099 1.188.295.335.195.593.469.774.822.181.35.272.76.272 1.229 0 .465-.091.874-.272 1.226a1.99 1.99 0 01-.774.821c-.333.195-.729.293-1.188.293zm.006-.975a.783.783 0 00.523-.177c.14-.12.245-.284.316-.491.073-.207.11-.442.11-.706 0-.264-.037-.499-.11-.706a1.104 1.104 0 00-.316-.491.775.775 0 00-.523-.18.803.803 0 00-.532.18 1.122 1.122 0 00-.322.491 2.17 2.17 0 00-.106.706c0 .264.035.499.106.706.073.207.181.371.322.491a.811.811 0 00.532.177zm6.644.96c-.344 0-.657-.088-.936-.266a1.837 1.837 0 01-.662-.789c-.162-.348-.242-.776-.242-1.282 0-.52.083-.952.251-1.297.167-.347.39-.606.667-.777.28-.173.586-.26.919-.26.254 0 .466.043.636.13.171.085.309.191.413.319.107.126.187.25.242.372h.039v-2.275h1.256v6.051h-1.241v-.727h-.054a1.58 1.58 0 01-.251.376 1.25 1.25 0 01-.416.304c-.17.081-.376.121-.621.121zm.399-1.001a.806.806 0 00.514-.166c.142-.112.25-.269.325-.47.077-.201.115-.436.115-.706 0-.27-.037-.504-.112-.703a1.007 1.007 0 00-.325-.461.828.828 0 00-.517-.162.818.818 0 00-.523.168 1.028 1.028 0 00-.322.467 2 2 0 00-.109.691c0 .264.036.498.109.7.075.201.182.359.322.473a.818.818 0 00.523.169zm5.287 1.016c-.467 0-.869-.095-1.206-.284a1.942 1.942 0 01-.774-.809c-.181-.351-.272-.765-.272-1.244 0-.467.091-.877.272-1.229.181-.353.436-.628.765-.825.331-.196.719-.295 1.164-.295.3 0 .578.048.836.145.26.094.487.237.68.428.195.191.347.432.455.721.108.288.163.625.163 1.011v.345h-3.833v-.78h2.648a.971.971 0 00-.118-.481.854.854 0 00-.328-.328.935.935 0 00-.482-.121.965.965 0 00-.508.133.925.925 0 00-.343.351.99.99 0 00-.127.488v.741c0 .225.041.419.124.582.085.164.204.29.358.378.153.089.335.133.546.133.14 0 .268-.019.384-.059a.787.787 0 00.299-.177.785.785 0 00.189-.29l1.164.077a1.59 1.59 0 01-.363.733 1.838 1.838 0 01-.704.485 2.65 2.65 0 01-.989.171zm5.318-4.627v.946h-2.733v-.946h2.733zm-2.113-1.087h1.259v4.231a.58.58 0 00.053.272.298.298 0 00.148.133c.065.025.14.038.224.038.059 0 .119-.005.178-.015a3.46 3.46 0 01.136-.026l.197.936c-.063.02-.151.043-.265.068a2.125 2.125 0 01-.417.05 1.906 1.906 0 01-.798-.121 1.112 1.112 0 01-.529-.431c-.126-.195-.188-.441-.186-.739v-4.396zm4.952 5.714c-.467 0-.869-.095-1.205-.284a1.942 1.942 0 01-.774-.809c-.182-.351-.272-.765-.272-1.244 0-.467.09-.877.272-1.229.181-.353.436-.628.765-.825.331-.196.719-.295 1.164-.295.299 0 .578.048.836.145.26.094.486.237.68.428.195.191.346.432.455.721.108.288.162.625.162 1.011v.345h-3.832v-.78h2.647a.96.96 0 00-.118-.481.848.848 0 00-.328-.328.932.932 0 00-.481-.121.966.966 0 00-.509.133.922.922 0 00-.342.351.99.99 0 00-.127.488v.741c0 .225.041.419.124.582a.9.9 0 00.357.378c.154.089.336.133.547.133.14 0 .268-.019.384-.059a.76.76 0 00.487-.467l1.164.077a1.59 1.59 0 01-.363.733 1.834 1.834 0 01-.703.485 2.66 2.66 0 01-.99.171zm4.955 0c-.465 0-.865-.099-1.2-.296a1.986 1.986 0 01-.768-.827 2.675 2.675 0 01-.266-1.217c0-.465.09-.873.269-1.223.181-.353.438-.628.771-.825.333-.198.729-.298 1.188-.298.396 0 .742.072 1.04.216.297.144.533.345.706.605.173.26.269.566.287.916h-1.188a.92.92 0 00-.266-.546.76.76 0 00-.558-.21.849.849 0 00-.512.159 1.023 1.023 0 00-.336.458 1.956 1.956 0 00-.122.73c0 .29.04.536.119.739.08.203.194.357.339.464a.849.849 0 00.512.159.835.835 0 00.387-.088.75.75 0 00.286-.257.995.995 0 00.151-.411h1.188c-.02.347-.115.652-.284.916a1.706 1.706 0 01-.694.614c-.296.148-.645.222-1.049.222zm5.246-4.627v.946h-2.733v-.946h2.733zm-2.112-1.087h1.258v4.231c0 .116.018.207.054.272a.292.292 0 00.147.133c.065.025.14.038.225.038.059 0 .118-.005.177-.015l.136-.026.198.936c-.063.02-.152.043-.266.068a2.104 2.104 0 01-.416.05 1.9 1.9 0 01-.798-.121 1.107 1.107 0 01-.529-.431c-.126-.195-.188-.441-.186-.739v-4.396zm2.932 5.625v-4.538h1.259v4.538h-1.259zm.633-5.123a.684.684 0 01-.482-.186.604.604 0 01-.198-.452c0-.173.066-.322.198-.446a.678.678 0 01.482-.189c.187 0 .346.063.478.189a.6.6 0 010 .898.673.673 0 01-.478.186zm3.685 5.212c-.459 0-.856-.098-1.191-.293a1.996 1.996 0 01-.771-.821c-.181-.352-.272-.761-.272-1.226 0-.469.091-.879.272-1.229.181-.353.438-.627.771-.822.335-.196.732-.295 1.191-.295.459 0 .854.099 1.187.295.335.195.593.469.774.822.182.35.272.76.272 1.229 0 .465-.09.874-.272 1.226a1.99 1.99 0 01-.774.821c-.333.195-.728.293-1.187.293zm.005-.975a.781.781 0 00.523-.177 1.1 1.1 0 00.317-.491 2.14 2.14 0 00.109-.706 2.14 2.14 0 00-.109-.706 1.106 1.106 0 00-.317-.491.773.773 0 00-.523-.18.8.8 0 00-.531.18c-.142.121-.25.284-.322.491a2.168 2.168 0 00-.107.706c0 .264.036.499.107.706a1.1 1.1 0 00.322.491.808.808 0 00.531.177zm4.305-1.737v2.623h-1.258v-4.538h1.199v.801h.053a1.27 1.27 0 01.506-.627c.236-.155.523-.233.859-.233.315 0 .59.069.825.207.234.138.416.335.546.591.13.254.195.557.195.91v2.889h-1.258v-2.665c.002-.277-.069-.494-.213-.65-.144-.157-.342-.236-.594-.236a.902.902 0 00-.449.109.761.761 0 00-.301.319 1.108 1.108 0 00-.11.5z" fill="#000"/><path fill="#FFFEFE" d="M170.832 432.707h212.821v1.598H170.832z"/><rect x="333.483" y="480.64" width="34.511" height="15.658" rx="7.829" fill="#174EA6"/><path d="M344.445 488.493c0 .568-.104 1.057-.312 1.466a2.287 2.287 0 01-.856.941c-.36.218-.77.327-1.229.327-.461 0-.873-.109-1.235-.327a2.295 2.295 0 01-.852-.944c-.208-.409-.312-.896-.312-1.463 0-.569.104-1.056.312-1.464a2.28 2.28 0 01.852-.941c.362-.22.774-.33 1.235-.33.459 0 .869.11 1.229.33.363.219.648.532.856.941.208.408.312.895.312 1.464zm-.796 0c0-.433-.07-.798-.21-1.094a1.48 1.48 0 00-1.391-.908 1.48 1.48 0 00-.821.232 1.55 1.55 0 00-.572.676c-.139.296-.208.661-.208 1.094 0 .433.069.799.208 1.097.14.296.331.521.572.676.24.152.514.228.821.228.305 0 .578-.076.819-.228a1.57 1.57 0 00.572-.676c.14-.298.21-.664.21-1.097zm6.094-2.662v5.324h-.738l-2.706-3.905h-.05v3.905h-.803v-5.324h.743l2.709 3.91h.049v-3.91h.796z" fill="#fff"/><circle cx="360.165" cy="488.468" r="5.273" fill="#fff"/><path d="M187.886 520.233v-5.04h1.989c.382 0 .708.073.977.219.269.145.474.346.615.603.143.256.214.552.214.886 0 .335-.072.63-.217.886a1.491 1.491 0 01-.627.598c-.272.143-.602.214-.989.214h-1.268v-.854h1.095c.205 0 .374-.035.507-.105a.71.71 0 00.301-.298.937.937 0 00.1-.441.913.913 0 00-.1-.438.678.678 0 00-.301-.293 1.102 1.102 0 00-.512-.105h-.718v4.168h-1.066zm4.468 0v-3.78h1.016v.66h.039a.98.98 0 01.347-.532.917.917 0 01.561-.182 1.75 1.75 0 01.33.037v.93a1.929 1.929 0 00-.443-.056.829.829 0 00-.413.101.74.74 0 00-.389.684v2.138h-1.048zm2.835 0v-3.78h1.048v3.78h-1.048zm.527-4.267a.57.57 0 01-.401-.155.501.501 0 01-.165-.376c0-.145.055-.269.165-.372a.564.564 0 01.401-.158c.156 0 .289.053.398.158a.497.497 0 010 .748.56.56 0 01-.398.155zm1.361 4.267v-3.78h.999v.667h.045c.078-.221.21-.396.393-.524.184-.128.404-.192.66-.192.259 0 .48.065.662.195a.91.91 0 01.364.521h.04c.077-.216.216-.389.418-.519.203-.131.444-.197.721-.197.353 0 .639.113.859.337.221.223.332.54.332.95v2.542h-1.046v-2.335c0-.21-.056-.368-.167-.473a.587.587 0 00-.419-.157.563.563 0 00-.445.182.686.686 0 00-.16.475v2.308h-1.016v-2.357a.611.611 0 00-.16-.443.549.549 0 00-.416-.165.576.576 0 00-.315.089.602.602 0 00-.219.243.778.778 0 00-.081.364v2.269h-1.049zm7.399.072c-.241 0-.456-.042-.645-.126a1.044 1.044 0 01-.448-.376 1.132 1.132 0 01-.162-.625c0-.21.039-.387.116-.529a.934.934 0 01.315-.345c.133-.087.283-.153.452-.197.171-.044.35-.075.537-.093.22-.023.397-.045.532-.064a.758.758 0 00.292-.094.205.205 0 00.091-.182v-.015a.455.455 0 00-.147-.362c-.097-.085-.235-.127-.414-.127-.188 0-.338.041-.45.125a.572.572 0 00-.221.31l-.97-.079c.049-.229.146-.428.29-.595.145-.169.331-.299.559-.389.23-.092.495-.138.797-.138.21 0 .411.025.603.074.194.049.365.126.515.229.15.103.269.236.356.399.087.16.131.353.131.578v2.549h-.994v-.524h-.03a1.069 1.069 0 01-.244.313 1.137 1.137 0 01-.366.209 1.525 1.525 0 01-.495.074zm.3-.724c.155 0 .291-.03.409-.091a.72.72 0 00.278-.251.65.65 0 00.101-.357v-.401a.534.534 0 01-.136.059 2.173 2.173 0 01-.189.047l-.212.037-.192.027a1.31 1.31 0 00-.322.086.523.523 0 00-.214.16.39.39 0 00-.076.246.38.38 0 00.155.328c.105.073.238.11.398.11zm2.642.652v-3.78h1.017v.66h.039a.974.974 0 01.347-.532.913.913 0 01.561-.182 1.768 1.768 0 01.33.037v.93a1.9 1.9 0 00-.443-.056.835.835 0 00-.414.101.738.738 0 00-.285.275.797.797 0 00-.104.409v2.138h-1.048zm3.598 1.418c-.133 0-.258-.011-.374-.032a1.407 1.407 0 01-.286-.076l.237-.783c.123.038.234.058.332.062.1.003.186-.02.258-.069a.517.517 0 00.18-.251l.062-.16-1.356-3.889h1.102l.783 2.776h.039l.79-2.776h1.11l-1.469 4.189a1.769 1.769 0 01-.288.531c-.12.153-.272.27-.456.352a1.586 1.586 0 01-.664.126zm4.845-5.579v-.879H220v.879h-1.543v4.161h-1.053v-4.161h-1.543zm4.801 4.161v-3.78h1.049v3.78h-1.049zm.527-4.267a.57.57 0 01-.401-.155.501.501 0 01-.165-.376c0-.145.055-.269.165-.372a.564.564 0 01.401-.158c.156 0 .289.053.399.158a.5.5 0 010 .748.563.563 0 01-.399.155zm1.361 4.267v-3.78h1v.667h.044a1.05 1.05 0 01.394-.524c.183-.128.403-.192.659-.192.259 0 .48.065.662.195a.91.91 0 01.364.521h.04c.077-.216.216-.389.418-.519.204-.131.444-.197.721-.197.353 0 .639.113.859.337.222.223.332.54.332.95v2.542h-1.046v-2.335c0-.21-.055-.368-.167-.473a.587.587 0 00-.418-.157.564.564 0 00-.446.182.691.691 0 00-.16.475v2.308h-1.016v-2.357a.607.607 0 00-.16-.443.549.549 0 00-.416-.165.58.58 0 00-.315.089.602.602 0 00-.219.243.778.778 0 00-.081.364v2.269h-1.049zm8.044.074c-.389 0-.724-.079-1.004-.236a1.62 1.62 0 01-.645-.674c-.151-.292-.226-.638-.226-1.036 0-.389.075-.73.226-1.024.151-.294.364-.523.638-.687.275-.164.598-.246.969-.246.25 0 .482.04.697.121.216.079.405.197.566.357.162.159.288.359.379.6.09.24.135.52.135.842v.288h-3.192v-.65h2.205a.807.807 0 00-.098-.401.702.702 0 00-.273-.273.775.775 0 00-.402-.101.786.786 0 00-.708.403.822.822 0 00-.106.406v.618c0 .187.034.349.103.485.071.136.17.241.298.315.128.074.28.111.455.111a.985.985 0 00.32-.05.642.642 0 00.406-.388l.97.064c-.049.233-.15.436-.303.61a1.511 1.511 0 01-.586.403 2.185 2.185 0 01-.824.143zm3.989-.074v-.632l2.515-3.529h-2.52v-.879h3.858v.633l-2.517 3.529h2.522v.878h-3.858zm6.364.074c-.382 0-.713-.081-.992-.243a1.67 1.67 0 01-.642-.685 2.2 2.2 0 01-.226-1.021c0-.39.075-.732.226-1.024.151-.293.365-.521.642-.684.279-.164.61-.246.992-.246s.712.082.989.246c.279.163.494.391.645.684.151.292.227.634.227 1.024a2.2 2.2 0 01-.227 1.021 1.665 1.665 0 01-.645.685c-.277.162-.607.243-.989.243zm.005-.812a.65.65 0 00.436-.148.918.918 0 00.263-.408c.061-.172.091-.368.091-.588 0-.22-.03-.416-.091-.588a.916.916 0 00-.263-.409.647.647 0 00-.436-.15.67.67 0 00-.443.15.924.924 0 00-.268.409 1.807 1.807 0 00-.089.588c0 .22.03.416.089.588.061.172.15.308.268.408.12.099.268.148.443.148zm3.586-1.447v2.185h-1.049v-3.78h.999v.667h.045c.083-.22.224-.393.421-.521.196-.13.435-.195.716-.195.262 0 .491.058.686.172.196.115.347.279.456.493.108.211.162.464.162.758v2.406h-1.048v-2.219c.001-.232-.058-.412-.178-.542-.119-.131-.284-.197-.494-.197a.759.759 0 00-.374.091.633.633 0 00-.251.266.916.916 0 00-.091.416zm4.985 2.259c-.389 0-.724-.079-1.004-.236a1.62 1.62 0 01-.645-.674c-.151-.292-.226-.638-.226-1.036 0-.389.075-.73.226-1.024.151-.294.363-.523.637-.687.276-.164.599-.246.97-.246.249 0 .482.04.697.121.216.079.405.197.566.357.162.159.288.359.379.6.09.24.135.52.135.842v.288h-3.192v-.65h2.205a.807.807 0 00-.098-.401.698.698 0 00-.274-.273.768.768 0 00-.401-.101.778.778 0 00-.708.403.822.822 0 00-.106.406v.618c0 .187.034.349.103.485.071.136.17.241.298.315.128.074.28.111.455.111a.985.985 0 00.32-.05.642.642 0 00.406-.388l.97.064c-.049.233-.15.436-.303.61a1.511 1.511 0 01-.586.403 2.189 2.189 0 01-.824.143z" fill="#AAADB4"/><path fill="#FFFEFE" d="M182.975 503.008H371.51v1.598H182.975z"/><path d="M195.202 528.21h87.707a7.157 7.157 0 017.158 7.157v5.902a7.158 7.158 0 01-7.158 7.158h-87.707a7.157 7.157 0 01-7.157-7.158v-5.902a7.157 7.157 0 017.157-7.157z" fill="#FFFEFE" stroke="#C4C4C4" stroke-width="1.193"/><path d="M194.215 540.644v-4.313h.912v3.561h1.848v.752h-2.76zm4.809.063c-.327 0-.61-.07-.849-.209a1.422 1.422 0 01-.549-.585 1.876 1.876 0 01-.194-.874c0-.334.064-.626.194-.876.129-.251.312-.447.549-.586.239-.14.522-.21.849-.21.327 0 .609.07.846.21.239.139.423.335.552.586.129.25.194.542.194.876 0 .331-.065.623-.194.874-.129.25-.313.445-.552.585a1.643 1.643 0 01-.846.209zm.004-.695a.555.555 0 00.373-.127.781.781 0 00.225-.349 1.51 1.51 0 00.078-.503c0-.189-.026-.356-.078-.504a.781.781 0 00-.225-.349.551.551 0 00-.373-.129.57.57 0 00-.379.129.789.789 0 00-.23.349c-.05.148-.075.315-.075.504 0 .188.025.355.075.503a.789.789 0 00.23.349.575.575 0 00.379.127zm4.862-1.681l-.821.051a.434.434 0 00-.09-.19.497.497 0 00-.184-.137.62.62 0 00-.267-.052.66.66 0 00-.352.088c-.095.058-.143.135-.143.232a.25.25 0 00.093.196c.062.053.167.096.318.128l.585.118c.315.065.549.169.703.312a.73.73 0 01.232.564.88.88 0 01-.187.558c-.124.16-.294.285-.51.375a1.928 1.928 0 01-.743.133c-.428 0-.77-.089-1.024-.268a1.04 1.04 0 01-.444-.733l.882-.046c.027.131.092.23.194.299a.7.7 0 00.394.101c.157 0 .283-.03.379-.09.097-.062.146-.141.147-.238a.247.247 0 00-.103-.2.728.728 0 00-.312-.122l-.56-.112c-.316-.063-.551-.173-.705-.329a.814.814 0 01-.23-.596.87.87 0 01.169-.537c.113-.15.273-.266.478-.347.206-.081.448-.122.724-.122.409 0 .73.086.965.259a.999.999 0 01.412.705zm2.772 2.313h-.977l1.488-4.313h1.175l1.487 4.313h-.977l-1.08-3.328h-.034l-1.082 3.328zm-.061-1.696h2.308v.712h-2.308v-.712zm4.633-.174v1.87h-.897v-3.235h.855v.571h.038a.91.91 0 01.36-.447 1.09 1.09 0 01.613-.166c.225 0 .421.049.588.147.167.099.297.239.389.421.093.182.139.398.139.649v2.06h-.897v-1.9c.002-.198-.049-.352-.151-.463a.548.548 0 00-.424-.169.645.645 0 00-.32.078.545.545 0 00-.215.228.803.803 0 00-.078.356zm4.25 3.15c-.291 0-.54-.04-.748-.12a1.249 1.249 0 01-.493-.322 1.005 1.005 0 01-.238-.459l.83-.112a.53.53 0 00.12.181.591.591 0 00.217.135.93.93 0 00.333.053.776.776 0 00.482-.144c.128-.094.191-.252.191-.473v-.592h-.037a.876.876 0 01-.177.255.885.885 0 01-.304.195 1.154 1.154 0 01-.442.076c-.243 0-.464-.056-.663-.168a1.21 1.21 0 01-.474-.52c-.116-.235-.175-.531-.175-.889 0-.366.06-.672.179-.918.12-.246.278-.43.476-.552.2-.122.418-.183.655-.183a1 1 0 01.455.093c.122.06.22.136.295.227.076.09.134.178.175.265h.033v-.543h.891v3.266c0 .275-.067.506-.202.691a1.225 1.225 0 01-.56.417 2.217 2.217 0 01-.819.141zm.018-2.001a.61.61 0 00.367-.107.687.687 0 00.232-.312c.054-.136.082-.299.082-.488 0-.19-.027-.354-.08-.493a.726.726 0 00-.232-.326.585.585 0 00-.369-.116.58.58 0 00-.372.12.72.72 0 00-.23.328 1.402 1.402 0 00-.078.487c0 .186.026.348.078.484.054.135.13.239.23.314a.618.618 0 00.372.109zm3.751.784c-.333 0-.619-.068-.859-.202a1.39 1.39 0 01-.552-.577 1.912 1.912 0 01-.194-.887c0-.333.065-.625.194-.876a1.44 1.44 0 01.545-.588c.236-.14.513-.21.83-.21.214 0 .412.034.596.103.185.067.347.169.484.305.139.137.247.308.325.514.077.205.116.445.116.72v.247h-2.732v-.556h1.887a.686.686 0 00-.084-.343.598.598 0 00-.234-.234.662.662 0 00-.343-.086.67.67 0 00-.607.345.703.703 0 00-.09.347v.529c0 .16.029.298.088.415a.656.656 0 00.255.269.77.77 0 00.39.095.845.845 0 00.273-.042.555.555 0 00.348-.333l.83.055a1.149 1.149 0 01-.259.522c-.13.148-.297.263-.502.346a1.893 1.893 0 01-.705.122zm2.967-4.376v4.313h-.897v-4.313h.897zm2.193 4.376c-.333 0-.619-.068-.859-.202a1.39 1.39 0 01-.552-.577 1.912 1.912 0 01-.194-.887c0-.333.065-.625.194-.876a1.44 1.44 0 01.545-.588c.236-.14.513-.21.83-.21.213 0 .412.034.596.103.185.067.347.169.484.305.139.137.247.308.325.514.077.205.115.445.115.72v.247h-2.731v-.556h1.887a.686.686 0 00-.084-.343.598.598 0 00-.234-.234.662.662 0 00-.343-.086.675.675 0 00-.607.345.703.703 0 00-.09.347v.529c0 .16.029.298.088.415.06.116.145.206.255.269a.765.765 0 00.389.095c.1 0 .191-.014.274-.042a.555.555 0 00.348-.333l.829.055a1.13 1.13 0 01-.259.522 1.295 1.295 0 01-.501.346 1.897 1.897 0 01-.705.122zm4.761-2.376l-.821.051a.436.436 0 00-.091-.19.485.485 0 00-.183-.137.623.623 0 00-.267-.052.657.657 0 00-.352.088c-.096.058-.143.135-.143.232 0 .077.031.142.092.196.062.053.168.096.318.128l.586.118c.314.065.549.169.703.312a.734.734 0 01.232.564.88.88 0 01-.188.558c-.123.16-.293.285-.509.375a1.933 1.933 0 01-.744.133c-.428 0-.769-.089-1.023-.268a1.038 1.038 0 01-.444-.733l.882-.046c.027.131.091.23.194.299a.695.695 0 00.393.101c.158 0 .284-.03.379-.09.097-.062.146-.141.148-.238a.25.25 0 00-.103-.2.74.74 0 00-.312-.122l-.56-.112c-.316-.063-.551-.173-.706-.329a.813.813 0 01-.229-.596c0-.207.056-.386.168-.537.114-.15.273-.266.478-.347a1.98 1.98 0 01.725-.122c.408 0 .73.086.964.259a1 1 0 01.413.705z" fill="#4F5055"/><rect x="297.651" y="528.21" width="60.8" height="20.217" rx="7.157" fill="#FFFEFE" stroke="#C4C4C4" stroke-width="1.193"/><path d="M308.294 540.644v-4.313h.912v3.561h1.849v.752h-2.761zm4.809.063c-.327 0-.61-.07-.849-.209a1.422 1.422 0 01-.549-.585 1.888 1.888 0 01-.194-.874c0-.334.065-.626.194-.876.129-.251.312-.447.549-.586.239-.14.522-.21.849-.21.327 0 .609.07.846.21.239.139.423.335.552.586.129.25.194.542.194.876 0 .331-.065.623-.194.874-.129.25-.313.445-.552.585a1.643 1.643 0 01-.846.209zm.004-.695a.555.555 0 00.373-.127.773.773 0 00.225-.349 1.51 1.51 0 00.078-.503c0-.189-.026-.356-.078-.504a.773.773 0 00-.225-.349.551.551 0 00-.373-.129.57.57 0 00-.379.129.787.787 0 00-.229.349 1.539 1.539 0 00-.076.504c0 .188.025.355.076.503a.787.787 0 00.229.349.575.575 0 00.379.127zm4.863-1.681l-.822.051a.434.434 0 00-.09-.19.497.497 0 00-.184-.137.62.62 0 00-.267-.052.66.66 0 00-.352.088c-.095.058-.143.135-.143.232a.25.25 0 00.093.196c.062.053.168.096.318.128l.585.118c.315.065.549.169.704.312a.734.734 0 01.231.564.88.88 0 01-.187.558c-.124.16-.294.285-.51.375a1.928 1.928 0 01-.743.133c-.428 0-.769-.089-1.024-.268a1.044 1.044 0 01-.444-.733l.882-.046c.027.131.092.23.194.299a.7.7 0 00.394.101c.157 0 .284-.03.379-.09.097-.062.146-.141.147-.238a.244.244 0 00-.103-.2.729.729 0 00-.311-.122l-.561-.112c-.315-.063-.551-.173-.705-.329a.814.814 0 01-.23-.596c0-.207.057-.386.169-.537.114-.15.273-.266.478-.347.206-.081.448-.122.724-.122.409 0 .73.086.965.259.236.173.373.408.413.705zm2.771 2.313h-.977l1.488-4.313h1.176l1.486 4.313h-.977l-1.08-3.328h-.034l-1.082 3.328zm-.061-1.696h2.308v.712h-2.308v-.712zm4.634-.174v1.87h-.898v-3.235h.855v.571h.038a.91.91 0 01.36-.447 1.09 1.09 0 01.613-.166c.225 0 .421.049.588.147.167.099.297.239.389.421.093.182.139.398.139.649v2.06h-.897v-1.9c.002-.198-.049-.352-.151-.463a.548.548 0 00-.424-.169.645.645 0 00-.32.078.545.545 0 00-.215.228.79.79 0 00-.077.356zm4.249 3.15c-.291 0-.54-.04-.748-.12a1.249 1.249 0 01-.493-.322 1.005 1.005 0 01-.238-.459l.83-.112a.53.53 0 00.12.181.591.591 0 00.217.135.93.93 0 00.333.053.774.774 0 00.482-.144c.128-.094.192-.252.192-.473v-.592h-.038a.876.876 0 01-.177.255.885.885 0 01-.304.195 1.15 1.15 0 01-.442.076c-.243 0-.464-.056-.663-.168a1.21 1.21 0 01-.474-.52c-.116-.235-.175-.531-.175-.889 0-.366.06-.672.179-.918.12-.246.278-.43.476-.552.2-.122.418-.183.655-.183a1 1 0 01.455.093c.122.06.22.136.295.227.076.09.134.178.175.265h.033v-.543h.891v3.266c0 .275-.067.506-.202.691a1.225 1.225 0 01-.56.417 2.214 2.214 0 01-.819.141zm.019-2.001a.61.61 0 00.366-.107.687.687 0 00.232-.312c.054-.136.082-.299.082-.488 0-.19-.027-.354-.08-.493a.726.726 0 00-.232-.326.584.584 0 00-.368-.116.581.581 0 00-.373.12.72.72 0 00-.23.328 1.402 1.402 0 00-.078.487c0 .186.026.348.078.484.054.135.13.239.23.314a.619.619 0 00.373.109zm3.75.784c-.333 0-.619-.068-.859-.202a1.39 1.39 0 01-.552-.577 1.912 1.912 0 01-.194-.887c0-.333.065-.625.194-.876s.311-.447.546-.588c.235-.14.512-.21.829-.21.214 0 .412.034.596.103a1.327 1.327 0 01.809.819c.077.205.116.445.116.72v.247h-2.732v-.556h1.887a.686.686 0 00-.084-.343.598.598 0 00-.234-.234.66.66 0 00-.343-.086.67.67 0 00-.607.345.714.714 0 00-.09.347v.529c0 .16.029.298.088.415a.656.656 0 00.255.269c.11.063.24.095.39.095a.856.856 0 00.274-.042.555.555 0 00.347-.333l.83.055a1.139 1.139 0 01-.259.522 1.299 1.299 0 01-.502.346 1.893 1.893 0 01-.705.122zm2.967-4.376v4.313h-.897v-4.313h.897zm2.193 4.376c-.333 0-.619-.068-.859-.202a1.39 1.39 0 01-.552-.577 1.912 1.912 0 01-.194-.887c0-.333.065-.625.194-.876a1.44 1.44 0 01.545-.588c.236-.14.513-.21.83-.21.213 0 .412.034.596.103.185.067.347.169.484.305.139.137.247.308.325.514.077.205.115.445.115.72v.247h-2.731v-.556h1.887a.686.686 0 00-.084-.343.598.598 0 00-.234-.234.662.662 0 00-.343-.086.67.67 0 00-.607.345.703.703 0 00-.09.347v.529c0 .16.029.298.088.415a.65.65 0 00.255.269.766.766 0 00.39.095.85.85 0 00.273-.042.555.555 0 00.348-.333l.829.055a1.13 1.13 0 01-.259.522 1.295 1.295 0 01-.501.346 1.893 1.893 0 01-.705.122zm4.761-2.376l-.821.051a.425.425 0 00-.091-.19.485.485 0 00-.183-.137.62.62 0 00-.267-.052.657.657 0 00-.352.088c-.096.058-.143.135-.143.232 0 .077.031.142.092.196.062.053.168.096.318.128l.586.118c.314.065.549.169.703.312a.73.73 0 01.232.564.88.88 0 01-.188.558c-.123.16-.293.285-.509.375a1.933 1.933 0 01-.744.133c-.428 0-.769-.089-1.023-.268a1.038 1.038 0 01-.444-.733l.882-.046c.027.131.091.23.194.299a.696.696 0 00.394.101c.157 0 .283-.03.379-.09.096-.062.146-.141.147-.238a.247.247 0 00-.103-.2.734.734 0 00-.312-.122l-.56-.112c-.316-.063-.551-.173-.705-.329a.814.814 0 01-.23-.596c0-.207.056-.386.168-.537.114-.15.274-.266.478-.347a1.98 1.98 0 01.725-.122c.408 0 .73.086.964.259a1 1 0 01.413.705z" fill="#4F5055"/><path d="M276.129 536.88l2.558 2.47 2.558-2.47" stroke="#AAADB4" stroke-linecap="round" stroke-linejoin="round"/><path d="M189.075 573.918h-1.142l1.74-5.04h1.374l1.737 5.04h-1.142l-1.262-3.888h-.04l-1.265 3.888zm-.071-1.981h2.697v.832h-2.697v-.832zm5.584 2.043c-.287 0-.547-.074-.78-.222a1.536 1.536 0 01-.552-.657c-.134-.29-.201-.646-.201-1.068 0-.433.069-.793.209-1.08.139-.289.325-.504.556-.647a1.42 1.42 0 01.765-.217c.212 0 .388.036.529.109.143.07.258.159.345.265.089.105.156.209.202.31h.032v-1.895h1.046v5.04h-1.034v-.605h-.044a1.366 1.366 0 01-.209.313 1.057 1.057 0 01-.347.253 1.2 1.2 0 01-.517.101zm.332-.834a.668.668 0 00.428-.138.876.876 0 00.271-.391 1.65 1.65 0 00.096-.589c0-.224-.031-.42-.094-.585a.835.835 0 00-.27-.384.691.691 0 00-.431-.136.68.68 0 00-.436.141.857.857 0 00-.268.389 1.68 1.68 0 00-.091.575c0 .22.031.415.091.584a.908.908 0 00.268.393.68.68 0 00.436.141zm4.074.834c-.288 0-.548-.074-.781-.222a1.534 1.534 0 01-.551-.657c-.134-.29-.202-.646-.202-1.068 0-.433.07-.793.21-1.08.139-.289.324-.504.556-.647a1.42 1.42 0 01.765-.217c.212 0 .388.036.529.109.143.07.258.159.345.265.088.105.156.209.201.31h.032v-1.895h1.046v5.04h-1.033v-.605h-.045a1.335 1.335 0 01-.209.313 1.036 1.036 0 01-.347.253 1.196 1.196 0 01-.516.101zm.332-.834a.67.67 0 00.428-.138.884.884 0 00.271-.391 1.65 1.65 0 00.096-.589c0-.224-.032-.42-.094-.585a.83.83 0 00-.271-.384.688.688 0 00-.43-.136.677.677 0 00-.436.141.857.857 0 00-.268.389 1.656 1.656 0 00-.091.575c0 .22.03.415.091.584a.9.9 0 00.268.393.677.677 0 00.436.141zm2.68.772v-3.78h1.049v3.78h-1.049zm.527-4.267a.565.565 0 01-.401-.155.501.501 0 01-.165-.376c0-.145.055-.269.165-.372a.563.563 0 01.401-.157c.156 0 .289.052.399.157a.5.5 0 010 .748.559.559 0 01-.399.155zm3.372.487v.788h-2.276v-.788h2.276zm-1.76-.905h1.049v3.524c0 .097.015.172.044.226.03.053.071.09.123.111a.516.516 0 00.187.032.923.923 0 00.148-.012l.113-.022.165.78a3.022 3.022 0 01-.222.056c-.095.023-.21.037-.347.042a1.59 1.59 0 01-.664-.101.926.926 0 01-.44-.359c-.105-.162-.157-.368-.156-.615v-3.662zm2.443 4.685v-3.78h1.048v3.78h-1.048zm.527-4.267a.57.57 0 01-.402-.155.504.504 0 01-.164-.376c0-.145.055-.269.164-.372a.567.567 0 01.402-.157c.155 0 .288.052.398.157a.497.497 0 010 .748.558.558 0 01-.398.155zm3.069 4.341c-.382 0-.713-.081-.992-.243a1.668 1.668 0 01-.642-.684 2.208 2.208 0 01-.226-1.022c0-.39.075-.731.226-1.024.151-.293.365-.521.642-.684.279-.164.61-.246.992-.246s.712.082.989.246c.279.163.494.391.645.684.151.293.226.634.226 1.024 0 .387-.075.728-.226 1.022-.151.292-.366.52-.645.684-.277.162-.607.243-.989.243zm.005-.812a.655.655 0 00.436-.147.927.927 0 00.263-.409c.061-.172.091-.368.091-.588 0-.22-.03-.416-.091-.588a.916.916 0 00-.263-.409.647.647 0 00-.436-.15.668.668 0 00-.443.15.915.915 0 00-.268.409 1.807 1.807 0 00-.089.588c0 .22.03.416.089.588.06.172.15.308.268.409.12.098.267.147.443.147zm3.586-1.447v2.185h-1.049v-3.78h.999v.667h.045c.083-.219.224-.393.42-.521.197-.13.436-.195.717-.195.262 0 .491.058.686.173.195.114.347.278.455.492.109.211.163.464.163.758v2.406h-1.049v-2.219c.002-.232-.057-.412-.177-.542-.119-.131-.284-.197-.494-.197a.759.759 0 00-.374.091.633.633 0 00-.251.266.916.916 0 00-.091.416zm4.34 2.257c-.241 0-.456-.042-.645-.126a1.044 1.044 0 01-.448-.376 1.132 1.132 0 01-.162-.625c0-.21.038-.387.116-.529a.934.934 0 01.315-.345 1.53 1.53 0 01.452-.197c.171-.044.35-.075.537-.093.22-.023.397-.045.531-.064a.758.758 0 00.293-.094.205.205 0 00.091-.182v-.015a.452.452 0 00-.147-.361c-.097-.086-.235-.128-.414-.128-.188 0-.339.041-.45.125a.58.58 0 00-.222.31l-.969-.079c.049-.229.146-.428.29-.595.145-.169.331-.299.559-.389.23-.092.495-.138.797-.138.21 0 .411.025.603.074.194.049.365.126.514.229.151.103.27.236.357.399.087.16.131.353.131.578v2.549h-.995v-.524h-.029a1.069 1.069 0 01-.244.313 1.137 1.137 0 01-.366.209 1.525 1.525 0 01-.495.074zm.3-.724a.88.88 0 00.409-.091.72.72 0 00.278-.251.65.65 0 00.101-.357v-.401a.534.534 0 01-.136.059 2.268 2.268 0 01-.189.047c-.071.013-.141.026-.212.037l-.192.027a1.31 1.31 0 00-.322.086.523.523 0 00-.214.16.39.39 0 00-.076.246.38.38 0 00.155.328.68.68 0 00.398.11zm3.69-4.388v5.04h-1.048v-5.04h1.048zm2.272.879v-.879h4.139v.879h-1.543v4.161h-1.053v-4.161h-1.543zm4.801 4.161v-3.78h1.048v3.78h-1.048zm.527-4.267a.565.565 0 01-.401-.155.501.501 0 01-.165-.376c0-.145.055-.269.165-.372a.563.563 0 01.401-.157c.156 0 .289.052.398.157a.497.497 0 010 .748.555.555 0 01-.398.155zm1.361 4.267v-3.78h.999v.667h.045c.078-.221.21-.396.393-.524.184-.128.404-.192.66-.192.259 0 .48.065.662.195a.914.914 0 01.364.521h.04c.077-.216.216-.389.418-.519.203-.131.444-.197.721-.197.353 0 .639.113.859.337.221.224.332.54.332.95v2.542h-1.046v-2.335c0-.21-.056-.367-.167-.472a.588.588 0 00-.419-.158.563.563 0 00-.445.182.686.686 0 00-.16.475v2.308h-1.016v-2.357a.611.611 0 00-.16-.443.549.549 0 00-.416-.165.576.576 0 00-.315.089.602.602 0 00-.219.243.778.778 0 00-.081.364v2.269h-1.049zm8.044.074c-.389 0-.724-.078-1.004-.236a1.62 1.62 0 01-.645-.674c-.151-.292-.226-.638-.226-1.036 0-.389.075-.73.226-1.024.151-.294.363-.523.637-.687.276-.164.599-.246.97-.246.249 0 .482.04.696.121.217.079.406.198.566.357.163.159.289.359.379.6.091.24.136.52.136.842v.288h-3.192v-.65h2.205a.807.807 0 00-.098-.401.698.698 0 00-.274-.273.768.768 0 00-.401-.101c-.159 0-.3.037-.423.111a.768.768 0 00-.285.292.822.822 0 00-.106.406v.618c0 .187.034.349.103.485.071.136.17.241.298.315.128.074.28.111.455.111a.985.985 0 00.32-.05.661.661 0 00.249-.147.654.654 0 00.157-.241l.97.064c-.05.233-.15.436-.303.61a1.524 1.524 0 01-.586.404 2.209 2.209 0 01-.824.142zm3.988-.074v-.632l2.516-3.529h-2.52v-.879h3.858v.633l-2.517 3.529h2.522v.878h-3.859zm6.365.074c-.382 0-.713-.081-.992-.243a1.668 1.668 0 01-.642-.684 2.208 2.208 0 01-.226-1.022c0-.39.075-.731.226-1.024.151-.293.365-.521.642-.684.279-.164.61-.246.992-.246s.712.082.989.246c.279.163.494.391.645.684.151.293.226.634.226 1.024 0 .387-.075.728-.226 1.022-.151.292-.366.52-.645.684-.277.162-.607.243-.989.243zm.005-.812a.655.655 0 00.436-.147.927.927 0 00.263-.409c.061-.172.091-.368.091-.588 0-.22-.03-.416-.091-.588a.916.916 0 00-.263-.409.647.647 0 00-.436-.15.668.668 0 00-.443.15.915.915 0 00-.268.409 1.807 1.807 0 00-.089.588c0 .22.03.416.089.588.06.172.15.308.268.409.12.098.267.147.443.147zm3.586-1.447v2.185h-1.049v-3.78h.999v.667h.045c.083-.219.224-.393.42-.521.197-.13.436-.195.717-.195.262 0 .491.058.686.173.195.114.347.278.455.492.109.211.163.464.163.758v2.406h-1.048v-2.219c.001-.232-.058-.412-.178-.542-.119-.131-.284-.197-.494-.197a.759.759 0 00-.374.091.633.633 0 00-.251.266.916.916 0 00-.091.416zm4.985 2.259c-.389 0-.724-.078-1.004-.236a1.62 1.62 0 01-.645-.674c-.151-.292-.226-.638-.226-1.036 0-.389.075-.73.226-1.024.151-.294.363-.523.637-.687.276-.164.599-.246.97-.246.249 0 .481.04.696.121.217.079.406.198.566.357.163.159.289.359.379.6.091.24.136.52.136.842v.288h-3.192v-.65h2.205a.798.798 0 00-.099-.401.69.69 0 00-.273-.273.77.77 0 00-.401-.101c-.159 0-.3.037-.423.111a.77.77 0 00-.286.292.832.832 0 00-.105.406v.618c0 .187.034.349.103.485.071.136.17.241.298.315a.892.892 0 00.455.111.99.99 0 00.32-.05.65.65 0 00.406-.388l.97.064c-.05.233-.151.436-.303.61a1.524 1.524 0 01-.586.404 2.213 2.213 0 01-.824.142z" fill="#AAADB4"/><path fill="#FFFEFE" d="M183.295 556.693H371.83v1.598H183.295z"/><path d="M195.523 581.895h87.707a7.157 7.157 0 017.157 7.157v5.902a7.157 7.157 0 01-7.157 7.158h-87.707a7.158 7.158 0 01-7.158-7.158v-5.902a7.157 7.157 0 017.158-7.157z" fill="#FFFEFE" stroke="#C4C4C4" stroke-width="1.193"/><path d="M195.98 594.392c-.332 0-.617-.07-.855-.211a1.423 1.423 0 01-.548-.589 1.915 1.915 0 01-.189-.868c0-.331.063-.622.191-.872.129-.251.313-.447.55-.587.237-.142.519-.213.846-.213.283 0 .53.051.742.154.212.102.379.246.503.431.123.186.192.403.204.653h-.846a.651.651 0 00-.19-.389.542.542 0 00-.398-.15.6.6 0 00-.364.114.714.714 0 00-.24.326 1.387 1.387 0 00-.087.52c0 .207.028.382.085.527a.722.722 0 00.242.33.6.6 0 00.364.114.59.59 0 00.276-.063.527.527 0 00.204-.183.703.703 0 00.108-.293h.846a1.323 1.323 0 01-.202.653 1.213 1.213 0 01-.495.438c-.21.105-.46.158-.747.158zm2.941-.002c-.206 0-.39-.036-.552-.108a.888.888 0 01-.383-.322.961.961 0 01-.139-.535c0-.179.033-.33.099-.453a.802.802 0 01.269-.294c.114-.075.243-.131.388-.169a3.01 3.01 0 01.459-.08c.188-.019.34-.038.455-.055a.64.64 0 00.25-.08.175.175 0 00.078-.155v-.013a.39.39 0 00-.126-.31c-.083-.073-.201-.109-.354-.109a.63.63 0 00-.385.107.493.493 0 00-.19.266l-.829-.068a1.13 1.13 0 01.248-.509c.124-.145.283-.256.478-.333.197-.079.424-.118.682-.118.18 0 .352.021.516.063.166.042.313.108.44.196a.947.947 0 01.417.836v2.182h-.85v-.449h-.026a.927.927 0 01-.208.268.991.991 0 01-.314.179 1.298 1.298 0 01-.423.063zm.257-.619a.75.75 0 00.349-.078.62.62 0 00.238-.215.552.552 0 00.087-.305v-.344a.475.475 0 01-.116.051 2.407 2.407 0 01-.162.04c-.061.011-.121.022-.181.031a36.68 36.68 0 01-.165.024 1.13 1.13 0 00-.276.073.456.456 0 00-.183.137.338.338 0 00-.065.211c0 .122.044.215.133.28a.58.58 0 00.341.095zm3.157-1.312v1.87h-.897v-3.235h.855v.571h.038a.91.91 0 01.36-.447 1.09 1.09 0 01.613-.166c.225 0 .421.049.588.147a1 1 0 01.389.422c.093.181.139.397.139.648v2.06h-.897v-1.9c.002-.198-.049-.352-.151-.463a.548.548 0 00-.424-.169.645.645 0 00-.32.078.545.545 0 00-.215.228.803.803 0 00-.078.356zm3.715 1.931a1.34 1.34 0 01-.552-.108.882.882 0 01-.383-.322.961.961 0 01-.139-.535c0-.179.033-.33.099-.453a.793.793 0 01.269-.294c.114-.075.243-.131.388-.169a3.01 3.01 0 01.459-.08c.188-.019.339-.038.455-.055a.64.64 0 00.25-.08.175.175 0 00.078-.155v-.013a.39.39 0 00-.126-.31c-.083-.073-.201-.109-.354-.109a.63.63 0 00-.385.107.493.493 0 00-.19.266l-.83-.068c.042-.196.125-.366.249-.509.123-.145.283-.256.478-.333.196-.079.424-.118.682-.118.18 0 .352.021.516.063.166.042.312.108.44.196a.956.956 0 01.306.341c.074.138.111.303.111.495v2.182h-.851v-.449h-.025a.927.927 0 01-.208.268.991.991 0 01-.314.179 1.298 1.298 0 01-.423.063zm.257-.619a.75.75 0 00.349-.078.62.62 0 00.238-.215.55.55 0 00.086-.305v-.344a.465.465 0 01-.115.051 2.301 2.301 0 01-.344.071l-.164.024a1.13 1.13 0 00-.276.073.456.456 0 00-.183.137.332.332 0 00-.065.211c0 .122.044.215.132.28.09.063.204.095.342.095zm2.26.558v-3.235h.87v.564h.034a.833.833 0 01.296-.454.78.78 0 01.481-.156 1.525 1.525 0 01.282.031v.796a1.532 1.532 0 00-.379-.048.725.725 0 00-.354.086.629.629 0 00-.244.236.682.682 0 00-.089.35v1.83h-.897zm3.079 1.213a1.79 1.79 0 01-.32-.028 1.148 1.148 0 01-.244-.065l.202-.67c.105.033.2.05.284.053a.36.36 0 00.221-.059.445.445 0 00.154-.215l.052-.137-1.16-3.327h.944l.669 2.375h.034l.676-2.375h.95l-1.258 3.584c-.06.174-.142.326-.246.455a.996.996 0 01-.39.301 1.354 1.354 0 01-.568.108z" fill="#4F5055"/><rect x="297.971" y="581.895" width="60.8" height="20.217" rx="7.157" fill="#FFFEFE" stroke="#C4C4C4" stroke-width="1.193"/><path d="M310.059 594.392c-.332 0-.617-.07-.855-.211a1.423 1.423 0 01-.548-.589 1.915 1.915 0 01-.189-.868c0-.331.064-.622.191-.872.129-.251.313-.447.55-.587.237-.142.519-.213.846-.213.283 0 .53.051.742.154.212.102.379.246.503.431.124.186.192.403.204.653h-.846a.651.651 0 00-.19-.389.542.542 0 00-.398-.15.6.6 0 00-.364.114.714.714 0 00-.24.326 1.388 1.388 0 00-.086.52c0 .207.028.382.084.527a.722.722 0 00.242.33.6.6 0 00.364.114.59.59 0 00.276-.063.527.527 0 00.204-.183.703.703 0 00.108-.293h.846a1.323 1.323 0 01-.202.653 1.213 1.213 0 01-.495.438c-.21.105-.46.158-.747.158zm2.941-.002c-.206 0-.39-.036-.552-.108a.888.888 0 01-.383-.322.961.961 0 01-.139-.535c0-.179.033-.33.099-.453a.796.796 0 01.27-.294 1.28 1.28 0 01.387-.169 3.01 3.01 0 01.459-.08c.188-.019.34-.038.455-.055a.646.646 0 00.251-.08.177.177 0 00.077-.155v-.013a.39.39 0 00-.126-.31c-.083-.073-.201-.109-.354-.109a.63.63 0 00-.385.107.493.493 0 00-.19.266l-.829-.068a1.13 1.13 0 01.248-.509c.124-.145.283-.256.478-.333.197-.079.424-.118.683-.118.179 0 .351.021.515.063.166.042.313.108.441.196a.944.944 0 01.305.341c.074.138.112.303.112.495v2.182h-.851v-.449h-.025a.93.93 0 01-.209.268.991.991 0 01-.314.179 1.298 1.298 0 01-.423.063zm.257-.619a.75.75 0 00.349-.078.613.613 0 00.238-.215.552.552 0 00.087-.305v-.344a.475.475 0 01-.116.051 2.407 2.407 0 01-.162.04c-.061.011-.121.022-.181.031l-.165.024a1.11 1.11 0 00-.275.073.452.452 0 00-.184.137.338.338 0 00-.065.211c0 .122.044.215.133.28a.58.58 0 00.341.095zm3.158-1.312v1.87h-.897v-3.235h.854v.571h.038a.91.91 0 01.36-.447 1.09 1.09 0 01.613-.166c.225 0 .421.049.588.147a1 1 0 01.389.422c.093.181.139.397.139.648v2.06h-.897v-1.9c.002-.198-.049-.352-.151-.463a.548.548 0 00-.424-.169.645.645 0 00-.32.078.537.537 0 00-.214.228.776.776 0 00-.078.356zm3.714 1.931a1.34 1.34 0 01-.552-.108.888.888 0 01-.383-.322.961.961 0 01-.139-.535c0-.179.033-.33.099-.453a.802.802 0 01.269-.294c.114-.075.243-.131.388-.169a3.01 3.01 0 01.459-.08c.188-.019.34-.038.455-.055a.64.64 0 00.25-.08.175.175 0 00.078-.155v-.013a.39.39 0 00-.126-.31c-.083-.073-.201-.109-.354-.109a.63.63 0 00-.385.107.493.493 0 00-.19.266l-.83-.068c.043-.196.125-.366.249-.509.124-.145.283-.256.478-.333.197-.079.424-.118.682-.118.18 0 .352.021.516.063.166.042.313.108.44.196a.956.956 0 01.306.341c.074.138.111.303.111.495v2.182h-.85v-.449h-.026a.927.927 0 01-.208.268.991.991 0 01-.314.179 1.298 1.298 0 01-.423.063zm.257-.619a.75.75 0 00.349-.078.62.62 0 00.238-.215.552.552 0 00.087-.305v-.344a.493.493 0 01-.116.051 2.407 2.407 0 01-.162.04c-.061.011-.121.022-.182.031l-.164.024a1.13 1.13 0 00-.276.073.456.456 0 00-.183.137.338.338 0 00-.065.211c0 .122.044.215.133.28a.577.577 0 00.341.095zm2.26.558v-3.235h.87v.564h.034a.834.834 0 01.297-.454.78.78 0 01.48-.156 1.525 1.525 0 01.282.031v.796a1.532 1.532 0 00-.379-.048.725.725 0 00-.354.086.636.636 0 00-.333.586v1.83h-.897zm3.079 1.213c-.114 0-.22-.01-.32-.028a1.148 1.148 0 01-.244-.065l.202-.67c.105.033.2.05.284.053a.36.36 0 00.221-.059.44.44 0 00.154-.215l.053-.137-1.161-3.327h.944l.669 2.375h.034l.676-2.375h.95l-1.258 3.584c-.06.174-.142.326-.246.455a1 1 0 01-.389.301 1.363 1.363 0 01-.569.108z" fill="#4F5055"/><path d="M276.449 590.565l2.558 2.47 2.559-2.47" stroke="#AAADB4" stroke-linecap="round" stroke-linejoin="round"/><path d="M189.075 628.242h-1.142l1.74-5.04h1.374l1.737 5.04h-1.142l-1.262-3.889h-.04l-1.265 3.889zm-.071-1.981h2.697v.831h-2.697v-.831zm5.584 2.042c-.287 0-.547-.074-.78-.221a1.548 1.548 0 01-.552-.657c-.134-.291-.201-.647-.201-1.068 0-.434.069-.794.209-1.081.139-.288.325-.504.556-.647.233-.144.488-.217.765-.217.212 0 .388.037.529.109.143.07.258.159.345.266.089.105.156.208.202.31h.032v-1.895h1.046v5.04h-1.034v-.606h-.044a1.366 1.366 0 01-.209.313 1.043 1.043 0 01-.347.253 1.186 1.186 0 01-.517.101zm.332-.834a.668.668 0 00.428-.138.87.87 0 00.271-.391c.064-.167.096-.364.096-.588 0-.225-.031-.42-.094-.586a.835.835 0 00-.27-.384.69.69 0 00-.431-.135.68.68 0 00-.436.14.862.862 0 00-.268.389c-.06.166-.091.357-.091.576 0 .22.031.414.091.583a.912.912 0 00.268.394c.119.093.264.14.436.14zm4.074.834c-.288 0-.548-.074-.781-.221a1.546 1.546 0 01-.551-.657c-.134-.291-.202-.647-.202-1.068 0-.434.07-.794.21-1.081.139-.288.324-.504.556-.647.233-.144.488-.217.765-.217.212 0 .388.037.529.109.143.07.258.159.345.266.088.105.156.208.201.31h.032v-1.895h1.046v5.04h-1.033v-.606h-.045a1.335 1.335 0 01-.209.313 1.023 1.023 0 01-.347.253 1.181 1.181 0 01-.516.101zm.332-.834a.67.67 0 00.428-.138.878.878 0 00.271-.391c.064-.167.096-.364.096-.588 0-.225-.032-.42-.094-.586a.83.83 0 00-.271-.384.688.688 0 00-.43-.135.676.676 0 00-.436.14.862.862 0 00-.268.389 1.662 1.662 0 00-.091.576c0 .22.03.414.091.583a.903.903 0 00.268.394c.118.093.263.14.436.14zm2.68.773v-3.78h1.049v3.78h-1.049zm.527-4.268a.565.565 0 01-.401-.155.501.501 0 01-.165-.376c0-.145.055-.268.165-.372a.563.563 0 01.401-.157c.156 0 .289.052.399.157a.5.5 0 010 .748.559.559 0 01-.399.155zm3.372.488v.787h-2.276v-.787h2.276zm-1.76-.906h1.049v3.524a.49.49 0 00.044.227c.03.052.071.089.123.11a.496.496 0 00.187.032.923.923 0 00.148-.012l.113-.022.165.78a3.516 3.516 0 01-.222.057c-.095.023-.21.036-.347.041a1.575 1.575 0 01-.664-.101.92.92 0 01-.44-.359c-.105-.162-.157-.367-.156-.615v-3.662zm2.443 4.686v-3.78h1.048v3.78h-1.048zm.527-4.268a.57.57 0 01-.402-.155.504.504 0 01-.164-.376c0-.145.055-.268.164-.372a.567.567 0 01.402-.157c.155 0 .288.052.398.157a.497.497 0 010 .748.558.558 0 01-.398.155zm3.069 4.342c-.382 0-.713-.082-.992-.244a1.668 1.668 0 01-.642-.684 2.205 2.205 0 01-.226-1.022c0-.39.075-.731.226-1.023.151-.294.365-.522.642-.684.279-.164.61-.247.992-.247s.712.083.989.247c.279.162.494.39.645.684.151.292.226.633.226 1.023 0 .388-.075.728-.226 1.022-.151.292-.366.52-.645.684-.277.162-.607.244-.989.244zm.005-.813a.655.655 0 00.436-.147.916.916 0 00.263-.409c.061-.172.091-.368.091-.588 0-.22-.03-.416-.091-.588a.922.922 0 00-.263-.409.647.647 0 00-.436-.15.668.668 0 00-.443.15.92.92 0 00-.268.409 1.807 1.807 0 00-.089.588c0 .22.03.416.089.588.06.173.15.309.268.409.12.098.267.147.443.147zm3.586-1.447v2.186h-1.049v-3.78h.999v.667h.045c.083-.22.224-.394.42-.522.197-.13.436-.195.717-.195.262 0 .491.058.686.173.195.115.347.279.455.492.109.212.163.464.163.758v2.407h-1.049v-2.22c.002-.231-.057-.412-.177-.541-.119-.132-.284-.197-.494-.197a.748.748 0 00-.374.091.625.625 0 00-.251.265.916.916 0 00-.091.416zm4.34 2.257a1.59 1.59 0 01-.645-.125 1.046 1.046 0 01-.448-.377 1.13 1.13 0 01-.162-.625c0-.21.038-.386.116-.529a.934.934 0 01.315-.345 1.53 1.53 0 01.452-.197c.171-.044.35-.075.537-.093.22-.023.397-.044.531-.064a.741.741 0 00.293-.094.204.204 0 00.091-.182v-.014a.454.454 0 00-.147-.362c-.097-.086-.235-.128-.414-.128-.188 0-.339.042-.45.125a.583.583 0 00-.222.31l-.969-.078c.049-.23.146-.429.29-.596.145-.169.331-.298.559-.389.23-.092.495-.138.797-.138.21 0 .411.025.603.074.194.05.365.126.514.229.151.104.27.236.357.399.087.161.131.353.131.578v2.55h-.995v-.524h-.029a1.065 1.065 0 01-.61.521 1.525 1.525 0 01-.495.074zm.3-.723a.88.88 0 00.409-.092.72.72 0 00.278-.251.646.646 0 00.101-.356v-.401a.572.572 0 01-.136.059 2.291 2.291 0 01-.189.046c-.071.013-.141.026-.212.037l-.192.027a1.31 1.31 0 00-.322.086.523.523 0 00-.214.16.391.391 0 00-.076.247.38.38 0 00.155.327.673.673 0 00.398.111zm3.69-4.388v5.04h-1.048v-5.04h1.048zm2.272.878v-.878h4.139v.878h-1.543v4.162h-1.053v-4.162h-1.543zm4.801 4.162v-3.78h1.048v3.78h-1.048zm.527-4.268a.565.565 0 01-.401-.155.501.501 0 01-.165-.376c0-.145.055-.268.165-.372a.563.563 0 01.401-.157c.156 0 .289.052.398.157a.497.497 0 010 .748.555.555 0 01-.398.155zm1.361 4.268v-3.78h.999v.667h.045c.078-.222.21-.397.393-.525.184-.128.404-.192.66-.192.259 0 .48.065.662.195a.913.913 0 01.364.522h.04c.077-.217.216-.39.418-.52.203-.131.444-.197.721-.197.353 0 .639.113.859.338.221.223.332.539.332.95v2.542h-1.046v-2.336c0-.21-.056-.367-.167-.472a.588.588 0 00-.419-.158.563.563 0 00-.445.182.686.686 0 00-.16.475v2.309h-1.016v-2.358a.613.613 0 00-.16-.443.549.549 0 00-.416-.165.576.576 0 00-.315.089.602.602 0 00-.219.243.78.78 0 00-.081.365v2.269h-1.049zm8.044.074c-.389 0-.724-.079-1.004-.237a1.62 1.62 0 01-.645-.674c-.151-.292-.226-.637-.226-1.036 0-.389.075-.73.226-1.024.151-.293.363-.522.637-.686.276-.164.599-.247.97-.247.249 0 .482.041.696.121.217.079.406.198.566.357.163.159.289.359.379.6.091.24.136.52.136.842v.288h-3.192v-.65h2.205a.81.81 0 00-.098-.401.712.712 0 00-.274-.273.778.778 0 00-.401-.101c-.159 0-.3.037-.423.111a.816.816 0 00-.391.699v.617c0 .187.034.349.103.485.071.136.17.241.298.315.128.074.28.111.455.111a.986.986 0 00.32-.049.663.663 0 00.249-.148.654.654 0 00.157-.241l.97.064c-.05.233-.15.436-.303.61a1.524 1.524 0 01-.586.404 2.209 2.209 0 01-.824.143zm3.988-.074v-.633l2.516-3.529h-2.52v-.878h3.858v.632l-2.517 3.529h2.522v.879h-3.859zm6.365.074c-.382 0-.713-.082-.992-.244a1.668 1.668 0 01-.642-.684 2.205 2.205 0 01-.226-1.022c0-.39.075-.731.226-1.023.151-.294.365-.522.642-.684.279-.164.61-.247.992-.247s.712.083.989.247c.279.162.494.39.645.684.151.292.226.633.226 1.023 0 .388-.075.728-.226 1.022-.151.292-.366.52-.645.684-.277.162-.607.244-.989.244zm.005-.813a.655.655 0 00.436-.147.916.916 0 00.263-.409c.061-.172.091-.368.091-.588 0-.22-.03-.416-.091-.588a.922.922 0 00-.263-.409.647.647 0 00-.436-.15.668.668 0 00-.443.15.92.92 0 00-.268.409 1.807 1.807 0 00-.089.588c0 .22.03.416.089.588.06.173.15.309.268.409.12.098.267.147.443.147zm3.586-1.447v2.186h-1.049v-3.78h.999v.667h.045c.083-.22.224-.394.42-.522.197-.13.436-.195.717-.195.262 0 .491.058.686.173.195.115.347.279.455.492.109.212.163.464.163.758v2.407h-1.048v-2.22c.001-.231-.058-.412-.178-.541-.119-.132-.284-.197-.494-.197a.748.748 0 00-.374.091.625.625 0 00-.251.265.916.916 0 00-.091.416zm4.985 2.26c-.389 0-.724-.079-1.004-.237a1.62 1.62 0 01-.645-.674c-.151-.292-.226-.637-.226-1.036 0-.389.075-.73.226-1.024.151-.293.363-.522.637-.686.276-.164.599-.247.97-.247.249 0 .481.041.696.121.217.079.406.198.566.357.163.159.289.359.379.6.091.24.136.52.136.842v.288h-3.192v-.65h2.205a.8.8 0 00-.099-.401.702.702 0 00-.273-.273.78.78 0 00-.401-.101c-.159 0-.3.037-.423.111a.774.774 0 00-.286.293.826.826 0 00-.105.406v.617c0 .187.034.349.103.485.071.136.17.241.298.315a.892.892 0 00.455.111.99.99 0 00.32-.049.651.651 0 00.406-.389l.97.064c-.05.233-.151.436-.303.61a1.524 1.524 0 01-.586.404 2.212 2.212 0 01-.824.143z" fill="#AAADB4"/><path fill="#FFFEFE" d="M183.295 611.016H371.83v1.598H183.295z"/><path d="M195.523 636.218h87.707a7.157 7.157 0 017.157 7.157v5.902a7.157 7.157 0 01-7.157 7.158h-87.707a7.158 7.158 0 01-7.158-7.158v-5.902a7.157 7.157 0 017.158-7.157z" fill="#FFFEFE" stroke="#C4C4C4" stroke-width="1.193"/><path d="M195.98 648.715c-.332 0-.617-.07-.855-.211a1.417 1.417 0 01-.548-.589 1.912 1.912 0 01-.189-.868c0-.331.063-.622.191-.872.129-.251.313-.447.55-.587.237-.142.519-.213.846-.213.283 0 .53.051.742.154.212.102.379.246.503.432.123.185.192.403.204.652h-.846a.651.651 0 00-.19-.389.542.542 0 00-.398-.15.6.6 0 00-.364.114.714.714 0 00-.24.326 1.392 1.392 0 00-.087.521c0 .206.028.381.085.526a.725.725 0 00.242.331.606.606 0 00.364.113.59.59 0 00.276-.063.527.527 0 00.204-.183.698.698 0 00.108-.293h.846a1.323 1.323 0 01-.202.653 1.213 1.213 0 01-.495.438c-.21.105-.46.158-.747.158zm2.916-1.933v1.87h-.897v-4.313h.871v1.649h.038a.92.92 0 01.354-.449c.163-.109.367-.164.613-.164.224 0 .42.049.587.148a.976.976 0 01.392.419c.094.181.14.398.139.65v2.06h-.897v-1.9c.001-.199-.049-.354-.152-.465-.101-.111-.243-.166-.425-.166a.658.658 0 00-.324.078.545.545 0 00-.219.227.764.764 0 00-.08.356zm2.803 1.87v-3.235h.897v3.235h-.897zm.451-3.652a.49.49 0 01-.344-.132.432.432 0 010-.64.484.484 0 01.344-.135c.133 0 .247.045.341.135a.43.43 0 010 .64.482.482 0 01-.341.132zm2.626 3.715c-.331 0-.616-.07-.855-.211a1.415 1.415 0 01-.547-.589 1.899 1.899 0 01-.19-.868c0-.331.064-.622.192-.872a1.42 1.42 0 01.549-.587c.238-.142.52-.213.847-.213.282 0 .529.051.741.154.212.102.38.246.503.432.124.185.192.403.205.652h-.847a.656.656 0 00-.189-.389.542.542 0 00-.398-.15.603.603 0 00-.365.114.728.728 0 00-.24.326 1.413 1.413 0 00-.086.521c0 .206.028.381.084.526a.733.733 0 00.242.331.609.609 0 00.365.113.597.597 0 00.276-.063.542.542 0 00.204-.183.697.697 0 00.107-.293h.847a1.333 1.333 0 01-.202.653c-.12.187-.285.333-.495.438a1.66 1.66 0 01-.748.158zm2.941-.002c-.206 0-.39-.036-.551-.107a.893.893 0 01-.384-.323.97.97 0 01-.139-.535c0-.179.033-.33.099-.452a.799.799 0 01.27-.295c.114-.075.243-.131.387-.169.146-.037.299-.064.46-.08.188-.019.339-.038.454-.054a.657.657 0 00.251-.08.176.176 0 00.078-.156v-.013a.387.387 0 00-.126-.309.52.52 0 00-.354-.11.627.627 0 00-.386.108.494.494 0 00-.189.265l-.83-.068c.042-.196.125-.366.249-.509.123-.145.283-.256.478-.333.196-.078.424-.118.682-.118.18 0 .352.021.516.063.166.042.312.108.44.196a.953.953 0 01.417.836v2.182h-.851v-.449h-.025a.9.9 0 01-.522.447 1.305 1.305 0 01-.424.063zm.257-.619a.755.755 0 00.35-.078.62.62 0 00.238-.215.56.56 0 00.086-.305v-.343a.46.46 0 01-.116.05 2.138 2.138 0 01-.162.04l-.181.032-.164.023c-.105.015-.197.04-.276.074a.432.432 0 00-.183.136.334.334 0 00-.065.211c0 .122.044.215.132.28.09.063.204.095.341.095zm3.718 1.838c-.29 0-.54-.04-.747-.12a1.23 1.23 0 01-.493-.322.986.986 0 01-.238-.459l.83-.112a.57.57 0 00.337.316.928.928 0 00.332.053.78.78 0 00.482-.143c.128-.094.192-.252.192-.474v-.592h-.038a.84.84 0 01-.177.255.887.887 0 01-.303.196c-.123.05-.271.076-.442.076-.243 0-.464-.057-.663-.169a1.21 1.21 0 01-.474-.52c-.117-.235-.175-.531-.175-.889 0-.366.06-.672.179-.918s.278-.429.476-.552c.199-.122.417-.183.655-.183.181 0 .332.031.455.093.122.06.22.136.294.227.076.09.134.179.175.266h.034v-.544h.891v3.266c0 .276-.068.506-.202.691a1.223 1.223 0 01-.561.417 2.21 2.21 0 01-.819.141zm.019-2a.61.61 0 00.367-.108.68.68 0 00.231-.311c.055-.137.082-.299.082-.489 0-.189-.026-.354-.08-.493a.717.717 0 00-.231-.326.591.591 0 00-.369-.116.583.583 0 00-.373.12.721.721 0 00-.229.329c-.052.14-.078.302-.078.486 0 .187.026.348.078.484.053.135.13.24.229.314.101.073.226.11.373.11zm3.738.783a1.66 1.66 0 01-.849-.208 1.43 1.43 0 01-.549-.586 1.886 1.886 0 01-.194-.874c0-.334.065-.626.194-.876a1.41 1.41 0 01.549-.585 1.64 1.64 0 01.849-.211c.327 0 .609.07.847.211.238.139.422.334.551.585.129.25.194.542.194.876 0 .332-.065.623-.194.874-.129.25-.313.445-.551.586a1.65 1.65 0 01-.847.208zm.004-.695a.56.56 0 00.373-.126.776.776 0 00.225-.35c.052-.147.078-.315.078-.503s-.026-.356-.078-.503a.776.776 0 00-.225-.35.55.55 0 00-.373-.128.57.57 0 00-.379.128.79.79 0 00-.229.35 1.532 1.532 0 00-.076.503c0 .188.025.356.076.503a.79.79 0 00.229.35.58.58 0 00.379.126z" fill="#4F5055"/><rect x="297.971" y="636.218" width="60.8" height="20.217" rx="7.157" fill="#FFFEFE" stroke="#C4C4C4" stroke-width="1.193"/><path d="M310.059 648.715c-.332 0-.617-.07-.855-.211a1.417 1.417 0 01-.548-.589 1.912 1.912 0 01-.189-.868c0-.331.064-.622.191-.872.129-.251.313-.447.55-.587.237-.142.519-.213.846-.213.283 0 .53.051.742.154.212.102.379.246.503.432.124.185.192.403.204.652h-.846a.651.651 0 00-.19-.389.542.542 0 00-.398-.15.6.6 0 00-.364.114.714.714 0 00-.24.326 1.393 1.393 0 00-.086.521c0 .206.028.381.084.526a.725.725 0 00.242.331.606.606 0 00.364.113.59.59 0 00.276-.063.527.527 0 00.204-.183.698.698 0 00.108-.293h.846a1.323 1.323 0 01-.202.653 1.213 1.213 0 01-.495.438c-.21.105-.46.158-.747.158zm2.916-1.933v1.87h-.897v-4.313h.871v1.649h.038a.92.92 0 01.354-.449c.163-.109.367-.164.613-.164.225 0 .42.049.587.148a.976.976 0 01.392.419c.094.181.141.398.139.65v2.06h-.897v-1.9c.001-.199-.049-.354-.152-.465-.101-.111-.242-.166-.425-.166a.658.658 0 00-.324.078.545.545 0 00-.219.227.764.764 0 00-.08.356zm2.803 1.87v-3.235h.897v3.235h-.897zm.451-3.652a.486.486 0 01-.343-.132.43.43 0 010-.64.48.48 0 01.343-.135c.133 0 .247.045.341.135a.43.43 0 010 .64.482.482 0 01-.341.132zm2.626 3.715c-.331 0-.616-.07-.855-.211a1.421 1.421 0 01-.547-.589 1.899 1.899 0 01-.19-.868c0-.331.064-.622.192-.872a1.42 1.42 0 01.549-.587c.238-.142.52-.213.847-.213.282 0 .529.051.741.154.212.102.38.246.504.432.123.185.191.403.204.652h-.847a.656.656 0 00-.189-.389.542.542 0 00-.398-.15.603.603 0 00-.365.114.728.728 0 00-.24.326 1.413 1.413 0 00-.086.521c0 .206.028.381.084.526a.74.74 0 00.242.331.609.609 0 00.365.113.597.597 0 00.276-.063.534.534 0 00.204-.183.697.697 0 00.107-.293h.847a1.333 1.333 0 01-.202.653c-.12.187-.285.333-.495.438a1.66 1.66 0 01-.748.158zm2.942-.002c-.207 0-.391-.036-.552-.107a.884.884 0 01-.383-.323.961.961 0 01-.139-.535c0-.179.033-.33.099-.452a.796.796 0 01.269-.295c.114-.075.243-.131.388-.169.146-.037.299-.064.459-.08.188-.019.339-.038.454-.054a.657.657 0 00.251-.08.176.176 0 00.078-.156v-.013a.387.387 0 00-.126-.309.52.52 0 00-.354-.11.622.622 0 00-.385.108.49.49 0 00-.19.265l-.83-.068c.042-.196.125-.366.249-.509.123-.145.283-.256.478-.333.196-.078.424-.118.682-.118.18 0 .352.021.516.063.166.042.312.108.44.196a.953.953 0 01.417.836v2.182h-.851v-.449h-.025a.913.913 0 01-.208.268.972.972 0 01-.314.179 1.298 1.298 0 01-.423.063zm.256-.619a.755.755 0 00.35-.078.62.62 0 00.238-.215.55.55 0 00.086-.305v-.343a.468.468 0 01-.115.05 2.301 2.301 0 01-.344.072l-.164.023c-.105.015-.197.04-.276.074a.438.438 0 00-.183.136.334.334 0 00-.065.211c0 .122.044.215.132.28.09.063.204.095.341.095zm3.718 1.838c-.29 0-.539-.04-.747-.12a1.23 1.23 0 01-.493-.322.995.995 0 01-.238-.459l.83-.112a.57.57 0 00.337.316.928.928 0 00.332.053.784.784 0 00.483-.143c.127-.094.191-.252.191-.474v-.592h-.038a.84.84 0 01-.177.255.887.887 0 01-.303.196c-.123.05-.271.076-.442.076-.243 0-.464-.057-.663-.169a1.21 1.21 0 01-.474-.52c-.117-.235-.175-.531-.175-.889 0-.366.06-.672.179-.918s.278-.429.476-.552c.199-.122.418-.183.655-.183a1 1 0 01.455.093c.122.06.22.136.295.227.075.09.134.179.174.266h.034v-.544h.891v3.266c0 .276-.068.506-.202.691a1.223 1.223 0 01-.561.417 2.21 2.21 0 01-.819.141zm.019-2a.61.61 0 00.367-.108.68.68 0 00.231-.311c.055-.137.082-.299.082-.489 0-.189-.026-.354-.08-.493a.717.717 0 00-.231-.326.591.591 0 00-.369-.116.58.58 0 00-.372.12.715.715 0 00-.23.329c-.052.14-.078.302-.078.486 0 .187.026.348.078.484.053.135.13.24.23.314.101.073.225.11.372.11zm3.738.783a1.66 1.66 0 01-.849-.208 1.43 1.43 0 01-.549-.586 1.886 1.886 0 01-.194-.874c0-.334.065-.626.194-.876a1.41 1.41 0 01.549-.585 1.64 1.64 0 01.849-.211c.327 0 .609.07.847.211.238.139.422.334.551.585.13.25.194.542.194.876 0 .332-.064.623-.194.874-.129.25-.313.445-.551.586a1.65 1.65 0 01-.847.208zm.004-.695a.56.56 0 00.373-.126.776.776 0 00.225-.35c.052-.147.078-.315.078-.503s-.026-.356-.078-.503a.776.776 0 00-.225-.35.55.55 0 00-.373-.128.57.57 0 00-.379.128.79.79 0 00-.229.35 1.532 1.532 0 00-.076.503c0 .188.025.356.076.503a.79.79 0 00.229.35.58.58 0 00.379.126z" fill="#4F5055"/><path d="M276.449 644.889l2.558 2.47 2.559-2.47" stroke="#AAADB4" stroke-linecap="round" stroke-linejoin="round"/></g><path d="M395.116 383.067c6 0 10.864-4.864 10.864-10.865 0-6-4.864-10.865-10.864-10.865-6.001 0-10.865 4.865-10.865 10.865 0 6.001 4.864 10.865 10.865 10.865z" stroke="#D0D4DD" stroke-width="2.386" stroke-linecap="round" stroke-linejoin="round"/><path d="M395.115 376.548a4.345 4.345 0 100-8.691 4.345 4.345 0 100 8.691zm9.963-8.691h-9.963m-8.746-2.108l4.987 8.626m2.544 8.627l4.976-8.627" stroke="#D0D4DD" stroke-width="2.386" stroke-linecap="round" stroke-linejoin="round"/></g><defs><clipPath id="clip0_1_234"><path fill="#fff" d="M0 0h577v686H0z"/></clipPath><filter id="filter0_d_1_234" x="162.832" y="396.278" width="220.821" height="295.596" filterUnits="userSpaceOnUse" color-interpolation-filters="sRGB"><feFlood flood-opacity="0" result="BackgroundImageFix"/><feColorMatrix in="SourceAlpha" values="0 0 0 0 0 0 0 0 0 0 0 0 0 0 0 0 0 0 127 0" result="hardAlpha"/><feOffset dx="-8" dy="8"/><feComposite in2="hardAlpha" operator="out"/><feColorMatrix values="0 0 0 0 0 0 0 0 0 0 0 0 0 0 0 0 0 0 0.15 0"/><feBlend in2="BackgroundImageFix" result="effect1_dropShadow_1_234"/><feBlend in="SourceGraphic" in2="effect1_dropShadow_1_234" result="shape"/></filter></defs></svg>