<svg width="327" height="622" fill="none" xmlns="http://www.w3.org/2000/svg"><g clip-path="url(#clip0_1_393)"><g opacity=".03" clip-path="url(#clip1_1_393)"><path d="M340.283 581.501C340.283 676.217 264.03 753 169.967 753S-.35 676.217-.35 581.501c0-94.717 76.254-171.5 170.317-171.5s170.316 76.783 170.316 171.5z" fill="#000"/><path fill-rule="evenodd" clip-rule="evenodd" d="M257.902 751.916a190.18 190.18 0 00100.564-168.067c0-75.83-44.109-141.286-107.9-171.772A170.435 170.435 0 01277.148 410c94.064 0 170.317 76.783 170.317 171.499 0 94.717-76.253 171.5-170.317 171.5a171.08 171.08 0 01-19.246-1.083z" fill="#000"/><rect x="134.472" y="489.933" width="35.483" height="132.197" rx="17.741" fill="#E8D296"/><rect width="35.668" height="113.742" rx="17.834" transform="matrix(.4974 -.86752 .86452 .5026 130.117 612.437)" fill="#E8D296"/></g><g clip-path="url(#clip2_1_393)"><g filter="url(#filter0_d_1_393)"><rect x="50.166" y="266" width="504" height="407" rx="26.244" fill="#FFFEFE"/><path fill-rule="evenodd" clip-rule="evenodd" d="M469.082 266c-.83 0-1.64.083-2.423.242V266H66.665c-8.836 0-16.05 6.945-16.48 15.674H50v32.774h3.545l.034.001h94.585a3.579 3.579 0 003.578-3.579v-25.617a3.578 3.578 0 013.542-3.578h149.568a3.577 3.577 0 013.541 3.578v25.617a3.579 3.579 0 003.578 3.579h238.317l.033-.001h3.546v-32.774h-.533c.347-1.126.533-2.322.533-3.562 0-6.689-5.422-12.112-12.112-12.112h-72.673z" fill="#F0F1F5"/><circle cx="78.262" cy="291.032" r="5.652" fill="#FF7970"/><circle cx="97.641" cy="291.032" r="5.652" fill="#FDD171"/><circle cx="117.021" cy="291.032" r="5.652" fill="#65C157"/><circle cx="172.737" cy="295.069" r="6.46" fill="#E1E4EB"/><path fill="#E1E4EB" d="M187.271 293.454h77.518v4.845h-77.518z"/><path d="M287.988 292.428l5.871 5.871m-5.871 0l5.871-5.871" stroke="#DBDEE4" stroke-width="2.386" stroke-linecap="round" stroke-linejoin="round"/><path d="M326.557 293.16h12.226" stroke="#D0D4DD" stroke-width="3.579" stroke-linecap="round" stroke-linejoin="round" opacity=".6"/><rect x="179.197" y="320.909" width="219.634" height="30.684" rx="15.342" fill="#F0F1F5"/><path fill="#E1E4EB" d="M221.186 333.828h138.886v4.845H221.186z"/><path d="M205.68 334.8h-9.042c-.713 0-1.291.578-1.291 1.291v4.521c0 .714.578 1.292 1.291 1.292h9.042c.713 0 1.291-.578 1.291-1.292v-4.521c0-.713-.578-1.291-1.291-1.291zm-7.749 0v-2.584a3.229 3.229 0 016.393-.646" stroke="#D0D4DD" stroke-width="2.386" stroke-linecap="round" stroke-linejoin="round"/><path d="M204.323 334.803v-2.583a3.231 3.231 0 00-2.904-3.216 3.227 3.227 0 00-3.489 2.57" stroke="#D0D4DD" stroke-width="2.386" stroke-linecap="round" stroke-linejoin="round"/><path d="M87.614 336.25H75.367m6.123 6.124l-6.123-6.124 6.124-6.123m26.647 6.595h12.247m-6.124 6.123l6.124-6.123-6.124-6.124m37.784 9.084l4.542-4.542-4.542-4.542" stroke="#DBDEE4" stroke-width="2.386" stroke-linecap="round" stroke-linejoin="round"/><path d="M142.053 345.133v-6.359a3.635 3.635 0 013.633-3.634h10.901" stroke="#DBDEE4" stroke-width="2.386" stroke-linecap="round" stroke-linejoin="round"/><path fill="#F0F1F5" d="M50 358.052h503.867v1.615H50z"/></g><rect x="80.897" y="385.353" width="33.322" height="7.573" rx="3.787" fill="#F0F1F5"/><rect x="80.897" y="448.362" width="33.322" height="7.573" rx="3.787" fill="#F0F1F5"/><rect x="80.897" y="511.37" width="33.322" height="7.573" rx="3.787" fill="#F0F1F5"/><rect x="80.897" y="408.846" width="145.4" height="1.949" rx=".974" fill="#F0F1F5"/><rect x="80.897" y="429.792" width="145.4" height="1.949" rx=".974" fill="#F0F1F5"/><rect x="80.897" y="419.319" width="135.119" height="1.949" rx=".974" fill="#F0F1F5"/><rect x="80.897" y="471.854" width="145.4" height="1.949" rx=".974" fill="#F0F1F5"/><rect x="80.897" y="492.8" width="145.4" height="1.949" rx=".974" fill="#F0F1F5"/><rect x="80.897" y="482.327" width="135.119" height="1.949" rx=".974" fill="#F0F1F5"/><rect x="80.897" y="534.862" width="145.4" height="1.949" rx=".974" fill="#F0F1F5"/><rect x="80.897" y="555.809" width="145.4" height="1.949" rx=".974" fill="#F0F1F5"/><rect x="80.897" y="545.335" width="135.119" height="1.949" rx=".974" fill="#F0F1F5"/><path fill="#FFE7B4" d="M124.208 375.343h102.401v25.166H124.208z"/><path d="M144.449 394.431c-.792 0-1.496-.128-2.112-.385-.613-.26-1.095-.615-1.444-1.064a2.413 2.413 0 01-.524-1.526c0-.438.099-.841.298-1.207.202-.37.476-.677.822-.92a2.712 2.712 0 011.161-.473v-.072a2.281 2.281 0 01-1.367-.817 2.352 2.352 0 01-.524-1.516c0-.544.16-1.029.478-1.454.319-.428.756-.764 1.31-1.007.559-.247 1.193-.37 1.902-.37.709 0 1.341.123 1.896.37.558.247.997.584 1.315 1.012.319.425.48.908.483 1.449a2.341 2.341 0 01-.534 1.516 2.295 2.295 0 01-1.357.817v.072c.422.069.804.226 1.146.473.346.243.62.55.822.92a2.467 2.467 0 01-.215 2.733c-.35.449-.833.804-1.449 1.064-.614.257-1.316.385-2.107.385zm0-1.634c.353 0 .661-.063.925-.19.263-.13.469-.308.616-.534.151-.23.226-.493.226-.791a1.43 1.43 0 00-.231-.807 1.578 1.578 0 00-.627-.555 1.945 1.945 0 00-.909-.206c-.339 0-.643.069-.91.206a1.573 1.573 0 00-.632.555 1.45 1.45 0 00-.226.807c0 .298.074.561.221.791.147.226.355.404.622.534.267.127.575.19.925.19zm0-4.701c.294 0 .556-.06.786-.18.229-.12.409-.286.539-.499.131-.212.196-.457.196-.734a1.312 1.312 0 00-.73-1.208c-.226-.12-.49-.18-.791-.18-.298 0-.562.06-.792.18a1.334 1.334 0 00-.539.488c-.127.206-.19.446-.19.72 0 .277.065.522.195.734.13.213.31.379.54.499.229.12.491.18.786.18zm6.941 4.969a1.2 1.2 0 01-.874-.36 1.19 1.19 0 01-.36-.874c0-.335.12-.623.36-.863a1.2 1.2 0 01.874-.36c.328 0 .616.12.863.36.246.24.37.528.37.863 0 .226-.058.434-.175.622a1.327 1.327 0 01-.447.447c-.185.11-.389.165-.611.165zm0-5.165c-.34 0-.631-.119-.874-.359a1.19 1.19 0 01-.36-.874c0-.336.12-.622.36-.858a1.2 1.2 0 01.874-.36c.328 0 .616.12.863.36.246.236.37.522.37.858 0 .23-.058.439-.175.627a1.287 1.287 0 01-.447.442c-.185.11-.389.164-.611.164zm6.899 6.531c-.767 0-1.451-.131-2.05-.395-.596-.267-1.067-.634-1.413-1.1a2.757 2.757 0 01-.529-1.624h2.24c.014.257.098.483.252.679.157.192.366.341.627.447.26.106.553.159.878.159.34 0 .639-.06.9-.18.26-.12.464-.286.611-.498.147-.213.221-.458.221-.735 0-.281-.079-.529-.236-.745a1.51 1.51 0 00-.668-.514c-.288-.123-.631-.185-1.028-.185h-.981v-1.634h.981c.336 0 .632-.058.889-.175.26-.116.462-.277.606-.483.144-.209.216-.452.216-.729a1.26 1.26 0 00-.19-.694 1.255 1.255 0 00-.524-.473 1.705 1.705 0 00-.781-.169c-.302 0-.577.054-.827.164a1.448 1.448 0 00-.602.457c-.15.199-.231.432-.241.699h-2.133a2.75 2.75 0 01.519-1.603 3.37 3.37 0 011.357-1.084c.572-.264 1.218-.396 1.937-.396.726 0 1.362.132 1.906.396.545.264.968.62 1.27 1.069.305.445.455.945.452 1.5.003.589-.18 1.081-.55 1.475-.366.394-.844.644-1.434.75v.082c.775.1 1.364.368 1.768.807.408.435.61.98.606 1.634a2.562 2.562 0 01-.519 1.598c-.346.466-.823.832-1.433 1.1-.61.267-1.309.4-2.097.4zm9.775.088c-.884-.004-1.644-.221-2.282-.653-.633-.431-1.121-1.057-1.464-1.875-.339-.819-.507-1.804-.504-2.955 0-1.148.17-2.126.509-2.934.343-.808.831-1.423 1.465-1.845.637-.425 1.396-.637 2.276-.637.88 0 1.637.212 2.271.637.637.425 1.127 1.042 1.47 1.85.342.805.512 1.781.508 2.929 0 1.155-.171 2.141-.513 2.96-.339.819-.826 1.444-1.46 1.875-.633.432-1.392.648-2.276.648zm0-1.845c.603 0 1.084-.303 1.444-.909.36-.607.538-1.516.534-2.729 0-.798-.082-1.463-.246-1.994-.161-.531-.391-.93-.689-1.197a1.503 1.503 0 00-1.043-.401c-.6 0-1.079.3-1.439.899-.36.6-.541 1.497-.545 2.693 0 .809.081 1.483.242 2.025.164.537.396.942.694 1.212.298.268.647.401 1.048.401zm9.247 1.614v-10.524h4.213c.774 0 1.42.115 1.937.344.518.23.907.548 1.167.956.26.404.39.87.39 1.398 0 .411-.082.772-.246 1.084a2.13 2.13 0 01-.679.76 2.775 2.775 0 01-.976.417v.102a2.403 2.403 0 011.984 1.218c.219.374.329.819.329 1.336 0 .559-.139 1.057-.417 1.496-.274.435-.68.779-1.218 1.032-.537.254-1.2.381-1.988.381h-4.496zm2.225-1.819h1.814c.62 0 1.072-.119 1.356-.355.284-.24.427-.558.427-.956a1.42 1.42 0 00-.211-.771 1.442 1.442 0 00-.601-.524 2.071 2.071 0 00-.92-.19h-1.865v2.796zm0-4.301h1.649c.305 0 .576-.053.812-.16.24-.109.428-.263.565-.462.141-.199.211-.437.211-.714 0-.381-.135-.687-.406-.92-.267-.233-.647-.35-1.141-.35h-1.69v2.606zm13.05-1.377c-.041-.415-.217-.737-.529-.967-.312-.229-.735-.344-1.269-.344-.363 0-.67.052-.92.154-.25.1-.442.238-.576.417-.13.178-.195.38-.195.606a.869.869 0 00.118.493c.089.141.211.262.365.365.154.099.332.187.535.262.202.072.417.134.647.185l.945.226c.459.103.881.24 1.265.411.383.172.715.382.996.632s.499.545.653.884c.158.339.238.728.241 1.167-.003.644-.167 1.202-.493 1.675-.322.469-.788.834-1.397 1.094-.607.257-1.338.386-2.195.386-.849 0-1.589-.131-2.219-.391-.627-.26-1.117-.646-1.47-1.156-.349-.514-.533-1.149-.55-1.906h2.153c.024.352.125.647.303.883.182.233.423.41.725.53.305.116.649.174 1.033.174.377 0 .704-.054.981-.164a1.51 1.51 0 00.653-.457 1.06 1.06 0 00.231-.674.873.873 0 00-.211-.596c-.137-.161-.339-.298-.606-.411a6.15 6.15 0 00-.971-.308l-1.146-.288c-.887-.216-1.588-.553-2.102-1.012-.514-.459-.769-1.077-.765-1.855-.004-.637.166-1.194.508-1.67.346-.476.821-.848 1.424-1.115s1.288-.401 2.055-.401c.781 0 1.463.134 2.045.401.586.267 1.042.639 1.367 1.115.325.476.493 1.028.504 1.655h-2.133zm3.372-1.193v-1.834h8.643v1.834h-3.222v8.69h-2.199v-8.69h-3.222z" fill="#59606B"/><g filter="url(#filter1_d_1_393)"><rect x="80.166" y="400" width="241" height="208" rx="14.49" fill="#F7F5F2"/><rect x="95.565" y="411.565" width="52.871" height="17.871" rx="8.935" fill="#fff"/><g clip-path="url(#clip3_1_393)"><path d="M104.553 414.573a5.923 5.923 0 00-5.476 3.659 5.924 5.924 0 004.32 8.081 5.928 5.928 0 007.083-5.813 5.934 5.934 0 00-5.927-5.927zm2.823 4.889l-3.344 3.192a.46.46 0 01-.63 0l-1.672-1.596a.456.456 0 01.631-.66l1.356 1.295 3.028-2.891a.46.46 0 01.645.015.455.455 0 01-.014.645z" fill="#174EA6"/></g><path d="M114.381 417.604h1.196l1.602 3.91h.063l1.602-3.91h1.197V423h-.938v-3.707h-.05l-1.492 3.691h-.701l-1.491-3.699h-.05V423h-.938v-5.396zm7.275 6.914a1.94 1.94 0 01-.622-.1l.221-.743c.139.04.263.059.372.058a.454.454 0 00.287-.103.732.732 0 00.214-.327l.081-.219-1.467-4.131h1.011l.933 3.056h.042l.936-3.056h1.014l-1.62 4.537a1.83 1.83 0 01-.301.551 1.22 1.22 0 01-.458.353 1.536 1.536 0 01-.643.124zm5.328-6.095v-.819h4.305v.819h-1.668V423h-.969v-4.577h-1.668zm5.093 4.577v-4.047h.954V423h-.954zm.48-4.622a.557.557 0 01-.39-.15.485.485 0 01-.164-.366c0-.144.055-.266.164-.366a.551.551 0 01.39-.153c.153 0 .283.051.39.153.109.1.163.222.163.366a.484.484 0 01-.163.366.55.55 0 01-.39.15zm1.455 4.622v-4.047h.912v.687h.047c.084-.231.224-.412.419-.542.195-.132.428-.198.698-.198.274 0 .505.067.693.2.19.132.323.312.401.54h.042a1.1 1.1 0 01.453-.537c.214-.135.468-.203.762-.203.372 0 .676.118.911.353.236.235.353.579.353 1.03V423h-.956v-2.569c0-.251-.067-.435-.2-.551a.72.72 0 00-.491-.176c-.23 0-.41.072-.54.216a.798.798 0 00-.192.556V423h-.935v-2.609a.67.67 0 00-.19-.5.662.662 0 00-.49-.187.692.692 0 00-.374.105.735.735 0 00-.269.293.907.907 0 00-.1.437V423h-.954zm8.451.079c-.406 0-.756-.084-1.052-.253a1.712 1.712 0 01-.677-.722c-.158-.313-.237-.681-.237-1.104 0-.416.079-.782.237-1.096.16-.316.383-.562.67-.738a1.878 1.878 0 011.009-.266c.249 0 .485.04.706.121.223.079.42.202.59.369.172.167.307.38.406.638.098.256.147.562.147.917v.292h-3.317v-.643h2.403a1.031 1.031 0 00-.118-.487.865.865 0 00-.325-.34.904.904 0 00-.479-.124.938.938 0 00-.514.142.97.97 0 00-.345.369 1.062 1.062 0 00-.124.498v.562c0 .235.043.437.129.606a.924.924 0 00.361.384c.155.088.336.132.543.132.139 0 .264-.019.377-.058a.818.818 0 00.292-.177.727.727 0 00.187-.287l.891.1a1.378 1.378 0 01-.322.617 1.567 1.567 0 01-.6.406 2.304 2.304 0 01-.838.142z" fill="#2D2A21"/><rect x="95.565" y="411.565" width="52.871" height="17.871" rx="8.935" stroke="#E8D296" stroke-width="1.129"/><path d="M296.731 586.161v3.484a1.161 1.161 0 01-1.162 1.161h-6.386a1.163 1.163 0 01-1.162-1.161v-6.387a1.161 1.161 0 011.162-1.161h3.483m2.322-1.743h3.484v3.484m-6.386 2.903l6.387-6.387" stroke="#000" stroke-width="1.193" stroke-linecap="round" stroke-linejoin="round"/><path d="M101.018 583.515a1.142 1.142 0 00-.516-.859c-.302-.206-.682-.309-1.14-.309-.329 0-.613.052-.852.156a1.32 1.32 0 00-.559.422.996.996 0 00-.195.606c0 .19.044.354.133.492.09.138.21.254.355.348.149.091.307.168.477.23.169.06.332.109.488.149l.781.203c.255.062.517.147.785.254.269.106.517.247.746.421.23.175.415.391.555.649.143.258.215.566.215.926 0 .453-.117.855-.352 1.207-.231.351-.569.629-1.011.832-.44.203-.973.304-1.598.304-.599 0-1.117-.095-1.555-.285a2.392 2.392 0 01-1.027-.808 2.348 2.348 0 01-.41-1.25h1.21c.024.289.118.53.282.722.167.19.379.332.637.426.26.091.545.137.855.137.341 0 .645-.054.91-.16.269-.11.48-.261.633-.453.154-.196.231-.424.231-.684a.84.84 0 00-.203-.582 1.505 1.505 0 00-.543-.375 5.386 5.386 0 00-.77-.262l-.945-.258c-.64-.174-1.149-.431-1.524-.769-.372-.339-.558-.787-.558-1.344 0-.461.125-.863.375-1.207a2.46 2.46 0 011.015-.801 3.488 3.488 0 011.446-.289c.541 0 1.019.095 1.433.285.417.19.745.452.985.786.239.33.364.71.375 1.14h-1.164zm2.715 5.899v-8h5.016v1.039h-3.809v2.437h3.547v1.035h-3.547v2.45h3.856v1.039h-5.063zm6.628 0v-8h5.016v1.039h-3.809v2.437h3.547v1.035h-3.547v2.45h3.856v1.039h-5.063zm9.539-8h1.465l2.547 6.218h.094l2.547-6.218h1.465v8h-1.149v-5.789h-.074l-2.359 5.777h-.954l-2.359-5.781h-.074v5.793H119.9v-8zm16.822 4c0 .854-.157 1.588-.469 2.203-.313.612-.741 1.083-1.285 1.414-.542.328-1.158.492-1.848.492-.693 0-1.311-.164-1.855-.492-.542-.331-.969-.804-1.282-1.418-.312-.615-.468-1.348-.468-2.199 0-.855.156-1.588.468-2.2.313-.614.74-1.086 1.282-1.414.544-.33 1.162-.496 1.855-.496.69 0 1.306.166 1.848.496.544.328.972.8 1.285 1.414.312.612.469 1.345.469 2.2zm-1.196 0c0-.651-.105-1.2-.316-1.645-.208-.448-.495-.786-.859-1.016a2.241 2.241 0 00-1.231-.347c-.461 0-.872.116-1.234.347-.362.23-.649.568-.86 1.016-.208.445-.312.994-.312 1.645s.104 1.2.312 1.648c.211.445.498.784.86 1.016.362.229.773.343 1.234.343.458 0 .869-.114 1.231-.343.364-.232.651-.571.859-1.016.211-.448.316-.997.316-1.648zm2.701 4v-8h2.851c.62 0 1.134.106 1.543.32.412.213.719.509.922.887.203.375.305.808.305 1.3 0 .49-.103.921-.309 1.293-.203.37-.51.658-.922.864-.409.205-.923.308-1.543.308h-2.16v-1.039h2.051c.39 0 .708-.056.953-.168.247-.112.428-.275.543-.488.115-.214.172-.47.172-.77a1.66 1.66 0 00-.176-.785 1.145 1.145 0 00-.543-.508c-.245-.119-.566-.179-.965-.179h-1.515v6.965h-1.207zm3.949-3.61l1.976 3.61h-1.375l-1.937-3.61h1.336zm3.14 3.61v-8h5.016v1.039h-3.809v2.437h3.547v1.035h-3.547v2.45h3.856v1.039h-5.063zm9.145-6.961v-1.039h6.191v1.039h-2.496v6.961h-1.203v-6.961h-2.492zm8.767-1.039v8h-1.207v-8h1.207zm1.757 0h1.465l2.547 6.218h.094l2.547-6.218h1.465v8h-1.149v-5.789h-.074l-2.359 5.777h-.954l-2.359-5.781h-.074v5.793h-1.149v-8zm9.872 8v-8h5.016v1.039h-3.809v2.437h3.547v1.035h-3.547v2.45h3.856v1.039h-5.063zm9.332 0v-.805l4.207-6.156h-4.242v-1.039h5.719v.804l-4.207 6.157h4.242v1.039h-5.719zm13.806-4c0 .854-.156 1.588-.469 2.203a3.44 3.44 0 01-1.285 1.414c-.541.328-1.157.492-1.847.492-.693 0-1.312-.164-1.856-.492-.542-.331-.969-.804-1.281-1.418-.313-.615-.469-1.348-.469-2.199 0-.855.156-1.588.469-2.2.312-.614.739-1.086 1.281-1.414.544-.33 1.163-.496 1.856-.496.69 0 1.306.166 1.847.496.544.328.973.8 1.285 1.414.313.612.469 1.345.469 2.2zm-1.195 0c0-.651-.106-1.2-.317-1.645-.208-.448-.494-.786-.859-1.016a2.238 2.238 0 00-1.23-.347c-.461 0-.873.116-1.235.347-.362.23-.648.568-.859 1.016-.209.445-.313.994-.313 1.645s.104 1.2.313 1.648c.211.445.497.784.859 1.016.362.229.774.343 1.235.343.458 0 .868-.114 1.23-.343.365-.232.651-.571.859-1.016.211-.448.317-.997.317-1.648zm9.157-4v8h-1.109l-4.067-5.868h-.074v5.868H199.5v-8h1.117l4.071 5.875h.074v-5.875h1.195zm1.761 8v-8h5.015v1.039h-3.808v2.437h3.547v1.035h-3.547v2.45h3.855v1.039h-5.062zm10.991-5.899a1.142 1.142 0 00-.516-.859c-.302-.206-.682-.309-1.14-.309-.328 0-.612.052-.852.156a1.317 1.317 0 00-.558.422.992.992 0 00-.196.606c0 .19.045.354.133.492.091.138.21.254.356.348.148.091.307.168.476.23.169.06.332.109.488.149l.782.203c.255.062.517.147.785.254.268.106.517.247.746.421.229.175.414.391.555.649.143.258.214.566.214.926 0 .453-.117.855-.351 1.207-.232.351-.569.629-1.012.832-.44.203-.973.304-1.598.304-.598 0-1.117-.095-1.554-.285a2.394 2.394 0 01-1.028-.808 2.35 2.35 0 01-.41-1.25h1.211c.024.289.117.53.281.722.167.19.379.332.637.426.261.091.546.137.856.137.341 0 .644-.054.91-.16a1.54 1.54 0 00.633-.453 1.08 1.08 0 00.23-.684.84.84 0 00-.203-.582 1.505 1.505 0 00-.543-.375 5.362 5.362 0 00-.77-.262l-.945-.258c-.64-.174-1.148-.431-1.523-.769-.373-.339-.559-.787-.559-1.344 0-.461.125-.863.375-1.207.25-.344.589-.611 1.016-.801a3.488 3.488 0 011.445-.289c.542 0 1.02.095 1.434.285.416.19.744.452.984.786.24.33.365.71.375 1.14h-1.164zM96.407 449.177v-7.272h2.912c.535 0 .982.079 1.339.237.358.159.626.379.806.661.18.279.27.601.27.966 0 .284-.057.534-.17.749-.114.213-.27.388-.469.526a1.905 1.905 0 01-.675.287v.071c.277.012.536.09.778.235.244.144.442.347.593.607.152.258.227.566.227.923a1.9 1.9 0 01-.287 1.034c-.19.3-.47.538-.842.713-.372.176-.83.263-1.374.263h-3.108zm1.538-1.257H99.2c.428 0 .74-.082.937-.245a.82.82 0 00.295-.66.977.977 0 00-.146-.533.981.981 0 00-.415-.362 1.418 1.418 0 00-.636-.132h-1.289v1.932zm0-2.972h1.14c.21 0 .398-.037.561-.11a.94.94 0 00.391-.32.832.832 0 00.145-.493.797.797 0 00-.28-.636c-.185-.161-.448-.242-.788-.242h-1.169v1.801zm9.019-.952a.894.894 0 00-.366-.667c-.215-.159-.507-.238-.877-.238a1.67 1.67 0 00-.635.106.897.897 0 00-.398.288.692.692 0 00-.135.419.59.59 0 00.082.341.84.84 0 00.252.252c.106.069.229.129.369.181.14.05.289.092.447.128l.654.156c.317.071.608.166.873.284.266.119.495.264.689.437.195.173.345.376.451.611.109.234.165.503.167.806a2.01 2.01 0 01-.341 1.158c-.222.324-.544.576-.966.756-.419.177-.924.266-1.516.266-.587 0-1.098-.09-1.534-.27a2.249 2.249 0 01-1.016-.799c-.241-.355-.368-.794-.38-1.317h1.488c.017.244.087.447.21.611.125.161.292.283.501.365.21.081.448.121.713.121.261 0 .487-.038.679-.113.194-.076.344-.182.451-.317a.73.73 0 00.159-.465c0-.163-.048-.3-.145-.412a1.113 1.113 0 00-.419-.284 4.276 4.276 0 00-.671-.213l-.792-.199c-.613-.149-1.098-.382-1.453-.699-.355-.317-.531-.745-.529-1.282a1.905 1.905 0 01.352-1.154c.239-.329.567-.586.983-.771a3.471 3.471 0 011.421-.277c.54 0 1.011.092 1.413.277.405.185.72.442.945.771.225.329.341.71.348 1.143h-1.474zm2.331-.824v-1.267h5.973v1.267h-2.227v6.005h-1.52v-6.005h-2.226zm9.576 2.369c0-.881.117-1.692.352-2.433a6.684 6.684 0 011.083-2.059h1.445a4.413 4.413 0 00-.515.859 7.703 7.703 0 00-.415 1.108 9.428 9.428 0 00-.277 1.25c-.067.429-.1.853-.1 1.275a8.7 8.7 0 00.171 1.701c.116.57.272 1.101.468 1.591.199.49.422.891.668 1.204h-1.445a6.688 6.688 0 01-1.083-2.06 8.024 8.024 0 01-.352-2.436zm3.786 3.636v-7.272h2.912c.535 0 .982.079 1.339.237.358.159.626.379.806.661.18.279.27.601.27.966 0 .284-.057.534-.17.749-.114.213-.27.388-.469.526a1.905 1.905 0 01-.675.287v.071c.277.012.536.09.778.235.244.144.442.347.593.607.152.258.227.566.227.923a1.9 1.9 0 01-.287 1.034c-.19.3-.47.538-.842.713-.372.176-.83.263-1.374.263h-3.108zm1.538-1.257h1.254c.428 0 .741-.082.937-.245a.82.82 0 00.295-.66.977.977 0 00-.146-.533.981.981 0 00-.415-.362 1.421 1.421 0 00-.636-.132h-1.289v1.932zm0-2.972h1.14c.211 0 .398-.037.561-.11a.94.94 0 00.391-.32.832.832 0 00.145-.493.798.798 0 00-.28-.636c-.185-.161-.448-.242-.789-.242h-1.168v1.801zm6.601 4.332c-.348 0-.658-.06-.931-.181a1.5 1.5 0 01-.646-.543c-.156-.242-.234-.542-.234-.902 0-.303.055-.558.167-.764.111-.206.262-.371.454-.497.192-.125.41-.22.654-.284.246-.064.504-.109.774-.135.317-.033.573-.064.767-.092.194-.031.335-.076.422-.135a.296.296 0 00.132-.263v-.021c0-.225-.071-.399-.213-.522-.14-.123-.339-.185-.597-.185-.272 0-.489.06-.65.181a.835.835 0 00-.319.448l-1.4-.114c.072-.331.211-.618.42-.859.208-.244.477-.431.806-.561a3.072 3.072 0 011.15-.199c.303 0 .593.035.87.106.28.071.527.181.742.33.218.15.39.341.515.576.126.232.189.51.189.834v3.679h-1.435v-.756h-.043c-.087.17-.205.321-.351.451a1.637 1.637 0 01-.529.302 2.19 2.19 0 01-.714.106zm.433-1.044c.223 0 .419-.044.59-.131.17-.09.304-.211.401-.362a.937.937 0 00.145-.515v-.579a.79.79 0 01-.195.085c-.08.024-.172.046-.273.068l-.306.053-.277.039a1.872 1.872 0 00-.465.124.754.754 0 00-.309.231.565.565 0 00-.11.355c0 .206.075.363.224.472.151.107.343.16.575.16zm5.325-2.212v3.153h-1.513v-5.454h1.442v.962h.064c.121-.317.323-.568.607-.753.284-.187.629-.28 1.034-.28.378 0 .709.083.99.248.282.166.501.403.657.71.156.306.235.67.235 1.094v3.473h-1.513v-3.203c.002-.334-.083-.594-.256-.781-.173-.19-.411-.284-.714-.284a1.09 1.09 0 00-.539.131.923.923 0 00-.363.384 1.322 1.322 0 00-.131.6zm7.165 5.312c-.49 0-.91-.067-1.26-.202a2.103 2.103 0 01-.831-.543 1.678 1.678 0 01-.402-.775l1.4-.188c.042.109.11.211.202.306a.99.99 0 00.366.227c.154.059.341.089.561.089.329 0 .6-.081.813-.242.215-.158.323-.425.323-.799v-.998h-.064a1.42 1.42 0 01-.298.43 1.504 1.504 0 01-.511.33 1.954 1.954 0 01-.746.128c-.41 0-.783-.095-1.119-.284-.334-.192-.6-.484-.799-.877-.196-.395-.295-.895-.295-1.499 0-.618.101-1.134.302-1.548.202-.414.469-.724.803-.93a2.072 2.072 0 011.104-.309c.306 0 .561.052.767.156.206.102.372.23.497.383.128.152.227.301.295.448h.057v-.916h1.502v5.508c0 .464-.113.852-.341 1.164a2.045 2.045 0 01-.944.703c-.4.159-.861.238-1.382.238zm.032-3.373c.244 0 .45-.061.618-.181a1.15 1.15 0 00.391-.526c.092-.23.138-.504.138-.824a2.32 2.32 0 00-.135-.831c-.09-.236-.22-.42-.39-.55a.997.997 0 00-.622-.195.98.98 0 00-.628.202c-.171.133-.3.317-.387.554-.088.237-.132.51-.132.82 0 .315.044.587.132.817.09.227.219.404.387.529.17.123.38.185.628.185zm5.352-6.058v7.272h-1.513v-7.272h1.513zm2.767 7.375c-.348 0-.658-.06-.93-.181a1.497 1.497 0 01-.647-.543c-.156-.242-.234-.542-.234-.902 0-.303.056-.558.167-.764.111-.206.263-.371.454-.497.192-.125.41-.22.654-.284.246-.064.504-.109.774-.135.317-.033.573-.064.767-.092.194-.031.335-.076.423-.135a.298.298 0 00.131-.263v-.021c0-.225-.071-.399-.213-.522-.14-.123-.339-.185-.597-.185-.272 0-.489.06-.65.181a.835.835 0 00-.319.448l-1.399-.114c.071-.331.21-.618.419-.859.208-.244.477-.431.806-.561a3.072 3.072 0 011.15-.199c.303 0 .593.035.87.106.28.071.527.181.743.33.217.15.389.341.515.576.125.232.188.51.188.834v3.679h-1.435v-.756h-.043c-.087.17-.204.321-.351.451a1.637 1.637 0 01-.529.302 2.19 2.19 0 01-.714.106zm.433-1.044c.223 0 .419-.044.59-.131.17-.09.304-.211.401-.362a.938.938 0 00.146-.515v-.579a.816.816 0 01-.196.085c-.08.024-.171.046-.273.068l-.306.053-.277.039a1.872 1.872 0 00-.465.124.754.754 0 00-.309.231.565.565 0 00-.11.355c0 .206.075.363.224.472.151.107.343.16.575.16zm5.822 1.03c-.414 0-.789-.107-1.125-.32-.334-.215-.599-.531-.796-.948-.194-.419-.291-.932-.291-1.541 0-.625.101-1.145.302-1.559.201-.417.469-.728.802-.934a2.063 2.063 0 011.105-.312c.305 0 .56.052.763.156.206.102.372.23.497.383.128.152.225.301.292.448h.046v-2.734h1.509v7.272h-1.491v-.873h-.064a1.964 1.964 0 01-.302.451 1.51 1.51 0 01-.501.365 1.726 1.726 0 01-.746.146zm.48-1.204c.244 0 .45-.066.618-.199.17-.135.3-.323.39-.564.093-.242.139-.525.139-.849 0-.324-.045-.606-.135-.845a1.21 1.21 0 00-.391-.554.992.992 0 00-.621-.195.982.982 0 00-.629.202c-.17.135-.299.322-.387.561a2.424 2.424 0 00-.131.831c0 .317.044.598.131.842.09.241.219.43.387.568.171.135.38.202.629.202zm6.354 1.222c-.561 0-1.044-.114-1.449-.341a2.336 2.336 0 01-.931-.973c-.217-.422-.326-.92-.326-1.495 0-.561.109-1.054.326-1.477a2.42 2.42 0 01.92-.991c.398-.237.864-.355 1.399-.355.36 0 .695.058 1.005.174.313.113.585.285.817.515.234.229.417.518.547.866.13.346.195.751.195 1.215v.415h-4.606v-.937h3.182c0-.218-.047-.411-.142-.579a1.015 1.015 0 00-.394-.394 1.117 1.117 0 00-.579-.146c-.23 0-.433.053-.611.16a1.127 1.127 0 00-.412.422c-.099.176-.15.371-.152.586v.892c0 .269.049.503.149.699.102.197.245.348.43.455.184.106.403.16.656.16.169 0 .322-.024.462-.072a.92.92 0 00.586-.561l1.399.093a1.901 1.901 0 01-.437.88 2.184 2.184 0 01-.845.583c-.343.137-.74.206-1.189.206zm8.029-4.006l-1.385.085a.717.717 0 00-.153-.319.811.811 0 00-.309-.231 1.051 1.051 0 00-.451-.089c-.234 0-.432.05-.593.149-.161.097-.241.228-.241.391 0 .13.052.24.156.33.104.09.283.162.536.217l.987.199c.531.109.926.284 1.186.525.261.242.391.559.391.952 0 .357-.105.671-.316.941-.208.27-.495.481-.859.632-.363.149-.78.224-1.254.224-.722 0-1.297-.151-1.726-.451a1.756 1.756 0 01-.749-1.236l1.488-.078c.045.22.154.388.327.504.172.114.394.171.664.171.265 0 .478-.051.639-.153.163-.104.246-.238.248-.401a.416.416 0 00-.174-.338c-.113-.09-.288-.158-.525-.206l-.945-.188c-.532-.106-.929-.291-1.189-.554-.258-.263-.387-.598-.387-1.005 0-.35.094-.652.284-.905.191-.254.46-.449.806-.586.348-.138.755-.206 1.221-.206.689 0 1.231.145 1.627.436.397.292.629.688.696 1.19zm2.589.746v3.153h-1.512v-7.272h1.47v2.78h.064c.123-.322.322-.574.596-.756.275-.185.619-.277 1.034-.277.378 0 .709.083.99.248.285.164.505.399.661.707.159.305.237.671.234 1.097v3.473h-1.512v-3.203c.002-.336-.083-.598-.256-.785-.171-.187-.41-.28-.717-.28-.206 0-.389.044-.547.131a.933.933 0 00-.37.384 1.31 1.31 0 00-.135.6zm11.016-2.028a.894.894 0 00-.366-.667c-.215-.159-.508-.238-.877-.238-.251 0-.463.035-.636.106a.899.899 0 00-.397.288.692.692 0 00-.135.419.598.598 0 00.081.341.856.856 0 00.253.252c.106.069.229.129.369.181.14.05.289.092.447.128l.654.156c.317.071.608.166.873.284.266.119.495.264.689.437.194.173.345.376.451.611.109.234.165.503.167.806a2.01 2.01 0 01-.341 1.158c-.222.324-.544.576-.966.756-.419.177-.924.266-1.516.266-.587 0-1.098-.09-1.534-.27a2.249 2.249 0 01-1.016-.799c-.241-.355-.368-.794-.38-1.317h1.488c.017.244.087.447.21.611.125.161.292.283.501.365.21.081.448.121.713.121.261 0 .487-.038.679-.113.194-.076.344-.182.451-.317a.73.73 0 00.159-.465c0-.163-.048-.3-.145-.412a1.113 1.113 0 00-.419-.284 4.31 4.31 0 00-.671-.213l-.792-.199c-.614-.149-1.098-.382-1.453-.699-.355-.317-.531-.745-.529-1.282a1.905 1.905 0 01.352-1.154c.239-.329.567-.586.983-.771.417-.185.89-.277 1.421-.277.54 0 1.011.092 1.413.277.405.185.72.442.945.771.225.329.341.71.348 1.143h-1.474zm5.48-.273v1.136h-3.284v-1.136h3.284zm-2.539-1.307h1.513v5.085c0 .14.021.249.064.327a.354.354 0 00.178.16c.078.03.168.046.269.046.071 0 .142-.006.213-.018l.164-.032.238 1.126a4.355 4.355 0 01-.32.081 2.482 2.482 0 01-.501.061 2.302 2.302 0 01-.958-.146 1.338 1.338 0 01-.636-.518c-.152-.235-.226-.531-.224-.888v-5.284zm5.08 6.864c-.348 0-.658-.06-.93-.181a1.503 1.503 0 01-.647-.543c-.156-.242-.234-.542-.234-.902 0-.303.056-.558.167-.764.111-.206.263-.371.455-.497.191-.125.409-.22.653-.284.246-.064.504-.109.774-.135.317-.033.573-.064.767-.092.194-.031.335-.076.423-.135a.298.298 0 00.131-.263v-.021c0-.225-.071-.399-.213-.522-.14-.123-.338-.185-.597-.185-.272 0-.488.06-.649.181a.837.837 0 00-.32.448l-1.399-.114c.071-.331.211-.618.419-.859.208-.244.477-.431.806-.561a3.073 3.073 0 011.151-.199c.303 0 .593.035.87.106.279.071.526.181.742.33.218.15.389.341.515.576.125.232.188.51.188.834v3.679h-1.435v-.756h-.042c-.088.17-.205.321-.352.451a1.637 1.637 0 01-.529.302 2.19 2.19 0 01-.714.106zm.433-1.044c.223 0 .419-.044.59-.131.17-.09.304-.211.401-.362a.938.938 0 00.146-.515v-.579a.816.816 0 01-.196.085c-.08.024-.171.046-.273.068l-.305.053-.277.039a1.869 1.869 0 00-.466.124.754.754 0 00-.309.231.565.565 0 00-.11.355c0 .206.075.363.224.472.152.107.343.16.575.16zm5.325-2.212v3.153h-1.512v-5.454h1.441v.962h.064c.121-.317.323-.568.607-.753.285-.187.629-.28 1.034-.28.379 0 .709.083.991.248.281.166.5.403.657.71.156.306.234.67.234 1.094v3.473h-1.513v-3.203c.003-.334-.083-.594-.256-.781-.172-.19-.41-.284-.713-.284a1.09 1.09 0 00-.54.131.915.915 0 00-.362.384 1.335 1.335 0 00-.132.6zm6.718 3.242c-.414 0-.789-.107-1.126-.32-.333-.215-.598-.531-.795-.948-.194-.419-.291-.932-.291-1.541 0-.625.1-1.145.302-1.559.201-.417.468-.728.802-.934a2.06 2.06 0 011.105-.312c.305 0 .56.052.763.156.206.102.372.23.497.383.128.152.225.301.291.448h.047v-2.734h1.509v7.272h-1.492v-.873h-.064a1.959 1.959 0 01-.301.451 1.51 1.51 0 01-.501.365 1.726 1.726 0 01-.746.146zm.48-1.204a.968.968 0 00.618-.199c.17-.135.3-.323.39-.564.092-.242.139-.525.139-.849 0-.324-.045-.606-.135-.845a1.21 1.21 0 00-.391-.554.994.994 0 00-.621-.195.982.982 0 00-.629.202c-.17.135-.299.322-.387.561a2.4 2.4 0 00-.131.831c0 .317.043.598.131.842.09.241.219.43.387.568.171.135.38.202.629.202zm5.423 1.218c-.348 0-.658-.06-.93-.181a1.497 1.497 0 01-.647-.543c-.156-.242-.234-.542-.234-.902 0-.303.056-.558.167-.764.111-.206.263-.371.454-.497.192-.125.41-.22.654-.284.246-.064.504-.109.774-.135.317-.033.573-.064.767-.092.194-.031.335-.076.423-.135a.298.298 0 00.131-.263v-.021c0-.225-.071-.399-.213-.522-.14-.123-.339-.185-.597-.185-.272 0-.489.06-.649.181a.837.837 0 00-.32.448l-1.399-.114c.071-.331.21-.618.419-.859.208-.244.477-.431.806-.561a3.072 3.072 0 011.15-.199c.303 0 .594.035.87.106.28.071.527.181.743.33.217.15.389.341.515.576.125.232.188.51.188.834v3.679h-1.435v-.756h-.042c-.088.17-.205.321-.352.451a1.637 1.637 0 01-.529.302 2.19 2.19 0 01-.714.106zm.433-1.044c.223 0 .419-.044.59-.131.17-.09.304-.211.401-.362a.938.938 0 00.146-.515v-.579a.816.816 0 01-.196.085c-.08.024-.171.046-.273.068l-.305.053-.277.039a1.869 1.869 0 00-.466.124.754.754 0 00-.309.231.565.565 0 00-.11.355c0 .206.075.363.224.472.152.107.343.16.575.16zm3.812.941v-5.454h1.467v.951h.057c.099-.338.266-.594.501-.767.234-.175.504-.262.809-.262a2.145 2.145 0 01.476.053v1.342a2.743 2.743 0 00-.639-.082c-.223 0-.421.049-.597.146-.172.095-.31.227-.412.398a1.15 1.15 0 00-.149.589v3.086h-1.513zm5.848.089c-.414 0-.789-.107-1.125-.32-.334-.215-.599-.531-.796-.948-.194-.419-.291-.932-.291-1.541 0-.625.101-1.145.302-1.559.201-.417.469-.728.802-.934a2.063 2.063 0 011.105-.312c.305 0 .56.052.763.156.206.102.372.23.497.383.128.152.225.301.292.448h.046v-2.734h1.509v7.272h-1.491v-.873h-.064a1.964 1.964 0 01-.302.451 1.51 1.51 0 01-.501.365 1.726 1.726 0 01-.746.146zm.48-1.204c.244 0 .45-.066.618-.199.17-.135.3-.323.39-.564.093-.242.139-.525.139-.849 0-.324-.045-.606-.135-.845a1.21 1.21 0 00-.391-.554.992.992 0 00-.621-.195.982.982 0 00-.629.202c-.17.135-.299.322-.387.561a2.4 2.4 0 00-.131.831c0 .317.043.598.131.842.09.241.219.43.387.568.171.135.38.202.629.202zm5.934-4.89v-1.267h5.973v1.267h-2.227v6.005h-1.52v-6.005H229.5zm6.928 6.005v-5.454h1.513v5.454h-1.513zm.76-6.157a.823.823 0 01-.579-.224.725.725 0 01-.238-.543.71.71 0 01.238-.537.817.817 0 01.579-.227c.225 0 .417.076.575.227a.722.722 0 010 1.08.809.809 0 01-.575.224zm1.965 6.157v-5.454h1.441v.962h.064a1.51 1.51 0 01.568-.756c.266-.185.583-.277.952-.277.374 0 .693.093.955.28.263.185.438.436.526.753h.057a1.45 1.45 0 01.603-.749c.294-.19.641-.284 1.041-.284.509 0 .922.162 1.239.486.32.322.48.779.48 1.371v3.668h-1.51v-3.37c0-.303-.08-.53-.241-.682a.848.848 0 00-.604-.227c-.274 0-.489.088-.643.263-.153.173-.23.401-.23.685v3.331h-1.467v-3.402c0-.267-.077-.48-.231-.639-.151-.159-.351-.238-.6-.238a.832.832 0 00-.454.128.882.882 0 00-.317.352 1.117 1.117 0 00-.117.525v3.274h-1.512zm11.606.107c-.561 0-1.044-.114-1.448-.341a2.336 2.336 0 01-.931-.973c-.218-.422-.327-.92-.327-1.495 0-.561.109-1.054.327-1.477a2.42 2.42 0 01.92-.991c.398-.237.864-.355 1.399-.355.36 0 .695.058 1.005.174.313.113.585.285.817.515.234.229.416.518.547.866.13.346.195.751.195 1.215v.415h-4.606v-.937h3.182c0-.218-.047-.411-.142-.579a1.015 1.015 0 00-.394-.394 1.117 1.117 0 00-.579-.146c-.23 0-.433.053-.611.16a1.127 1.127 0 00-.412.422c-.099.176-.15.371-.153.586v.892c0 .269.05.503.15.699.101.197.245.348.429.455a1.3 1.3 0 00.657.16c.168 0 .322-.024.462-.072a.92.92 0 00.586-.561l1.399.093a1.911 1.911 0 01-.437.88 2.191 2.191 0 01-.845.583c-.343.137-.74.206-1.19.206zm6.041-3.022c0 .883-.118 1.695-.355 2.436a6.67 6.67 0 01-1.08 2.06h-1.445c.185-.235.356-.521.515-.86.158-.338.297-.708.415-1.108.119-.402.211-.819.277-1.25a8.31 8.31 0 00-.074-2.976 8.701 8.701 0 00-.469-1.591c-.197-.49-.418-.891-.664-1.203h1.445a6.654 6.654 0 011.08 2.059 7.95 7.95 0 01.355 2.433z" fill="#6A6A6A"/><path d="M96.424 464.118v-1.219l2.847-2.637c.243-.234.446-.445.61-.633.167-.187.293-.371.379-.55.086-.183.129-.379.129-.59a1.12 1.12 0 00-.16-.606 1.051 1.051 0 00-.438-.394 1.368 1.368 0 00-.629-.141c-.245 0-.458.05-.64.149-.183.099-.323.24-.422.425a1.383 1.383 0 00-.149.661h-1.605c0-.524.118-.978.355-1.364.237-.385.57-.683.996-.894.427-.211.92-.317 1.477-.317.573 0 1.071.102 1.496.305.427.201.759.479.996.836s.355.766.355 1.226c0 .303-.059.601-.179.895-.117.294-.327.621-.629.98-.302.357-.728.786-1.277 1.286l-1.168 1.144v.055h3.359v1.383h-5.703zm9.886.109c-.584 0-1.103-.1-1.559-.301a2.66 2.66 0 01-1.074-.836 2.096 2.096 0 01-.403-1.234h1.704a.89.89 0 00.191.516c.12.145.279.259.477.339.197.081.42.122.667.122.258 0 .486-.046.684-.137.198-.091.353-.218.465-.379a.958.958 0 00.168-.559.934.934 0 00-.18-.566 1.144 1.144 0 00-.508-.391 1.985 1.985 0 00-.781-.14h-.746v-1.243h.746c.255 0 .481-.044.676-.132.198-.089.351-.211.461-.368a.952.952 0 00.164-.554.955.955 0 00-.145-.528.952.952 0 00-.398-.359 1.294 1.294 0 00-.594-.129c-.229 0-.439.042-.629.125-.19.081-.342.197-.457.348a.912.912 0 00-.183.531h-1.621a2.08 2.08 0 01.394-1.219 2.566 2.566 0 011.031-.824c.435-.2.926-.301 1.473-.301.552 0 1.035.101 1.449.301.414.201.736.471.965.813.232.338.346.718.344 1.14.002.448-.137.822-.418 1.121-.279.3-.642.49-1.09.571v.062c.589.076 1.036.28 1.344.613.31.331.463.745.461 1.243.002.455-.129.86-.395 1.214-.263.355-.626.633-1.09.836-.463.203-.994.305-1.593.305zm5.282-1.039a.913.913 0 01-.664-.273.904.904 0 01-.274-.665c0-.255.091-.473.274-.656a.913.913 0 01.664-.273c.25 0 .469.091.656.273a.882.882 0 01.281.656c0 .172-.044.33-.133.473a1.002 1.002 0 01-.339.34.9.9 0 01-.465.125zm0-3.926a.913.913 0 01-.664-.273.904.904 0 01-.274-.664.88.88 0 01.274-.653.913.913 0 01.664-.273c.25 0 .469.091.656.273.188.18.281.397.281.653a.883.883 0 01-.133.476.965.965 0 01-.339.336.89.89 0 01-.465.125zm5.425 5.031c-.672-.002-1.25-.168-1.735-.496-.482-.328-.853-.803-1.113-1.425-.258-.623-.385-1.372-.383-2.247 0-.872.129-1.615.387-2.23.26-.615.631-1.082 1.113-1.402.485-.323 1.061-.485 1.731-.485.669 0 1.244.162 1.726.485.485.323.857.791 1.117 1.406.261.612.39 1.354.387 2.226 0 .878-.13 1.628-.391 2.25-.257.623-.627 1.098-1.109 1.426-.482.328-1.059.492-1.73.492zm0-1.402c.458 0 .824-.23 1.097-.691.274-.461.409-1.153.407-2.075 0-.606-.063-1.111-.188-1.515-.122-.404-.297-.707-.523-.91a1.144 1.144 0 00-.793-.305c-.456 0-.821.228-1.094.684-.274.455-.412 1.138-.414 2.046 0 .615.061 1.128.183 1.54.125.408.301.716.528.921.226.204.492.305.797.305zm7.573 1.402c-.672-.002-1.25-.168-1.735-.496-.481-.328-.852-.803-1.113-1.425-.258-.623-.385-1.372-.383-2.247 0-.872.129-1.615.387-2.23.261-.615.632-1.082 1.113-1.402.485-.323 1.062-.485 1.731-.485s1.245.162 1.726.485c.485.323.857.791 1.118 1.406.26.612.389 1.354.386 2.226 0 .878-.13 1.628-.39 2.25-.258.623-.628 1.098-1.11 1.426-.481.328-1.058.492-1.73.492zm0-1.402c.458 0 .824-.23 1.098-.691.273-.461.408-1.153.406-2.075 0-.606-.063-1.111-.188-1.515-.122-.404-.297-.707-.523-.91a1.142 1.142 0 00-.793-.305c-.456 0-.82.228-1.094.684-.273.455-.411 1.138-.414 2.046 0 .615.061 1.128.184 1.54.125.408.3.716.527.921.227.204.492.305.797.305zm7.029 1.227v-8h3.156c.607 0 1.124.116 1.551.347.427.229.753.549.977.957.226.407.34.875.34 1.407 0 .531-.115 1-.344 1.406a2.366 2.366 0 01-.996.949c-.433.227-.956.34-1.571.34h-2.011v-1.356h1.738c.326 0 .594-.056.805-.168.213-.114.372-.272.476-.472.107-.203.16-.436.16-.699 0-.266-.053-.498-.16-.696a1.076 1.076 0 00-.476-.465c-.214-.112-.485-.168-.813-.168h-1.14v6.618h-1.692zm7.122-8h2.086l2.203 5.375h.094l2.203-5.375h2.086v8h-1.641v-5.207h-.066l-2.07 5.168h-1.117l-2.071-5.188h-.066v5.227h-1.641v-8z" fill="#2D2A21"/><path fill="#DFDFDF" d="M80.281 475.934h240.382v.868H80.281z"/><path d="M96.407 496.917v-7.272h2.912c.535 0 .982.079 1.339.238.358.158.626.378.806.66.18.28.27.602.27.966 0 .284-.057.534-.17.749-.114.213-.27.389-.469.526a1.924 1.924 0 01-.675.288v.071a1.654 1.654 0 011.371.841c.152.258.227.566.227.924 0 .385-.096.73-.287 1.033-.19.301-.47.539-.842.714-.372.175-.83.262-1.374.262h-3.108zm1.538-1.257H99.2c.428 0 .74-.081.937-.245a.818.818 0 00.295-.66.98.98 0 00-.146-.533.988.988 0 00-.415-.362 1.418 1.418 0 00-.636-.131h-1.289v1.931zm0-2.972h1.14c.21 0 .398-.037.561-.11a.933.933 0 00.391-.32.83.83 0 00.145-.493.797.797 0 00-.28-.636c-.185-.161-.448-.241-.788-.241h-1.169v1.8zm9.019-.952a.894.894 0 00-.366-.667c-.215-.159-.507-.238-.877-.238a1.67 1.67 0 00-.635.106.897.897 0 00-.398.288.692.692 0 00-.135.419.59.59 0 00.082.341.84.84 0 00.252.252c.106.069.229.129.369.181.14.05.289.093.447.128l.654.156c.317.071.608.166.873.284.266.119.495.264.689.437.195.173.345.377.451.611.109.234.165.503.167.806a2.01 2.01 0 01-.341 1.158c-.222.324-.544.576-.966.756-.419.178-.924.266-1.516.266-.587 0-1.098-.089-1.534-.269a2.256 2.256 0 01-1.016-.799c-.241-.356-.368-.795-.38-1.318h1.488c.017.244.087.448.21.611.125.161.292.283.501.366.21.08.448.12.713.12.261 0 .487-.037.679-.113.194-.076.344-.181.451-.316a.732.732 0 00.159-.465.603.603 0 00-.145-.412 1.114 1.114 0 00-.419-.285 4.276 4.276 0 00-.671-.213l-.792-.198c-.613-.15-1.098-.383-1.453-.7-.355-.317-.531-.745-.529-1.282-.002-.44.115-.825.352-1.154.239-.329.567-.586.983-.771a3.488 3.488 0 011.421-.277c.54 0 1.011.093 1.413.277.405.185.72.442.945.771.225.329.341.71.348 1.143h-1.474zm2.331-.823v-1.268h5.973v1.268h-2.227v6.004h-1.52v-6.004h-2.226zm9.576 2.368c0-.881.117-1.691.352-2.432a6.688 6.688 0 011.083-2.06h1.445a4.413 4.413 0 00-.515.859 7.703 7.703 0 00-.415 1.108 9.463 9.463 0 00-.277 1.25c-.067.429-.1.854-.1 1.275a8.7 8.7 0 00.171 1.701c.116.571.272 1.101.468 1.591.199.49.422.891.668 1.204h-1.445a6.688 6.688 0 01-1.083-2.06 8.024 8.024 0 01-.352-2.436zm3.786 3.636v-7.272h2.912c.535 0 .982.079 1.339.238.358.158.626.378.806.66.18.28.27.602.27.966 0 .284-.057.534-.17.749-.114.213-.27.389-.469.526a1.924 1.924 0 01-.675.288v.071a1.654 1.654 0 011.371.841c.152.258.227.566.227.924 0 .385-.096.73-.287 1.033-.19.301-.47.539-.842.714-.372.175-.83.262-1.374.262h-3.108zm1.538-1.257h1.254c.428 0 .741-.081.937-.245a.818.818 0 00.295-.66.98.98 0 00-.146-.533.988.988 0 00-.415-.362 1.421 1.421 0 00-.636-.131h-1.289v1.931zm0-2.972h1.14c.211 0 .398-.037.561-.11a.932.932 0 00.391-.32.83.83 0 00.145-.493.798.798 0 00-.28-.636c-.185-.161-.448-.241-.789-.241h-1.168v1.8zm7.51 4.336c-.552 0-1.029-.117-1.431-.352a2.4 2.4 0 01-.927-.987c-.218-.424-.327-.915-.327-1.473 0-.564.109-1.056.327-1.478.218-.424.527-.753.927-.987.402-.237.879-.355 1.431-.355s1.027.118 1.427.355c.403.234.713.563.931.987.218.422.327.914.327 1.478 0 .558-.109 1.049-.327 1.473a2.39 2.39 0 01-.931.987c-.4.235-.875.352-1.427.352zm.007-1.172c.251 0 .46-.071.629-.213.168-.144.294-.341.38-.589.087-.249.131-.532.131-.849 0-.317-.044-.6-.131-.849a1.328 1.328 0 00-.38-.589.93.93 0 00-.629-.217.96.96 0 00-.639.217c-.171.144-.3.341-.387.589a2.594 2.594 0 00-.128.849c0 .317.042.6.128.849.087.248.216.445.387.589a.974.974 0 00.639.213zm7.159-1.257v-3.132h1.513v5.454h-1.453v-.99h-.056a1.609 1.609 0 01-.615.77c-.284.194-.631.292-1.04.292-.365 0-.686-.083-.963-.249a1.704 1.704 0 01-.649-.707c-.154-.305-.232-.671-.235-1.097v-3.473h1.513v3.203c.002.322.089.577.259.764.171.187.399.28.686.28.182 0 .352-.041.511-.124a.97.97 0 00.383-.377c.1-.165.148-.37.146-.614zm5.18 4.482c-.49 0-.91-.068-1.26-.203a2.092 2.092 0 01-.831-.543 1.68 1.68 0 01-.402-.774l1.4-.189c.042.109.11.211.202.306.092.095.214.17.366.227.154.059.341.089.561.089.329 0 .6-.081.813-.242.215-.158.323-.425.323-.799v-.997h-.064a1.428 1.428 0 01-.298.429 1.521 1.521 0 01-.511.331 1.974 1.974 0 01-.746.127c-.41 0-.783-.094-1.119-.284-.334-.191-.6-.484-.799-.877-.196-.395-.294-.895-.294-1.498 0-.618.1-1.134.301-1.549.202-.414.469-.724.803-.93a2.072 2.072 0 011.104-.309c.306 0 .561.052.767.156.206.102.372.23.498.384.127.151.226.3.294.447h.057v-.916h1.502v5.508c0 .464-.113.852-.341 1.165a2.059 2.059 0 01-.944.703c-.4.158-.861.238-1.382.238zm.032-3.374c.244 0 .45-.06.618-.181.171-.123.301-.298.391-.526a2.21 2.21 0 00.138-.824 2.32 2.32 0 00-.135-.831c-.09-.236-.22-.42-.39-.55a.997.997 0 00-.622-.195.98.98 0 00-.628.202c-.171.133-.3.317-.387.554-.088.237-.132.51-.132.82 0 .315.044.588.132.817.09.227.219.404.387.529.17.123.38.185.628.185zm5.394 1.317c-.348 0-.658-.06-.93-.181a1.494 1.494 0 01-.646-.543c-.157-.241-.235-.542-.235-.902 0-.303.056-.557.167-.763.112-.206.263-.372.455-.498.192-.125.409-.22.653-.284.246-.064.504-.109.774-.135a20 20 0 00.767-.092c.195-.031.335-.076.423-.135a.296.296 0 00.131-.263v-.021c0-.225-.071-.399-.213-.522-.139-.123-.338-.185-.596-.185-.273 0-.489.061-.65.181a.837.837 0 00-.32.448l-1.399-.114c.071-.331.211-.618.419-.859.208-.244.477-.431.806-.561a3.077 3.077 0 011.151-.199c.303 0 .593.035.87.106.279.071.527.182.742.331.218.149.389.341.515.575.125.232.188.51.188.835v3.678h-1.434v-.756h-.043a1.534 1.534 0 01-.352.451 1.609 1.609 0 01-.529.302 2.19 2.19 0 01-.714.106zm.434-1.044c.222 0 .419-.043.589-.131.171-.09.304-.211.401-.362a.927.927 0 00.146-.515v-.579a.79.79 0 01-.195.085 3.786 3.786 0 01-.274.068c-.101.019-.203.036-.305.053l-.277.039a1.892 1.892 0 00-.465.124.741.741 0 00-.309.231.559.559 0 00-.11.355.55.55 0 00.223.473.984.984 0 00.576.159zm3.812.941v-5.454h1.513v5.454h-1.513zm.76-6.157a.823.823 0 01-.579-.224.724.724 0 01-.238-.543c0-.209.079-.387.238-.536a.814.814 0 01.579-.228c.225 0 .416.076.575.228a.72.72 0 010 1.079.81.81 0 01-.575.224zm3.477 3.004v3.153h-1.513v-5.454h1.442v.962h.064c.121-.317.323-.568.607-.753.284-.187.629-.28 1.034-.28.379 0 .709.083.991.248.281.166.5.403.656.711.157.305.235.67.235 1.093v3.473h-1.513v-3.203c.002-.333-.083-.594-.256-.781-.172-.189-.41-.284-.713-.284a1.09 1.09 0 00-.54.131.915.915 0 00-.362.384 1.328 1.328 0 00-.132.6zm9.598-2.301l-1.907 5.454h-1.704l-1.907-5.454h1.598l1.132 3.903h.057l1.129-3.903h1.602zm.774 5.454v-5.454h1.513v5.454h-1.513zm.76-6.157a.823.823 0 01-.579-.224.727.727 0 01-.238-.543.71.71 0 01.238-.536.814.814 0 01.579-.228.8.8 0 01.575.228.72.72 0 010 1.079.809.809 0 01-.575.224zm3.478-1.115v7.272h-1.513v-7.272h1.513zm2.724 0v7.272h-1.513v-7.272h1.513zm3.698 7.379c-.561 0-1.044-.114-1.449-.341a2.334 2.334 0 01-.93-.973c-.218-.421-.327-.92-.327-1.495 0-.561.109-1.053.327-1.477.217-.424.524-.754.919-.991.398-.237.864-.355 1.399-.355.36 0 .695.058 1.005.174.313.114.585.285.817.515.235.229.417.518.547.866.13.346.195.751.195 1.215v.415h-4.605v-.937h3.181c0-.218-.047-.411-.142-.579a1.009 1.009 0 00-.394-.394 1.127 1.127 0 00-.579-.146c-.229 0-.433.053-.61.16a1.108 1.108 0 00-.412.423c-.1.175-.151.37-.153.585v.892c0 .27.05.503.149.699.102.197.245.348.43.455.184.106.403.16.657.16.168 0 .322-.024.461-.071a.971.971 0 00.359-.213.935.935 0 00.227-.348l1.399.092c-.071.336-.216.63-.436.881-.218.248-.5.442-.846.582a3.188 3.188 0 01-1.189.206zm9.779-5.288a.9.9 0 00-.366-.667c-.215-.159-.508-.238-.877-.238-.251 0-.463.035-.636.106a.902.902 0 00-.398.288.698.698 0 00-.134.419.598.598 0 00.081.341.864.864 0 00.252.252c.107.069.23.129.37.181.139.05.289.093.447.128l.654.156c.317.071.608.166.873.284.265.119.495.264.689.437.194.173.344.377.451.611.109.234.165.503.167.806a2.01 2.01 0 01-.341 1.158c-.223.324-.544.576-.966.756-.419.178-.924.266-1.516.266-.587 0-1.099-.089-1.534-.269a2.25 2.25 0 01-1.016-.799c-.241-.356-.368-.795-.38-1.318h1.488c.017.244.086.448.21.611.125.161.292.283.5.366.211.08.449.12.714.12.26 0 .487-.037.678-.113.194-.076.345-.181.451-.316a.727.727 0 00.16-.465.599.599 0 00-.146-.412 1.098 1.098 0 00-.419-.285 4.276 4.276 0 00-.671-.213l-.792-.198c-.613-.15-1.097-.383-1.452-.7-.355-.317-.532-.745-.529-1.282-.003-.44.115-.825.351-1.154a2.38 2.38 0 01.984-.771c.417-.184.89-.277 1.421-.277.539 0 1.01.093 1.413.277.405.185.72.442.944.771.225.329.341.71.348 1.143h-1.473zm5.48-.273v1.136h-3.285v-1.136h3.285zm-2.539-1.307h1.513v5.085c0 .14.021.249.064.327a.352.352 0 00.177.16.728.728 0 00.27.046c.071 0 .142-.006.213-.018l.164-.032.237 1.126a4.097 4.097 0 01-.319.082 2.564 2.564 0 01-.501.06 2.293 2.293 0 01-.959-.146 1.335 1.335 0 01-.635-.518c-.152-.234-.226-.53-.224-.888v-5.284zm5.08 6.864c-.348 0-.658-.06-.93-.181a1.497 1.497 0 01-.647-.543c-.156-.241-.234-.542-.234-.902 0-.303.055-.557.167-.763a1.36 1.36 0 01.454-.498c.192-.125.41-.22.654-.284.246-.064.504-.109.774-.135.317-.033.573-.064.767-.092.194-.031.335-.076.422-.135a.296.296 0 00.132-.263v-.021c0-.225-.071-.399-.213-.522-.14-.123-.339-.185-.597-.185-.272 0-.489.061-.65.181a.835.835 0 00-.319.448l-1.399-.114c.071-.331.21-.618.419-.859.208-.244.477-.431.806-.561a3.072 3.072 0 011.15-.199c.303 0 .593.035.87.106.28.071.527.182.743.331.217.149.389.341.514.575.126.232.189.51.189.835v3.678h-1.435v-.756h-.043a1.515 1.515 0 01-.88.753 2.19 2.19 0 01-.714.106zm.433-1.044c.223 0 .419-.043.59-.131.17-.09.304-.211.401-.362a.936.936 0 00.146-.515v-.579a.816.816 0 01-.196.085c-.08.024-.171.046-.273.068-.102.019-.204.036-.306.053l-.277.039a1.916 1.916 0 00-.465.124.754.754 0 00-.309.231.565.565 0 00-.11.355.55.55 0 00.224.473.978.978 0 00.575.159zm5.325-2.212v3.153h-1.513v-5.454h1.442v.962h.064c.121-.317.323-.568.607-.753.284-.187.629-.28 1.034-.28.378 0 .709.083.99.248.282.166.501.403.657.711.157.305.235.67.235 1.093v3.473h-1.513v-3.203c.002-.333-.083-.594-.256-.781-.173-.189-.411-.284-.714-.284a1.09 1.09 0 00-.539.131.923.923 0 00-.363.384 1.329 1.329 0 00-.131.6zm6.718 3.242a2.06 2.06 0 01-1.126-.319c-.334-.216-.599-.532-.795-.948-.194-.42-.291-.933-.291-1.542 0-.625.1-1.144.301-1.559.202-.416.469-.728.803-.934a2.057 2.057 0 011.104-.312c.306 0 .56.052.764.156.206.102.372.23.497.384.128.151.225.3.291.447h.046v-2.734h1.51v7.272h-1.492v-.873h-.064a1.933 1.933 0 01-.302.451 1.485 1.485 0 01-.5.366 1.73 1.73 0 01-.746.145zm.479-1.204a.97.97 0 00.618-.198c.171-.135.301-.324.391-.565a2.38 2.38 0 00.138-.849c0-.324-.045-.606-.135-.845a1.215 1.215 0 00-.39-.554.997.997 0 00-.622-.195.98.98 0 00-.628.202 1.23 1.23 0 00-.387.561 2.4 2.4 0 00-.132.831c0 .317.044.598.132.842a1.3 1.3 0 00.387.568.98.98 0 00.628.202zm5.424 1.218c-.348 0-.658-.06-.931-.181a1.5 1.5 0 01-.646-.543c-.156-.241-.234-.542-.234-.902 0-.303.055-.557.167-.763.111-.206.262-.372.454-.498.192-.125.41-.22.654-.284.246-.064.504-.109.774-.135.317-.033.573-.064.767-.092.194-.031.335-.076.422-.135a.296.296 0 00.132-.263v-.021c0-.225-.071-.399-.213-.522-.14-.123-.339-.185-.597-.185-.272 0-.489.061-.65.181a.835.835 0 00-.319.448l-1.4-.114c.072-.331.211-.618.42-.859.208-.244.477-.431.806-.561a3.072 3.072 0 011.15-.199c.303 0 .593.035.87.106.28.071.527.182.742.331a1.6 1.6 0 01.515.575c.126.232.189.51.189.835v3.678h-1.435v-.756h-.043a1.53 1.53 0 01-.351.451 1.619 1.619 0 01-.529.302 2.19 2.19 0 01-.714.106zm.433-1.044c.223 0 .419-.043.59-.131.17-.09.304-.211.401-.362a.935.935 0 00.145-.515v-.579a.79.79 0 01-.195.085c-.08.024-.172.046-.273.068-.102.019-.204.036-.306.053l-.277.039a1.916 1.916 0 00-.465.124.754.754 0 00-.309.231.565.565 0 00-.11.355.55.55 0 00.224.473.978.978 0 00.575.159zm3.812.941v-5.454h1.467v.952h.057c.099-.339.266-.595.5-.767.235-.176.505-.263.81-.263.076 0 .157.005.245.014.088.009.165.023.231.039v1.342a1.95 1.95 0 00-.295-.056 2.566 2.566 0 00-.344-.025 1.21 1.21 0 00-.597.145c-.173.095-.31.228-.412.398a1.155 1.155 0 00-.149.59v3.085h-1.513zm5.848.089a2.06 2.06 0 01-1.126-.319c-.333-.216-.599-.532-.795-.948-.194-.42-.291-.933-.291-1.542 0-.625.1-1.144.302-1.559.201-.416.468-.728.802-.934a2.057 2.057 0 011.104-.312c.306 0 .56.052.764.156.206.102.372.23.497.384.128.151.225.3.291.447h.046v-2.734h1.51v7.272h-1.492v-.873h-.064a1.933 1.933 0 01-.302.451 1.485 1.485 0 01-.5.366 1.726 1.726 0 01-.746.145zm.479-1.204a.97.97 0 00.618-.198c.171-.135.301-.324.391-.565a2.38 2.38 0 00.138-.849 2.42 2.42 0 00-.134-.845 1.217 1.217 0 00-.391-.554.997.997 0 00-.622-.195.98.98 0 00-.628.202 1.23 1.23 0 00-.387.561 2.4 2.4 0 00-.132.831c0 .317.044.598.132.842a1.3 1.3 0 00.387.568.98.98 0 00.628.202zm5.934-4.889v-1.268h5.973v1.268h-2.226v6.004h-1.52v-6.004h-2.227zm6.929 6.004v-5.454h1.512v5.454h-1.512zm.76-6.157a.823.823 0 01-.579-.224.724.724 0 01-.238-.543c0-.209.079-.387.238-.536a.814.814 0 01.579-.228c.224 0 .416.076.575.228a.704.704 0 01.241.536.72.72 0 01-.241.543.812.812 0 01-.575.224zm1.964 6.157v-5.454h1.442v.962h.064c.114-.319.303-.571.568-.756.265-.185.583-.277.952-.277.374 0 .692.093.955.28.263.185.438.436.526.753h.056c.112-.312.313-.562.604-.749a1.883 1.883 0 011.041-.284c.509 0 .922.162 1.239.486.32.322.479.779.479 1.371v3.668h-1.509v-3.37c0-.303-.08-.53-.241-.681a.847.847 0 00-.604-.228c-.275 0-.489.088-.643.263-.154.173-.231.401-.231.686v3.33h-1.466v-3.402c0-.267-.077-.48-.231-.639a.795.795 0 00-.6-.238.837.837 0 00-.455.128.88.88 0 00-.316.352 1.117 1.117 0 00-.117.525v3.274h-1.513zm11.607.107c-.561 0-1.044-.114-1.449-.341a2.34 2.34 0 01-.93-.973c-.218-.421-.327-.92-.327-1.495 0-.561.109-1.053.327-1.477.218-.424.524-.754.92-.991.397-.237.864-.355 1.399-.355.36 0 .695.058 1.005.174.312.114.585.285.817.515.234.229.416.518.546.866.131.346.196.751.196 1.215v.415h-4.606v-.937h3.182c0-.218-.048-.411-.142-.579a1.011 1.011 0 00-.395-.394 1.12 1.12 0 00-.578-.146c-.23 0-.434.053-.611.16a1.116 1.116 0 00-.412.423c-.1.175-.15.37-.153.585v.892c0 .27.05.503.149.699.102.197.245.348.43.455a1.3 1.3 0 00.657.16c.168 0 .322-.024.462-.071a.925.925 0 00.586-.561l1.399.092c-.071.336-.217.63-.437.881-.218.248-.5.442-.845.582-.344.137-.74.206-1.19.206zm6.041-3.022c0 .883-.119 1.695-.355 2.436a6.68 6.68 0 01-1.08 2.06h-1.445c.184-.235.356-.521.515-.86a7.84 7.84 0 00.415-1.108c.118-.402.211-.819.277-1.25.066-.43.099-.857.099-1.278 0-.561-.058-1.127-.174-1.697a8.6 8.6 0 00-.468-1.591c-.197-.49-.418-.892-.664-1.204h1.445a6.675 6.675 0 011.08 2.059c.236.741.355 1.552.355 2.433z" fill="#6A6A6A"/><path d="M99.904 503.35v8h-1.691v-6.395h-.047l-1.832 1.149v-1.5l1.98-1.254h1.59zm4.886 8.109c-.602 0-1.137-.098-1.605-.293-.467-.198-.832-.467-1.098-.809a1.835 1.835 0 01-.399-1.16c0-.333.076-.639.227-.918.154-.281.362-.514.625-.699.263-.187.557-.307.883-.359v-.055a1.734 1.734 0 01-1.039-.621 1.786 1.786 0 01-.399-1.152c0-.414.121-.783.364-1.106.242-.325.574-.581.996-.766a3.548 3.548 0 011.445-.281c.539 0 1.02.094 1.441.281.425.188.758.444 1 .77.243.323.365.69.368 1.102a1.78 1.78 0 01-.407 1.152 1.746 1.746 0 01-1.031.621v.055c.32.052.611.172.871.359.263.185.472.418.625.699.156.279.236.585.239.918a1.856 1.856 0 01-.403 1.16c-.265.342-.633.611-1.101.809-.467.195-1 .293-1.602.293zm0-1.242c.268 0 .503-.048.703-.145.201-.099.357-.234.469-.406.114-.174.172-.375.172-.602 0-.231-.059-.436-.176-.613a1.206 1.206 0 00-.477-.422 1.478 1.478 0 00-.691-.156c-.258 0-.488.052-.691.156a1.205 1.205 0 00-.481.422 1.11 1.11 0 00-.172.613c0 .227.056.428.168.602.112.172.27.307.473.406.203.097.437.145.703.145zm0-3.574c.224 0 .423-.046.598-.137.174-.091.311-.218.41-.379a1.05 1.05 0 00.148-.559 1.003 1.003 0 00-.554-.918 1.27 1.27 0 00-.602-.136c-.227 0-.427.045-.602.136a1.023 1.023 0 00-.41.371 1.027 1.027 0 00-.144.547c0 .211.049.397.148.559.099.161.236.288.41.379.175.091.374.137.598.137zm5.276 3.777a.912.912 0 01-.664-.274.903.903 0 01-.273-.664c0-.255.091-.474.273-.656a.915.915 0 01.664-.273c.25 0 .469.091.657.273a.884.884 0 01.281.656c0 .172-.044.33-.133.473a1.005 1.005 0 01-.34.34.895.895 0 01-.465.125zm0-3.926a.915.915 0 01-.664-.273.906.906 0 01-.273-.664c0-.256.091-.473.273-.653a.915.915 0 01.664-.273c.25 0 .469.091.657.273.187.18.281.397.281.653a.883.883 0 01-.133.476.968.968 0 01-.34.336.895.895 0 01-.465.125zm5.425 5.031c-.672-.002-1.25-.168-1.734-.496-.482-.328-.853-.803-1.113-1.425-.258-.623-.386-1.372-.383-2.247 0-.872.129-1.615.386-2.23.261-.615.632-1.082 1.114-1.402.484-.323 1.061-.485 1.73-.485s1.245.162 1.727.485c.484.323.857.791 1.117 1.406.26.612.389 1.354.387 2.226 0 .878-.131 1.628-.391 2.25-.258.623-.628 1.098-1.109 1.426-.482.328-1.059.492-1.731.492zm0-1.402c.459 0 .824-.23 1.098-.691.273-.461.409-1.153.406-2.075 0-.606-.062-1.112-.187-1.515-.123-.404-.297-.707-.524-.91a1.142 1.142 0 00-.793-.305c-.456 0-.82.228-1.094.684-.273.455-.411 1.138-.414 2.046 0 .615.062 1.128.184 1.539.125.409.301.717.527.922.227.203.493.305.797.305zm7.573 1.402c-.671-.002-1.25-.168-1.734-.496-.482-.328-.853-.803-1.113-1.425-.258-.623-.386-1.372-.383-2.247 0-.872.129-1.615.387-2.23.26-.615.631-1.082 1.113-1.402.484-.323 1.061-.485 1.73-.485.67 0 1.245.162 1.727.485.484.323.857.791 1.117 1.406.261.612.39 1.354.387 2.226 0 .878-.13 1.628-.391 2.25-.258.623-.627 1.098-1.109 1.426-.482.328-1.059.492-1.731.492zm0-1.402c.459 0 .825-.23 1.098-.691.274-.461.409-1.153.406-2.075 0-.606-.062-1.112-.187-1.515-.123-.404-.297-.707-.524-.91a1.142 1.142 0 00-.793-.305c-.455 0-.82.228-1.093.684-.274.455-.412 1.138-.414 2.046 0 .615.061 1.128.183 1.539.125.409.301.717.528.922.226.203.492.305.796.305zm8.409 1.227h-1.813l2.762-8h2.18l2.757 8h-1.812l-2.004-6.172h-.063l-2.007 6.172zm-.114-3.145h4.282v1.32h-4.282v-1.32zm6.963-4.855h2.086l2.203 5.375h.094l2.203-5.375h2.086v8h-1.64v-5.207h-.067l-2.07 5.168H142.1l-2.071-5.188h-.066v5.227h-1.641v-8z" fill="#2D2A21"/><path fill="#DFDFDF" d="M80.281 523.663h240.382v.868H80.281z"/><path d="M96.407 544.657v-7.273h2.912c.535 0 .982.08 1.339.238.358.159.626.379.806.661.18.279.27.601.27.966 0 .284-.057.534-.17.749-.114.213-.27.388-.469.526a1.905 1.905 0 01-.675.287v.071c.277.012.536.09.778.235.244.144.442.347.593.607.152.258.227.566.227.923a1.9 1.9 0 01-.287 1.034c-.19.3-.47.538-.842.713-.372.176-.83.263-1.374.263h-3.108zm1.538-1.257H99.2c.428 0 .74-.082.937-.245a.82.82 0 00.295-.66.977.977 0 00-.146-.533.981.981 0 00-.415-.362 1.418 1.418 0 00-.636-.132h-1.289v1.932zm0-2.972h1.14c.21 0 .398-.037.561-.11a.94.94 0 00.391-.32.832.832 0 00.145-.493.797.797 0 00-.28-.636c-.185-.161-.448-.242-.788-.242h-1.169v1.801zm9.019-.952a.894.894 0 00-.366-.667c-.215-.159-.507-.238-.877-.238a1.67 1.67 0 00-.635.106.897.897 0 00-.398.288.692.692 0 00-.135.419.59.59 0 00.082.341.84.84 0 00.252.252c.106.068.229.129.369.181.14.05.289.092.447.128l.654.156c.317.071.608.166.873.284.266.118.495.264.689.437.195.173.345.376.451.611.109.234.165.503.167.806-.002.445-.116.831-.341 1.157-.222.325-.544.577-.966.757-.419.177-.924.266-1.516.266-.587 0-1.098-.09-1.534-.27a2.249 2.249 0 01-1.016-.799c-.241-.355-.368-.794-.38-1.317h1.488c.017.244.087.447.21.611.125.161.292.283.501.365.21.081.448.121.713.121.261 0 .487-.038.679-.113.194-.076.344-.182.451-.317a.73.73 0 00.159-.465c0-.163-.048-.3-.145-.412a1.113 1.113 0 00-.419-.284 4.276 4.276 0 00-.671-.213l-.792-.199c-.613-.149-1.098-.382-1.453-.699-.355-.318-.531-.745-.529-1.282a1.905 1.905 0 01.352-1.154c.239-.329.567-.586.983-.771a3.471 3.471 0 011.421-.277c.54 0 1.011.092 1.413.277.405.185.72.442.945.771.225.329.341.71.348 1.143h-1.474zm2.331-.824v-1.268h5.973v1.268h-2.227v6.005h-1.52v-6.005h-2.226zm9.576 2.369c0-.881.117-1.692.352-2.433a6.684 6.684 0 011.083-2.059h1.445a4.413 4.413 0 00-.515.859 7.703 7.703 0 00-.415 1.108 9.428 9.428 0 00-.277 1.25c-.067.429-.1.853-.1 1.275a8.7 8.7 0 00.171 1.701c.116.57.272 1.101.468 1.591.199.49.422.891.668 1.204h-1.445a6.7 6.7 0 01-1.083-2.06 8.024 8.024 0 01-.352-2.436zm3.786 3.636v-7.273h2.912c.535 0 .982.08 1.339.238.358.159.626.379.806.661.18.279.27.601.27.966 0 .284-.057.534-.17.749-.114.213-.27.388-.469.526a1.905 1.905 0 01-.675.287v.071c.277.012.536.09.778.235.244.144.442.347.593.607.152.258.227.566.227.923a1.9 1.9 0 01-.287 1.034c-.19.3-.47.538-.842.713-.372.176-.83.263-1.374.263h-3.108zm1.538-1.257h1.254c.428 0 .741-.082.937-.245a.82.82 0 00.295-.66.977.977 0 00-.146-.533.981.981 0 00-.415-.362 1.421 1.421 0 00-.636-.132h-1.289v1.932zm0-2.972h1.14c.211 0 .398-.037.561-.11a.94.94 0 00.391-.32.832.832 0 00.145-.493.798.798 0 00-.28-.636c-.185-.161-.448-.242-.789-.242h-1.168v1.801zm5.045 4.229v-5.454h1.467v.951h.057c.099-.338.266-.594.501-.767.234-.175.504-.262.809-.262a2.145 2.145 0 01.476.053v1.342a2.743 2.743 0 00-.639-.082 1.21 1.21 0 00-.597.146 1.071 1.071 0 00-.561.987v3.086h-1.513zm4.092 0v-5.454h1.513v5.454h-1.513zm.76-6.157a.823.823 0 01-.579-.224.729.729 0 010-1.08.817.817 0 01.579-.227c.225 0 .417.076.575.227a.722.722 0 010 1.08.809.809 0 01-.575.224zm4.866.703v1.136h-3.285v-1.136h3.285zm-2.539-1.307h1.513v5.085c0 .14.021.249.064.327a.352.352 0 00.177.16c.078.03.168.046.27.046.071 0 .142-.006.213-.018l.164-.032.238 1.126a4.355 4.355 0 01-.32.081 2.482 2.482 0 01-.501.061 2.31 2.31 0 01-.959-.146 1.335 1.335 0 01-.635-.518c-.152-.235-.226-.531-.224-.888v-5.284zm3.525 6.761v-5.454h1.512v5.454h-1.512zm.759-6.157a.822.822 0 01-.578-.224.725.725 0 01-.238-.543.71.71 0 01.238-.537.816.816 0 01.578-.227c.225 0 .417.076.576.227a.706.706 0 01.241.537c0 .21-.08.391-.241.543a.813.813 0 01-.576.224zm6.503 2.258l-1.384.085a.717.717 0 00-.153-.319.811.811 0 00-.309-.231 1.055 1.055 0 00-.451-.089c-.234 0-.432.05-.593.149-.161.097-.242.228-.242.391 0 .13.052.24.157.33.104.09.283.162.536.217l.987.199c.53.109.926.284 1.186.525.261.242.391.559.391.952 0 .357-.106.671-.316.941-.209.27-.495.481-.86.632-.362.149-.78.224-1.253.224-.722 0-1.298-.151-1.726-.451a1.756 1.756 0 01-.749-1.236l1.488-.078c.045.22.153.388.326.504.173.114.394.171.664.171.266 0 .479-.051.64-.153.163-.104.246-.238.248-.401a.416.416 0 00-.174-.338c-.113-.09-.289-.158-.525-.206l-.945-.188c-.533-.106-.929-.291-1.19-.554-.258-.263-.387-.598-.387-1.005 0-.35.095-.652.284-.905.192-.254.461-.449.806-.586.348-.138.756-.206 1.222-.206.689 0 1.231.145 1.626.436.398.292.63.688.696 1.19zm2.59.746v3.153h-1.513v-7.273h1.471v2.781h.063c.124-.322.322-.574.597-.756.275-.185.619-.277 1.033-.277.379 0 .709.083.991.248.284.164.504.399.661.707.158.305.236.671.234 1.097v3.473h-1.513v-3.203c.003-.336-.083-.598-.255-.785-.171-.187-.41-.28-.718-.28a1.12 1.12 0 00-.547.131.937.937 0 00-.369.384 1.31 1.31 0 00-.135.6zm11.016-2.028a.9.9 0 00-.366-.667c-.215-.159-.508-.238-.877-.238-.251 0-.463.035-.636.106a.893.893 0 00-.397.288.692.692 0 00-.135.419.598.598 0 00.081.341.864.864 0 00.252.252c.107.068.23.129.37.181.139.05.289.092.447.128l.654.156c.317.071.608.166.873.284.265.118.495.264.689.437.194.173.345.376.451.611.109.234.165.503.167.806-.002.445-.116.831-.341 1.157-.223.325-.544.577-.966.757-.419.177-.924.266-1.516.266-.587 0-1.099-.09-1.534-.27a2.244 2.244 0 01-1.016-.799c-.241-.355-.368-.794-.38-1.317h1.488c.017.244.086.447.21.611.125.161.292.283.5.365.211.081.449.121.714.121.26 0 .487-.038.678-.113a1.04 1.04 0 00.451-.317.725.725 0 00.16-.465c0-.163-.048-.3-.145-.412a1.11 1.11 0 00-.42-.284 4.276 4.276 0 00-.671-.213l-.792-.199c-.613-.149-1.097-.382-1.452-.699-.355-.318-.532-.745-.529-1.282a1.904 1.904 0 01.351-1.154 2.38 2.38 0 01.984-.771c.417-.185.89-.277 1.421-.277.539 0 1.01.092 1.413.277.405.185.72.442.945.771.224.329.34.71.348 1.143h-1.474zm5.48-.273v1.136h-3.285v-1.136h3.285zm-2.539-1.307h1.513v5.085c0 .14.021.249.064.327a.352.352 0 00.177.16c.078.03.168.046.27.046.071 0 .142-.006.213-.018l.164-.032.238 1.126a4.355 4.355 0 01-.32.081 2.482 2.482 0 01-.501.061 2.31 2.31 0 01-.959-.146 1.335 1.335 0 01-.635-.518c-.152-.235-.226-.531-.224-.888v-5.284zm5.08 6.864c-.348 0-.658-.06-.93-.181a1.497 1.497 0 01-.647-.543c-.156-.242-.234-.542-.234-.902 0-.303.055-.558.167-.764.111-.206.263-.371.454-.497.192-.125.41-.22.654-.284.246-.064.504-.109.774-.135.317-.033.573-.064.767-.092.194-.031.335-.076.422-.135a.296.296 0 00.132-.263v-.021c0-.225-.071-.399-.213-.522-.14-.123-.339-.185-.597-.185-.272 0-.489.06-.65.181a.835.835 0 00-.319.448l-1.399-.114c.071-.331.21-.618.419-.859.208-.244.477-.431.806-.561a3.072 3.072 0 011.15-.199c.303 0 .593.035.87.106.28.071.527.181.743.33.217.15.389.341.514.576.126.232.189.51.189.834v3.679h-1.435v-.756h-.043c-.087.17-.204.321-.351.451a1.637 1.637 0 01-.529.302 2.19 2.19 0 01-.714.106zm.433-1.044c.223 0 .419-.044.59-.131.17-.09.304-.211.401-.362a.938.938 0 00.146-.515v-.579a.816.816 0 01-.196.085c-.08.024-.171.046-.273.068l-.306.053-.277.039a1.872 1.872 0 00-.465.124.754.754 0 00-.309.231.565.565 0 00-.11.355c0 .206.075.363.224.472.151.107.343.16.575.16zm5.325-2.212v3.153h-1.513v-5.454h1.442v.962h.064c.121-.317.323-.568.607-.753.284-.187.629-.28 1.034-.28.378 0 .709.083.99.248.282.166.501.403.657.71.157.306.235.67.235 1.094v3.473h-1.513v-3.203c.002-.334-.083-.594-.256-.781-.173-.19-.411-.284-.714-.284a1.09 1.09 0 00-.539.131.923.923 0 00-.363.384 1.322 1.322 0 00-.131.6zm6.718 3.242c-.414 0-.79-.107-1.126-.32-.334-.215-.599-.531-.795-.948-.194-.419-.291-.933-.291-1.541 0-.625.1-1.145.301-1.559.202-.417.469-.728.803-.934a2.057 2.057 0 011.104-.312c.306 0 .56.052.764.156.206.102.372.23.497.383.128.152.225.301.291.448h.046v-2.735h1.51v7.273h-1.492v-.873h-.064a1.954 1.954 0 01-.302.451 1.496 1.496 0 01-.5.365 1.726 1.726 0 01-.746.146zm.479-1.204c.244 0 .45-.066.618-.199.171-.135.301-.323.391-.564.092-.242.138-.525.138-.849 0-.324-.045-.606-.135-.845a1.215 1.215 0 00-.39-.554.998.998 0 00-.622-.196.98.98 0 00-.628.203 1.23 1.23 0 00-.387.561 2.4 2.4 0 00-.132.831c0 .317.044.598.132.842.09.241.219.43.387.568a.98.98 0 00.628.202zm5.424 1.218c-.348 0-.658-.06-.931-.181a1.5 1.5 0 01-.646-.543c-.156-.242-.234-.542-.234-.902 0-.303.055-.558.167-.764.111-.206.262-.371.454-.497.192-.125.41-.22.654-.284.246-.064.504-.109.774-.135.317-.033.573-.064.767-.092.194-.031.335-.076.422-.135a.296.296 0 00.132-.263v-.021c0-.225-.071-.399-.213-.522-.14-.123-.339-.185-.597-.185-.272 0-.489.06-.65.181a.835.835 0 00-.319.448l-1.399-.114c.071-.331.21-.618.419-.859.208-.244.477-.431.806-.561a3.072 3.072 0 011.15-.199c.303 0 .593.035.87.106.28.071.527.181.742.33.218.15.39.341.515.576.126.232.189.51.189.834v3.679h-1.435v-.756h-.043c-.087.17-.204.321-.351.451a1.637 1.637 0 01-.529.302 2.19 2.19 0 01-.714.106zm.433-1.044c.223 0 .419-.044.59-.131.17-.09.304-.211.401-.362a.937.937 0 00.145-.515v-.579a.79.79 0 01-.195.085c-.08.024-.172.046-.273.068l-.306.053-.277.039a1.872 1.872 0 00-.465.124.754.754 0 00-.309.231.565.565 0 00-.11.355c0 .206.075.363.224.472.151.107.343.16.575.16zm3.812.941v-5.454h1.467v.951h.057c.099-.338.266-.594.5-.767a1.32 1.32 0 01.81-.262 2.157 2.157 0 01.476.053v1.342a2.743 2.743 0 00-.639-.082 1.21 1.21 0 00-.597.146 1.071 1.071 0 00-.561.987v3.086h-1.513zm5.848.089c-.414 0-.789-.107-1.126-.32-.333-.215-.599-.531-.795-.948-.194-.419-.291-.933-.291-1.541 0-.625.1-1.145.302-1.559.201-.417.468-.728.802-.934a2.057 2.057 0 011.104-.312c.306 0 .56.052.764.156.206.102.372.23.497.383.128.152.225.301.291.448h.047v-2.735h1.509v7.273h-1.492v-.873h-.064a1.954 1.954 0 01-.302.451 1.496 1.496 0 01-.5.365 1.726 1.726 0 01-.746.146zm.479-1.204c.244 0 .45-.066.618-.199.171-.135.301-.323.391-.564.092-.242.138-.525.138-.849a2.42 2.42 0 00-.134-.845 1.217 1.217 0 00-.391-.554.998.998 0 00-.622-.196.98.98 0 00-.628.203 1.23 1.23 0 00-.387.561 2.4 2.4 0 00-.132.831c0 .317.044.598.132.842.09.241.219.43.387.568a.98.98 0 00.628.202zm5.934-4.89v-1.268h5.973v1.268h-2.226v6.005h-1.52v-6.005h-2.227zm6.929 6.005v-5.454h1.512v5.454h-1.512zm.76-6.157a.823.823 0 01-.579-.224.725.725 0 01-.238-.543.71.71 0 01.238-.537.817.817 0 01.579-.227c.225 0 .416.076.575.227a.706.706 0 01.241.537c0 .21-.08.391-.241.543a.81.81 0 01-.575.224zm1.964 6.157v-5.454h1.442v.962h.064a1.51 1.51 0 01.568-.756c.265-.185.583-.277.952-.277.374 0 .692.093.955.28.263.185.438.436.526.753h.056c.112-.312.313-.562.604-.749.294-.19.641-.284 1.041-.284.509 0 .922.162 1.239.486.32.322.479.779.479 1.371v3.668h-1.509v-3.37c0-.303-.08-.53-.241-.682a.85.85 0 00-.604-.227c-.275 0-.489.088-.643.263-.154.173-.231.401-.231.685v3.331h-1.466v-3.402c0-.267-.077-.48-.231-.639a.792.792 0 00-.6-.238.837.837 0 00-.455.128.88.88 0 00-.316.352 1.117 1.117 0 00-.117.525v3.274h-1.513zm11.607.107c-.561 0-1.044-.114-1.449-.341a2.34 2.34 0 01-.93-.973c-.218-.422-.327-.92-.327-1.495 0-.561.109-1.054.327-1.477.218-.424.524-.754.92-.991.397-.237.864-.355 1.399-.355.36 0 .695.058 1.005.174.312.113.585.285.817.515.234.229.416.518.546.866.131.346.196.751.196 1.215v.415h-4.606v-.937h3.182c0-.218-.048-.411-.142-.579a1.011 1.011 0 00-.395-.394 1.11 1.11 0 00-.578-.146c-.23 0-.434.053-.611.16a1.12 1.12 0 00-.412.422c-.1.175-.15.371-.153.586v.892c0 .269.05.503.149.699.102.197.245.348.43.455a1.3 1.3 0 00.657.159c.168 0 .322-.023.462-.071a.949.949 0 00.358-.213.91.91 0 00.228-.348l1.399.093a1.911 1.911 0 01-.437.88c-.218.249-.5.443-.845.583-.343.137-.74.206-1.19.206zm6.041-3.022c0 .883-.119 1.695-.355 2.436a6.675 6.675 0 01-1.08 2.059h-1.445c.184-.234.356-.52.515-.859.158-.338.297-.708.415-1.108.118-.402.211-.819.277-1.25.066-.431.099-.857.099-1.278 0-.561-.058-1.127-.174-1.698a8.623 8.623 0 00-.468-1.591c-.197-.49-.418-.891-.664-1.203h1.445a6.675 6.675 0 011.08 2.059c.236.741.355 1.552.355 2.433z" fill="#6A6A6A"/><path d="M96.303 557.683v-1.332l3.34-5.262h1.148v1.844h-.68l-2.105 3.332v.063h4.746v1.355h-6.45zm3.84 1.406v-1.812l.031-.59v-5.598h1.586v8h-1.617zm4.724-.929a.91.91 0 01-.664-.274.903.903 0 01-.273-.664c0-.255.091-.474.273-.656a.914.914 0 01.664-.274c.25 0 .469.092.656.274a.881.881 0 01.282.656c0 .172-.045.33-.133.473-.086.14-.199.254-.34.34a.9.9 0 01-.465.125zm0-3.926a.91.91 0 01-.664-.274.903.903 0 01-.273-.664c0-.255.091-.472.273-.652a.913.913 0 01.664-.273c.25 0 .469.091.656.273a.87.87 0 01.282.652.893.893 0 01-.133.477.968.968 0 01-.34.336.9.9 0 01-.465.125zm5.425 5.031c-.672-.002-1.25-.168-1.734-.496-.482-.328-.853-.803-1.114-1.426-.257-.622-.385-1.371-.382-2.246 0-.872.128-1.616.386-2.23.261-.615.632-1.082 1.114-1.403.484-.323 1.061-.484 1.73-.484s1.245.161 1.727.484c.484.323.856.792 1.117 1.407.26.612.389 1.354.386 2.226 0 .878-.13 1.628-.39 2.25-.258.623-.628 1.098-1.11 1.426-.481.328-1.058.492-1.73.492zm0-1.402c.458 0 .824-.231 1.098-.692.273-.461.409-1.152.406-2.074 0-.607-.063-1.112-.188-1.515-.122-.404-.296-.707-.523-.911a1.141 1.141 0 00-.793-.304c-.456 0-.82.228-1.094.683-.273.456-.411 1.138-.414 2.047 0 .615.061 1.128.184 1.539.125.409.301.716.527.922.227.203.492.305.797.305zm7.573 1.402c-.672-.002-1.25-.168-1.734-.496-.482-.328-.853-.803-1.113-1.426-.258-.622-.386-1.371-.383-2.246 0-.872.129-1.616.386-2.23.261-.615.632-1.082 1.114-1.403.484-.323 1.061-.484 1.73-.484.67 0 1.245.161 1.727.484.484.323.857.792 1.117 1.407.26.612.389 1.354.387 2.226 0 .878-.131 1.628-.391 2.25-.258.623-.628 1.098-1.109 1.426-.482.328-1.059.492-1.731.492zm0-1.402c.459 0 .824-.231 1.098-.692.273-.461.409-1.152.406-2.074 0-.607-.062-1.112-.187-1.515-.123-.404-.297-.707-.524-.911a1.141 1.141 0 00-.793-.304c-.455 0-.82.228-1.094.683-.273.456-.411 1.138-.414 2.047 0 .615.062 1.128.184 1.539.125.409.301.716.527.922.227.203.493.305.797.305zm8.408 1.226h-1.812l2.762-8h2.179l2.758 8h-1.812l-2.004-6.172h-.063l-2.008 6.172zm-.113-3.144h4.281v1.32h-4.281v-1.32zm6.963-4.856h2.086l2.203 5.375h.094l2.203-5.375h2.086v8h-1.641v-5.207h-.066l-2.07 5.168H136.9l-2.07-5.187h-.066v5.226h-1.641v-8z" fill="#2D2A21"/><path fill="#DFDFDF" d="M80.281 569.731h240.382v.868H80.281z"/></g></g></g><defs><clipPath id="clip0_1_393"><rect width="327" height="622" rx="30" fill="#fff"/></clipPath><clipPath id="clip1_1_393"><path fill="#fff" transform="translate(0 410)" d="M0 0h375v210H0z"/></clipPath><clipPath id="clip2_1_393"><path fill="#fff" transform="translate(50 266)" d="M0 0h277v366H0z"/></clipPath><clipPath id="clip3_1_393"><path fill="#fff" transform="translate(97.259 413.205)" d="M0 0h14.59v14.59H0z"/></clipPath><filter id="filter0_d_1_393" x="50" y="266" width="516.166" height="419" filterUnits="userSpaceOnUse" color-interpolation-filters="sRGB"><feFlood flood-opacity="0" result="BackgroundImageFix"/><feColorMatrix in="SourceAlpha" values="0 0 0 0 0 0 0 0 0 0 0 0 0 0 0 0 0 0 127 0" result="hardAlpha"/><feOffset dx="12" dy="12"/><feComposite in2="hardAlpha" operator="out"/><feColorMatrix values="0 0 0 0 0 0 0 0 0 0 0 0 0 0 0 0 0 0 0.15 0"/><feBlend in2="BackgroundImageFix" result="effect1_dropShadow_1_393"/><feBlend in="SourceGraphic" in2="effect1_dropShadow_1_393" result="shape"/></filter><filter id="filter1_d_1_393" x="80.166" y="400" width="251.386" height="218.386" filterUnits="userSpaceOnUse" color-interpolation-filters="sRGB"><feFlood flood-opacity="0" result="BackgroundImageFix"/><feColorMatrix in="SourceAlpha" values="0 0 0 0 0 0 0 0 0 0 0 0 0 0 0 0 0 0 127 0" result="hardAlpha"/><feOffset dx="8" dy="8"/><feGaussianBlur stdDeviation="1.193"/><feComposite in2="hardAlpha" operator="out"/><feColorMatrix values="0 0 0 0 0 0 0 0 0 0 0 0 0 0 0 0 0 0 0.15 0"/><feBlend in2="BackgroundImageFix" result="effect1_dropShadow_1_393"/><feBlend in="SourceGraphic" in2="effect1_dropShadow_1_393" result="shape"/></filter></defs></svg>