<svg width="577" height="686" fill="none" xmlns="http://www.w3.org/2000/svg"><g clip-path="url(#clip0_1_118)"><g filter="url(#filter0_d_1_118)"><rect x="215" y="308" width="504" height="407" rx="26.244" fill="#FFFEFE"/><path fill-rule="evenodd" clip-rule="evenodd" d="M633.916 308c-.83 0-1.64.083-2.423.242V308H231.499c-8.836 0-16.05 6.945-16.48 15.674h-.185v32.774h3.545l.034.001h94.585a3.579 3.579 0 003.578-3.579v-25.617a3.578 3.578 0 013.542-3.578h149.568a3.577 3.577 0 013.541 3.578v25.617a3.579 3.579 0 003.578 3.579h238.317l.033-.001h3.546v-32.774h-.533c.347-1.126.533-2.322.533-3.562 0-6.689-5.423-12.112-12.112-12.112h-72.673z" fill="#F0F1F5"/><circle cx="243.096" cy="333.032" r="5.652" fill="#FF7970"/><circle cx="262.475" cy="333.032" r="5.652" fill="#FDD171"/><circle cx="281.854" cy="333.032" r="5.652" fill="#65C157"/><circle cx="337.571" cy="337.069" r="6.46" fill="#E1E4EB"/><path fill="#E1E4EB" d="M352.105 335.454h77.518v4.845h-77.518z"/><path d="M452.822 334.428l5.871 5.871m-5.871 0l5.871-5.871" stroke="#DBDEE4" stroke-width="2.386" stroke-linecap="round" stroke-linejoin="round"/><path d="M497.504 329.047v12.227m-6.113-6.114h12.226" opacity=".6" stroke="#D0D4DD" stroke-width="3.579" stroke-linecap="round" stroke-linejoin="round"/><rect x="344.031" y="362.909" width="219.634" height="30.684" rx="15.342" fill="#F0F1F5"/><path fill="#E1E4EB" d="M386.02 375.828h138.886v4.845H386.02z"/><path d="M370.514 376.8h-9.042c-.713 0-1.291.578-1.291 1.291v4.521c0 .714.578 1.292 1.291 1.292h9.042c.713 0 1.291-.578 1.291-1.292v-4.521c0-.713-.578-1.291-1.291-1.291zm-7.749 0v-2.584a3.229 3.229 0 016.393-.646" stroke="#D0D4DD" stroke-width="2.386" stroke-linecap="round" stroke-linejoin="round"/><path d="M369.157 376.803v-2.583a3.231 3.231 0 00-2.904-3.216 3.227 3.227 0 00-3.489 2.57" stroke="#D0D4DD" stroke-width="2.386" stroke-linecap="round" stroke-linejoin="round"/><path d="M252.448 378.25h-12.247m6.124 6.124l-6.124-6.124 6.124-6.123m26.647 6.595h12.247m-6.124 6.123l6.124-6.123-6.124-6.124m37.784 9.084l4.542-4.542-4.542-4.542" stroke="#DBDEE4" stroke-width="2.386" stroke-linecap="round" stroke-linejoin="round"/><path d="M306.887 387.133v-6.359a3.635 3.635 0 013.633-3.634h10.901" stroke="#DBDEE4" stroke-width="2.386" stroke-linecap="round" stroke-linejoin="round"/><path fill="#F0F1F5" d="M214.834 400.052h503.867v1.615H214.834z"/></g><rect x="245.731" y="427.353" width="33.322" height="7.573" rx="3.787" fill="#F0F1F5"/><rect x="245.731" y="490.362" width="33.322" height="7.573" rx="3.787" fill="#F0F1F5"/><rect x="245.731" y="553.37" width="33.322" height="7.573" rx="3.787" fill="#F0F1F5"/><rect x="245.731" y="450.846" width="145.4" height="1.949" rx=".974" fill="#F0F1F5"/><rect x="245.731" y="471.792" width="145.4" height="1.949" rx=".974" fill="#F0F1F5"/><rect x="245.731" y="461.319" width="135.119" height="1.949" rx=".974" fill="#F0F1F5"/><rect x="245.731" y="513.854" width="145.4" height="1.949" rx=".974" fill="#F0F1F5"/><rect x="245.731" y="534.8" width="145.4" height="1.949" rx=".974" fill="#F0F1F5"/><rect x="245.731" y="524.327" width="135.119" height="1.949" rx=".974" fill="#F0F1F5"/><rect x="245.731" y="576.862" width="145.4" height="1.949" rx=".974" fill="#F0F1F5"/><rect x="245.731" y="597.809" width="145.4" height="1.949" rx=".974" fill="#F0F1F5"/><rect x="245.731" y="587.335" width="135.119" height="1.949" rx=".974" fill="#F0F1F5"/><path fill="#FFE7B4" d="M289.042 417.343h102.401v25.166H289.042z"/><path d="M309.283 436.431c-.792 0-1.496-.128-2.112-.385-.613-.26-1.095-.615-1.444-1.064a2.413 2.413 0 01-.524-1.526c0-.438.099-.841.298-1.207.202-.37.476-.677.822-.92a2.712 2.712 0 011.161-.473v-.072a2.281 2.281 0 01-1.367-.817 2.352 2.352 0 01-.524-1.516c0-.544.16-1.029.478-1.454.319-.428.756-.764 1.31-1.007.559-.247 1.193-.37 1.902-.37.709 0 1.341.123 1.896.37.558.247.997.584 1.315 1.012.319.425.48.908.483 1.449a2.341 2.341 0 01-.534 1.516 2.295 2.295 0 01-1.357.817v.072c.422.069.804.226 1.146.473.346.243.62.55.822.92a2.467 2.467 0 01-.215 2.733c-.35.449-.833.804-1.45 1.064-.613.257-1.315.385-2.106.385zm0-1.634c.353 0 .661-.063.925-.19.263-.13.469-.308.616-.534.151-.23.226-.493.226-.791a1.43 1.43 0 00-.231-.807 1.578 1.578 0 00-.627-.555 1.945 1.945 0 00-.909-.206c-.339 0-.643.069-.91.206a1.573 1.573 0 00-.632.555 1.45 1.45 0 00-.226.807c0 .298.074.561.221.791.147.226.355.404.622.534.267.127.575.19.925.19zm0-4.701c.294 0 .556-.06.786-.18.229-.12.409-.286.539-.499.131-.212.196-.457.196-.734a1.312 1.312 0 00-.73-1.208c-.226-.12-.49-.18-.791-.18-.298 0-.562.06-.792.18a1.334 1.334 0 00-.539.488c-.127.206-.19.446-.19.72 0 .277.065.522.195.734.13.213.31.379.54.499.229.12.491.18.786.18zm6.941 4.969a1.2 1.2 0 01-.874-.36 1.19 1.19 0 01-.36-.874c0-.335.12-.623.36-.863a1.2 1.2 0 01.874-.36c.328 0 .616.12.863.36.246.24.37.528.37.863 0 .226-.058.434-.175.622a1.327 1.327 0 01-.447.447c-.185.11-.389.165-.611.165zm0-5.165c-.34 0-.631-.119-.874-.359a1.19 1.19 0 01-.36-.874c0-.336.12-.622.36-.858a1.2 1.2 0 01.874-.36c.328 0 .616.12.863.36.246.236.37.522.37.858 0 .23-.058.439-.175.627a1.287 1.287 0 01-.447.442c-.185.11-.389.164-.611.164zm6.899 6.531c-.767 0-1.451-.131-2.05-.395-.596-.267-1.067-.634-1.413-1.1a2.757 2.757 0 01-.529-1.624h2.24c.014.257.098.483.252.679.157.192.366.341.627.447.26.106.553.159.878.159.34 0 .639-.06.9-.18.26-.12.464-.286.611-.498.147-.213.221-.458.221-.735 0-.281-.079-.529-.236-.745a1.51 1.51 0 00-.668-.514c-.288-.123-.631-.185-1.028-.185h-.981v-1.634h.981c.336 0 .632-.058.889-.175.26-.116.462-.277.606-.483.144-.209.216-.452.216-.729a1.26 1.26 0 00-.19-.694 1.255 1.255 0 00-.524-.473 1.705 1.705 0 00-.781-.169c-.302 0-.577.054-.828.164-.25.106-.45.259-.601.457-.15.199-.231.432-.241.699h-2.133a2.75 2.75 0 01.519-1.603 3.37 3.37 0 011.357-1.084c.572-.264 1.218-.396 1.937-.396.726 0 1.362.132 1.906.396.545.264.968.62 1.27 1.069.305.445.455.945.452 1.5.003.589-.18 1.081-.55 1.475-.367.394-.844.644-1.434.75v.082c.775.1 1.364.368 1.768.807.408.435.61.98.606 1.634a2.562 2.562 0 01-.519 1.598c-.346.466-.823.832-1.433 1.1-.61.267-1.309.4-2.097.4zm9.775.088c-.884-.004-1.644-.221-2.282-.653-.633-.431-1.121-1.057-1.464-1.875-.339-.819-.507-1.804-.504-2.955 0-1.148.17-2.126.509-2.934.343-.808.831-1.423 1.465-1.845.637-.425 1.396-.637 2.276-.637.88 0 1.637.212 2.271.637.637.425 1.127 1.042 1.47 1.85.342.805.512 1.781.508 2.929 0 1.155-.171 2.141-.513 2.96-.34.819-.826 1.444-1.46 1.875-.633.432-1.392.648-2.276.648zm0-1.845c.603 0 1.084-.303 1.444-.909.36-.607.538-1.516.534-2.729 0-.798-.082-1.463-.246-1.994-.161-.531-.391-.93-.689-1.197a1.503 1.503 0 00-1.043-.401c-.6 0-1.079.3-1.439.899-.36.6-.541 1.497-.545 2.693 0 .809.081 1.483.242 2.025.164.537.396.942.694 1.212.298.268.647.401 1.048.401zm9.247 1.614v-10.524h4.213c.774 0 1.42.115 1.937.344.518.23.907.548 1.167.956.26.404.39.87.39 1.398 0 .411-.082.772-.246 1.084a2.13 2.13 0 01-.679.76 2.775 2.775 0 01-.976.417v.102c.401.018.776.131 1.125.34.353.208.639.501.859.878.219.374.328.819.328 1.336 0 .559-.138 1.057-.416 1.496-.274.435-.68.779-1.218 1.032-.537.254-1.2.381-1.988.381h-4.496zm2.225-1.819h1.814c.62 0 1.072-.119 1.356-.355.284-.24.427-.558.427-.956a1.42 1.42 0 00-.211-.771 1.442 1.442 0 00-.601-.524 2.071 2.071 0 00-.92-.19h-1.865v2.796zm0-4.301h1.649c.305 0 .576-.053.812-.16.24-.109.428-.263.565-.462.141-.199.211-.437.211-.714 0-.381-.135-.687-.406-.92-.267-.233-.648-.35-1.141-.35h-1.69v2.606zm13.05-1.377c-.041-.415-.217-.737-.529-.967-.312-.229-.735-.344-1.269-.344-.363 0-.67.052-.92.154-.25.1-.442.238-.576.417-.13.178-.195.38-.195.606a.869.869 0 00.118.493c.089.141.211.262.365.365.154.099.332.187.535.262.202.072.417.134.647.185l.945.226c.459.103.881.24 1.265.411.383.172.715.382.996.632s.499.545.653.884c.158.339.238.728.241 1.167-.003.644-.167 1.202-.493 1.675-.322.469-.788.834-1.397 1.094-.607.257-1.338.386-2.195.386-.849 0-1.589-.131-2.219-.391-.627-.26-1.117-.646-1.47-1.156-.349-.514-.533-1.149-.55-1.906h2.153c.024.352.125.647.303.883.182.233.423.41.725.53.305.116.649.174 1.033.174.377 0 .704-.054.981-.164a1.51 1.51 0 00.653-.457 1.06 1.06 0 00.231-.674.873.873 0 00-.211-.596c-.137-.161-.339-.298-.606-.411a6.15 6.15 0 00-.971-.308l-1.146-.288c-.887-.216-1.588-.553-2.102-1.012-.514-.459-.769-1.077-.765-1.855-.004-.637.166-1.194.508-1.67.346-.476.821-.848 1.424-1.115s1.288-.401 2.055-.401c.781 0 1.463.134 2.045.401.586.267 1.042.639 1.367 1.115.325.476.493 1.028.504 1.655h-2.133zm3.372-1.193v-1.834h8.643v1.834h-3.222v8.69h-2.199v-8.69h-3.222z" fill="#59606B"/><g filter="url(#filter1_d_1_118)"><rect x="295" y="442" width="241" height="208" rx="14.49" fill="#F7F5F2"/><path d="M511.565 628.161v3.484a1.161 1.161 0 01-1.162 1.161h-6.386a1.163 1.163 0 01-1.162-1.161v-6.387a1.161 1.161 0 011.162-1.161h3.483m2.322-1.743h3.484v3.484m-6.386 2.903l6.387-6.387" stroke="#000" stroke-width="1.193" stroke-linecap="round" stroke-linejoin="round"/><path d="M315.852 625.515a1.142 1.142 0 00-.516-.859c-.302-.206-.682-.309-1.141-.309-.328 0-.612.052-.851.156a1.32 1.32 0 00-.559.422.997.997 0 00-.195.606c0 .19.044.354.133.492.091.138.209.254.355.348.149.091.307.168.477.23.169.06.332.109.488.149l.781.203c.255.062.517.147.785.254.269.106.517.247.746.421.23.175.415.391.555.649.143.258.215.566.215.926 0 .453-.117.855-.352 1.207-.231.351-.569.629-1.011.832-.44.203-.973.304-1.598.304-.599 0-1.117-.095-1.555-.285a2.391 2.391 0 01-1.027-.808 2.35 2.35 0 01-.41-1.25h1.211c.023.289.117.53.281.722.167.19.379.332.637.426.26.091.545.137.855.137.341 0 .645-.054.91-.16.269-.11.48-.261.633-.453.154-.196.231-.424.231-.684a.84.84 0 00-.203-.582 1.505 1.505 0 00-.543-.375 5.362 5.362 0 00-.77-.262l-.945-.258c-.641-.174-1.149-.431-1.524-.769-.372-.339-.558-.787-.558-1.344 0-.461.125-.863.375-1.207.25-.344.588-.611 1.015-.801a3.49 3.49 0 011.446-.289c.541 0 1.019.095 1.433.285.417.19.745.452.985.786.239.33.364.71.375 1.14h-1.164zm2.715 5.899v-8h5.016v1.039h-3.809v2.437h3.547v1.035h-3.547v2.45h3.856v1.039h-5.063zm6.628 0v-8h5.016v1.039h-3.809v2.437h3.547v1.035h-3.547v2.45h3.856v1.039h-5.063zm9.539-8h1.465l2.547 6.218h.094l2.547-6.218h1.465v8h-1.149v-5.789h-.074l-2.359 5.777h-.954l-2.359-5.781h-.074v5.793h-1.149v-8zm16.822 4c0 .854-.157 1.588-.469 2.203-.313.612-.741 1.083-1.285 1.414-.542.328-1.158.492-1.848.492-.693 0-1.311-.164-1.855-.492-.542-.331-.969-.804-1.282-1.418-.312-.615-.468-1.348-.468-2.199 0-.855.156-1.588.468-2.2.313-.614.74-1.086 1.282-1.414.544-.33 1.162-.496 1.855-.496.69 0 1.306.166 1.848.496.544.328.972.8 1.285 1.414.312.612.469 1.345.469 2.2zm-1.196 0c0-.651-.105-1.2-.316-1.645-.208-.448-.495-.786-.859-1.016a2.241 2.241 0 00-1.231-.347c-.461 0-.872.116-1.234.347-.362.23-.649.568-.86 1.016-.208.445-.312.994-.312 1.645s.104 1.2.312 1.648c.211.445.498.784.86 1.016.362.229.773.343 1.234.343.458 0 .869-.114 1.231-.343.364-.232.651-.571.859-1.016.211-.448.316-.997.316-1.648zm2.701 4v-8h2.851c.62 0 1.134.106 1.543.32.412.213.719.509.922.887.203.375.305.808.305 1.3 0 .49-.103.921-.309 1.293-.203.37-.51.658-.922.864-.409.205-.923.308-1.543.308h-2.16v-1.039h2.051c.39 0 .708-.056.953-.168.247-.112.428-.275.543-.488.115-.214.172-.47.172-.77a1.66 1.66 0 00-.176-.785 1.145 1.145 0 00-.543-.508c-.245-.119-.566-.179-.965-.179h-1.515v6.965h-1.207zm3.949-3.61l1.976 3.61h-1.375l-1.937-3.61h1.336zm3.14 3.61v-8h5.016v1.039h-3.809v2.437h3.547v1.035h-3.547v2.45h3.856v1.039h-5.063zm9.145-6.961v-1.039h6.191v1.039h-2.496v6.961h-1.203v-6.961h-2.492zm8.767-1.039v8h-1.208v-8h1.208zm1.757 0h1.465l2.547 6.218h.094l2.547-6.218h1.465v8h-1.149v-5.789h-.074l-2.36 5.777h-.953l-2.359-5.781h-.074v5.793h-1.149v-8zm9.872 8v-8h5.016v1.039h-3.809v2.437h3.547v1.035h-3.547v2.45h3.856v1.039h-5.063zm9.332 0v-.805l4.207-6.156h-4.242v-1.039h5.719v.804l-4.207 6.157h4.242v1.039h-5.719zm13.806-4c0 .854-.156 1.588-.469 2.203a3.44 3.44 0 01-1.285 1.414c-.541.328-1.157.492-1.847.492-.693 0-1.312-.164-1.856-.492-.542-.331-.969-.804-1.281-1.418-.313-.615-.469-1.348-.469-2.199 0-.855.156-1.588.469-2.2.312-.614.739-1.086 1.281-1.414.544-.33 1.163-.496 1.856-.496.69 0 1.306.166 1.847.496.544.328.973.8 1.285 1.414.313.612.469 1.345.469 2.2zm-1.195 0c0-.651-.106-1.2-.317-1.645-.208-.448-.494-.786-.859-1.016a2.238 2.238 0 00-1.23-.347c-.461 0-.873.116-1.235.347-.362.23-.648.568-.859 1.016-.209.445-.313.994-.313 1.645s.104 1.2.313 1.648c.211.445.497.784.859 1.016.362.229.774.343 1.235.343.458 0 .868-.114 1.23-.343.365-.232.651-.571.859-1.016.211-.448.317-.997.317-1.648zm9.157-4v8h-1.109l-4.067-5.868h-.074v5.868h-1.207v-8h1.117l4.07 5.875h.075v-5.875h1.195zm1.761 8v-8h5.015v1.039h-3.808v2.437h3.547v1.035h-3.547v2.45h3.855v1.039h-5.062zm10.991-5.899a1.142 1.142 0 00-.516-.859c-.302-.206-.682-.309-1.14-.309-.328 0-.612.052-.852.156a1.317 1.317 0 00-.558.422.992.992 0 00-.196.606c0 .19.045.354.133.492.091.138.21.254.356.348.148.091.307.168.476.23.169.06.332.109.488.149l.782.203c.255.062.517.147.785.254.268.106.517.247.746.421.229.175.414.391.555.649.143.258.214.566.214.926 0 .453-.117.855-.351 1.207-.232.351-.569.629-1.012.832-.44.203-.973.304-1.598.304-.598 0-1.117-.095-1.554-.285a2.394 2.394 0 01-1.028-.808 2.35 2.35 0 01-.41-1.25h1.211c.024.289.117.53.281.722.167.19.379.332.637.426.261.091.546.137.856.137.341 0 .644-.054.91-.16a1.54 1.54 0 00.633-.453 1.08 1.08 0 00.23-.684.84.84 0 00-.203-.582 1.505 1.505 0 00-.543-.375 5.362 5.362 0 00-.77-.262l-.945-.258c-.64-.174-1.148-.431-1.523-.769-.373-.339-.559-.787-.559-1.344 0-.461.125-.863.375-1.207.25-.344.589-.611 1.016-.801a3.488 3.488 0 011.445-.289c.542 0 1.02.095 1.434.285.416.19.744.452.984.786.24.33.365.71.375 1.14h-1.164zM311.305 487.177v-8h3.203c.588 0 1.079.087 1.472.262.394.174.689.417.887.727.198.307.297.661.297 1.062 0 .313-.062.587-.187.824a1.611 1.611 0 01-.516.578 2.116 2.116 0 01-.742.317v.078a1.829 1.829 0 011.508.926c.166.284.25.622.25 1.015 0 .425-.106.804-.317 1.137-.208.331-.517.592-.926.785-.408.193-.912.289-1.511.289h-3.418zm1.691-1.383h1.379c.471 0 .815-.089 1.031-.269a.904.904 0 00.324-.727c0-.221-.053-.416-.16-.586a1.081 1.081 0 00-.457-.398 1.568 1.568 0 00-.699-.145h-1.418v2.125zm0-3.269h1.254c.232 0 .438-.04.617-.121.182-.084.326-.201.43-.352a.914.914 0 00.16-.543.877.877 0 00-.309-.699c-.203-.177-.492-.266-.867-.266h-1.285v1.981zm9.921-1.047a.986.986 0 00-.402-.734c-.237-.175-.559-.262-.965-.262-.276 0-.509.039-.699.117a.983.983 0 00-.438.317.76.76 0 00-.148.46.65.65 0 00.089.375c.068.107.161.2.278.278.117.075.252.142.406.199.154.055.318.102.492.141l.719.172c.349.078.669.182.961.312.292.13.544.29.758.48a2.019 2.019 0 01.679 1.559c-.002.49-.127.914-.375 1.274-.244.356-.598.634-1.062.832-.461.195-1.017.293-1.668.293-.646 0-1.208-.099-1.688-.297a2.479 2.479 0 01-1.117-.879c-.265-.391-.405-.874-.418-1.449h1.637c.018.268.095.492.231.671.138.177.321.312.55.403.232.088.494.133.785.133.287 0 .536-.042.747-.125.213-.084.378-.2.496-.348a.804.804 0 00.175-.512.662.662 0 00-.16-.453 1.207 1.207 0 00-.461-.312 4.611 4.611 0 00-.738-.235l-.871-.219c-.675-.164-1.207-.42-1.598-.769-.39-.349-.584-.819-.582-1.41a2.104 2.104 0 01.387-1.27 2.608 2.608 0 011.082-.847c.458-.204.979-.305 1.563-.305.593 0 1.112.101 1.554.305a2.45 2.45 0 011.039.847c.248.362.375.781.383 1.258h-1.621zm2.563-.906v-1.395h6.571v1.395h-2.449v6.605h-1.672v-6.605h-2.45zm10.535 2.605c0-.969.129-1.86.386-2.676a7.396 7.396 0 011.192-2.265h1.59a4.848 4.848 0 00-.567.945c-.174.37-.327.776-.457 1.219-.13.443-.232.901-.305 1.375a9.276 9.276 0 00.079 3.273c.127.628.299 1.211.515 1.75.219.539.464.981.735 1.325h-1.59a7.413 7.413 0 01-1.192-2.266c-.257-.815-.386-1.708-.386-2.68zm4.165 4v-8h3.203c.588 0 1.079.087 1.472.262.394.174.689.417.887.727.198.307.297.661.297 1.062 0 .313-.062.587-.187.824a1.611 1.611 0 01-.516.578 2.116 2.116 0 01-.742.317v.078a1.829 1.829 0 011.508.926c.166.284.25.622.25 1.015 0 .425-.106.804-.317 1.137-.208.331-.517.592-.926.785-.408.193-.912.289-1.511.289h-3.418zm1.691-1.383h1.379c.471 0 .815-.089 1.031-.269a.904.904 0 00.324-.727c0-.221-.053-.416-.16-.586a1.081 1.081 0 00-.457-.398 1.568 1.568 0 00-.699-.145h-1.418v2.125zm0-3.269h1.254c.232 0 .438-.04.617-.121.182-.084.326-.201.43-.352a.914.914 0 00.16-.543.877.877 0 00-.309-.699c-.203-.177-.492-.266-.867-.266h-1.285v1.981zm7.261 4.766c-.383 0-.724-.067-1.024-.2a1.65 1.65 0 01-.711-.597c-.171-.266-.257-.597-.257-.993 0-.333.061-.613.183-.839.123-.227.289-.409.5-.547a2.45 2.45 0 01.719-.313c.271-.07.555-.12.852-.148.349-.037.63-.071.843-.102.214-.034.369-.083.465-.148a.326.326 0 00.145-.289v-.024c0-.247-.078-.438-.235-.574-.153-.135-.372-.203-.656-.203-.299 0-.538.066-.715.199a.913.913 0 00-.351.492l-1.539-.125c.078-.364.231-.679.461-.945.229-.268.524-.474.886-.617a3.392 3.392 0 011.266-.219c.333 0 .652.039.957.117.307.078.579.2.816.364.24.164.429.375.567.632.138.256.207.562.207.918v4.047h-1.578v-.832h-.047a1.703 1.703 0 01-.387.496 1.76 1.76 0 01-.582.332 2.409 2.409 0 01-.785.118zm.476-1.149c.245 0 .461-.048.649-.144.187-.099.334-.232.441-.399.107-.167.16-.355.16-.566v-.637a.892.892 0 01-.214.094 3.802 3.802 0 01-.301.074c-.112.021-.224.04-.336.059l-.305.043a2.061 2.061 0 00-.512.136.819.819 0 00-.339.254.619.619 0 00-.122.391c0 .226.083.4.247.519.166.117.377.176.632.176zm5.858-2.434v3.469h-1.664v-6h1.586v1.059h.07c.133-.349.355-.625.668-.828.312-.206.691-.309 1.137-.309.416 0 .78.091 1.09.274.309.182.55.442.722.781.172.336.258.737.258 1.203v3.82h-1.664v-3.523c.003-.367-.091-.654-.281-.86-.19-.208-.452-.312-.785-.312-.224 0-.422.048-.594.144a1.018 1.018 0 00-.399.422 1.468 1.468 0 00-.144.66zm7.882 5.844c-.539 0-1.002-.074-1.387-.222-.383-.146-.688-.345-.914-.598a1.841 1.841 0 01-.442-.852l1.54-.207c.046.12.121.232.222.336.102.104.236.188.403.25.169.065.375.098.617.098.362 0 .66-.089.894-.266.237-.174.356-.467.356-.879v-1.097h-.071a1.58 1.58 0 01-.328.472c-.146.149-.333.27-.562.364a2.18 2.18 0 01-.821.14c-.45 0-.86-.104-1.23-.312-.367-.211-.66-.533-.879-.965-.216-.435-.324-.984-.324-1.648 0-.68.111-1.248.332-1.704.221-.455.516-.796.883-1.023.37-.227.774-.34 1.215-.34.336 0 .617.057.843.172.227.112.409.253.547.422.141.167.249.331.324.492h.063v-1.008h1.652v6.059c0 .51-.125.937-.375 1.281-.25.344-.596.602-1.039.774-.44.174-.946.261-1.519.261zm.035-3.711c.268 0 .495-.066.679-.199a1.26 1.26 0 00.43-.578 2.42 2.42 0 00.153-.906c0-.352-.05-.657-.149-.914a1.33 1.33 0 00-.43-.606 1.092 1.092 0 00-.683-.215c-.274 0-.504.075-.692.223a1.338 1.338 0 00-.425.609 2.584 2.584 0 00-.145.903c0 .346.048.646.145.898.099.25.241.444.425.582.188.136.418.203.692.203zm5.887-6.664v8h-1.665v-8h1.665zm3.043 8.114a2.5 2.5 0 01-1.023-.2 1.65 1.65 0 01-.711-.597c-.172-.266-.258-.597-.258-.993 0-.333.061-.613.184-.839a1.48 1.48 0 01.5-.547c.211-.138.45-.242.719-.313.27-.07.554-.12.851-.148.349-.037.63-.071.844-.102.213-.034.368-.083.465-.148a.327.327 0 00.144-.289v-.024c0-.247-.078-.438-.234-.574-.154-.135-.372-.203-.656-.203-.3 0-.538.066-.715.199a.92.92 0 00-.352.492l-1.539-.125c.078-.364.232-.679.461-.945.229-.268.525-.474.887-.617.364-.146.786-.219 1.266-.219.333 0 .652.039.957.117.307.078.579.2.816.364.24.164.428.375.566.632.138.256.207.562.207.918v4.047h-1.578v-.832h-.047a1.683 1.683 0 01-.386.496 1.781 1.781 0 01-.582.332 2.415 2.415 0 01-.786.118zm.477-1.149a1.4 1.4 0 00.648-.144c.188-.099.335-.232.442-.399.107-.167.16-.355.16-.566v-.637a.902.902 0 01-.215.094 3.696 3.696 0 01-.301.074c-.112.021-.224.04-.336.059l-.304.043a2.05 2.05 0 00-.512.136.822.822 0 00-.34.254.618.618 0 00-.121.391c0 .226.082.4.246.519.167.117.378.176.633.176zm6.404 1.133c-.455 0-.868-.117-1.238-.352-.367-.237-.659-.584-.875-1.043-.213-.461-.32-1.026-.32-1.695 0-.687.11-1.259.332-1.715.221-.458.515-.801.883-1.027a2.26 2.26 0 011.214-.344c.336 0 .616.057.84.172.227.112.409.253.547.422.141.167.248.331.32.492h.051v-3.008h1.66v8h-1.64v-.961h-.071a2.108 2.108 0 01-.332.496c-.14.162-.324.296-.55.403-.224.107-.498.16-.821.16zm.528-1.324c.268 0 .494-.073.679-.219a1.39 1.39 0 00.43-.621c.102-.266.152-.577.152-.934 0-.357-.049-.666-.148-.929a1.332 1.332 0 00-.43-.61 1.092 1.092 0 00-.683-.215c-.274 0-.504.075-.692.223a1.368 1.368 0 00-.426.617 2.661 2.661 0 00-.144.914c0 .349.048.658.144.926.099.266.241.474.426.625.188.148.418.223.692.223zm6.989 1.343c-.617 0-1.148-.125-1.594-.375a2.557 2.557 0 01-1.023-1.07c-.24-.463-.36-1.012-.36-1.644 0-.618.12-1.159.36-1.625a2.65 2.65 0 011.011-1.09c.438-.261.951-.391 1.54-.391.395 0 .764.064 1.105.192.344.125.643.313.898.566.258.253.459.57.602.953.143.38.215.826.215 1.336v.457h-5.067v-1.031h3.5c0-.24-.052-.452-.156-.637a1.129 1.129 0 00-.433-.434 1.248 1.248 0 00-.637-.16 1.28 1.28 0 00-.672.176c-.193.115-.344.27-.453.465a1.32 1.32 0 00-.168.644v.981c0 .297.055.553.164.769.112.217.27.383.473.5.203.118.444.176.722.176.185 0 .354-.026.508-.078.154-.052.285-.13.395-.234.109-.104.192-.232.25-.383l1.539.101c-.078.37-.239.693-.481.969a2.406 2.406 0 01-.929.641c-.378.151-.814.226-1.309.226zm8.832-4.406l-1.523.094a.804.804 0 00-.168-.352.91.91 0 00-.34-.254 1.158 1.158 0 00-.496-.097c-.258 0-.476.054-.653.164-.177.107-.265.25-.265.43 0 .143.057.264.172.363.114.099.311.178.589.238l1.086.219c.584.12 1.019.312 1.305.578.286.266.43.615.43 1.047 0 .393-.116.738-.348 1.035a2.247 2.247 0 01-.945.695c-.399.164-.858.246-1.379.246-.794 0-1.427-.165-1.899-.496a1.934 1.934 0 01-.824-1.359l1.637-.086a.841.841 0 00.359.555c.19.125.434.187.731.187.291 0 .526-.056.703-.168.18-.114.271-.261.273-.441a.457.457 0 00-.191-.371c-.125-.099-.318-.175-.578-.227l-1.039-.207c-.586-.117-1.022-.32-1.309-.609-.284-.289-.426-.658-.426-1.106 0-.385.104-.717.313-.996.211-.278.506-.493.887-.644.382-.151.83-.227 1.343-.227.758 0 1.354.16 1.789.481.438.32.693.756.766 1.308zm2.849.82v3.469h-1.664v-8h1.617v3.059h.07c.135-.354.354-.632.656-.832.302-.203.681-.305 1.137-.305.417 0 .78.091 1.09.274.312.179.555.438.726.777.175.336.261.738.258 1.207v3.82h-1.664v-3.523c.003-.37-.091-.658-.281-.863-.188-.206-.451-.309-.789-.309a1.23 1.23 0 00-.602.144 1.027 1.027 0 00-.406.422 1.429 1.429 0 00-.148.66zm12.117-2.23a.987.987 0 00-.403-.734c-.237-.175-.558-.262-.964-.262-.276 0-.51.039-.7.117a.98.98 0 00-.437.317.76.76 0 00-.149.46.658.658 0 00.09.375c.068.107.16.2.278.278.117.075.252.142.406.199.154.055.318.102.492.141l.719.172c.349.078.669.182.961.312.291.13.544.29.758.48.213.191.378.415.496.672.119.258.181.554.183.887-.002.49-.127.914-.375 1.274-.245.356-.599.634-1.062.832-.461.195-1.017.293-1.668.293-.646 0-1.209-.099-1.688-.297a2.474 2.474 0 01-1.117-.879c-.266-.391-.405-.874-.418-1.449h1.637c.018.268.095.492.23.671.138.177.322.312.551.403.232.088.494.133.785.133.287 0 .535-.042.746-.125.214-.084.379-.2.496-.348a.8.8 0 00.176-.512.662.662 0 00-.16-.453 1.207 1.207 0 00-.461-.312 4.611 4.611 0 00-.738-.235l-.871-.219c-.675-.164-1.207-.42-1.598-.769-.391-.349-.585-.819-.582-1.41a2.09 2.09 0 01.387-1.27 2.602 2.602 0 011.082-.847c.458-.204.979-.305 1.562-.305.594 0 1.112.101 1.555.305.445.203.792.485 1.039.847.247.362.375.781.383 1.258h-1.621zm6.028-.301v1.25h-3.613v-1.25h3.613zm-2.793-1.437h1.664v5.593c0 .154.024.274.071.36a.383.383 0 00.195.176c.086.034.185.05.297.05.078 0 .156-.006.234-.019l.18-.035.261 1.238c-.083.026-.2.056-.351.09a2.876 2.876 0 01-.551.066 2.517 2.517 0 01-1.055-.16 1.471 1.471 0 01-.699-.57c-.166-.258-.248-.584-.246-.977v-5.812zm5.588 7.551c-.383 0-.724-.067-1.023-.2a1.638 1.638 0 01-.711-.597c-.172-.266-.258-.597-.258-.993 0-.333.061-.613.183-.839.123-.227.29-.409.5-.547a2.45 2.45 0 01.719-.313c.271-.07.555-.12.852-.148.349-.037.63-.071.844-.102.213-.034.368-.083.464-.148a.326.326 0 00.145-.289v-.024c0-.247-.078-.438-.235-.574-.153-.135-.372-.203-.656-.203-.299 0-.538.066-.715.199a.913.913 0 00-.351.492l-1.539-.125c.078-.364.232-.679.461-.945.229-.268.524-.474.886-.617a3.392 3.392 0 011.266-.219c.333 0 .652.039.957.117.307.078.58.2.817.364.239.164.428.375.566.632.138.256.207.562.207.918v4.047h-1.578v-.832h-.047a1.67 1.67 0 01-.969.828 2.405 2.405 0 01-.785.118zm.477-1.149c.244 0 .461-.048.648-.144.188-.099.335-.232.441-.399.107-.167.161-.355.161-.566v-.637a.902.902 0 01-.215.094 3.802 3.802 0 01-.301.074c-.112.021-.224.04-.336.059l-.305.043a2.041 2.041 0 00-.511.136.822.822 0 00-.34.254.618.618 0 00-.121.391c0 .226.082.4.246.519.166.117.377.176.633.176zm5.857-2.434v3.469h-1.664v-6h1.586v1.059h.07c.133-.349.356-.625.668-.828.313-.206.692-.309 1.137-.309.417 0 .78.091 1.09.274.31.182.551.442.722.781.172.336.258.737.258 1.203v3.82h-1.664v-3.523c.003-.367-.091-.654-.281-.86-.19-.208-.452-.312-.785-.312-.224 0-.422.048-.594.144a1.01 1.01 0 00-.398.422 1.468 1.468 0 00-.145.66zm7.39 3.567c-.456 0-.869-.117-1.239-.352-.367-.237-.658-.584-.875-1.043-.213-.461-.32-1.026-.32-1.695 0-.687.111-1.259.332-1.715.221-.458.516-.801.883-1.027.37-.229.775-.344 1.215-.344.336 0 .616.057.84.172.226.112.408.253.546.422.141.167.248.331.321.492h.051v-3.008h1.66v8h-1.641v-.961h-.07a2.14 2.14 0 01-.332.496 1.648 1.648 0 01-.551.403c-.224.107-.497.16-.82.16zm.527-1.324c.268 0 .495-.073.68-.219.187-.149.33-.356.429-.621.102-.266.153-.577.153-.934 0-.357-.05-.666-.149-.929a1.338 1.338 0 00-.429-.61 1.097 1.097 0 00-.684-.215 1.08 1.08 0 00-.691.223c-.188.148-.33.354-.426.617a2.637 2.637 0 00-.145.914c0 .349.048.658.145.926.099.266.241.474.426.625.187.148.418.223.691.223zm5.966 1.34c-.383 0-.724-.067-1.024-.2a1.65 1.65 0 01-.711-.597c-.171-.266-.257-.597-.257-.993 0-.333.061-.613.183-.839.123-.227.289-.409.5-.547a2.45 2.45 0 01.719-.313c.271-.07.555-.12.852-.148.349-.037.63-.071.843-.102.214-.034.369-.083.465-.148a.328.328 0 00.145-.289v-.024c0-.247-.078-.438-.235-.574-.153-.135-.372-.203-.656-.203-.299 0-.538.066-.715.199a.913.913 0 00-.351.492l-1.539-.125c.078-.364.231-.679.461-.945.229-.268.524-.474.886-.617a3.392 3.392 0 011.266-.219c.333 0 .652.039.957.117.307.078.579.2.816.364.24.164.429.375.567.632.138.256.207.562.207.918v4.047h-1.578v-.832h-.047a1.703 1.703 0 01-.387.496 1.76 1.76 0 01-.582.332 2.409 2.409 0 01-.785.118zm.476-1.149c.245 0 .461-.048.649-.144.187-.099.334-.232.441-.399.107-.167.16-.355.16-.566v-.637a.892.892 0 01-.214.094 3.802 3.802 0 01-.301.074c-.112.021-.224.04-.336.059l-.305.043a2.061 2.061 0 00-.512.136.819.819 0 00-.339.254.619.619 0 00-.122.391c0 .226.083.4.247.519.166.117.377.176.632.176zm4.194 1.035v-6h1.613v1.047h.063c.109-.372.293-.654.55-.844.258-.192.555-.289.891-.289a2.626 2.626 0 01.523.059v1.476a2.945 2.945 0 00-.703-.089c-.245 0-.463.053-.656.16a1.18 1.18 0 00-.453.437 1.27 1.27 0 00-.164.649v3.394h-1.664zm6.432.098c-.455 0-.868-.117-1.238-.352-.367-.237-.659-.584-.875-1.043-.213-.461-.32-1.026-.32-1.695 0-.687.11-1.259.332-1.715.221-.458.515-.801.883-1.027a2.26 2.26 0 011.214-.344c.336 0 .616.057.84.172.227.112.409.253.547.422.141.167.248.331.32.492h.051v-3.008h1.66v8h-1.64v-.961h-.071a2.108 2.108 0 01-.332.496c-.14.162-.324.296-.55.403-.224.107-.498.16-.821.16zm.528-1.324c.268 0 .495-.073.679-.219a1.39 1.39 0 00.43-.621c.102-.266.152-.577.152-.934 0-.357-.049-.666-.148-.929a1.332 1.332 0 00-.43-.61 1.092 1.092 0 00-.683-.215c-.274 0-.504.075-.692.223a1.359 1.359 0 00-.425.617 2.637 2.637 0 00-.145.914c0 .349.048.658.145.926.098.266.24.474.425.625.188.148.418.223.692.223zm6.527-5.379v-1.395h6.57v1.395h-2.449v6.605h-1.672v-6.605h-2.449zm7.621 6.605v-6h1.664v6h-1.664zm.836-6.773a.906.906 0 01-.637-.246.8.8 0 01-.261-.598c0-.229.087-.426.261-.59a.9.9 0 01.637-.25c.247 0 .458.084.633.25a.794.794 0 010 1.188.893.893 0 01-.633.246zm2.161 6.773v-6h1.586v1.059h.07c.125-.352.334-.629.625-.832.292-.203.641-.305 1.047-.305.412 0 .762.103 1.051.309.289.203.482.479.578.828h.063c.122-.344.344-.619.664-.824.323-.209.704-.313 1.144-.313.56 0 1.015.179 1.364.535.351.354.527.857.527 1.508v4.035h-1.66v-3.707c0-.333-.089-.583-.266-.75a.933.933 0 00-.664-.25c-.302 0-.538.097-.707.289-.169.19-.254.442-.254.754v3.664h-1.613v-3.742c0-.294-.085-.529-.254-.703-.167-.175-.387-.262-.66-.262a.914.914 0 00-.5.141.964.964 0 00-.348.387 1.226 1.226 0 00-.129.578v3.601h-1.664zm12.768.117c-.617 0-1.149-.125-1.594-.375a2.557 2.557 0 01-1.023-1.07c-.24-.463-.36-1.012-.36-1.644 0-.618.12-1.159.36-1.625.239-.467.576-.83 1.011-1.09.438-.261.951-.391 1.539-.391.396 0 .765.064 1.106.192.344.125.643.313.898.566.258.253.459.57.602.953.143.38.215.826.215 1.336v.457h-5.067v-1.031h3.5c0-.24-.052-.452-.156-.637a1.124 1.124 0 00-.434-.434 1.241 1.241 0 00-.636-.16 1.28 1.28 0 00-.672.176c-.193.115-.344.27-.453.465-.11.193-.166.407-.168.644v.981c0 .297.054.553.164.769.112.217.269.383.472.5.204.118.444.176.723.176.185 0 .354-.026.508-.078a1.008 1.008 0 00.644-.617l1.54.101c-.079.37-.239.693-.481.969a2.41 2.41 0 01-.93.641c-.377.151-.813.226-1.308.226zm6.644-3.324c0 .972-.13 1.865-.39 2.68a7.337 7.337 0 01-1.188 2.266h-1.59c.203-.258.392-.573.567-.946a8.64 8.64 0 00.457-1.219c.13-.442.232-.901.304-1.375.073-.473.11-.942.11-1.406 0-.617-.064-1.239-.192-1.867a9.52 9.52 0 00-.515-1.75c-.216-.539-.46-.98-.731-1.324h1.59a7.32 7.32 0 011.188 2.265c.26.816.39 1.707.39 2.676z" fill="#6A6A6A"/><path d="M311.494 509.118v-1.662l3.883-3.596c.33-.319.607-.607.831-.863.227-.255.399-.506.516-.751.118-.248.176-.516.176-.804 0-.32-.073-.595-.218-.826a1.445 1.445 0 00-.597-.538 1.867 1.867 0 00-.857-.192c-.334 0-.625.068-.874.203s-.44.328-.575.581a1.88 1.88 0 00-.203.9h-2.189c0-.714.162-1.334.485-1.859a3.238 3.238 0 011.358-1.22c.583-.288 1.254-.432 2.014-.432.781 0 1.461.139 2.04.416.582.273 1.035.653 1.358 1.14.323.486.485 1.044.485 1.672 0 .412-.082.819-.245 1.22-.16.402-.446.847-.858 1.337-.412.487-.992 1.071-1.742 1.753l-1.592 1.56v.075h4.581v1.886h-7.777zm13.48.149c-.795 0-1.504-.137-2.125-.41-.618-.277-1.106-.657-1.465-1.14a2.87 2.87 0 01-.549-1.683h2.323c.014.266.101.5.261.703.163.199.38.353.65.463.27.11.573.165.91.165.352 0 .663-.062.933-.186.27-.125.481-.297.634-.517.152-.22.229-.474.229-.762 0-.291-.082-.548-.245-.772a1.572 1.572 0 00-.693-.533c-.298-.128-.653-.191-1.065-.191h-1.018v-1.694h1.018c.348 0 .655-.061.921-.181.27-.121.48-.288.629-.501.149-.217.224-.469.224-.757 0-.273-.066-.513-.198-.719a1.294 1.294 0 00-.543-.49 1.77 1.77 0 00-.81-.176c-.312 0-.598.057-.857.171-.259.11-.467.268-.623.474-.157.206-.24.447-.251.724h-2.21c.01-.628.19-1.182.538-1.661.348-.48.816-.855 1.406-1.124.593-.274 1.262-.411 2.008-.411.753 0 1.412.137 1.976.411.565.273 1.004.642 1.316 1.108.316.461.472.98.469 1.555.003.611-.187 1.12-.57 1.529-.38.408-.876.667-1.486.777v.086c.802.103 1.413.381 1.832.836.423.451.632 1.016.629 1.694a2.666 2.666 0 01-.538 1.656c-.359.483-.854.863-1.487 1.14-.632.277-1.356.416-2.173.416zm7.203-1.417c-.351 0-.653-.124-.905-.373a1.231 1.231 0 01-.373-.905c0-.349.124-.647.373-.895.252-.249.554-.373.905-.373.341 0 .639.124.895.373a1.2 1.2 0 01.384.895c0 .234-.061.449-.181.644a1.38 1.38 0 01-.464.463 1.218 1.218 0 01-.634.171zm0-5.353c-.351 0-.653-.125-.905-.373a1.233 1.233 0 01-.373-.906 1.2 1.2 0 01.373-.889c.252-.249.554-.373.905-.373.341 0 .639.124.895.373.256.245.384.541.384.889 0 .238-.061.455-.181.65a1.338 1.338 0 01-.464.458 1.218 1.218 0 01-.634.171zm7.398 6.86c-.917-.003-1.705-.229-2.365-.676-.657-.448-1.163-1.096-1.519-1.944-.351-.849-.525-1.87-.522-3.063 0-1.19.176-2.204.528-3.042.355-.838.861-1.475 1.518-1.912.66-.44 1.447-.661 2.36-.661.912 0 1.697.221 2.354.661.661.44 1.168 1.079 1.524 1.918.355.834.53 1.846.527 3.036 0 1.197-.178 2.219-.533 3.068-.351.849-.856 1.497-1.513 1.944-.657.448-1.443.671-2.359.671zm0-1.912c.625 0 1.124-.314 1.496-.943.373-.628.558-1.571.554-2.828 0-.828-.085-1.517-.255-2.067-.167-.55-.405-.964-.714-1.241a1.556 1.556 0 00-1.081-.416c-.622 0-1.119.311-1.492.933-.373.621-.561 1.551-.564 2.791 0 .838.083 1.537.25 2.099.17.557.41.976.719 1.257.309.277.671.415 1.087.415zm10.327 1.912c-.916-.003-1.705-.229-2.365-.676-.657-.448-1.163-1.096-1.518-1.944-.352-.849-.526-1.87-.522-3.063 0-1.19.175-2.204.527-3.042.355-.838.861-1.475 1.518-1.912.661-.44 1.447-.661 2.36-.661.912 0 1.697.221 2.354.661.661.44 1.169 1.079 1.524 1.918.355.834.531 1.846.527 3.036 0 1.197-.178 2.219-.533 3.068-.351.849-.855 1.497-1.512 1.944-.657.448-1.444.671-2.36.671zm0-1.912c.625 0 1.124-.314 1.497-.943.372-.628.557-1.571.554-2.828 0-.828-.086-1.517-.256-2.067-.167-.55-.405-.964-.714-1.241a1.556 1.556 0 00-1.081-.416c-.622 0-1.119.311-1.492.933-.373.621-.561 1.551-.564 2.791 0 .838.083 1.537.25 2.099.171.557.41.976.719 1.257.309.277.671.415 1.087.415zm9.585 1.673v-10.909h4.304c.828 0 1.533.158 2.115.474a3.211 3.211 0 011.332 1.305c.309.554.463 1.193.463 1.917 0 .725-.156 1.364-.469 1.918a3.229 3.229 0 01-1.358 1.294c-.59.309-1.303.464-2.141.464h-2.744v-1.849h2.371c.444 0 .809-.076 1.097-.229a1.52 1.52 0 00.65-.644c.145-.277.218-.595.218-.954 0-.362-.073-.678-.218-.948a1.461 1.461 0 00-.65-.634c-.291-.152-.66-.229-1.108-.229h-1.555v9.024h-2.307zm9.712-10.909h2.845l3.004 7.329h.128l3.004-7.329h2.844v10.909h-2.237v-7.101h-.09l-2.824 7.047h-1.523l-2.823-7.073h-.091v7.127h-2.237v-10.909z" fill="#2D2A21"/><path fill="#DFDFDF" d="M295.115 517.934h240.382v.868H295.115z"/><path d="M311.305 534.917v-8h3.203c.588 0 1.079.088 1.472.262.394.175.689.417.887.727.198.307.297.661.297 1.062 0 .313-.062.588-.187.824a1.614 1.614 0 01-.516.579 2.115 2.115 0 01-.742.316v.078a1.829 1.829 0 011.508.926c.166.284.25.622.25 1.016 0 .424-.106.803-.317 1.136-.208.331-.517.593-.926.785-.408.193-.912.289-1.511.289h-3.418zm1.691-1.382h1.379c.471 0 .815-.09 1.031-.27a.902.902 0 00.324-.726 1.07 1.07 0 00-.16-.586 1.083 1.083 0 00-.457-.399 1.568 1.568 0 00-.699-.144h-1.418v2.125zm0-3.27h1.254c.232 0 .438-.04.617-.121.182-.083.326-.2.43-.352a.913.913 0 00.16-.542.877.877 0 00-.309-.7c-.203-.177-.492-.265-.867-.265h-1.285v1.98zm9.921-1.047a.986.986 0 00-.402-.734c-.237-.175-.559-.262-.965-.262-.276 0-.509.039-.699.117a.983.983 0 00-.438.317.76.76 0 00-.148.461.653.653 0 00.089.375.953.953 0 00.278.277c.117.076.252.142.406.199.154.055.318.102.492.141l.719.172c.349.078.669.182.961.312.292.13.544.291.758.481.213.19.379.414.496.672.12.257.181.553.183.886-.002.49-.127.914-.375 1.274-.244.357-.598.634-1.062.832-.461.195-1.017.293-1.668.293-.646 0-1.208-.099-1.688-.297a2.479 2.479 0 01-1.117-.879c-.265-.391-.405-.874-.418-1.449h1.637c.018.268.095.492.231.672.138.177.321.311.55.402.232.089.494.133.785.133.287 0 .536-.042.747-.125.213-.084.378-.199.496-.348a.803.803 0 00.175-.512.666.666 0 00-.16-.453 1.219 1.219 0 00-.461-.312 4.715 4.715 0 00-.738-.235l-.871-.218c-.675-.164-1.207-.421-1.598-.77-.39-.349-.584-.819-.582-1.41a2.106 2.106 0 01.387-1.27 2.608 2.608 0 011.082-.847c.458-.203.979-.305 1.563-.305.593 0 1.112.102 1.554.305a2.45 2.45 0 011.039.847c.248.362.375.782.383 1.258h-1.621zm2.563-.906v-1.395h6.571v1.395h-2.449v6.605h-1.672v-6.605h-2.45zm10.535 2.605c0-.968.129-1.86.386-2.675a7.401 7.401 0 011.192-2.266h1.59a4.848 4.848 0 00-.567.945c-.174.37-.327.776-.457 1.219-.13.443-.232.901-.305 1.375a9.276 9.276 0 00.079 3.274c.127.627.299 1.211.515 1.75.219.539.464.98.735 1.324h-1.59a7.413 7.413 0 01-1.192-2.266c-.257-.815-.386-1.708-.386-2.68zm4.165 4v-8h3.203c.588 0 1.079.088 1.472.262.394.175.689.417.887.727.198.307.297.661.297 1.062 0 .313-.062.588-.187.824a1.614 1.614 0 01-.516.579 2.115 2.115 0 01-.742.316v.078a1.829 1.829 0 011.508.926c.166.284.25.622.25 1.016 0 .424-.106.803-.317 1.136-.208.331-.517.593-.926.785-.408.193-.912.289-1.511.289h-3.418zm1.691-1.382h1.379c.471 0 .815-.09 1.031-.27a.902.902 0 00.324-.726 1.07 1.07 0 00-.16-.586 1.083 1.083 0 00-.457-.399 1.568 1.568 0 00-.699-.144h-1.418v2.125zm0-3.27h1.254c.232 0 .438-.04.617-.121.182-.083.326-.2.43-.352a.913.913 0 00.16-.542.877.877 0 00-.309-.7c-.203-.177-.492-.265-.867-.265h-1.285v1.98zm8.261 4.77c-.607 0-1.132-.129-1.574-.387-.44-.26-.78-.622-1.02-1.086-.239-.466-.359-1.006-.359-1.621 0-.62.12-1.162.359-1.625.24-.466.58-.828 1.02-1.086.442-.26.967-.391 1.574-.391.607 0 1.13.131 1.57.391.443.258.784.62 1.024 1.086.239.463.359 1.005.359 1.625 0 .615-.12 1.155-.359 1.621-.24.464-.581.826-1.024 1.086-.44.258-.963.387-1.57.387zm.008-1.289c.276 0 .506-.079.691-.235.185-.159.324-.375.418-.648.096-.274.145-.585.145-.934 0-.349-.049-.66-.145-.933a1.454 1.454 0 00-.418-.649 1.022 1.022 0 00-.691-.238c-.279 0-.513.079-.703.238-.188.159-.33.375-.426.649a2.858 2.858 0 00-.141.933c0 .349.047.66.141.934.096.273.238.489.426.648.19.156.424.235.703.235zm7.875-1.383v-3.446h1.664v6h-1.598v-1.089h-.062a1.775 1.775 0 01-.676.847c-.313.214-.694.321-1.145.321-.401 0-.754-.092-1.058-.274a1.876 1.876 0 01-.715-.777c-.169-.336-.255-.738-.258-1.207v-3.821h1.664v3.524c.003.354.098.634.285.84.188.205.439.308.754.308a1.2 1.2 0 00.563-.136c.174-.094.315-.232.421-.414a1.27 1.27 0 00.161-.676zm5.698 4.929c-.539 0-1.001-.074-1.387-.222-.383-.146-.687-.345-.914-.598a1.831 1.831 0 01-.441-.851l1.539-.207c.047.119.121.231.222.336.102.104.236.187.403.25.169.065.375.097.617.097.362 0 .66-.088.894-.265.237-.175.356-.468.356-.879v-1.098h-.07a1.602 1.602 0 01-.328.473 1.669 1.669 0 01-.563.363 2.157 2.157 0 01-.82.141c-.451 0-.861-.105-1.231-.313-.367-.211-.66-.533-.879-.965-.216-.435-.324-.984-.324-1.648 0-.68.111-1.248.332-1.703.221-.456.516-.797.883-1.024.37-.226.775-.34 1.215-.34.336 0 .617.058.844.172.226.112.408.253.546.422.141.167.249.331.325.492h.062v-1.008h1.652v6.059c0 .51-.125.938-.375 1.281-.25.344-.596.602-1.039.774-.44.174-.946.261-1.519.261zm.035-3.71c.268 0 .495-.067.68-.2.187-.135.33-.328.429-.578.102-.252.153-.554.153-.906s-.05-.656-.149-.914a1.342 1.342 0 00-.429-.606 1.096 1.096 0 00-.684-.214 1.08 1.08 0 00-.691.222 1.33 1.33 0 00-.426.61c-.096.26-.145.561-.145.902 0 .346.049.646.145.898.099.25.241.444.426.582.187.136.418.204.691.204zm5.934 1.449c-.383 0-.724-.067-1.024-.199a1.658 1.658 0 01-.711-.598c-.172-.266-.258-.596-.258-.992 0-.334.062-.614.184-.84a1.48 1.48 0 01.5-.547 2.45 2.45 0 01.719-.313c.271-.07.554-.119.851-.148.349-.036.631-.07.844-.102.214-.033.369-.083.465-.148a.326.326 0 00.144-.289v-.023c0-.248-.078-.439-.234-.575-.154-.135-.372-.203-.656-.203-.3 0-.538.067-.715.199a.926.926 0 00-.352.493l-1.539-.125c.079-.365.232-.68.461-.946.229-.268.525-.474.887-.617a3.392 3.392 0 011.266-.219c.333 0 .652.039.957.118.307.078.579.199.816.363.24.164.428.375.567.633.138.255.207.561.207.918v4.046h-1.579v-.832h-.046a1.72 1.72 0 01-.387.497c-.162.14-.356.251-.582.332a2.41 2.41 0 01-.785.117zm.476-1.149c.245 0 .461-.048.649-.144.187-.099.334-.232.441-.399.107-.166.16-.355.16-.566v-.637a.884.884 0 01-.215.094 3.665 3.665 0 01-.3.074 13.13 13.13 0 01-.336.059l-.305.043a2.061 2.061 0 00-.512.136.83.83 0 00-.34.254.626.626 0 00-.121.391c0 .227.082.4.246.52.167.117.378.175.633.175zm4.194 1.035v-6h1.664v6h-1.664zm.836-6.773a.904.904 0 01-.637-.246.797.797 0 01-.262-.598c0-.229.087-.425.262-.59a.899.899 0 01.637-.25c.247 0 .458.084.632.25a.794.794 0 010 1.188.889.889 0 01-.632.246zm3.825 3.305v3.468h-1.664v-6h1.586v1.059h.07c.133-.349.355-.625.668-.828.312-.206.691-.309 1.137-.309.416 0 .78.092 1.089.274.31.182.551.443.723.781.172.336.258.737.258 1.203v3.82h-1.664v-3.523c.002-.367-.091-.654-.281-.859-.191-.209-.452-.313-.786-.313-.224 0-.421.048-.593.145-.17.096-.302.237-.399.422a1.449 1.449 0 00-.144.66zm10.557-2.532l-2.097 6h-1.875l-2.098-6h1.758l1.246 4.293h.062l1.243-4.293h1.761zm.852 6v-6h1.664v6h-1.664zm.836-6.773a.904.904 0 01-.637-.246.8.8 0 01-.262-.598c0-.229.088-.425.262-.59a.899.899 0 01.637-.25c.247 0 .458.084.633.25a.778.778 0 01.265.59.793.793 0 01-.265.598.893.893 0 01-.633.246zm3.825-1.227v8h-1.664v-8h1.664zm2.997 0v8h-1.664v-8h1.664zm4.067 8.118c-.617 0-1.148-.125-1.593-.375a2.574 2.574 0 01-1.024-1.071c-.239-.463-.359-1.011-.359-1.644 0-.617.12-1.159.359-1.625.24-.466.577-.83 1.012-1.09.437-.26.951-.391 1.539-.391.396 0 .764.064 1.106.192.343.125.643.314.898.566.258.253.458.57.602.953.143.381.214.826.214 1.336v.457h-5.066v-1.031h3.5c0-.24-.052-.452-.156-.637a1.115 1.115 0 00-.434-.433 1.233 1.233 0 00-.637-.16 1.28 1.28 0 00-.671.175c-.193.115-.344.27-.454.465a1.324 1.324 0 00-.168.645v.98c0 .297.055.554.164.77.112.216.27.383.473.5.203.117.444.175.723.175.185 0 .354-.026.508-.078a1.008 1.008 0 00.644-.617l1.539.102c-.078.37-.238.692-.48.968-.24.274-.55.487-.93.641a3.509 3.509 0 01-1.309.227zm10.757-5.817a.986.986 0 00-.402-.734c-.237-.175-.559-.262-.965-.262-.276 0-.509.039-.699.117a.989.989 0 00-.438.317.76.76 0 00-.148.461.662.662 0 00.09.375c.068.106.16.199.277.277.117.076.253.142.406.199.154.055.318.102.493.141l.718.172c.349.078.67.182.961.312.292.13.545.291.758.481.214.19.379.414.496.672.12.257.181.553.184.886-.003.49-.128.914-.375 1.274-.245.357-.599.634-1.063.832-.461.195-1.017.293-1.668.293-.646 0-1.208-.099-1.687-.297a2.468 2.468 0 01-1.117-.879c-.266-.391-.405-.874-.418-1.449h1.636c.019.268.095.492.231.672.138.177.321.311.551.402.231.089.493.133.785.133.286 0 .535-.042.746-.125.213-.084.379-.199.496-.348a.803.803 0 00.176-.512.67.67 0 00-.16-.453 1.227 1.227 0 00-.461-.312 4.765 4.765 0 00-.739-.235l-.871-.218c-.674-.164-1.207-.421-1.597-.77-.391-.349-.585-.819-.582-1.41a2.098 2.098 0 01.386-1.27 2.608 2.608 0 011.082-.847c.459-.203.979-.305 1.563-.305.594 0 1.112.102 1.555.305.445.203.791.485 1.039.847.247.362.375.782.382 1.258h-1.621zm6.029-.301v1.25h-3.614v-1.25h3.614zm-2.793-1.437h1.664v5.594c0 .153.023.273.07.359a.391.391 0 00.195.176.804.804 0 00.297.051c.078 0 .156-.007.235-.02l.179-.035.262 1.238a4.745 4.745 0 01-.352.09 2.78 2.78 0 01-.55.067c-.401.015-.753-.038-1.055-.161a1.462 1.462 0 01-.699-.57c-.167-.258-.249-.583-.246-.977v-5.812zm5.588 7.551c-.383 0-.724-.067-1.024-.199a1.658 1.658 0 01-.711-.598c-.172-.266-.258-.596-.258-.992 0-.334.062-.614.184-.84a1.48 1.48 0 01.5-.547c.211-.138.45-.242.719-.313.271-.07.554-.119.851-.148.349-.036.63-.07.844-.102.214-.033.368-.083.465-.148a.326.326 0 00.144-.289v-.023c0-.248-.078-.439-.234-.575-.154-.135-.372-.203-.656-.203-.3 0-.538.067-.715.199a.926.926 0 00-.352.493l-1.539-.125c.078-.365.232-.68.461-.946.229-.268.525-.474.887-.617a3.388 3.388 0 011.266-.219c.333 0 .652.039.957.118.307.078.579.199.816.363.24.164.428.375.566.633.138.255.207.561.207.918v4.046h-1.578v-.832h-.047a1.7 1.7 0 01-.386.497c-.162.14-.356.251-.582.332a2.414 2.414 0 01-.785.117zm.476-1.149c.245 0 .461-.048.649-.144.187-.099.334-.232.441-.399.107-.166.16-.355.16-.566v-.637a.902.902 0 01-.215.094 3.696 3.696 0 01-.301.074c-.112.021-.223.041-.335.059l-.305.043a2.061 2.061 0 00-.512.136.83.83 0 00-.34.254.626.626 0 00-.121.391c0 .227.082.4.246.52.167.117.378.175.633.175zm5.858-2.433v3.468h-1.665v-6h1.586v1.059h.071c.133-.349.355-.625.668-.828.312-.206.691-.309 1.136-.309.417 0 .78.092 1.09.274.31.182.551.443.723.781.172.336.258.737.258 1.203v3.82h-1.664v-3.523c.002-.367-.091-.654-.282-.859-.19-.209-.451-.313-.785-.313-.224 0-.422.048-.594.145a1.003 1.003 0 00-.398.422 1.449 1.449 0 00-.144.66zm7.389 3.566c-.456 0-.868-.117-1.238-.351-.367-.237-.659-.585-.875-1.043-.214-.461-.32-1.026-.32-1.696 0-.687.11-1.259.332-1.715.221-.458.515-.8.882-1.027.37-.229.775-.344 1.215-.344.336 0 .616.058.84.172.227.112.409.253.547.422.141.167.247.331.32.492h.051v-3.008h1.66v8h-1.64v-.96h-.071a2.16 2.16 0 01-.332.496c-.14.161-.324.295-.551.402-.223.107-.497.16-.82.16zm.528-1.324c.268 0 .494-.073.679-.219.188-.148.331-.355.43-.621.101-.266.152-.577.152-.934 0-.356-.049-.666-.148-.929a1.338 1.338 0 00-.43-.61 1.092 1.092 0 00-.683-.214c-.274 0-.504.074-.692.222a1.373 1.373 0 00-.426.617 2.661 2.661 0 00-.144.914c0 .349.048.658.144.926.099.266.241.474.426.625.188.149.418.223.692.223zm5.965 1.34c-.382 0-.724-.067-1.023-.199a1.647 1.647 0 01-.711-.598c-.172-.266-.258-.596-.258-.992 0-.334.061-.614.184-.84a1.48 1.48 0 01.5-.547c.211-.138.45-.242.718-.313.271-.07.555-.119.852-.148.349-.036.63-.07.844-.102.213-.033.368-.083.465-.148a.326.326 0 00.144-.289v-.023c0-.248-.078-.439-.234-.575-.154-.135-.373-.203-.656-.203-.3 0-.538.067-.715.199a.92.92 0 00-.352.493l-1.539-.125c.078-.365.232-.68.461-.946.229-.268.525-.474.887-.617a3.383 3.383 0 011.265-.219c.334 0 .653.039.957.118.308.078.58.199.817.363.239.164.428.375.566.633.138.255.207.561.207.918v4.046h-1.578v-.832h-.047a1.7 1.7 0 01-.386.497c-.162.14-.356.251-.583.332a2.406 2.406 0 01-.785.117zm.477-1.149a1.4 1.4 0 00.648-.144c.188-.099.335-.232.442-.399.107-.166.16-.355.16-.566v-.637a.902.902 0 01-.215.094 3.696 3.696 0 01-.301.074 13.13 13.13 0 01-.336.059l-.304.043a2.05 2.05 0 00-.512.136.83.83 0 00-.34.254.62.62 0 00-.121.391c0 .227.082.4.246.52.167.117.378.175.633.175zm4.193 1.035v-6h1.614v1.047h.062c.109-.372.293-.653.551-.843.258-.193.555-.289.89-.289.084 0 .174.005.27.015.096.011.181.025.254.043v1.477a2.957 2.957 0 00-.703-.09c-.245 0-.464.053-.656.16-.191.104-.342.25-.454.438a1.263 1.263 0 00-.164.648v3.394h-1.664zm6.433.098c-.456 0-.869-.117-1.238-.351-.368-.237-.659-.585-.875-1.043-.214-.461-.321-1.026-.321-1.696 0-.687.111-1.259.332-1.715.222-.458.516-.8.883-1.027.37-.229.775-.344 1.215-.344.336 0 .616.058.84.172.226.112.409.253.547.422.14.167.247.331.32.492h.051v-3.008h1.66v8h-1.641v-.96h-.07a2.16 2.16 0 01-.332.496 1.66 1.66 0 01-.551.402c-.224.107-.497.16-.82.16zm.527-1.324c.268 0 .495-.073.68-.219.187-.148.331-.355.43-.621.101-.266.152-.577.152-.934 0-.356-.05-.666-.148-.929a1.345 1.345 0 00-.43-.61 1.096 1.096 0 00-.684-.214 1.08 1.08 0 00-.691.222c-.188.149-.33.354-.426.617a2.661 2.661 0 00-.144.914c0 .349.048.658.144.926.099.266.241.474.426.625.187.149.418.223.691.223zm6.528-5.379v-1.395h6.57v1.395h-2.449v6.605h-1.672v-6.605h-2.449zm7.621 6.605v-6h1.664v6h-1.664zm.836-6.773a.904.904 0 01-.637-.246.797.797 0 01-.262-.598c0-.229.087-.425.262-.59a.899.899 0 01.637-.25c.247 0 .458.084.632.25a.794.794 0 010 1.188.889.889 0 01-.632.246zm2.161 6.773v-6h1.586v1.059h.07c.125-.351.333-.629.625-.832.292-.203.641-.305 1.047-.305.411 0 .762.103 1.051.309.289.203.481.479.578.828h.062a1.6 1.6 0 01.664-.824c.323-.208.705-.313 1.145-.313.56 0 1.014.179 1.363.536.352.354.527.856.527 1.507v4.035h-1.66v-3.707c0-.333-.088-.583-.265-.75a.935.935 0 00-.664-.25c-.302 0-.538.097-.707.29-.17.19-.254.441-.254.753v3.664h-1.614v-3.742c0-.294-.084-.528-.253-.703-.167-.174-.387-.262-.661-.262a.916.916 0 00-.5.141.969.969 0 00-.347.387 1.229 1.229 0 00-.129.578v3.601h-1.664zm12.767.118c-.617 0-1.148-.125-1.593-.375a2.574 2.574 0 01-1.024-1.071c-.239-.463-.359-1.011-.359-1.644 0-.617.12-1.159.359-1.625.24-.466.577-.83 1.012-1.09.437-.26.95-.391 1.539-.391.396 0 .764.064 1.105.192.344.125.644.314.899.566.258.253.458.57.601.953.144.381.215.826.215 1.336v.457h-5.066v-1.031h3.5c0-.24-.052-.452-.156-.637a1.122 1.122 0 00-.434-.433 1.235 1.235 0 00-.637-.16 1.248 1.248 0 00-1.125.64 1.324 1.324 0 00-.168.645v.98c0 .297.055.554.164.77.112.216.27.383.473.5.203.117.444.175.723.175.185 0 .354-.026.507-.078a1.05 1.05 0 00.395-.234 1.02 1.02 0 00.25-.383l1.539.102c-.078.37-.238.692-.48.968-.24.274-.55.487-.93.641a3.509 3.509 0 01-1.309.227zm6.645-3.325c0 .972-.13 1.865-.391 2.68a7.334 7.334 0 01-1.187 2.266h-1.59c.203-.258.392-.573.566-.946a8.55 8.55 0 00.457-1.218c.131-.443.232-.901.305-1.375a9.232 9.232 0 00-.082-3.274 9.543 9.543 0 00-.516-1.75c-.216-.539-.459-.98-.73-1.324h1.59a7.323 7.323 0 011.187 2.266c.261.815.391 1.707.391 2.675z" fill="#6A6A6A"/><path d="M316.24 545.441v10.909h-2.307v-8.72h-.064l-2.498 1.566v-2.046l2.701-1.709h2.168zm6.662 11.058c-.82 0-1.55-.133-2.189-.4-.636-.27-1.135-.637-1.497-1.102a2.51 2.51 0 01-.543-1.582c0-.455.103-.872.309-1.252.209-.384.493-.702.852-.954a2.82 2.82 0 011.204-.49v-.074a2.364 2.364 0 01-1.417-.847 2.438 2.438 0 01-.543-1.572c0-.564.165-1.067.495-1.507.33-.444.783-.792 1.358-1.044.579-.256 1.236-.384 1.971-.384.735 0 1.39.128 1.966.384.578.256 1.033.605 1.363 1.049.331.441.497.941.501 1.502a2.434 2.434 0 01-.554 1.572c-.366.447-.835.73-1.406.847v.074c.437.071.832.235 1.188.49.358.252.642.57.852.954a2.563 2.563 0 01-.224 2.834c-.362.465-.863.832-1.502 1.102-.636.267-1.364.4-2.184.4zm0-1.694c.366 0 .685-.066.959-.197.273-.135.486-.32.639-.554.156-.238.234-.512.234-.821 0-.316-.079-.594-.239-.836a1.648 1.648 0 00-.65-.575 2.02 2.02 0 00-.943-.213 2.04 2.04 0 00-.943.213c-.277.138-.495.33-.655.575-.156.242-.234.52-.234.836 0 .309.076.583.229.821.152.234.367.419.644.554.277.131.597.197.959.197zm0-4.874c.305 0 .577-.062.815-.187a1.4 1.4 0 00.559-.516c.135-.22.203-.474.203-.762a1.365 1.365 0 00-.757-1.252 1.725 1.725 0 00-.82-.186c-.309 0-.582.062-.82.186-.238.121-.425.29-.56.506a1.396 1.396 0 00-.197.746c0 .288.068.542.203.762a1.4 1.4 0 00.559.516c.238.125.51.187.815.187zm7.195 5.151c-.351 0-.653-.124-.905-.373a1.232 1.232 0 01-.373-.906c0-.348.124-.646.373-.894.252-.249.554-.373.905-.373.341 0 .639.124.895.373a1.2 1.2 0 01.384.894 1.2 1.2 0 01-.182.645 1.367 1.367 0 01-.463.463 1.218 1.218 0 01-.634.171zm0-5.353c-.351 0-.653-.125-.905-.373a1.233 1.233 0 01-.373-.906 1.2 1.2 0 01.373-.889c.252-.249.554-.373.905-.373.341 0 .639.124.895.373.256.245.384.541.384.889 0 .238-.061.455-.182.65a1.327 1.327 0 01-.463.458 1.218 1.218 0 01-.634.171zm7.398 6.86c-.917-.003-1.705-.229-2.365-.676-.657-.448-1.163-1.096-1.519-1.944-.351-.849-.525-1.87-.522-3.063 0-1.19.176-2.204.528-3.042.355-.838.861-1.475 1.518-1.912.66-.44 1.447-.661 2.36-.661.912 0 1.697.221 2.354.661.66.44 1.168 1.079 1.523 1.917.356.835.531 1.847.528 3.037 0 1.196-.178 2.219-.533 3.068-.351.849-.856 1.497-1.513 1.944-.657.448-1.443.671-2.359.671zm0-1.912c.625 0 1.124-.314 1.496-.943.373-.628.558-1.571.554-2.828 0-.828-.085-1.517-.255-2.067-.167-.55-.405-.964-.714-1.241a1.556 1.556 0 00-1.081-.416c-.622 0-1.119.311-1.492.933-.373.621-.561 1.551-.565 2.791 0 .838.084 1.537.251 2.098.17.558.41.977.719 1.258.309.277.671.415 1.087.415zm10.327 1.912c-.916-.003-1.705-.229-2.365-.676-.657-.448-1.163-1.096-1.518-1.944-.352-.849-.526-1.87-.522-3.063 0-1.19.175-2.204.527-3.042.355-.838.861-1.475 1.518-1.912.661-.44 1.447-.661 2.36-.661.912 0 1.697.221 2.354.661.661.44 1.168 1.079 1.524 1.917.355.835.53 1.847.527 3.037 0 1.196-.178 2.219-.533 3.068-.351.849-.856 1.497-1.513 1.944-.656.448-1.443.671-2.359.671zm0-1.912c.625 0 1.124-.314 1.497-.943.372-.628.557-1.571.554-2.828 0-.828-.086-1.517-.256-2.067-.167-.55-.405-.964-.714-1.241a1.556 1.556 0 00-1.081-.416c-.622 0-1.119.311-1.492.933-.373.621-.561 1.551-.564 2.791 0 .838.083 1.537.25 2.098.17.558.41.977.719 1.258.309.277.671.415 1.087.415zm11.465 1.673h-2.471l3.766-10.909h2.972l3.761 10.909h-2.472l-2.732-8.417h-.086l-2.738 8.417zm-.154-4.288h5.838v1.8h-5.838v-1.8zm9.495-6.621h2.844l3.005 7.329h.127l3.005-7.329h2.844v10.909h-2.237v-7.101h-.091l-2.823 7.047h-1.523l-2.823-7.074h-.091v7.128h-2.237v-10.909z" fill="#2D2A21"/><path fill="#DFDFDF" d="M295.115 565.663h240.382v.868H295.115z"/><path d="M311.305 582.657v-8h3.203c.588 0 1.079.087 1.472.262.394.174.689.417.887.727.198.307.297.661.297 1.062 0 .313-.062.587-.187.824a1.611 1.611 0 01-.516.578 2.116 2.116 0 01-.742.317v.078a1.829 1.829 0 011.508.926c.166.284.25.622.25 1.015 0 .425-.106.804-.317 1.137-.208.331-.517.592-.926.785-.408.193-.912.289-1.511.289h-3.418zm1.691-1.383h1.379c.471 0 .815-.089 1.031-.269a.904.904 0 00.324-.727c0-.221-.053-.416-.16-.586a1.081 1.081 0 00-.457-.398 1.568 1.568 0 00-.699-.145h-1.418v2.125zm0-3.269h1.254c.232 0 .438-.04.617-.121.182-.084.326-.201.43-.352a.914.914 0 00.16-.543.877.877 0 00-.309-.699c-.203-.177-.492-.266-.867-.266h-1.285v1.981zm9.921-1.047a.986.986 0 00-.402-.734c-.237-.175-.559-.262-.965-.262-.276 0-.509.039-.699.117a.983.983 0 00-.438.317.76.76 0 00-.148.46.65.65 0 00.089.375c.068.107.161.2.278.278.117.075.252.142.406.199.154.055.318.102.492.141l.719.172c.349.078.669.182.961.312.292.13.544.29.758.48a2.019 2.019 0 01.679 1.559c-.002.49-.127.914-.375 1.274-.244.356-.598.634-1.062.832-.461.195-1.017.293-1.668.293-.646 0-1.208-.099-1.688-.297a2.479 2.479 0 01-1.117-.879c-.265-.391-.405-.874-.418-1.449h1.637c.018.268.095.492.231.671.138.177.321.312.55.403.232.088.494.133.785.133.287 0 .536-.042.747-.125.213-.084.378-.2.496-.348a.804.804 0 00.175-.512.662.662 0 00-.16-.453 1.207 1.207 0 00-.461-.312 4.611 4.611 0 00-.738-.235l-.871-.219c-.675-.164-1.207-.42-1.598-.769-.39-.349-.584-.819-.582-1.41a2.104 2.104 0 01.387-1.27 2.608 2.608 0 011.082-.847c.458-.204.979-.305 1.563-.305.593 0 1.112.101 1.554.305a2.45 2.45 0 011.039.847c.248.362.375.781.383 1.258h-1.621zm2.563-.906v-1.395h6.571v1.395h-2.449v6.605h-1.672v-6.605h-2.45zm10.535 2.605c0-.969.129-1.86.386-2.676a7.396 7.396 0 011.192-2.265h1.59a4.848 4.848 0 00-.567.945c-.174.37-.327.776-.457 1.219-.13.443-.232.901-.305 1.375a9.276 9.276 0 00.079 3.273c.127.628.299 1.211.515 1.75.219.539.464.981.735 1.325h-1.59a7.413 7.413 0 01-1.192-2.266c-.257-.815-.386-1.708-.386-2.68zm4.165 4v-8h3.203c.588 0 1.079.087 1.472.262.394.174.689.417.887.727.198.307.297.661.297 1.062 0 .313-.062.587-.187.824a1.611 1.611 0 01-.516.578 2.116 2.116 0 01-.742.317v.078a1.829 1.829 0 011.508.926c.166.284.25.622.25 1.015 0 .425-.106.804-.317 1.137-.208.331-.517.592-.926.785-.408.193-.912.289-1.511.289h-3.418zm1.691-1.383h1.379c.471 0 .815-.089 1.031-.269a.904.904 0 00.324-.727c0-.221-.053-.416-.16-.586a1.081 1.081 0 00-.457-.398 1.568 1.568 0 00-.699-.145h-1.418v2.125zm0-3.269h1.254c.232 0 .438-.04.617-.121.182-.084.326-.201.43-.352a.914.914 0 00.16-.543.877.877 0 00-.309-.699c-.203-.177-.492-.266-.867-.266h-1.285v1.981zm5.55 4.652v-6h1.613v1.047h.063c.109-.372.293-.654.55-.844.258-.192.555-.289.891-.289a2.4 2.4 0 01.524.059v1.476a2.945 2.945 0 00-.704-.089 1.33 1.33 0 00-.656.16 1.18 1.18 0 00-.453.437 1.27 1.27 0 00-.164.649v3.394h-1.664zm4.501 0v-6h1.664v6h-1.664zm.836-6.773a.904.904 0 01-.637-.246.8.8 0 01-.262-.598c0-.229.088-.426.262-.59a.899.899 0 01.637-.25c.247 0 .458.084.633.25a.776.776 0 01.265.59.793.793 0 01-.265.598.893.893 0 01-.633.246zm5.352.773v1.25h-3.613v-1.25h3.613zm-2.793-1.437h1.664v5.593c0 .154.024.274.071.36a.391.391 0 00.195.176c.086.033.185.05.297.05.078 0 .156-.006.234-.019l.18-.035.262 1.238a4.881 4.881 0 01-.352.09 2.866 2.866 0 01-.551.066 2.525 2.525 0 01-1.054-.16 1.47 1.47 0 01-.7-.57c-.166-.258-.248-.584-.246-.977v-5.812zm3.877 7.437v-6h1.664v6h-1.664zm.836-6.773a.903.903 0 01-.636-.246.797.797 0 01-.262-.598.78.78 0 01.262-.59.898.898 0 01.636-.25c.248 0 .459.084.633.25a.794.794 0 010 1.188.89.89 0 01-.633.246zm7.154 2.484l-1.524.094a.793.793 0 00-.168-.352.903.903 0 00-.34-.254 1.155 1.155 0 00-.496-.097c-.258 0-.475.054-.652.164-.177.107-.266.25-.266.43 0 .143.058.264.172.363.115.099.311.178.59.238l1.086.219c.583.12 1.018.312 1.305.578.286.266.429.615.429 1.047 0 .393-.116.738-.347 1.035-.23.297-.545.529-.946.695-.398.164-.858.246-1.379.246-.794 0-1.427-.165-1.898-.496a1.931 1.931 0 01-.824-1.359l1.636-.086c.05.242.17.427.36.555.19.125.433.187.73.187.292 0 .526-.056.703-.168.18-.114.271-.261.274-.441a.46.46 0 00-.191-.371c-.125-.099-.318-.175-.579-.227l-1.039-.207c-.586-.117-1.022-.32-1.308-.609-.284-.289-.426-.658-.426-1.106 0-.385.104-.717.312-.996.211-.278.507-.493.887-.644.383-.151.831-.227 1.344-.227.758 0 1.354.16 1.789.481.437.32.693.756.766 1.308zm2.848.82v3.469h-1.664v-8h1.617v3.059h.071c.135-.354.354-.632.656-.832.302-.203.681-.305 1.137-.305.416 0 .78.091 1.089.274.313.179.555.438.727.777.175.336.26.738.258 1.207v3.82h-1.664v-3.523c.002-.37-.091-.658-.281-.863-.188-.206-.451-.309-.79-.309-.226 0-.427.048-.601.144a1.027 1.027 0 00-.406.422 1.429 1.429 0 00-.149.66zm12.117-2.23a.986.986 0 00-.402-.734c-.237-.175-.559-.262-.965-.262-.276 0-.509.039-.699.117a.98.98 0 00-.437.317.76.76 0 00-.149.46.658.658 0 00.09.375c.068.107.16.2.277.278.117.075.253.142.407.199.153.055.317.102.492.141l.718.172c.349.078.67.182.961.312.292.13.545.29.758.48.214.191.379.415.496.672.12.258.181.554.184.887-.003.49-.128.914-.375 1.274-.245.356-.599.634-1.063.832-.461.195-1.017.293-1.668.293-.645 0-1.208-.099-1.687-.297a2.468 2.468 0 01-1.117-.879c-.266-.391-.405-.874-.418-1.449h1.636c.019.268.096.492.231.671.138.177.322.312.551.403.231.088.493.133.785.133.286 0 .535-.042.746-.125.214-.084.379-.2.496-.348a.805.805 0 00.176-.512.667.667 0 00-.16-.453 1.207 1.207 0 00-.461-.312 4.66 4.66 0 00-.739-.235l-.871-.219c-.674-.164-1.207-.42-1.597-.769-.391-.349-.585-.819-.582-1.41a2.096 2.096 0 01.386-1.27 2.608 2.608 0 011.082-.847c.459-.204.98-.305 1.563-.305.594 0 1.112.101 1.555.305.445.203.791.485 1.039.847.247.362.375.781.383 1.258h-1.622zm6.029-.301v1.25h-3.614v-1.25h3.614zm-2.793-1.437h1.664v5.593a.76.76 0 00.07.36.391.391 0 00.195.176c.086.033.185.05.297.05.078 0 .157-.006.235-.019l.179-.035.262 1.238c-.083.026-.2.056-.351.09a2.876 2.876 0 01-.551.066 2.53 2.53 0 01-1.055-.16 1.471 1.471 0 01-.699-.57c-.167-.258-.249-.584-.246-.977v-5.812zm5.588 7.551c-.383 0-.724-.067-1.024-.2a1.65 1.65 0 01-.711-.597c-.172-.266-.258-.597-.258-.993 0-.333.062-.613.184-.839a1.48 1.48 0 01.5-.547 2.45 2.45 0 01.719-.313c.271-.07.555-.12.851-.148.349-.037.631-.071.844-.102.214-.034.369-.083.465-.148a.328.328 0 00.145-.289v-.024c0-.247-.079-.439-.235-.574-.154-.135-.372-.203-.656-.203-.3 0-.538.066-.715.199a.92.92 0 00-.352.492l-1.539-.125c.079-.364.232-.679.461-.945.23-.268.525-.474.887-.617a3.392 3.392 0 011.266-.219c.333 0 .652.039.957.117.307.078.579.2.816.364.24.164.429.375.567.632.138.256.207.562.207.918v4.047h-1.579v-.832h-.046a1.703 1.703 0 01-.387.496 1.781 1.781 0 01-.582.332 2.409 2.409 0 01-.785.118zm.476-1.149c.245 0 .461-.048.649-.144.187-.099.334-.232.441-.399.107-.167.16-.355.16-.566v-.637a.884.884 0 01-.215.094 3.665 3.665 0 01-.3.074c-.112.021-.224.04-.336.059-.112.015-.214.029-.305.043a2.061 2.061 0 00-.512.136.822.822 0 00-.34.254.624.624 0 00-.121.391c0 .226.082.399.246.519.167.117.378.176.633.176zm5.858-2.434v3.469h-1.664v-6h1.586v1.059h.07c.133-.349.355-.625.668-.828.312-.206.691-.309 1.137-.309.416 0 .779.091 1.089.274.31.182.551.442.723.781.172.336.258.737.258 1.203v3.82h-1.664v-3.523c.002-.367-.091-.654-.281-.86-.191-.208-.452-.312-.786-.312-.224 0-.422.048-.593.144-.17.097-.302.237-.399.422a1.455 1.455 0 00-.144.66zm7.389 3.567c-.455 0-.868-.117-1.238-.352-.367-.237-.659-.584-.875-1.043-.214-.461-.32-1.026-.32-1.695 0-.687.11-1.259.332-1.715.221-.458.515-.801.883-1.027a2.26 2.26 0 011.214-.344c.336 0 .616.057.84.172.227.112.409.253.547.422.141.167.247.331.32.492h.051v-3.008h1.66v8h-1.64v-.961h-.071a2.108 2.108 0 01-.332.496c-.14.162-.324.296-.55.403a1.91 1.91 0 01-.821.16zm.528-1.324c.268 0 .494-.073.679-.219a1.39 1.39 0 00.43-.621c.102-.266.152-.577.152-.934 0-.357-.049-.666-.148-.929a1.332 1.332 0 00-.43-.61 1.092 1.092 0 00-.683-.215c-.274 0-.504.075-.692.223a1.368 1.368 0 00-.426.617 2.661 2.661 0 00-.144.914c0 .349.048.658.144.926.099.266.241.474.426.625.188.148.418.223.692.223zm5.965 1.34c-.382 0-.724-.067-1.023-.2a1.65 1.65 0 01-.711-.597c-.172-.266-.258-.597-.258-.993 0-.333.061-.613.184-.839a1.48 1.48 0 01.5-.547c.211-.138.45-.242.719-.313.27-.07.554-.12.851-.148.349-.037.63-.071.844-.102.213-.034.368-.083.465-.148a.327.327 0 00.144-.289v-.024c0-.247-.078-.439-.234-.574-.154-.135-.372-.203-.656-.203-.3 0-.538.066-.715.199a.92.92 0 00-.352.492l-1.539-.125c.078-.364.232-.679.461-.945.229-.268.525-.474.887-.617a3.383 3.383 0 011.265-.219c.334 0 .653.039.958.117.307.078.579.2.816.364.24.164.428.375.566.632.138.256.207.562.207.918v4.047h-1.578v-.832h-.047a1.683 1.683 0 01-.386.496 1.781 1.781 0 01-.582.332 2.415 2.415 0 01-.786.118zm.477-1.149a1.4 1.4 0 00.648-.144c.188-.099.335-.232.442-.399.107-.167.16-.355.16-.566v-.637a.902.902 0 01-.215.094 3.696 3.696 0 01-.301.074c-.112.021-.224.04-.336.059-.112.015-.213.029-.304.043a2.05 2.05 0 00-.512.136.822.822 0 00-.34.254.618.618 0 00-.121.391c0 .226.082.399.246.519.167.117.378.176.633.176zm4.193 1.035v-6h1.614v1.047h.062c.11-.372.293-.654.551-.844.258-.192.555-.289.891-.289a2.37 2.37 0 01.523.059v1.476a2.957 2.957 0 00-.703-.089c-.245 0-.464.053-.656.16-.19.104-.342.25-.453.437a1.26 1.26 0 00-.165.649v3.394h-1.664zm6.433.098a2.26 2.26 0 01-1.238-.352c-.367-.237-.659-.584-.875-1.043-.214-.461-.321-1.026-.321-1.695 0-.687.111-1.259.332-1.715.222-.458.516-.801.883-1.027.37-.229.775-.344 1.215-.344.336 0 .616.057.84.172.226.112.409.253.547.422.14.167.247.331.32.492h.051v-3.008h1.66v8h-1.641v-.961h-.07a2.14 2.14 0 01-.332.496 1.648 1.648 0 01-.551.403c-.224.106-.497.16-.82.16zm.527-1.324c.269 0 .495-.073.68-.219a1.39 1.39 0 00.43-.621c.101-.266.152-.577.152-.934 0-.357-.049-.666-.148-.929a1.34 1.34 0 00-.43-.61 1.095 1.095 0 00-.684-.215 1.08 1.08 0 00-.691.223 1.36 1.36 0 00-.426.617 2.661 2.661 0 00-.144.914c0 .349.048.658.144.926.099.266.241.474.426.625.187.148.418.223.691.223zm6.528-5.379v-1.395h6.57v1.395h-2.449v6.605h-1.672v-6.605h-2.449zm7.621 6.605v-6h1.664v6h-1.664zm.836-6.773a.904.904 0 01-.637-.246.8.8 0 01-.262-.598c0-.229.088-.426.262-.59a.899.899 0 01.637-.25c.247 0 .458.084.633.25a.776.776 0 01.265.59.793.793 0 01-.265.598.893.893 0 01-.633.246zm2.161 6.773v-6h1.586v1.059h.07a1.66 1.66 0 01.625-.832c.292-.203.641-.305 1.047-.305.411 0 .762.103 1.051.309.289.203.482.479.578.828h.062c.123-.344.344-.619.664-.824.323-.209.705-.313 1.145-.313.56 0 1.014.178 1.363.535.352.354.528.857.528 1.508v4.035h-1.661v-3.707c0-.333-.088-.583-.265-.75a.935.935 0 00-.664-.25c-.302 0-.538.097-.707.289-.17.19-.254.442-.254.754v3.664h-1.613v-3.742c0-.294-.085-.529-.254-.703-.167-.175-.387-.262-.661-.262a.918.918 0 00-.5.141.969.969 0 00-.347.387 1.226 1.226 0 00-.129.578v3.601h-1.664zm12.767.117c-.617 0-1.148-.125-1.593-.375a2.566 2.566 0 01-1.024-1.07c-.239-.463-.359-1.012-.359-1.644 0-.618.12-1.159.359-1.625.24-.467.577-.83 1.012-1.09.437-.261.95-.391 1.539-.391.396 0 .764.064 1.105.192.344.125.644.313.899.566.258.253.458.57.601.953.144.38.215.826.215 1.336v.457h-5.066v-1.031h3.5c0-.24-.052-.452-.156-.637a1.124 1.124 0 00-.434-.434 1.242 1.242 0 00-.637-.16 1.248 1.248 0 00-1.125.641 1.32 1.32 0 00-.168.644v.981c0 .297.055.553.164.769.112.217.27.383.473.5.203.118.444.176.723.176.185 0 .354-.026.508-.078a1.02 1.02 0 00.644-.617l1.539.101c-.078.37-.238.693-.48.969-.24.274-.55.487-.93.641-.378.151-.814.226-1.309.226zm6.645-3.324c0 .972-.13 1.865-.391 2.68a7.313 7.313 0 01-1.187 2.266h-1.59c.203-.258.392-.573.566-.946a8.52 8.52 0 00.457-1.219c.131-.442.232-.901.305-1.375a9.219 9.219 0 00-.082-3.273 9.52 9.52 0 00-.516-1.75c-.216-.539-.459-.98-.73-1.324h1.59c.534.695.93 1.45 1.187 2.265.261.816.391 1.707.391 2.676z" fill="#6A6A6A"/><path d="M311.328 602.172v-1.817l4.555-7.175h1.566v2.514h-.927l-2.871 4.544v.085h6.472v1.849h-8.795zm5.237 1.917v-2.471l.042-.805v-7.633h2.163v10.909h-2.205zm6.442-1.267c-.351 0-.653-.125-.905-.373a1.233 1.233 0 01-.373-.906c0-.348.124-.646.373-.895.252-.248.554-.373.905-.373.341 0 .639.125.895.373.256.249.384.547.384.895 0 .235-.061.449-.181.645a1.388 1.388 0 01-.464.463 1.218 1.218 0 01-.634.171zm0-5.354c-.351 0-.653-.124-.905-.373a1.23 1.23 0 01-.373-.905c0-.348.124-.645.373-.89.252-.248.554-.373.905-.373.341 0 .639.125.895.373.256.245.384.542.384.89 0 .238-.061.454-.181.65a1.347 1.347 0 01-.464.458c-.192.113-.403.17-.634.17zm7.398 6.861c-.916-.003-1.705-.229-2.365-.676-.657-.448-1.163-1.096-1.518-1.945-.352-.848-.526-1.869-.522-3.063 0-1.189.175-2.203.527-3.041.355-.838.861-1.476 1.518-1.912.661-.441 1.447-.661 2.36-.661.912 0 1.697.22 2.354.661.661.44 1.168 1.079 1.524 1.917.355.835.53 1.847.527 3.036 0 1.197-.178 2.22-.533 3.069-.351.848-.856 1.496-1.513 1.944-.656.447-1.443.671-2.359.671zm0-1.912c.625 0 1.124-.315 1.497-.943.372-.629.557-1.571.554-2.829 0-.827-.086-1.516-.256-2.066-.167-.551-.405-.964-.714-1.241a1.556 1.556 0 00-1.081-.416c-.622 0-1.119.311-1.492.932-.373.622-.561 1.552-.564 2.791 0 .839.083 1.538.25 2.099.17.558.41.977.719 1.257.309.277.671.416 1.087.416zm10.327 1.912c-.916-.003-1.705-.229-2.365-.676-.657-.448-1.163-1.096-1.518-1.945-.352-.848-.526-1.869-.522-3.063 0-1.189.175-2.203.527-3.041.355-.838.861-1.476 1.518-1.912.661-.441 1.447-.661 2.36-.661.913 0 1.697.22 2.354.661.661.44 1.169 1.079 1.524 1.917.355.835.531 1.847.527 3.036 0 1.197-.177 2.22-.533 3.069-.351.848-.855 1.496-1.512 1.944-.657.447-1.444.671-2.36.671zm0-1.912c.625 0 1.124-.315 1.497-.943.373-.629.557-1.571.554-2.829 0-.827-.086-1.516-.256-2.066-.167-.551-.405-.964-.714-1.241a1.556 1.556 0 00-1.081-.416c-.622 0-1.119.311-1.492.932-.372.622-.561 1.552-.564 2.791 0 .839.083 1.538.25 2.099.171.558.41.977.719 1.257.309.277.671.416 1.087.416zm11.466 1.672h-2.472l3.766-10.909h2.972l3.761 10.909h-2.472l-2.732-8.416h-.085l-2.738 8.416zm-.155-4.288h5.838v1.801h-5.838v-1.801zm9.495-6.621h2.844l3.005 7.33h.128l3.004-7.33h2.844v10.909h-2.237v-7.1h-.09l-2.824 7.047h-1.523l-2.823-7.074h-.091v7.127h-2.237V593.18z" fill="#2D2A21"/><path fill="#DFDFDF" d="M295.115 611.731h240.382v.868H295.115z"/></g><rect x="311.565" y="450.565" width="85.871" height="22.871" rx="11.435" fill="#fff"/><path d="M324.551 452.825a9.177 9.177 0 00-6.488 15.663 9.168 9.168 0 004.698 2.511 9.17 9.17 0 008.275-15.484 9.186 9.186 0 00-6.485-2.69zm4.37 7.569l-5.176 4.94a.709.709 0 01-.976 0l-2.588-2.47a.707.707 0 01.976-1.022l2.1 2.005 4.688-4.475a.71.71 0 01.998.023.707.707 0 01-.022.999z" fill="#174EA6"/><path d="M338.922 457.354h1.841l2.466 6.018h.097l2.466-6.018h1.841v8.306h-1.443v-5.706h-.078l-2.295 5.681h-1.079l-2.295-5.694h-.077v5.719h-1.444v-8.306zm11.197 10.641c-.2 0-.385-.016-.555-.048a2.038 2.038 0 01-.402-.106l.341-1.143c.213.062.404.092.572.089a.703.703 0 00.442-.158c.129-.1.239-.268.328-.503l.126-.337-2.259-6.359h1.557l1.436 4.705h.065l1.439-4.705h1.562l-2.494 6.984c-.117.33-.271.612-.463.847-.192.238-.427.42-.705.544-.276.127-.606.19-.99.19zm8.2-9.38v-1.261h6.627v1.261h-2.567v7.045h-1.493v-7.045h-2.567zm7.839 7.045v-6.23h1.468v6.23h-1.468zm.738-7.114a.858.858 0 01-.6-.231.746.746 0 01-.251-.563c0-.222.084-.41.251-.564a.848.848 0 01.6-.235c.236 0 .436.078.601.235a.739.739 0 01.251.564.746.746 0 01-.251.563.848.848 0 01-.601.231zm2.24 7.114v-6.23h1.403v1.059h.073c.13-.357.345-.635.645-.835.3-.203.658-.305 1.075-.305.421 0 .777.103 1.066.309.292.202.498.479.617.831h.065c.137-.346.37-.622.697-.827.33-.209.721-.313 1.172-.313.573 0 1.041.182 1.403.544.363.362.544.891.544 1.585v4.182h-1.472v-3.954c0-.387-.103-.67-.309-.848a1.1 1.1 0 00-.754-.272c-.354 0-.631.111-.831.333-.198.219-.296.504-.296.856v3.885h-1.44v-4.015c0-.322-.097-.579-.292-.771-.192-.192-.443-.288-.754-.288-.211 0-.403.054-.576.162a1.138 1.138 0 00-.414.451 1.402 1.402 0 00-.154.673v3.788h-1.468zm13.007.121c-.625 0-1.164-.13-1.618-.389a2.64 2.64 0 01-1.043-1.111c-.243-.481-.365-1.048-.365-1.699 0-.641.122-1.204.365-1.688.246-.486.59-.865 1.03-1.135.441-.273.959-.41 1.554-.41.384 0 .746.063 1.086.187.344.122.647.311.909.568.265.257.473.584.624.981.152.395.228.865.228 1.411v.451h-5.106v-.99h3.698a1.57 1.57 0 00-.182-.75 1.322 1.322 0 00-.499-.523 1.404 1.404 0 00-.738-.191c-.3 0-.564.073-.791.219a1.509 1.509 0 00-.531.568 1.628 1.628 0 00-.191.766v.864c0 .362.066.673.199.933.132.257.318.454.556.592.237.135.516.203.835.203.214 0 .407-.03.58-.09.173-.062.323-.152.45-.271a1.14 1.14 0 00.288-.442l1.371.154a2.15 2.15 0 01-.495.949 2.414 2.414 0 01-.925.624 3.54 3.54 0 01-1.289.219z" fill="#2D2A21"/><rect x="311.565" y="450.565" width="85.871" height="22.871" rx="11.435" stroke="#E8D296" stroke-width="1.129"/></g><defs><filter id="filter0_d_1_118" x="214.834" y="308" width="516.166" height="419" filterUnits="userSpaceOnUse" color-interpolation-filters="sRGB"><feFlood flood-opacity="0" result="BackgroundImageFix"/><feColorMatrix in="SourceAlpha" values="0 0 0 0 0 0 0 0 0 0 0 0 0 0 0 0 0 0 127 0" result="hardAlpha"/><feOffset dx="12" dy="12"/><feComposite in2="hardAlpha" operator="out"/><feColorMatrix values="0 0 0 0 0 0 0 0 0 0 0 0 0 0 0 0 0 0 0.15 0"/><feBlend in2="BackgroundImageFix" result="effect1_dropShadow_1_118"/><feBlend in="SourceGraphic" in2="effect1_dropShadow_1_118" result="shape"/></filter><filter id="filter1_d_1_118" x="295" y="442" width="251.386" height="218.386" filterUnits="userSpaceOnUse" color-interpolation-filters="sRGB"><feFlood flood-opacity="0" result="BackgroundImageFix"/><feColorMatrix in="SourceAlpha" values="0 0 0 0 0 0 0 0 0 0 0 0 0 0 0 0 0 0 127 0" result="hardAlpha"/><feOffset dx="8" dy="8"/><feGaussianBlur stdDeviation="1.193"/><feComposite in2="hardAlpha" operator="out"/><feColorMatrix values="0 0 0 0 0 0 0 0 0 0 0 0 0 0 0 0 0 0 0.15 0"/><feBlend in2="BackgroundImageFix" result="effect1_dropShadow_1_118"/><feBlend in="SourceGraphic" in2="effect1_dropShadow_1_118" result="shape"/></filter><clipPath id="clip0_1_118"><path fill="#fff" d="M0 0h577v686H0z"/></clipPath></defs></svg>