<svg width="1920" height="3390" fill="none" xmlns="http://www.w3.org/2000/svg"><g clip-path="url(#clip0_1_649)"><path fill="#fff" d="M0 0h1920v3390H0z"/><path d="M2290.74 1961.98l-2923.605-525.35L2086.31 427.895l204.43 1534.085z" fill="url(#paint0_linear_1_649)"/><g opacity=".3" clip-path="url(#clip1_1_649)" filter="url(#filter0_f_1_649)"><path d="M1672.22 1403.27c-127.22-93.14-154.85-271.77-61.71-398.98 93.14-127.217 271.77-154.843 398.98-61.707 127.22 93.137 154.84 271.767 61.71 398.977-93.14 127.22-271.77 154.84-398.98 61.71z" fill="#6340CC"/><path fill-rule="evenodd" clip-rule="evenodd" d="M1558.51 1217.45c28.33 151.51 176.4 251.29 331.27 222.76 154.87-28.53 257.84-174.09 230.54-325.32-27.3-151.236-176.4-251.29-331.27-222.758-154.87 28.531-257.84 174.088-230.54 325.318z" fill="url(#paint1_linear_1_649)"/><path opacity=".5" fill-rule="evenodd" clip-rule="evenodd" d="M1771.12 936.403l-13.99-36.282s-117.95 30.703-168.96 136.689l39.95 13.47 143-113.877z" fill="#FBF9FA"/><path d="M1882.36 1398.33c-131.77 24.15-257.73-60.77-281.36-189.67-23.62-128.9 64.04-252.971 195.81-277.12 131.76-24.149 257.73 60.769 281.35 189.67 23.63 128.9-64.04 252.97-195.8 277.12z" fill="#516DD1"/><path fill-rule="evenodd" clip-rule="evenodd" d="M1601.2 1214.55c23.08 125.85 148.82 208.06 280.36 184.31 132.19-24.14 220.41-145.52 197.33-271.36-1.15-8.03-3.62-15.31-5.43-22.96 0 0-.37-.65-.1-1.68-.75-1.31-.85-2.99-1.6-4.29-35.25-109.252-152.06-177.496-273.23-155.375-97.46 17.999-171.79 89.615-193.55 176.975-4.13 15.44-6.21 31.42-6.23 47.96-1.15 14.58.13 30.36 2.45 46.42z" fill="url(#paint2_radial_1_649)"/><path fill-rule="evenodd" clip-rule="evenodd" d="M1824.5 1173.48c1.53 8.68 9.97 14.25 19.3 12.34 8.68-1.53 15.28-9.69 13.1-18-1.54-8.68-9.97-14.25-19.31-12.34-9.05.88-15.28 9.69-13.09 18z" fill="#A695CF"/><path opacity=".5" fill-rule="evenodd" clip-rule="evenodd" d="M1854.39 1171.01s-1.43 15.61-19.04 25.78l-145.36-122.22s.07-4.39 7.15-10.21l157.25 106.65z" fill="#8E4072"/><path fill-rule="evenodd" clip-rule="evenodd" d="M1852.65 1158.96s-1.42 15.61-19.04 25.78l-145.36-122.21s.08-4.39 7.15-10.22l157.25 106.65z" fill="#8D8D8D"/><path d="M1859.8 1181.56l151.42 87.24-3.38 5.87-151.43-87.24 3.39-5.87z" fill="#8469D7"/><path opacity=".5" fill-rule="evenodd" clip-rule="evenodd" d="M1850.62 1164.49s.46 18.87-1.72 33.17l-127.35 20.47s-2.16-2.23-2.56-8.96l131.63-44.68z" fill="#8E4072"/><path fill-rule="evenodd" clip-rule="evenodd" d="M1847.23 1158.62s10.82 17.23 8.64 31.54l-137.33 22.75s-2.16-2.23-2.56-8.96l131.25-45.33z" fill="#8D8D8D"/><path fill-rule="evenodd" clip-rule="evenodd" d="M1814.99 1178.1c2.87 14 16.27 23.66 30.27 20.79 14-2.86 23.66-16.27 20.79-30.27-2.86-14-16.26-23.66-30.27-20.79-13.72 1.83-23 15.89-20.79 30.27z" fill="#4E4B66"/><path fill-rule="evenodd" clip-rule="evenodd" d="M1828.34 1175.61c1.43 7 7.43 11.37 14.43 9.93 7-1.43 11.37-7.43 9.93-14.43-1.43-7-7.43-11.36-14.43-9.93-6.72.4-11.36 7.43-9.93 14.43z" fill="url(#paint3_radial_1_649)"/><path opacity=".2" fill-rule="evenodd" clip-rule="evenodd" d="M1604.61 1119.52c-5.49 26.65-6.44 44.6-6.61 47.31 1.55-7.86 25.93-135.87 201.53-167.675 181.57-33.509 274.21 104.355 274.21 104.355s-.38-.65-.1-1.68c-.38-.65-.48-2.33-1.61-4.29-35.24-109.251-152.05-177.496-273.23-155.374-98.11 18.376-172.44 89.994-194.19 177.354z" fill="#8E4072"/></g><g opacity=".4" clip-path="url(#clip2_1_649)" filter="url(#filter1_f_1_649)"><path d="M235.013 1630.19c23.682-17.34 28.825-50.59 11.487-74.27-17.339-23.68-50.593-28.83-74.275-11.49-23.683 17.34-28.826 50.59-11.487 74.28 17.338 23.68 50.592 28.82 74.275 11.48z" fill="#6340CC"/><path fill-rule="evenodd" clip-rule="evenodd" d="M256.181 1595.6c-5.274 28.21-32.838 46.78-61.67 41.47-28.831-5.31-47.999-32.41-42.917-60.56 5.082-28.16 32.838-46.78 61.669-41.47 28.832 5.31 48 32.41 42.918 60.56z" fill="url(#paint4_linear_1_649)"/><path opacity=".5" fill-rule="evenodd" clip-rule="evenodd" d="M216.6 1543.28l2.604-6.75s21.959 5.71 31.455 25.44l-7.438 2.51-26.621-21.2zm-54.083 60.58l-6.145 5.04s2.646 7.19 9.456 13.07l5.607-5.51-8.918-12.6z" fill="#FBF9FA"/><path d="M195.893 1629.27c24.529 4.5 47.98-11.31 52.377-35.31 4.398-23.99-11.922-47.09-36.451-51.58-24.53-4.5-47.98 11.31-52.378 35.3-4.398 24 11.922 47.1 36.452 51.59z" fill="#516DD1"/><path fill-rule="evenodd" clip-rule="evenodd" d="M248.234 1595.06c-4.296 23.43-27.706 38.73-52.194 34.31-24.608-4.49-41.031-27.09-36.735-50.51.215-1.5.674-2.85 1.01-4.28 0 0 .07-.12.019-.31.14-.24.159-.56.299-.8 6.561-20.34 28.307-33.04 50.865-28.92 18.144 3.35 31.981 16.68 36.031 32.94.77 2.87 1.157 5.85 1.16 8.93.215 2.71-.025 5.65-.455 8.64z" fill="url(#paint5_radial_1_649)"/><path fill-rule="evenodd" clip-rule="evenodd" d="M206.664 1587.42c-.286 1.61-1.856 2.65-3.594 2.29-1.616-.28-2.844-1.8-2.437-3.35.285-1.61 1.855-2.65 3.593-2.3 1.686.17 2.844 1.81 2.438 3.36z" fill="#A695CF"/><path opacity=".5" fill-rule="evenodd" clip-rule="evenodd" d="M201.1 1586.96s.265 2.9 3.544 4.79l27.061-22.75s-.014-.81-1.331-1.9l-29.274 19.86z" fill="#8E4072"/><path fill-rule="evenodd" clip-rule="evenodd" d="M201.423 1584.71s.265 2.91 3.544 4.8l27.061-22.75s-.014-.82-1.331-1.9l-29.274 19.85z" fill="#8D8D8D"/><path d="M200.093 1588.92l-28.19 16.24.63 1.09 28.19-16.24-.63-1.09z" fill="#8469D7"/><path opacity=".5" fill-rule="evenodd" clip-rule="evenodd" d="M201.801 1585.74s-.085 3.51.32 6.18l23.708 3.81s.402-.42.477-1.67l-24.505-8.32z" fill="#8E4072"/><path fill-rule="evenodd" clip-rule="evenodd" d="M202.432 1584.65s-2.014 3.21-1.609 5.87l25.567 4.24s.402-.42.477-1.67l-24.435-8.44z" fill="#8D8D8D"/><path fill-rule="evenodd" clip-rule="evenodd" d="M208.434 1588.28c-.534 2.6-3.029 4.4-5.635 3.87-2.607-.54-4.405-3.03-3.871-5.64.533-2.61 3.028-4.4 5.635-3.87 2.555.34 4.283 2.96 3.871 5.64z" fill="#4E4B66"/><path fill-rule="evenodd" clip-rule="evenodd" d="M205.949 1587.81c-.267 1.31-1.384 2.12-2.687 1.85s-2.116-1.38-1.849-2.69c.266-1.3 1.383-2.11 2.687-1.84 1.252.07 2.115 1.38 1.849 2.68z" fill="url(#paint6_radial_1_649)"/><path opacity=".2" fill-rule="evenodd" clip-rule="evenodd" d="M247.6 1577.37c1.021 4.96 1.198 8.3 1.23 8.81-.289-1.47-4.827-25.3-37.517-31.22-33.802-6.24-51.048 19.43-51.048 19.43s.07-.12.018-.31c.07-.12.089-.44.3-.8 6.56-20.34 28.306-33.04 50.864-28.93 18.265 3.42 32.103 16.76 36.153 33.02z" fill="#8E4072"/></g><g clip-path="url(#clip3_1_649)" fill-rule="evenodd" clip-rule="evenodd"><path d="M-21.623 196.722H1226.33v119.162L-21.623 770V196.722z" fill="url(#paint7_linear_1_649)"/><path d="M-21.623-13.279H1226.33L-21.623 447.337V-13.279z" fill="url(#paint8_linear_1_649)"/><path d="M-22.052-13.587v314.154L851.147-18.245l64.978-208.101L-22.052-13.587z" fill="url(#paint9_linear_1_649)"/></g></g><defs><linearGradient id="paint0_linear_1_649" x1="-29.5" y1="1430" x2="1949.5" y2="712.5" gradientUnits="userSpaceOnUse"><stop stop-color="#F7F5F2" stop-opacity=".15"/><stop offset="1" stop-color="#F7F5F2" stop-opacity=".48"/></linearGradient><linearGradient id="paint1_linear_1_649" x1="1889.64" y1="1440.16" x2="1789.19" y2="892.037" gradientUnits="userSpaceOnUse"><stop offset=".002" stop-color="#8469D7"/><stop offset="1" stop-color="#DFD5FF"/></linearGradient><linearGradient id="paint4_linear_1_649" x1="194.537" y1="1637.06" x2="213.238" y2="1535.02" gradientUnits="userSpaceOnUse"><stop offset=".002" stop-color="#8469D7"/><stop offset="1" stop-color="#DFD5FF"/></linearGradient><linearGradient id="paint7_linear_1_649" x1="602.354" y1="196.722" x2="602.354" y2="628.865" gradientUnits="userSpaceOnUse"><stop stop-color="#F8FBFF" stop-opacity="0"/><stop offset="1" stop-color="#F8FBFF"/></linearGradient><linearGradient id="paint8_linear_1_649" x1="571.879" y1="210.687" x2="740.975" y2="-210.44" gradientUnits="userSpaceOnUse"><stop stop-color="#F8FBFF" stop-opacity="0"/><stop offset="1" stop-color="#E8E8F5"/></linearGradient><linearGradient id="paint9_linear_1_649" x1="769.455" y1="12.482" x2="314.977" y2="177.899" gradientUnits="userSpaceOnUse"><stop stop-color="#E8E8F5" stop-opacity="0"/><stop offset="1" stop-color="#E8E8F5" stop-opacity=".48"/></linearGradient><radialGradient id="paint2_radial_1_649" cx="0" cy="0" r="1" gradientUnits="userSpaceOnUse" gradientTransform="rotate(169.615 864.668 620.869) scale(394.382)"><stop stop-color="#FAF5F8"/><stop offset=".983" stop-color="#D4CBE2"/></radialGradient><radialGradient id="paint3_radial_1_649" cx="0" cy="0" r="1" gradientUnits="userSpaceOnUse" gradientTransform="rotate(169.615 867.05 670.147) scale(12.6082)"><stop stop-color="#FAF5F8"/><stop offset=".983" stop-color="#D4CBE2"/></radialGradient><radialGradient id="paint5_radial_1_649" cx="0" cy="0" r="1" gradientUnits="userSpaceOnUse" gradientTransform="rotate(10.385 -8530.37 1918.975) scale(73.4191)"><stop stop-color="#FAF5F8"/><stop offset=".983" stop-color="#D4CBE2"/></radialGradient><radialGradient id="paint6_radial_1_649" cx="0" cy="0" r="1" gradientUnits="userSpaceOnUse" gradientTransform="rotate(10.385 -8631.414 1914.104) scale(2.34719)"><stop stop-color="#FAF5F8"/><stop offset=".983" stop-color="#D4CBE2"/></radialGradient><clipPath id="clip0_1_649"><path fill="#fff" d="M0 0h1920v3390H0z"/></clipPath><clipPath id="clip1_1_649"><path fill="#fff" transform="scale(-1 1) rotate(30 -2431.274 -3240.702)" d="M0 0h610.133v684.704H0z"/></clipPath><clipPath id="clip2_1_649"><path fill="#fff" transform="rotate(30 -2733.969 1100.623)" d="M0 0h113.584v127.466H0z"/></clipPath><clipPath id="clip3_1_649"><path fill="#fff" d="M0 0h1226v770H0z"/></clipPath><filter id="filter0_f_1_649" x="1377.69" y="741.465" width="950.742" height="978.038" filterUnits="userSpaceOnUse" color-interpolation-filters="sRGB"><feFlood flood-opacity="0" result="BackgroundImageFix"/><feBlend in="SourceGraphic" in2="BackgroundImageFix" result="shape"/><feGaussianBlur stdDeviation="20" result="effect1_foregroundBlur_1_649"/></filter><filter id="filter1_f_1_649" x="112.296" y="1506.44" width="178.099" height="183.181" filterUnits="userSpaceOnUse" color-interpolation-filters="sRGB"><feFlood flood-opacity="0" result="BackgroundImageFix"/><feBlend in="SourceGraphic" in2="BackgroundImageFix" result="shape"/><feGaussianBlur stdDeviation="4" result="effect1_foregroundBlur_1_649"/></filter></defs></svg>