<svg width="1920" height="2199" fill="none" xmlns="http://www.w3.org/2000/svg"><g clip-path="url(#clip0_1_30)"><path fill="#fff" d="M0 0h1920v2199H0z"/><path d="M2290.74 1961.98l-2923.605-525.35L2086.31 427.895l204.43 1534.085z" fill="url(#paint0_linear_1_30)"/><g clip-path="url(#clip1_1_30)" fill-rule="evenodd" clip-rule="evenodd"><path d="M-21.623 196.721H1226.33v119.162L-21.623 770V196.721z" fill="url(#paint1_linear_1_30)"/><path d="M-21.623-13.279H1226.33L-21.623 447.337V-13.279z" fill="url(#paint2_linear_1_30)"/><path d="M-22.052-13.588v314.155L851.147-18.246l64.978-208.1L-22.052-13.588z" fill="url(#paint3_linear_1_30)"/></g></g><defs><linearGradient id="paint0_linear_1_30" x1="-29.5" y1="1430" x2="1949.5" y2="712.5" gradientUnits="userSpaceOnUse"><stop stop-color="#F7F5F2" stop-opacity=".15"/><stop offset="1" stop-color="#F7F5F2" stop-opacity=".48"/></linearGradient><linearGradient id="paint1_linear_1_30" x1="602.354" y1="196.721" x2="602.354" y2="628.864" gradientUnits="userSpaceOnUse"><stop stop-color="#F8FBFF" stop-opacity="0"/><stop offset="1" stop-color="#F8FBFF"/></linearGradient><linearGradient id="paint2_linear_1_30" x1="571.879" y1="210.687" x2="740.975" y2="-210.44" gradientUnits="userSpaceOnUse"><stop stop-color="#F8FBFF" stop-opacity="0"/><stop offset="1" stop-color="#E8E8F5"/></linearGradient><linearGradient id="paint3_linear_1_30" x1="769.455" y1="12.482" x2="314.977" y2="177.898" gradientUnits="userSpaceOnUse"><stop stop-color="#E8E8F5" stop-opacity="0"/><stop offset="1" stop-color="#E8E8F5" stop-opacity=".48"/></linearGradient><clipPath id="clip0_1_30"><path fill="#fff" d="M0 0h1920v2199H0z"/></clipPath><clipPath id="clip1_1_30"><path fill="#fff" d="M0 0h1226v770H0z"/></clipPath></defs></svg>