<svg width="375" height="263" fill="none" xmlns="http://www.w3.org/2000/svg"><g opacity=".03" clip-path="url(#clip0_1_122)"><path d="M340.283 222.501c0 94.717-76.253 171.5-170.316 171.5S-.35 317.218-.35 222.501c0-94.716 76.254-171.499 170.317-171.499s170.316 76.783 170.316 171.499z" fill="#000"/><path fill-rule="evenodd" clip-rule="evenodd" d="M257.902 392.916a190.18 190.18 0 00100.564-168.067c0-75.83-44.109-141.286-107.901-171.772A170.438 170.438 0 01277.148 51c94.064 0 170.317 76.783 170.317 171.499 0 94.717-76.253 171.5-170.317 171.5-6.507 0-12.928-.368-19.246-1.083z" fill="#000"/><rect x="134.472" y="130.934" width="35.483" height="132.197" rx="17.741" fill="#E8D296"/><rect width="35.668" height="113.742" rx="17.834" transform="matrix(.4974 -.86752 .86452 .5026 130.117 253.438)" fill="#E8D296"/></g><g clip-path="url(#clip1_1_122)"><g filter="url(#filter0_d_1_122)"><rect x="98.423" y="-.326" width="488.577" height="306.926" rx="26.244" fill="#FFFEFE"/></g><path fill-rule="evenodd" clip-rule="evenodd" d="M110.167-.326c-6.486 0-11.744 5.258-11.744 11.745 0 1.202.18 2.362.517 3.454h-.517v31.781H145.4v-.002h48.098a3.579 3.579 0 003.579-3.579V28.454c0-7.501 6.08-13.58 13.58-13.58h124.737c7.452 0 13.502 6 13.58 13.434v14.765a3.578 3.578 0 003.578 3.579H540.02v.001H587v-31.78h-.517a11.73 11.73 0 00.517-3.454c0-6.487-5.258-11.745-11.745-11.745h-70.467c-.805 0-1.591.08-2.35.235v-.235H110.167zm81.696 15.199H493.56 191.863z" fill="#F0F1F5"/><circle cx="125.827" cy="23.946" r="5.481" fill="#FF7970"/><circle cx="144.618" cy="23.946" r="5.481" fill="#FDD171"/><circle cx="163.41" cy="23.946" r="5.481" fill="#65C157"/><circle cx="217.436" cy="27.861" r="6.264" fill="#E1E4EB"/><path fill="#E1E4EB" d="M231.528 26.295h75.166v4.698h-75.166z"/><path d="M329.189 25.3l5.693 5.694m-5.693 0l5.693-5.693" stroke="#DBDEE4" stroke-width="2.386" stroke-linecap="round" stroke-linejoin="round"/><path d="M372.514 20.082v11.855m-5.928-5.927h11.855" opacity=".6" stroke="#D0D4DD" stroke-width="3.579" stroke-linecap="round" stroke-linejoin="round"/><rect x="223.699" y="52.916" width="212.969" height="29.753" rx="14.877" fill="#F0F1F5"/><path fill="#E1E4EB" d="M264.414 65.443h134.672v4.698H264.414z"/><path d="M249.379 66.387h-8.767c-.692 0-1.253.56-1.253 1.252v4.384c0 .691.561 1.252 1.253 1.252h8.767c.692 0 1.252-.56 1.252-1.252v-4.384c0-.691-.56-1.252-1.252-1.252zm-7.514-.002V63.88a3.128 3.128 0 012.817-3.118 3.13 3.13 0 013.383 2.492" stroke="#4F5055" stroke-width=".596" stroke-linecap="round" stroke-linejoin="round"/><path d="M248.064 66.39v-2.506a3.132 3.132 0 00-6.199-.626m-106.968 4.535h-11.876m5.938 5.937l-5.938-5.937 5.938-5.938" stroke="#4F5055" stroke-width=".596" stroke-linecap="round" stroke-linejoin="round"/><path d="M154.797 68.25h11.875m-5.938 5.938l5.938-5.938-5.938-5.938" stroke="#AAADB4" stroke-width=".596" stroke-linecap="round" stroke-linejoin="round"/><path d="M197.373 71.121l4.404-4.404-4.404-4.404" stroke="#4F5055" stroke-width=".596" stroke-linecap="round" stroke-linejoin="round"/><path d="M187.684 76.406V70.24a3.522 3.522 0 013.523-3.523h10.57" stroke="#4F5055" stroke-width=".596" stroke-linecap="round" stroke-linejoin="round"/><path fill="#F0F1F5" d="M98.423 88.934H587V90.5H98.423z"/><rect x="139.297" y="159.23" width="307.296" height="7.387" rx="3.693" fill="#F0F1F5"/><rect x="139.297" y="182.379" width="307.296" height="1.477" rx=".739" fill="#F0F1F5"/><rect x="139.297" y="222.762" width="193.045" height="1.97" rx=".985" fill="#F0F1F5"/><rect x="139.297" y="202.57" width="307.296" height="1.97" rx=".985" fill="#F0F1F5"/><rect x="139.297" y="192.229" width="307.296" height="1.97" rx=".985" fill="#F0F1F5"/><rect x="139.297" y="212.418" width="307.296" height="1.97" rx=".985" fill="#F0F1F5"/><path d="M145.713 137.62a1.491 1.491 0 00-2.689 0l-1.3 2.709-2.891.434a1.49 1.49 0 00-.833 2.528l2.115 2.118-.501 3.003a1.491 1.491 0 002.18 1.557l2.575-1.392 2.574 1.392a1.491 1.491 0 002.18-1.557l-.5-3.003 2.115-2.118a1.492 1.492 0 00-.834-2.528l-2.891-.434-1.3-2.709zm15.936-.011a1.492 1.492 0 00-2.678 0l-1.333 2.716-2.977.437a1.493 1.493 0 00-.827 2.541l2.159 2.114-.51 2.99a1.49 1.49 0 002.167 1.568l2.66-1.407 2.66 1.407a1.49 1.49 0 002.167-1.568l-.51-2.99 2.158-2.114a1.492 1.492 0 00-.826-2.541l-2.978-.437-1.332-2.716zm15.823 0a1.492 1.492 0 00-2.677 0l-1.333 2.716-2.978.437a1.492 1.492 0 00-.826 2.541l2.158 2.114-.51 2.99a1.492 1.492 0 002.167 1.568l2.66-1.407 2.66 1.407a1.49 1.49 0 002.167-1.568l-.51-2.99 2.159-2.114a1.494 1.494 0 00-.827-2.541l-2.977-.437-1.333-2.716zm15.823 0a1.492 1.492 0 00-2.677 0l-1.333 2.716-2.977.437a1.492 1.492 0 00-.827 2.541l2.158 2.114-.509 2.99a1.489 1.489 0 002.167 1.568l2.659-1.407 2.66 1.407a1.491 1.491 0 002.167-1.568l-.509-2.99 2.158-2.114a1.49 1.49 0 00-.827-2.541l-2.977-.437-1.333-2.716z" fill="#F0F1F5" stroke="#F0F1F5" stroke-width="2.982" stroke-linecap="round" stroke-linejoin="round"/><path d="M209.243 137.62a1.491 1.491 0 00-2.688 0l-1.301 2.709-2.891.434a1.49 1.49 0 00-.833 2.528l2.115 2.118-.501 3.003a1.491 1.491 0 002.18 1.557l2.575-1.392 2.575 1.392a1.49 1.49 0 002.18-1.557l-.501-3.003 2.115-2.118a1.492 1.492 0 00-.834-2.528l-2.891-.434-1.3-2.709z" stroke="#F0F1F5" stroke-width="2.982" stroke-linecap="round" stroke-linejoin="round"/><path fill="#FFE7B4" d="M139.297 105.688h135.117v18.799H139.297z"/><path d="M150.391 119.022c-.572 0-1.082-.093-1.528-.279-.443-.188-.792-.445-1.045-.769a1.756 1.756 0 01-.379-1.105c0-.317.072-.608.216-.873a1.93 1.93 0 01.595-.666c.25-.178.53-.292.84-.342v-.052a1.655 1.655 0 01-.989-.591 1.701 1.701 0 01-.379-1.097c0-.394.115-.745.346-1.052.23-.31.546-.553.948-.729a3.377 3.377 0 011.375-.268c.513 0 .971.09 1.372.268.404.178.722.423.952.732.231.308.347.657.35 1.049a1.704 1.704 0 01-.387 1.097 1.665 1.665 0 01-.982.591v.052c.305.05.582.164.83.342.25.176.448.398.594.666.149.265.225.556.227.873-.002.412-.13.78-.383 1.105-.253.324-.602.581-1.048.769-.444.186-.952.279-1.525.279zm0-1.182c.256 0 .479-.046.67-.138.19-.094.339-.223.446-.387.109-.166.163-.356.163-.572a1.03 1.03 0 00-.167-.584 1.14 1.14 0 00-.454-.401c-.19-.1-.41-.149-.658-.149-.245 0-.464.049-.658.149-.193.096-.345.23-.457.401a1.052 1.052 0 00-.164.584c0 .216.054.406.16.572.107.164.257.293.45.387.193.092.417.138.669.138zm0-3.402c.214 0 .403-.044.569-.13a.987.987 0 00.391-.361 1 1 0 00.141-.532.95.95 0 00-.528-.873 1.205 1.205 0 00-.573-.131c-.215 0-.406.044-.572.131a.969.969 0 00-.391.353.975.975 0 00-.137.52 1 1 0 00.141.532.974.974 0 00.391.361c.166.086.355.13.568.13zm5.023 3.595a.871.871 0 01-.633-.26.863.863 0 01-.26-.632c0-.243.087-.451.26-.625a.871.871 0 01.633-.26.87.87 0 01.624.26.84.84 0 01.268.625.837.837 0 01-.127.45.96.96 0 01-.323.323.854.854 0 01-.442.119zm0-3.737a.867.867 0 01-.633-.26.861.861 0 01-.26-.632c0-.243.087-.45.26-.621a.871.871 0 01.633-.26.87.87 0 01.624.26.827.827 0 01.268.621.843.843 0 01-.127.454.914.914 0 01-.323.319.845.845 0 01-.442.119zm4.992 4.726c-.555 0-1.05-.095-1.484-.286a2.536 2.536 0 01-1.022-.796 1.994 1.994 0 01-.383-1.175h1.621c.01.186.071.35.182.491.114.139.265.247.454.323.188.077.4.116.636.116.245 0 .462-.044.65-.13.189-.087.336-.207.443-.361a.915.915 0 00.16-.532.89.89 0 00-.171-.539 1.107 1.107 0 00-.484-.372 1.883 1.883 0 00-.743-.133h-.711v-1.183h.711c.243 0 .457-.042.643-.126a1.05 1.05 0 00.439-.35.908.908 0 00.156-.528.911.911 0 00-.138-.502.907.907 0 00-.379-.342 1.244 1.244 0 00-.565-.122c-.218 0-.418.039-.599.119a1.043 1.043 0 00-.435.33.878.878 0 00-.175.506h-1.543c.008-.439.133-.825.376-1.16.243-.335.57-.596.982-.784a3.304 3.304 0 011.401-.287c.526 0 .985.096 1.38.287.394.19.7.448.918.773.221.322.33.684.327 1.086.003.426-.13.782-.398 1.067-.265.285-.611.466-1.037.543v.059c.56.072.987.266 1.279.584.295.315.441.709.439 1.182.002.434-.123.819-.376 1.156-.25.338-.596.603-1.037.796-.441.193-.947.29-1.517.29zm7.073.063c-.64-.002-1.19-.16-1.651-.472-.459-.312-.812-.765-1.06-1.357-.245-.592-.367-1.305-.364-2.138 0-.83.122-1.538.368-2.123.248-.585.601-1.03 1.059-1.335.461-.307 1.011-.461 1.648-.461s1.184.154 1.643.461c.461.308.815.754 1.063 1.339.248.582.371 1.289.368 2.119 0 .835-.124 1.549-.371 2.142-.246.592-.598 1.044-1.056 1.357-.459.312-1.008.468-1.647.468zm0-1.334c.436 0 .784-.22 1.044-.659.261-.438.389-1.096.387-1.974 0-.577-.059-1.058-.178-1.442-.117-.385-.283-.673-.499-.867a1.086 1.086 0 00-.754-.29c-.434 0-.781.217-1.041.651-.261.434-.392 1.083-.395 1.948 0 .585.059 1.073.175 1.465.119.389.286.682.502.877a1.1 1.1 0 00.759.291zm6.69 1.167v-7.615h3.004c.578 0 1.07.111 1.476.331.407.218.717.522.93.911.216.387.323.833.323 1.339 0 .505-.109.952-.327 1.338a2.256 2.256 0 01-.948.904c-.411.215-.91.323-1.495.323h-1.914v-1.29h1.654c.31 0 .565-.053.766-.16a1.06 1.06 0 00.454-.45c.101-.193.152-.415.152-.665a1.38 1.38 0 00-.152-.662 1.024 1.024 0 00-.454-.443c-.203-.106-.461-.159-.773-.159h-1.086v6.298h-1.61zm6.779-7.615h1.986l2.096 5.116h.09l2.097-5.116h1.985v7.615h-1.561v-4.956h-.064l-1.97 4.919h-1.064l-1.97-4.938h-.063v4.975h-1.562v-7.615zm15.532 3.179v1.257h-3.472v-1.257h3.472zm6.513-3.283c.392 0 .769.066 1.131.197.364.132.689.341.974.629.287.287.514.669.68 1.145.169.473.254 1.055.257 1.744 0 .647-.073 1.224-.22 1.732-.144.506-.35.936-.621 1.29-.27.355-.596.625-.977.811a2.926 2.926 0 01-1.28.275c-.508 0-.956-.098-1.345-.294a2.523 2.523 0 01-.941-.806 2.519 2.519 0 01-.428-1.153h1.588c.062.278.192.493.39.647.199.151.444.227.736.227.496 0 .873-.216 1.131-.647.258-.434.388-1.028.39-1.781h-.052a1.826 1.826 0 01-.461.576 2.142 2.142 0 01-.665.368c-.248.087-.512.13-.792.13a2.29 2.29 0 01-1.201-.316c-.352-.21-.63-.5-.833-.87a2.578 2.578 0 01-.305-1.264c-.003-.51.115-.965.353-1.364.238-.399.57-.712.997-.937.428-.228.927-.341 1.494-.339zm.011 1.264a1.264 1.264 0 00-1.13.659c-.111.2-.166.425-.163.673 0 .25.054.475.163.676.112.198.263.357.454.476.193.117.414.175.662.175a1.279 1.279 0 00.929-.391 1.36 1.36 0 00.379-.94 1.36 1.36 0 00-.171-.662 1.295 1.295 0 00-.461-.483 1.225 1.225 0 00-.662-.183zm5.087 5.57a.87.87 0 01-.632-.26.86.86 0 01-.261-.632c0-.243.087-.451.261-.625a.87.87 0 01.632-.26c.238 0 .446.087.624.26a.84.84 0 01.268.625.845.845 0 01-.126.45.972.972 0 01-.324.323.854.854 0 01-.442.119zm0-3.737a.865.865 0 01-.632-.26.858.858 0 01-.261-.632c0-.243.087-.45.261-.621a.87.87 0 01.632-.26c.238 0 .446.087.624.26a.827.827 0 01.268.621.85.85 0 01-.126.454.925.925 0 01-.324.319.845.845 0 01-.442.119zm4.992 4.726c-.555 0-1.05-.095-1.483-.286a2.533 2.533 0 01-1.023-.796 2.001 2.001 0 01-.383-1.175h1.621c.01.186.071.35.182.491.114.139.266.247.454.323.188.077.4.116.636.116.245 0 .462-.044.65-.13.189-.087.336-.207.443-.361a.908.908 0 00.16-.532.89.89 0 00-.171-.539 1.107 1.107 0 00-.484-.372 1.883 1.883 0 00-.743-.133h-.71v-1.183h.71c.243 0 .457-.042.643-.126.188-.085.335-.201.439-.35a.908.908 0 00.156-.528.911.911 0 00-.138-.502.907.907 0 00-.379-.342 1.241 1.241 0 00-.565-.122c-.218 0-.418.039-.599.119a1.043 1.043 0 00-.435.33.87.87 0 00-.174.506h-1.543c.007-.439.132-.825.375-1.16.243-.335.57-.596.982-.784a3.307 3.307 0 011.401-.287c.526 0 .986.096 1.38.287.394.19.7.448.918.773.221.322.33.684.327 1.086.003.426-.13.782-.397 1.067-.266.285-.611.466-1.038.543v.059c.56.072.987.266 1.279.584.295.315.441.709.439 1.182.002.434-.123.819-.376 1.156-.25.338-.596.603-1.037.796-.441.193-.947.29-1.517.29zm7.073.063c-.64-.002-1.19-.16-1.651-.472-.459-.312-.812-.765-1.06-1.357-.245-.592-.367-1.305-.364-2.138 0-.83.123-1.538.368-2.123.248-.585.601-1.03 1.06-1.335.461-.307 1.01-.461 1.647-.461s1.185.154 1.643.461c.461.308.816.754 1.063 1.339.248.582.371 1.289.369 2.119 0 .835-.124 1.549-.372 2.142-.246.592-.598 1.044-1.056 1.357-.459.312-1.008.468-1.647.468zm0-1.334c.436 0 .784-.22 1.045-.659.26-.438.389-1.096.386-1.974 0-.577-.059-1.058-.178-1.442-.117-.385-.283-.673-.498-.867a1.09 1.09 0 00-.755-.29c-.434 0-.781.217-1.041.651-.261.434-.392 1.083-.394 1.948 0 .585.058 1.073.174 1.465.119.389.287.682.502.877a1.1 1.1 0 00.759.291zm6.69 1.167v-7.615h3.005c.577 0 1.069.111 1.476.331.406.218.716.522.929.911.216.387.324.833.324 1.339 0 .505-.109.952-.328 1.338a2.256 2.256 0 01-.948.904c-.411.215-.909.323-1.494.323h-1.915v-1.29h1.654c.31 0 .566-.053.766-.16.204-.109.355-.259.454-.45.102-.193.152-.415.152-.665 0-.253-.05-.474-.152-.662a1.02 1.02 0 00-.454-.443c-.203-.106-.461-.159-.773-.159h-1.086v6.298h-1.61zm6.779-7.615h1.986l2.097 5.116h.089l2.097-5.116h1.985v7.615h-1.561v-4.956h-.063l-1.971 4.919h-1.063l-1.971-4.938h-.063v4.975h-1.562v-7.615zm18.722 2.666h-1.628a1.61 1.61 0 00-.182-.561 1.439 1.439 0 00-.353-.424 1.546 1.546 0 00-.499-.268 1.906 1.906 0 00-.606-.093c-.394 0-.737.098-1.03.294-.292.193-.519.476-.68.848-.161.369-.242.818-.242 1.346 0 .543.081.999.242 1.368.164.369.392.648.684.836a1.83 1.83 0 001.015.283c.216 0 .415-.028.599-.085.186-.057.35-.14.494-.25.144-.111.263-.246.357-.405a1.56 1.56 0 00.201-.543l1.628.008a3.028 3.028 0 01-.989 1.877c-.28.253-.614.454-1.003.603a3.7 3.7 0 01-1.313.219c-.679 0-1.286-.154-1.822-.461a3.268 3.268 0 01-1.264-1.335c-.307-.582-.461-1.287-.461-2.115 0-.831.156-1.537.469-2.12a3.267 3.267 0 011.271-1.331 3.57 3.57 0 011.807-.461c.441 0 .85.062 1.227.186.379.124.715.305 1.008.543.292.236.53.524.714.866.185.342.304.734.356 1.175zm1.155 4.949v-7.615h5.131v1.328h-3.521v1.814h3.257v1.328h-3.257v1.818h3.536v1.327h-5.146zm6.121-6.287v-1.328h6.253v1.328h-2.331v6.287h-1.591v-6.287h-2.331z" fill="#59606B"/><g filter="url(#filter1_d_1_122)"><rect x="167" y="124" width="196" height="109" rx="11.49" fill="#F7F5F2"/></g><path d="M348.818 212.951v3.378a1.127 1.127 0 01-1.126 1.126h-6.193a1.125 1.125 0 01-1.126-1.126v-6.193a1.125 1.125 0 011.126-1.126h3.378m2.252-1.69h3.378v3.378m-6.194 2.815l6.193-6.193" stroke="#000" stroke-width="1.193" stroke-linecap="round" stroke-linejoin="round"/><path d="M188.913 164.632h-1.571a1.531 1.531 0 00-.175-.541 1.38 1.38 0 00-.341-.409 1.494 1.494 0 00-.481-.258 1.829 1.829 0 00-.584-.09c-.38 0-.712.095-.994.283a1.81 1.81 0 00-.656.818c-.156.356-.233.789-.233 1.299 0 .523.077.963.233 1.319.158.357.378.626.66.807.282.182.608.273.979.273.208 0 .401-.028.577-.083a1.377 1.377 0 00.822-.631c.093-.153.158-.327.193-.523l1.571.007c-.04.337-.142.662-.304.975-.161.311-.377.59-.65.836-.27.244-.593.438-.968.581a3.56 3.56 0 01-1.266.212c-.655 0-1.241-.149-1.758-.445a3.161 3.161 0 01-1.219-1.288c-.297-.562-.445-1.242-.445-2.04 0-.801.151-1.483.452-2.045.301-.562.71-.99 1.227-1.284a3.44 3.44 0 011.743-.445c.426 0 .82.06 1.184.18.365.119.689.294.971.523.283.228.512.506.689.836.179.33.294.708.344 1.133zm3.596 4.882c-.567 0-1.054-.115-1.463-.344a2.358 2.358 0 01-.94-.983c-.22-.426-.33-.929-.33-1.51 0-.567.11-1.064.33-1.492.22-.428.53-.762.929-1.001.402-.239.873-.359 1.413-.359.364 0 .702.059 1.015.176.316.115.591.288.825.52.237.232.421.524.552.875.132.349.198.758.198 1.227v.42h-4.652v-.947h3.213c0-.22-.047-.415-.143-.585a1.029 1.029 0 00-.398-.398 1.137 1.137 0 00-.585-.147 1.144 1.144 0 00-1.033.588c-.1.177-.152.374-.154.592v.9c0 .273.05.508.151.707a1.1 1.1 0 00.434.459c.186.107.407.161.663.161.17 0 .325-.024.466-.071a.923.923 0 00.592-.567l1.413.093c-.071.34-.218.636-.441.89-.22.251-.504.447-.853.588a3.217 3.217 0 01-1.202.208zm6.456-5.617v1.148h-3.318v-1.148h3.318zm-2.564-1.32h1.527v5.136c0 .141.022.251.065.33a.356.356 0 00.179.162c.079.031.17.046.273.046a1.3 1.3 0 00.215-.018l.165-.032.24 1.137a4.157 4.157 0 01-.322.083 2.704 2.704 0 01-.506.061 2.33 2.33 0 01-.968-.147 1.354 1.354 0 01-.642-.524c-.154-.237-.229-.536-.226-.897v-5.337zm6.234 3.157a8.1 8.1 0 01.355-2.457 6.791 6.791 0 011.094-2.081h1.46c-.187.237-.36.526-.52.868-.16.34-.3.713-.42 1.119a9.826 9.826 0 00-.28 1.263c-.067.433-.1.862-.1 1.288 0 .566.057 1.139.172 1.718.117.576.275 1.111.474 1.606.2.495.425.901.674 1.216h-1.46a6.786 6.786 0 01-1.094-2.08c-.237-.748-.355-1.569-.355-2.46zm10.305-1.102h-1.571a1.531 1.531 0 00-.175-.541 1.38 1.38 0 00-.341-.409 1.494 1.494 0 00-.481-.258 1.829 1.829 0 00-.584-.09c-.38 0-.712.095-.994.283a1.81 1.81 0 00-.656.818c-.156.356-.233.789-.233 1.299 0 .523.077.963.233 1.319.158.357.378.626.66.807.282.182.608.273.979.273.208 0 .4-.028.577-.083a1.377 1.377 0 00.822-.631c.093-.153.158-.327.193-.523l1.571.007c-.04.337-.142.662-.304.975-.161.311-.377.59-.65.836-.27.244-.593.438-.968.581a3.56 3.56 0 01-1.266.212c-.655 0-1.241-.149-1.758-.445a3.161 3.161 0 01-1.219-1.288c-.297-.562-.445-1.242-.445-2.04 0-.801.151-1.483.452-2.045.301-.562.71-.99 1.227-1.284a3.44 3.44 0 011.743-.445c.425 0 .82.06 1.183.18.366.119.69.294.972.523.283.228.512.506.689.836.179.33.294.708.344 1.133zm3.596 4.882c-.567 0-1.054-.115-1.463-.344a2.358 2.358 0 01-.94-.983c-.22-.426-.33-.929-.33-1.51 0-.567.11-1.064.33-1.492.22-.428.53-.762.929-1.001.402-.239.873-.359 1.413-.359.363 0 .702.059 1.015.176.316.115.591.288.825.52.237.232.421.524.552.875.132.349.198.758.198 1.227v.42h-4.652v-.947h3.213c0-.22-.047-.415-.143-.585a1.029 1.029 0 00-.398-.398 1.137 1.137 0 00-.585-.147 1.144 1.144 0 00-1.033.588c-.1.177-.152.374-.154.592v.9c0 .273.05.508.151.707a1.1 1.1 0 00.434.459c.186.107.407.161.663.161.17 0 .325-.024.466-.071a.923.923 0 00.592-.567l1.413.093c-.071.34-.218.636-.441.89-.22.251-.504.447-.853.588a3.217 3.217 0 01-1.202.208zm5.054-3.293v3.185h-1.528v-5.509h1.456v.972h.064c.122-.32.327-.574.614-.76.287-.189.635-.284 1.043-.284.383 0 .717.084 1.001.251.285.168.506.407.664.718.157.308.236.677.236 1.105v3.507h-1.528v-3.235c.003-.337-.083-.6-.258-.789-.174-.191-.415-.287-.721-.287-.205 0-.387.044-.545.133a.926.926 0 00-.366.387c-.086.168-.13.37-.132.606zm7.685-2.324v1.148h-3.318v-1.148h3.318zm-2.565-1.32h1.528v5.136c0 .141.022.251.065.33a.356.356 0 00.179.162c.079.031.17.046.273.046a1.3 1.3 0 00.215-.018l.165-.032.24 1.137a4.157 4.157 0 01-.322.083 2.704 2.704 0 01-.506.061 2.338 2.338 0 01-.969-.147 1.354 1.354 0 01-.642-.524c-.153-.237-.228-.536-.226-.897v-5.337zm3.56 6.829v-5.509h1.481v.961h.058c.1-.342.269-.6.506-.774.236-.177.509-.266.817-.266a2.221 2.221 0 01.481.054v1.356a2.79 2.79 0 00-.646-.083c-.224 0-.425.049-.602.147a1.085 1.085 0 00-.567.997v3.117h-1.528zm5.546.104c-.351 0-.665-.061-.94-.183a1.509 1.509 0 01-.652-.548c-.158-.244-.237-.548-.237-.911 0-.306.056-.564.168-.772.113-.208.266-.375.46-.502.193-.126.413-.222.659-.287.249-.064.51-.11.782-.136.321-.033.579-.064.775-.093.196-.031.338-.077.427-.136a.302.302 0 00.133-.266v-.021c0-.228-.072-.403-.216-.528-.141-.124-.342-.186-.602-.186-.275 0-.494.061-.657.183a.837.837 0 00-.322.452l-1.413-.115c.071-.335.212-.624.423-.868.21-.246.482-.435.814-.567a3.112 3.112 0 011.162-.201c.306 0 .599.036.879.108.282.072.532.183.749.334.22.15.394.344.52.581.127.234.19.515.19.842v3.716h-1.449v-.764h-.043a1.545 1.545 0 01-.355.456 1.64 1.64 0 01-.534.305 2.228 2.228 0 01-.721.107zm.438-1.054c.224 0 .423-.044.595-.133.172-.091.307-.213.405-.366a.942.942 0 00.147-.52v-.584a.827.827 0 01-.197.086 3.728 3.728 0 01-.276.068l-.309.054-.279.039c-.18.026-.336.068-.47.126a.747.747 0 00-.312.233.566.566 0 00-.111.358c0 .208.075.367.226.477a.982.982 0 00.581.162zm5.378-6.395v7.345h-1.528v-7.345h1.528zm3.59 7.345v-7.345h4.95v1.28h-3.397v1.751h3.142v1.28h-3.142v1.754h3.411v1.28h-4.964zm9.688-2.345v-3.164h1.528v5.509h-1.467v-1h-.057a1.628 1.628 0 01-.62.778c-.287.196-.638.294-1.051.294-.369 0-.693-.084-.972-.251a1.722 1.722 0 01-.657-.714c-.155-.308-.234-.678-.236-1.108v-3.508h1.528v3.235c.002.326.089.583.261.771.173.189.403.284.693.284.184 0 .356-.042.516-.126a.987.987 0 00.387-.38c.101-.167.15-.374.147-.62zm2.751 2.345v-5.509h1.481v.961h.057c.101-.342.269-.6.506-.774a1.33 1.33 0 01.818-.266 2.204 2.204 0 01.48.054v1.356a2.817 2.817 0 00-.645-.083c-.225 0-.426.049-.603.147-.174.096-.313.23-.416.402-.1.172-.151.371-.151.595v3.117h-1.527zm6.365.108c-.557 0-1.039-.119-1.445-.355a2.429 2.429 0 01-.937-.997c-.22-.428-.33-.924-.33-1.489 0-.569.11-1.066.33-1.492.22-.428.532-.76.937-.997.406-.239.888-.359 1.445-.359s1.038.12 1.442.359c.406.237.719.569.939.997.22.426.33.923.33 1.492 0 .565-.11 1.061-.33 1.489-.22.425-.533.758-.939.997-.404.236-.885.355-1.442.355zm.007-1.184a.947.947 0 00.635-.215c.17-.146.298-.344.384-.595.088-.251.132-.537.132-.858 0-.32-.044-.606-.132-.857a1.332 1.332 0 00-.384-.595.94.94 0 00-.635-.219.974.974 0 00-.646.219 1.341 1.341 0 00-.39.595c-.087.251-.13.537-.13.857 0 .321.043.607.13.858.088.251.218.449.39.595.175.144.39.215.646.215zm3.698 3.142v-7.575h1.506v.926h.068a2 2 0 01.291-.452c.129-.156.296-.285.502-.388.208-.105.466-.158.775-.158.402 0 .772.106 1.112.316.339.208.611.523.814.943.203.419.305.944.305 1.575 0 .614-.1 1.133-.298 1.556-.196.421-.464.741-.803.958a2.067 2.067 0 01-1.134.323c-.296 0-.549-.049-.757-.147a1.553 1.553 0 01-.505-.37 1.871 1.871 0 01-.302-.455h-.046v2.948h-1.528zm1.496-4.82c0 .327.045.613.136.857.091.244.222.434.394.57a.994.994 0 00.628.201.985.985 0 00.631-.204c.172-.139.303-.33.391-.574.091-.247.137-.53.137-.85 0-.318-.045-.598-.133-.84a1.255 1.255 0 00-.391-.566.987.987 0 00-.635-.205c-.249 0-.459.066-.631.198-.17.131-.3.318-.391.559a2.421 2.421 0 00-.136.854zm7.406 2.862c-.567 0-1.054-.115-1.463-.344a2.358 2.358 0 01-.94-.983c-.22-.426-.33-.929-.33-1.51 0-.567.11-1.064.33-1.492.22-.428.53-.762.929-1.001.402-.239.873-.359 1.413-.359.363 0 .702.059 1.015.176.316.115.591.288.825.52.237.232.421.524.552.875.132.349.198.758.198 1.227v.42h-4.652v-.947h3.213c0-.22-.047-.415-.143-.585a1.029 1.029 0 00-.398-.398 1.14 1.14 0 00-.585-.147 1.144 1.144 0 00-1.033.588c-.1.177-.152.374-.154.592v.9c0 .273.05.508.151.707a1.1 1.1 0 00.434.459c.186.107.407.161.663.161.17 0 .325-.024.466-.071a.923.923 0 00.592-.567l1.413.093c-.071.34-.218.636-.441.89-.22.251-.504.447-.853.588a3.217 3.217 0 01-1.202.208zm5.097-.004c-.352 0-.665-.061-.94-.183a1.512 1.512 0 01-.653-.548c-.158-.244-.237-.548-.237-.911 0-.306.057-.564.169-.772a1.36 1.36 0 01.459-.502c.194-.126.414-.222.66-.287a5.06 5.06 0 01.782-.136c.32-.033.579-.064.775-.093.196-.031.338-.077.426-.136a.3.3 0 00.133-.266v-.021c0-.228-.072-.403-.215-.528-.141-.124-.342-.186-.603-.186-.275 0-.493.061-.656.183a.84.84 0 00-.323.452l-1.413-.115c.072-.335.213-.624.423-.868.211-.246.482-.435.814-.567a3.117 3.117 0 011.163-.201c.306 0 .599.036.878.108.282.072.532.183.75.334.22.15.393.344.52.581.127.234.19.515.19.842v3.716h-1.449v-.764h-.043a1.561 1.561 0 01-.355.456 1.64 1.64 0 01-.534.305 2.237 2.237 0 01-.721.107zm.437-1.054c.225 0 .423-.044.596-.133.172-.091.307-.213.405-.366a.942.942 0 00.147-.52v-.584a.865.865 0 01-.197.086 3.893 3.893 0 01-.277.068c-.102.019-.205.037-.308.054l-.28.039a1.857 1.857 0 00-.47.126.753.753 0 00-.312.233.566.566 0 00-.111.358c0 .208.076.367.226.477a.984.984 0 00.581.162zm5.378-2.235v3.185h-1.528v-5.509h1.457v.972h.064c.122-.32.327-.574.614-.76.286-.189.634-.284 1.043-.284.383 0 .716.084 1.001.251.284.168.506.407.663.718.158.308.237.677.237 1.105v3.507h-1.528v-3.235c.003-.337-.083-.6-.258-.789-.175-.191-.415-.287-.721-.287a1.09 1.09 0 00-.545.133.92.92 0 00-.366.387c-.086.168-.13.37-.133.606zm6.842-2.88v-1.28h6.033v1.28h-2.249v6.065h-1.535v-6.065h-2.249zm6.997 6.065v-5.509h1.528v5.509h-1.528zm.768-6.219a.83.83 0 01-.585-.226.733.733 0 01-.24-.549c0-.21.08-.391.24-.541a.825.825 0 01.585-.23c.227 0 .421.077.581.23a.71.71 0 01.244.541.727.727 0 01-.244.549.816.816 0 01-.581.226zm1.984 6.219v-5.509h1.456v.972h.065a1.53 1.53 0 01.574-.764c.268-.186.588-.28.961-.28.378 0 .7.095.965.284.265.186.442.44.531.76h.057c.113-.315.316-.568.61-.757a1.898 1.898 0 011.051-.287c.514 0 .931.164 1.251.492.323.325.485.786.485 1.384v3.705h-1.525v-3.403c0-.307-.081-.536-.244-.689a.853.853 0 00-.609-.23c-.278 0-.494.089-.649.266-.156.174-.234.405-.234.692v3.364H307.4v-3.436c0-.27-.078-.485-.233-.645a.797.797 0 00-.606-.241.84.84 0 00-.459.129.884.884 0 00-.319.356c-.079.15-.119.327-.119.53v3.307h-1.528zm11.723.108c-.566 0-1.054-.115-1.463-.344a2.358 2.358 0 01-.94-.983c-.22-.426-.33-.929-.33-1.51 0-.567.11-1.064.33-1.492.22-.428.53-.762.929-1.001.402-.239.873-.359 1.413-.359.364 0 .702.059 1.015.176.316.115.591.288.825.52.237.232.421.524.553.875.131.349.197.758.197 1.227v.42h-4.652v-.947h3.214c0-.22-.048-.415-.144-.585a1.029 1.029 0 00-.398-.398 1.135 1.135 0 00-.585-.147 1.151 1.151 0 00-1.033.588c-.1.177-.151.374-.154.592v.9c0 .273.05.508.151.707.103.198.247.351.434.459.186.107.408.161.663.161.17 0 .326-.024.467-.071a.923.923 0 00.591-.567l1.414.093a1.93 1.93 0 01-.442.89c-.22.251-.504.447-.853.588a3.213 3.213 0 01-1.202.208zm6.101-3.052c0 .891-.119 1.712-.359 2.46a6.71 6.71 0 01-1.09 2.08h-1.46c.187-.236.36-.526.52-.868.161-.342.301-.715.42-1.119a9.61 9.61 0 00.28-1.262 8.476 8.476 0 00-.075-3.006 8.797 8.797 0 00-.474-1.607c-.198-.495-.422-.9-.671-1.215h1.46a6.7 6.7 0 011.09 2.08c.24.748.359 1.567.359 2.457zm-135.353 45.966a1.046 1.046 0 00-.473-.789c-.278-.189-.627-.283-1.048-.283-.301 0-.561.047-.781.143-.22.093-.391.222-.513.387a.913.913 0 00-.18.556c0 .175.041.325.122.452.084.127.193.233.327.319.136.084.282.155.437.212.156.055.305.1.449.136l.717.187c.234.057.475.135.721.233s.474.227.685.387c.21.16.38.359.509.596.132.236.197.52.197.85 0 .416-.107.785-.322 1.108-.213.323-.523.577-.929.764-.404.186-.893.28-1.467.28-.55 0-1.026-.088-1.428-.262a2.2 2.2 0 01-.943-.743 2.15 2.15 0 01-.377-1.147h1.112c.022.265.108.486.259.663.153.175.347.305.584.391.239.084.501.126.786.126.313 0 .591-.049.835-.147.247-.101.44-.239.581-.416a.989.989 0 00.212-.628.765.765 0 00-.187-.534 1.37 1.37 0 00-.498-.345 4.822 4.822 0 00-.707-.24l-.868-.237c-.588-.16-1.054-.396-1.398-.706-.342-.311-.513-.722-.513-1.234 0-.423.114-.793.344-1.108.23-.316.54-.561.933-.736a3.19 3.19 0 011.327-.265c.497 0 .936.087 1.316.262.382.174.684.415.904.721.22.303.334.652.344 1.047h-1.069zm2.494 5.416v-7.346h4.605v.954h-3.497v2.238h3.257v.951h-3.257v2.249h3.54v.954h-4.648zm6.085 0v-7.346h4.606v.954h-3.497v2.238h3.256v.951h-3.256v2.249h3.54v.954h-4.649zm8.759-7.346h1.345l2.339 5.71h.086l2.338-5.71h1.345v7.346h-1.054v-5.316h-.068l-2.167 5.305h-.875l-2.166-5.308H205v5.319h-1.055v-7.346zm15.445 3.673c0 .784-.143 1.459-.43 2.023a3.159 3.159 0 01-1.18 1.298c-.498.302-1.063.452-1.697.452-.636 0-1.204-.15-1.703-.452-.498-.303-.89-.737-1.177-1.302-.287-.564-.43-1.237-.43-2.019 0-.784.143-1.457.43-2.019.287-.565.679-.997 1.177-1.299a3.217 3.217 0 011.703-.455c.634 0 1.199.152 1.697.455.499.302.893.734 1.18 1.299.287.562.43 1.235.43 2.019zm-1.097 0c0-.598-.097-1.101-.291-1.51-.191-.411-.454-.722-.789-.932a2.048 2.048 0 00-1.13-.32c-.423 0-.801.107-1.133.32-.333.21-.596.521-.789.932-.192.409-.287.912-.287 1.51s.095 1.102.287 1.514c.193.408.456.719.789.932.332.211.71.316 1.133.316.421 0 .798-.105 1.13-.316.335-.213.598-.524.789-.932.194-.412.291-.916.291-1.514zm2.479 3.673v-7.346h2.618c.569 0 1.041.098 1.417.294.378.196.66.468.846.815.187.344.28.742.28 1.194 0 .449-.094.845-.283 1.187-.187.34-.469.604-.847.793-.375.189-.847.283-1.416.283h-1.984v-.954h1.883c.359 0 .65-.051.875-.154a1.02 1.02 0 00.499-.449c.105-.196.158-.431.158-.706 0-.277-.054-.518-.162-.721a1.039 1.039 0 00-.498-.466c-.225-.11-.52-.165-.886-.165h-1.392v6.395h-1.108zm3.626-3.314l1.815 3.314h-1.263l-1.779-3.314h1.227zm2.884 3.314v-7.346h4.605v.954h-3.497v2.238h3.257v.951h-3.257v2.249h3.54v.954h-4.648zm8.396-6.392v-.954h5.685v.954h-2.292v6.392h-1.105v-6.392h-2.288zm8.049-.954v7.346h-1.108v-7.346h1.108zm1.614 0h1.345l2.339 5.71h.086l2.338-5.71h1.345v7.346h-1.054v-5.316h-.068l-2.167 5.305h-.875l-2.166-5.308h-.068v5.319h-1.055v-7.346zm9.065 7.346v-7.346h4.605v.954h-3.497v2.238h3.257v.951h-3.257v2.249h3.54v.954h-4.648zm8.568 0v-.739l3.863-5.653h-3.895v-.954h5.251v.739l-3.863 5.653h3.895v.954h-5.251zm12.676-3.673c0 .784-.143 1.459-.43 2.023-.287.562-.68.995-1.18 1.298-.498.302-1.063.452-1.697.452-.636 0-1.204-.15-1.703-.452-.498-.303-.89-.737-1.177-1.302-.287-.564-.43-1.237-.43-2.019 0-.784.143-1.457.43-2.019.287-.565.679-.997 1.177-1.299a3.217 3.217 0 011.703-.455c.634 0 1.199.152 1.697.455.5.302.893.734 1.18 1.299.287.562.43 1.235.43 2.019zm-1.097 0c0-.598-.097-1.101-.291-1.51-.191-.411-.454-.722-.789-.932a2.048 2.048 0 00-1.13-.32c-.423 0-.801.107-1.133.32-.332.21-.595.521-.789.932-.191.409-.287.912-.287 1.51s.096 1.102.287 1.514c.194.408.457.719.789.932.332.211.71.316 1.133.316.421 0 .798-.105 1.13-.316.335-.213.598-.524.789-.932.194-.412.291-.916.291-1.514zm8.408-3.673v7.346h-1.019l-3.734-5.387h-.068v5.387h-1.108v-7.346h1.026l3.737 5.395h.068v-5.395h1.098zm1.616 7.346v-7.346h4.606v.954h-3.497v2.238h3.256v.951h-3.256v2.249h3.54v.954h-4.649zm10.092-5.416a1.046 1.046 0 00-.473-.789c-.277-.189-.627-.283-1.047-.283-.302 0-.562.047-.782.143-.22.093-.391.222-.513.387a.913.913 0 00-.18.556c0 .175.041.325.122.452.084.127.193.233.327.319.136.084.282.155.437.212.156.055.305.1.449.136l.717.187c.234.057.475.135.721.233s.475.227.685.387c.21.16.38.359.509.596.132.236.198.52.198.85 0 .416-.108.785-.323 1.108-.213.323-.523.577-.929.764-.404.186-.893.28-1.467.28-.55 0-1.026-.088-1.428-.262a2.2 2.2 0 01-.943-.743 2.142 2.142 0 01-.376-1.147h1.111c.022.265.108.486.259.663.153.175.348.305.584.391.239.084.501.126.786.126.313 0 .592-.049.835-.147.247-.101.44-.239.581-.416a.983.983 0 00.212-.628.769.769 0 00-.186-.534 1.383 1.383 0 00-.499-.345 4.822 4.822 0 00-.707-.24l-.868-.237c-.588-.16-1.054-.396-1.398-.706-.342-.311-.513-.722-.513-1.234 0-.423.115-.793.344-1.108.23-.316.541-.561.933-.736a3.19 3.19 0 011.327-.265c.497 0 .936.087 1.316.262.383.174.684.415.904.721.22.303.335.652.344 1.047h-1.069z" fill="#6A6A6A"/><path d="M186.246 178.197v8.625h-1.824v-6.894h-.051l-1.975 1.238v-1.617l2.136-1.352h1.714zm5.802 0v8.625h-1.823v-6.894h-.051l-1.975 1.238v-1.617l2.135-1.352h1.714zm3.116 7.623a.982.982 0 01-.716-.295.972.972 0 01-.295-.716c0-.275.098-.511.295-.707a.982.982 0 01.716-.295c.269 0 .505.098.707.295a.948.948 0 01.304.707.95.95 0 01-.144.51 1.086 1.086 0 01-.366.366.965.965 0 01-.501.135zm0-4.233a.982.982 0 01-.716-.295.972.972 0 01-.295-.716.95.95 0 01.295-.703.986.986 0 01.716-.295c.269 0 .505.099.707.295a.936.936 0 01.304.703 1.032 1.032 0 01-.51.876.965.965 0 01-.501.135zm5.655 5.353c-.629 0-1.189-.108-1.68-.324a2.876 2.876 0 01-1.159-.901 2.27 2.27 0 01-.433-1.331h1.836a.96.96 0 00.206.556c.129.157.301.279.514.366.213.087.453.131.72.131.278 0 .524-.05.737-.148.214-.098.381-.234.501-.408a1.03 1.03 0 00.182-.603c0-.23-.065-.433-.194-.61a1.239 1.239 0 00-.548-.421 2.111 2.111 0 00-.842-.152h-.804v-1.339h.804c.275 0 .518-.048.729-.144.213-.095.379-.227.497-.395.117-.172.176-.371.176-.598a1.033 1.033 0 00-.585-.957 1.404 1.404 0 00-.64-.139c-.247 0-.473.045-.678.135a1.188 1.188 0 00-.493.375.981.981 0 00-.198.573h-1.748c.009-.497.15-.935.426-1.314a2.764 2.764 0 011.111-.889 3.756 3.756 0 011.588-.324c.596 0 1.116.108 1.563.324.446.216.793.508 1.04.876.25.365.374.775.371 1.23.003.483-.148.886-.451 1.209-.3.323-.692.528-1.175.615v.067c.635.081 1.117.302 1.449.661.334.357.5.803.497 1.34.003.491-.139.928-.426 1.309-.283.382-.675.683-1.175.902-.499.219-1.072.328-1.718.328zm8.012.072c-.725-.003-1.348-.181-1.87-.535-.52-.354-.92-.866-1.201-1.537-.278-.671-.415-1.479-.412-2.422 0-.941.139-1.742.417-2.405.28-.663.68-1.167 1.2-1.512.522-.348 1.144-.522 1.866-.522.721 0 1.342.174 1.861.522.522.348.924.854 1.205 1.516.28.66.419 1.46.417 2.401 0 .946-.141 1.755-.422 2.426-.277.671-.676 1.183-1.196 1.537-.519.354-1.141.531-1.865.531zm0-1.512c.494 0 .888-.249 1.183-.746.295-.497.441-1.242.438-2.236 0-.654-.067-1.199-.202-1.634-.132-.435-.32-.762-.564-.981a1.233 1.233 0 00-.855-.329c-.492 0-.885.246-1.18.737-.294.491-.443 1.227-.446 2.207 0 .663.066 1.216.198 1.659.135.441.324.772.568.994.245.219.531.329.86.329zm9.065 1.322h-1.954l2.978-8.625h2.35l2.973 8.625h-1.954l-2.161-6.654h-.067l-2.165 6.654zm-.122-3.39h4.616v1.423h-4.616v-1.423zm7.507-5.235h2.249l2.376 5.795h.101l2.375-5.795h2.249v8.625h-1.769v-5.614h-.071l-2.232 5.572h-1.205l-2.232-5.593h-.072v5.635h-1.769v-8.625zm17.594 3.601v1.423h-3.933v-1.423h3.933zm8.01-3.601v8.625h-1.824v-6.894h-.05l-1.975 1.238v-1.617l2.135-1.352h1.714zm2.05 8.625v-1.314l3.07-2.843c.261-.252.48-.48.657-.682.18-.202.316-.4.409-.594.092-.196.139-.408.139-.636 0-.252-.058-.47-.173-.653a1.13 1.13 0 00-.472-.425 1.477 1.477 0 00-.678-.152c-.264 0-.494.054-.69.161a1.089 1.089 0 00-.455.459c-.107.199-.16.436-.16.711h-1.731c0-.564.128-1.054.383-1.47a2.565 2.565 0 011.074-.964c.46-.227.991-.341 1.592-.341.618 0 1.155.109 1.613.328.461.217.819.517 1.074.902.256.384.383.825.383 1.322 0 .326-.064.647-.193.965-.127.317-.353.669-.679 1.057-.325.384-.784.846-1.377 1.385l-1.259 1.234v.059h3.622v1.491h-6.149zm8.536-1.002a.982.982 0 01-.716-.295.972.972 0 01-.295-.716c0-.275.098-.511.295-.707a.982.982 0 01.716-.295c.269 0 .505.098.708.295a.95.95 0 01.303.707.958.958 0 01-.143.51 1.098 1.098 0 01-.367.366.963.963 0 01-.501.135zm0-4.233a.982.982 0 01-.716-.295.972.972 0 01-.295-.716.95.95 0 01.295-.703.986.986 0 01.716-.295c.269 0 .505.099.708.295a.939.939 0 01.303.703.96.96 0 01-.143.514 1.043 1.043 0 01-.367.362.963.963 0 01-.501.135zm5.655 5.353c-.629 0-1.189-.108-1.68-.324a2.876 2.876 0 01-1.159-.901 2.27 2.27 0 01-.433-1.331h1.836a.96.96 0 00.206.556c.129.157.301.279.514.366.214.087.454.131.72.131.278 0 .524-.05.737-.148.214-.098.381-.234.502-.408.12-.174.181-.375.181-.603 0-.23-.065-.433-.194-.61a1.233 1.233 0 00-.548-.421 2.108 2.108 0 00-.842-.152h-.804v-1.339h.804c.275 0 .518-.048.729-.144.213-.095.379-.227.497-.395a1.03 1.03 0 00.177-.598c0-.217-.052-.406-.156-.569a1.033 1.033 0 00-.43-.388 1.404 1.404 0 00-.64-.139c-.247 0-.473.045-.678.135a1.188 1.188 0 00-.493.375.995.995 0 00-.198.573h-1.748c.009-.497.151-.935.426-1.314a2.768 2.768 0 011.112-.889 3.751 3.751 0 011.587-.324c.596 0 1.116.108 1.563.324.446.216.793.508 1.04.876.25.365.374.775.371 1.23.003.483-.148.886-.451 1.209-.3.323-.692.528-1.175.615v.067c.635.081 1.118.302 1.449.661.334.357.5.803.497 1.34.003.491-.139.928-.425 1.309-.284.382-.676.683-1.176.902-.499.219-1.072.328-1.718.328zm8.012.072c-.725-.003-1.348-.181-1.87-.535-.52-.354-.92-.866-1.201-1.537-.278-.671-.415-1.479-.412-2.422 0-.941.139-1.742.417-2.405.28-.663.681-1.167 1.2-1.512.522-.348 1.144-.522 1.866-.522.721 0 1.342.174 1.861.522.523.348.924.854 1.205 1.516.281.66.42 1.46.417 2.401 0 .946-.141 1.755-.421 2.426-.278.671-.677 1.183-1.196 1.537-.52.354-1.142.531-1.866.531zm0-1.512c.494 0 .888-.249 1.183-.746.295-.497.441-1.242.438-2.236 0-.654-.067-1.199-.202-1.634-.132-.435-.32-.762-.564-.981a1.233 1.233 0 00-.855-.329c-.492 0-.885.246-1.18.737-.294.491-.443 1.227-.446 2.207 0 .663.066 1.216.198 1.659.135.441.324.772.569.994.244.219.53.329.859.329zm7.579 1.322v-8.625h3.403c.654 0 1.211.125 1.672.375.46.247.811.591 1.053 1.032.244.438.366.943.366 1.516 0 .572-.124 1.078-.371 1.516a2.552 2.552 0 01-1.074 1.023c-.466.245-1.03.367-1.693.367h-2.169v-1.462h1.874c.351 0 .641-.06.868-.181.23-.123.402-.293.514-.509a1.6 1.6 0 00.173-.754c0-.287-.058-.537-.173-.75a1.154 1.154 0 00-.514-.501c-.23-.121-.522-.181-.876-.181h-1.23v7.134h-1.823zm7.678-8.625h2.25l2.375 5.795h.101l2.375-5.795h2.249v8.625h-1.769v-5.614h-.071l-2.232 5.572h-1.205l-2.232-5.593h-.072v5.635h-1.769v-8.625z" fill="#2D2A21"/><path fill="#DFDFDF" d="M166.801 196.889h196.638v1.153H166.801z"/><rect x="182.565" y="135.565" width="52.871" height="17.871" rx="8.935" fill="#fff"/><g clip-path="url(#clip2_1_122)"><path d="M191.553 138.572a5.931 5.931 0 00-5.476 3.659 5.923 5.923 0 001.285 6.46 5.929 5.929 0 0010.118-4.192 5.936 5.936 0 00-5.927-5.927zm2.823 4.889l-3.344 3.192a.457.457 0 01-.63 0l-1.672-1.596a.452.452 0 01-.14-.319.451.451 0 01.126-.325.458.458 0 01.645-.016l1.356 1.296 3.028-2.891a.455.455 0 01.771.34.452.452 0 01-.14.319z" fill="#174EA6"/></g><path d="M201.381 141.604h1.196l1.602 3.91h.063l1.602-3.91h1.197V147h-.938v-3.707h-.05l-1.492 3.691h-.701l-1.491-3.699h-.05V147h-.938v-5.396zm7.275 6.914a1.94 1.94 0 01-.622-.1l.221-.743c.139.04.263.059.372.058a.454.454 0 00.287-.103.732.732 0 00.214-.327l.081-.219-1.467-4.131h1.011l.933 3.056h.042l.936-3.056h1.014l-1.62 4.537a1.83 1.83 0 01-.301.551 1.22 1.22 0 01-.458.353 1.536 1.536 0 01-.643.124zm5.328-6.095v-.819h4.305v.819h-1.668V147h-.969v-4.577h-1.668zm5.093 4.577v-4.047h.954V147h-.954zm.48-4.622a.557.557 0 01-.39-.15.485.485 0 01-.164-.366c0-.144.055-.266.164-.366a.551.551 0 01.39-.153c.153 0 .283.051.39.153.109.1.163.222.163.366a.484.484 0 01-.163.366.55.55 0 01-.39.15zm1.455 4.622v-4.047h.912v.687h.047c.084-.231.224-.412.419-.542.195-.132.428-.198.698-.198.274 0 .505.067.693.2.19.132.323.312.401.54h.042a1.1 1.1 0 01.453-.537c.214-.135.468-.203.762-.203.372 0 .676.118.911.353.236.235.353.579.353 1.03V147h-.956v-2.569c0-.251-.067-.435-.2-.551a.72.72 0 00-.491-.176c-.23 0-.41.072-.54.216a.798.798 0 00-.192.556V147h-.935v-2.609a.67.67 0 00-.19-.5.662.662 0 00-.49-.187.692.692 0 00-.374.105.735.735 0 00-.269.293.907.907 0 00-.1.437V147h-.954zm8.451.079c-.406 0-.756-.084-1.052-.253a1.712 1.712 0 01-.677-.722c-.158-.313-.237-.681-.237-1.104 0-.416.079-.782.237-1.096.16-.316.383-.562.67-.738a1.878 1.878 0 011.009-.266c.249 0 .485.04.706.121.223.079.42.202.59.369.172.167.307.38.406.638.098.256.147.562.147.917v.292h-3.317v-.643h2.403a1.031 1.031 0 00-.118-.487.865.865 0 00-.325-.34.904.904 0 00-.479-.124.938.938 0 00-.514.142.97.97 0 00-.345.369 1.062 1.062 0 00-.124.498v.562c0 .235.043.437.129.606a.924.924 0 00.361.384c.155.088.336.132.543.132.139 0 .264-.019.377-.058a.818.818 0 00.292-.177.727.727 0 00.187-.287l.891.1a1.378 1.378 0 01-.322.617 1.567 1.567 0 01-.6.406 2.304 2.304 0 01-.838.142z" fill="#2D2A21"/><rect x="182.565" y="135.565" width="52.871" height="17.871" rx="8.935" stroke="#E8D296" stroke-width="1.129"/></g><defs><clipPath id="clip0_1_122"><path fill="#fff" transform="translate(0 51)" d="M0 0h375v210H0z"/></clipPath><clipPath id="clip1_1_122"><path fill="#fff" transform="translate(98)" d="M0 0h277v263H0z"/></clipPath><clipPath id="clip2_1_122"><path fill="#fff" transform="translate(184.259 137.205)" d="M0 0h14.59v14.59H0z"/></clipPath><filter id="filter0_d_1_122" x="90.423" y="-.326" width="496.577" height="318.926" filterUnits="userSpaceOnUse" color-interpolation-filters="sRGB"><feFlood flood-opacity="0" result="BackgroundImageFix"/><feColorMatrix in="SourceAlpha" values="0 0 0 0 0 0 0 0 0 0 0 0 0 0 0 0 0 0 127 0" result="hardAlpha"/><feOffset dx="-8" dy="12"/><feComposite in2="hardAlpha" operator="out"/><feColorMatrix values="0 0 0 0 0 0 0 0 0 0 0 0 0 0 0 0 0 0 0.15 0"/><feBlend in2="BackgroundImageFix" result="effect1_dropShadow_1_122"/><feBlend in="SourceGraphic" in2="effect1_dropShadow_1_122" result="shape"/></filter><filter id="filter1_d_1_122" x="159" y="124" width="204" height="117" filterUnits="userSpaceOnUse" color-interpolation-filters="sRGB"><feFlood flood-opacity="0" result="BackgroundImageFix"/><feColorMatrix in="SourceAlpha" values="0 0 0 0 0 0 0 0 0 0 0 0 0 0 0 0 0 0 127 0" result="hardAlpha"/><feOffset dx="-8" dy="8"/><feComposite in2="hardAlpha" operator="out"/><feColorMatrix values="0 0 0 0 0 0 0 0 0 0 0 0 0 0 0 0 0 0 0.15 0"/><feBlend in2="BackgroundImageFix" result="effect1_dropShadow_1_122"/><feBlend in="SourceGraphic" in2="effect1_dropShadow_1_122" result="shape"/></filter></defs></svg>