<svg width="925" height="468" fill="none" xmlns="http://www.w3.org/2000/svg"><g opacity=".02" clip-path="url(#clip0_1_113)"><path d="M340.283 389.501C340.283 484.217 264.03 561 169.967 561S-.35 484.217-.35 389.501c0-94.717 76.254-171.5 170.317-171.5s170.316 76.783 170.316 171.5z" fill="#000"/><path fill-rule="evenodd" clip-rule="evenodd" d="M257.902 559.916a190.18 190.18 0 00100.564-168.067c0-75.83-44.108-141.286-107.9-171.772A170.435 170.435 0 01277.148 218c94.064 0 170.317 76.783 170.317 171.499 0 94.717-76.253 171.5-170.317 171.5a171.08 171.08 0 01-19.246-1.083z" fill="#000"/><rect x="134.472" y="297.933" width="35.483" height="132.197" rx="17.741" fill="#E8D296"/><rect width="35.668" height="113.742" rx="17.834" transform="matrix(.4974 -.86752 .86452 .5026 130.117 420.437)" fill="#E8D296"/></g><g clip-path="url(#clip1_1_113)"><g filter="url(#filter0_d_1_113)"><rect x="194.423" width="847.265" height="532.256" rx="26.244" fill="#FFFEFE"/></g><path fill-rule="evenodd" clip-rule="evenodd" d="M899.12 0c-1.396 0-2.758.14-4.075.408V0H214.79c-11.249 0-20.367 9.119-20.367 20.367 0 2.085.314 4.096.896 5.99h-.896v55.111h167.504a3.578 3.578 0 003.578-3.58v-8.4h.001v-29.55c0-7.5 6.08-13.58 13.58-13.58h236.253c7.458 0 13.513 6.013 13.579 13.456v38.075a3.579 3.579 0 003.579 3.579h409.193V26.357h-.9c.58-1.894.9-3.905.9-5.99 0-11.248-9.12-20.367-20.37-20.367h-122.2z" fill="#F0F1F5"/><circle cx="241.946" cy="42.092" r="9.505" fill="#FF7970"/><circle cx="274.532" cy="42.092" r="9.505" fill="#FDD171"/><circle cx="307.12" cy="42.092" r="9.505" fill="#65C157"/><circle cx="400.809" cy="48.88" r="10.862" fill="#E1E4EB"/><path fill="#E1E4EB" d="M425.248 46.165h130.349v8.147H425.248z"/><path d="M594.605 44.44l9.873 9.872m-9.873 0l9.873-9.872" stroke="#DBDEE4" stroke-width="2.386" stroke-linecap="round" stroke-linejoin="round"/><path d="M669.738 35.39v20.56m-10.279-10.28h20.559" opacity=".6" stroke="#D0D4DD" stroke-width="3.579" stroke-linecap="round" stroke-linejoin="round"/><rect x="411.672" y="92.33" width="369.321" height="51.596" rx="25.798" fill="#F0F1F5"/><path fill="#E1E4EB" d="M482.276 114.055h233.541v8.147H482.276z"/><path d="M456.203 115.688h-15.204c-1.2 0-2.172.972-2.172 2.172v7.602c0 1.199.972 2.172 2.172 2.172h15.204a2.172 2.172 0 002.171-2.172v-7.602c0-1.2-.972-2.172-2.171-2.172zm-13.031 0v-4.344a5.43 5.43 0 0110.751-1.086" stroke="#4F5055" stroke-width=".596" stroke-linecap="round" stroke-linejoin="round"/><path d="M453.922 115.693v-4.344a5.432 5.432 0 00-10.751-1.086m-185.499 7.866h-20.593m10.297 10.296l-10.297-10.296 10.297-10.297" stroke="#4F5055" stroke-width=".596" stroke-linecap="round" stroke-linejoin="round"/><path d="M292.183 118.92h20.593m-10.296 10.297l10.296-10.297-10.296-10.296" stroke="#AAADB4" stroke-width=".596" stroke-linecap="round" stroke-linejoin="round"/><path d="M366.017 123.899l7.637-7.638-7.637-7.637" stroke="#4F5055" stroke-width=".596" stroke-linecap="round" stroke-linejoin="round"/><path d="M349.213 133.064v-10.693a6.113 6.113 0 016.11-6.11h18.33" stroke="#4F5055" stroke-width=".596" stroke-linecap="round" stroke-linejoin="round"/><path fill="#F0F1F5" d="M194.423 154.789h847.265v2.716H194.423z"/><rect x="265.305" y="276.697" width="532.898" height="12.81" rx="6.405" fill="#F0F1F5"/><rect x="265.305" y="316.835" width="532.898" height="2.562" rx="1.281" fill="#F0F1F5"/><rect x="265.305" y="386.863" width="334.769" height="3.416" rx="1.708" fill="#F0F1F5"/><rect x="265.305" y="351.849" width="532.898" height="3.416" rx="1.708" fill="#F0F1F5"/><rect x="265.305" y="333.915" width="532.898" height="3.416" rx="1.708" fill="#F0F1F5"/><rect x="265.305" y="368.929" width="532.898" height="3.416" rx="1.708" fill="#F0F1F5"/><path d="M275.444 239.693a1.491 1.491 0 00-2.688 0l-2.506 5.219-5.587.84a1.49 1.49 0 00-.833 2.528l4.065 4.072-.961 5.762a1.49 1.49 0 002.18 1.557l4.986-2.696 4.986 2.696a1.491 1.491 0 002.18-1.557l-.962-5.762 4.066-4.072a1.491 1.491 0 00-.833-2.528l-5.587-.84-2.506-5.219zm27.639-.012a1.493 1.493 0 00-2.677 0l-2.566 5.227-5.733.843a1.492 1.492 0 00-.826 2.541l4.152 4.067-.98 5.749a1.49 1.49 0 002.167 1.569l5.124-2.71 5.124 2.71a1.491 1.491 0 002.168-1.569l-.981-5.749 4.153-4.067a1.494 1.494 0 00-.827-2.541l-5.733-.843-2.565-5.227zm27.441 0a1.491 1.491 0 00-2.677 0l-2.565 5.227-5.733.843a1.494 1.494 0 00-.827 2.541l4.153 4.067-.981 5.749a1.493 1.493 0 002.167 1.569l5.125-2.71 5.124 2.71a1.491 1.491 0 002.167-1.569l-.98-5.749 4.152-4.067a1.492 1.492 0 00-.827-2.541l-5.733-.843-2.565-5.227zm27.44 0a1.493 1.493 0 00-2.678 0l-2.565 5.227-5.733.843a1.49 1.49 0 00-.826 2.541l4.152 4.067-.98 5.749a1.49 1.49 0 002.167 1.569l5.124-2.71 5.124 2.71a1.491 1.491 0 002.167-1.569l-.98-5.749 4.152-4.067a1.492 1.492 0 00-.826-2.541l-5.733-.843-2.565-5.227z" fill="#F0F1F5" stroke="#F0F1F5" stroke-width="2.982" stroke-linecap="round" stroke-linejoin="round"/><path d="M385.615 239.693a1.491 1.491 0 00-2.688 0l-2.506 5.219-5.587.84a1.49 1.49 0 00-.833 2.528l4.065 4.072-.961 5.762a1.49 1.49 0 002.18 1.557l4.986-2.696 4.986 2.696a1.491 1.491 0 002.18-1.557l-.962-5.762 4.066-4.072a1.491 1.491 0 00-.833-2.528l-5.587-.84-2.506-5.219z" stroke="#F0F1F5" stroke-width="2.982" stroke-linecap="round" stroke-linejoin="round"/><path d="M889.518 122.864c0 12.041-9.761 21.801-21.801 21.801s-21.801-9.76-21.801-21.801c0-12.04 9.761-21.8 21.801-21.8s21.801 9.76 21.801 21.8z" fill="#174EA6"/><path fill-rule="evenodd" clip-rule="evenodd" d="M878.97 144.527c7.657-4.052 12.873-12.099 12.873-21.364 0-9.639-5.645-17.96-13.81-21.835a21.935 21.935 0 013.402-.264c12.041 0 21.801 9.76 21.801 21.8 0 12.041-9.76 21.801-21.801 21.801-.833 0-1.656-.047-2.465-.138z" fill="#E8D296"/><rect x="863.175" y="111.225" width="4.542" height="16.805" rx="2.271" fill="#E8D296"/><rect x="862.617" y="126.798" width="4.542" height="14.534" rx="2.271" transform="rotate(-60 862.617 126.798)" fill="#E8D296"/><path fill="#FFE7B4" d="M265.305 183.846h234.313v32.6H265.305z"/><path d="M285.64 210.662c-1.174 0-2.219-.19-3.134-.572-.91-.386-1.624-.912-2.142-1.578a3.587 3.587 0 01-.778-2.265 3.7 3.7 0 01.442-1.792c.3-.549.707-1.004 1.22-1.365a4.03 4.03 0 011.723-.701v-.107c-.833-.168-1.509-.572-2.028-1.212a3.493 3.493 0 01-.778-2.25c0-.808.237-1.527.71-2.158.472-.635 1.12-1.133 1.944-1.494.829-.366 1.769-.549 2.821-.549 1.053 0 1.99.183 2.814.549.829.366 1.479.867 1.952 1.502.473.63.712 1.347.717 2.15-.005.859-.27 1.609-.793 2.25a3.414 3.414 0 01-2.013 1.212v.107a3.959 3.959 0 011.7.701c.514.361.92.816 1.22 1.365.305.544.46 1.142.465 1.792a3.63 3.63 0 01-.785 2.265c-.519.666-1.235 1.192-2.15 1.578-.91.382-1.952.572-3.127.572zm0-2.425c.524 0 .981-.094 1.373-.282.391-.193.696-.457.915-.793.223-.34.335-.732.335-1.174 0-.452-.114-.851-.343-1.197a2.368 2.368 0 00-.93-.824c-.392-.203-.841-.305-1.35-.305-.503 0-.953.102-1.349.305-.397.199-.71.473-.938.824a2.153 2.153 0 00-.336 1.197c0 .442.109.834.328 1.174.219.336.526.6.923.793.396.188.854.282 1.372.282zm0-6.977c.437 0 .826-.089 1.167-.266.34-.178.607-.425.801-.74.193-.315.289-.679.289-1.091a1.953 1.953 0 00-1.082-1.791c-.336-.178-.727-.267-1.175-.267a2.5 2.5 0 00-1.174.267 1.965 1.965 0 00-.801.724 1.993 1.993 0 00-.282 1.067c0 .412.097.776.29 1.091.193.315.46.562.801.74.34.177.729.266 1.166.266zm10.3 7.374a1.78 1.78 0 01-1.296-.534 1.765 1.765 0 01-.534-1.296c0-.498.178-.925.534-1.281a1.78 1.78 0 011.296-.534c.488 0 .915.178 1.281.534.366.356.549.783.549 1.281 0 .335-.086.643-.259.923a1.977 1.977 0 01-.664.663 1.742 1.742 0 01-.907.244zm0-7.663a1.78 1.78 0 01-1.296-.534 1.765 1.765 0 01-.534-1.296c0-.499.178-.923.534-1.274a1.78 1.78 0 011.296-.534c.488 0 .915.178 1.281.534a1.7 1.7 0 01.549 1.274c0 .34-.086.65-.259.93a1.913 1.913 0 01-.664.656 1.752 1.752 0 01-.907.244zm10.239 9.691c-1.139 0-2.153-.195-3.043-.587-.884-.396-1.583-.94-2.097-1.632-.508-.696-.77-1.499-.785-2.409h3.324c.021.381.145.717.374 1.006.234.285.544.506.93.664.387.157.821.236 1.304.236.504 0 .948-.089 1.335-.267.386-.178.689-.424.907-.739.219-.316.328-.679.328-1.091 0-.417-.117-.785-.351-1.106-.229-.325-.559-.579-.991-.762-.427-.183-.935-.275-1.525-.275h-1.456v-2.424h1.456c.498 0 .938-.087 1.319-.26.386-.172.686-.411.9-.716.213-.31.32-.671.32-1.083a1.874 1.874 0 00-1.06-1.731c-.33-.168-.717-.252-1.159-.252-.447 0-.856.082-1.227.244a2.148 2.148 0 00-.893.679c-.223.295-.343.64-.358 1.037h-3.164c.015-.9.272-1.693.77-2.379.498-.686 1.169-1.223 2.013-1.609.849-.391 1.807-.587 2.874-.587 1.078 0 2.021.196 2.829.587.809.391 1.436.92 1.884 1.586.452.661.676 1.403.671 2.227.005.874-.267 1.603-.816 2.188-.544.585-1.253.956-2.128 1.113v.122c1.149.148 2.024.547 2.624 1.197.604.646.904 1.454.899 2.425a3.81 3.81 0 01-.77 2.372c-.513.691-1.222 1.235-2.127 1.631-.905.397-1.942.595-3.111.595zm14.505.13c-1.312-.005-2.44-.328-3.386-.969-.94-.64-1.665-1.568-2.173-2.783-.503-1.215-.752-2.676-.747-4.384 0-1.703.251-3.154.755-4.354.508-1.2 1.232-2.112 2.173-2.738.945-.63 2.071-.945 3.378-.945 1.306 0 2.43.315 3.37.945.946.631 1.672 1.546 2.181 2.745.508 1.195.76 2.644.755 4.347 0 1.713-.254 3.177-.763 4.392-.503 1.215-1.225 2.143-2.165 2.783-.941.641-2.067.961-3.378.961zm0-2.738c.894 0 1.609-.449 2.142-1.349.534-.9.798-2.25.793-4.049 0-1.185-.122-2.171-.366-2.959-.239-.788-.579-1.38-1.021-1.776a2.23 2.23 0 00-1.548-.595c-.89 0-1.602.445-2.135 1.334-.534.89-.804 2.222-.809 3.996 0 1.199.12 2.201.359 3.004.244.798.587 1.398 1.029 1.8.442.396.961.594 1.556.594zm13.721 2.395v-15.617h6.161c1.185 0 2.194.227 3.028.679a4.596 4.596 0 011.906 1.868c.442.793.663 1.708.663 2.745 0 1.037-.223 1.952-.671 2.745-.447.793-1.095 1.411-1.944 1.853-.844.442-1.866.664-3.066.664h-3.927v-2.646h3.394c.635 0 1.159-.11 1.57-.328.417-.224.727-.531.931-.923.208-.396.312-.851.312-1.365 0-.518-.104-.971-.312-1.357a2.09 2.09 0 00-.931-.907c-.416-.219-.945-.328-1.586-.328h-2.226v12.917h-3.302zm13.903-15.617h4.072l4.3 10.493h.183l4.301-10.493h4.072v15.617h-3.203v-10.165h-.13l-4.041 10.088h-2.181l-4.041-10.126h-.13v10.203h-3.202v-15.617zm31.854 6.52v2.577h-7.122v-2.577h7.122zm13.357-6.733c.804 0 1.576.135 2.318.404a5.321 5.321 0 011.998 1.289c.59.589 1.055 1.372 1.396 2.348.345.971.521 2.163.526 3.576 0 1.327-.15 2.512-.45 3.554-.295 1.037-.719 1.919-1.273 2.646a5.568 5.568 0 01-2.006 1.662c-.783.376-1.657.564-2.623.564-1.042 0-1.962-.201-2.76-.602a5.182 5.182 0 01-1.929-1.655 5.14 5.14 0 01-.877-2.364h3.256c.127.57.394 1.012.8 1.327.407.31.91.465 1.51.465 1.017 0 1.789-.442 2.318-1.326.529-.89.796-2.108.801-3.653h-.107a3.725 3.725 0 01-.946 1.182 4.407 4.407 0 01-1.364.755 4.885 4.885 0 01-1.625.267c-.92 0-1.741-.216-2.463-.648a4.662 4.662 0 01-1.708-1.785c-.416-.757-.625-1.621-.625-2.592-.005-1.047.237-1.98.725-2.799a5.103 5.103 0 012.043-1.921c.88-.468 1.901-.699 3.065-.694zm.023 2.592c-.513 0-.971.122-1.372.366a2.699 2.699 0 00-.946.984c-.229.412-.34.872-.335 1.38 0 .514.112.976.335 1.388.229.407.539.732.93.976a2.58 2.58 0 001.358.358 2.607 2.607 0 001.906-.8c.244-.254.435-.547.572-.877a2.81 2.81 0 00-.145-2.41 2.69 2.69 0 00-.945-.991 2.525 2.525 0 00-1.358-.374zm10.432 11.423c-.504 0-.936-.178-1.297-.534a1.765 1.765 0 01-.534-1.296c0-.498.178-.925.534-1.281a1.781 1.781 0 011.297-.534c.488 0 .915.178 1.281.534.366.356.549.783.549 1.281 0 .335-.087.643-.26.923a1.974 1.974 0 01-.663.663 1.745 1.745 0 01-.907.244zm0-7.663c-.504 0-.936-.178-1.297-.534a1.765 1.765 0 01-.534-1.296c0-.499.178-.923.534-1.274a1.781 1.781 0 011.297-.534c.488 0 .915.178 1.281.534a1.7 1.7 0 01.549 1.274c0 .34-.087.65-.26.93a1.91 1.91 0 01-.663.656 1.754 1.754 0 01-.907.244zm10.238 9.691c-1.138 0-2.153-.195-3.042-.587-.885-.396-1.584-.94-2.097-1.632-.508-.696-.77-1.499-.786-2.409h3.325c.02.381.145.717.374 1.006.234.285.544.506.93.664.386.157.821.236 1.304.236.503 0 .948-.089 1.334-.267a2.19 2.19 0 00.908-.739c.218-.316.328-.679.328-1.091 0-.417-.117-.785-.351-1.106-.229-.325-.559-.579-.992-.762-.427-.183-.935-.275-1.525-.275h-1.456v-2.424h1.456c.499 0 .938-.087 1.32-.26.386-.172.686-.411.899-.716a1.86 1.86 0 00.321-1.083 1.874 1.874 0 00-1.06-1.731c-.331-.168-.717-.252-1.159-.252-.448 0-.857.082-1.228.244a2.151 2.151 0 00-.892.679 1.78 1.78 0 00-.358 1.037H408.6c.015-.9.272-1.693.77-2.379.498-.686 1.169-1.223 2.013-1.609.849-.391 1.807-.587 2.875-.587 1.078 0 2.021.196 2.829.587.808.391 1.436.92 1.883 1.586.453.661.676 1.403.671 2.227.005.874-.267 1.603-.816 2.188-.543.585-1.253.956-2.127 1.113v.122c1.149.148 2.023.547 2.623 1.197.605.646.905 1.454.9 2.425.005.89-.252 1.68-.77 2.372-.514.691-1.223 1.235-2.128 1.631-.905.397-1.942.595-3.111.595zm14.505.13c-1.311-.005-2.44-.328-3.385-.969-.941-.64-1.665-1.568-2.174-2.783-.503-1.215-.752-2.676-.747-4.384 0-1.703.252-3.154.755-4.354.508-1.2 1.233-2.112 2.173-2.738.946-.63 2.072-.945 3.378-.945 1.307 0 2.43.315 3.371.945.945.631 1.672 1.546 2.18 2.745.509 1.195.76 2.644.755 4.347 0 1.713-.254 3.177-.762 4.392-.504 1.215-1.225 2.143-2.166 2.783-.94.641-2.066.961-3.378.961zm0-2.738c.895 0 1.609-.449 2.143-1.349.534-.9.798-2.25.793-4.049 0-1.185-.122-2.171-.366-2.959-.239-.788-.58-1.38-1.022-1.776a2.226 2.226 0 00-1.548-.595c-.889 0-1.601.445-2.135 1.334-.534.89-.803 2.222-.808 3.996 0 1.199.119 2.201.358 3.004.244.798.587 1.398 1.03 1.8.442.396.96.594 1.555.594zm13.722 2.395v-15.617h6.161c1.184 0 2.193.227 3.027.679a4.59 4.59 0 011.906 1.868c.443.793.664 1.708.664 2.745 0 1.037-.224 1.952-.671 2.745-.448.793-1.096 1.411-1.945 1.853-.844.442-1.865.664-3.065.664h-3.927v-2.646h3.393c.636 0 1.159-.11 1.571-.328a2.17 2.17 0 00.93-.923c.209-.396.313-.851.313-1.365 0-.518-.104-.971-.313-1.357a2.083 2.083 0 00-.93-.907c-.417-.219-.945-.328-1.586-.328h-2.227v12.917h-3.301zm13.902-15.617h4.072l4.301 10.493h.183l4.3-10.493h4.072v15.617h-3.202v-10.165h-.13l-4.041 10.088h-2.181l-4.041-10.126h-.13v10.203h-3.203v-15.617zM293.685 226.3h-3.34a3.275 3.275 0 00-.374-1.152 2.931 2.931 0 00-.724-.869 3.18 3.18 0 00-1.022-.549 3.907 3.907 0 00-1.243-.191c-.808 0-1.512.201-2.112.603-.6.396-1.065.976-1.395 1.738-.331.758-.496 1.678-.496 2.761 0 1.113.165 2.048.496 2.806.335.757.803 1.329 1.403 1.715.6.387 1.293.58 2.081.58.443 0 .852-.059 1.228-.176a3.244 3.244 0 001.014-.51c.295-.229.539-.506.732-.832.198-.325.336-.696.412-1.113l3.34.015a6.067 6.067 0 01-.648 2.074 6.254 6.254 0 01-1.38 1.777 6.495 6.495 0 01-2.059 1.235c-.793.3-1.691.45-2.692.45-1.393 0-2.638-.315-3.736-.945-1.093-.631-1.957-1.543-2.593-2.738-.63-1.194-.945-2.641-.945-4.338 0-1.703.32-3.152.96-4.347.641-1.194 1.51-2.104 2.608-2.73 1.098-.63 2.333-.945 3.706-.945.905 0 1.744.127 2.516.381a6.379 6.379 0 012.067 1.113 5.73 5.73 0 011.464 1.777c.381.702.625 1.505.732 2.41zm2.367 10.149v-15.617h10.523v2.723h-7.221v3.721h6.68v2.722h-6.68v3.729h7.252v2.722h-10.554zm12.553-12.894v-2.723h12.826v2.723h-4.781v12.894h-3.264v-12.894h-4.781z" fill="#59606B"/><g filter="url(#filter1_d_1_113)"><rect x="313" y="216" width="341" height="189" rx="11.49" fill="#F7F5F2"/></g><path d="M628.645 369.854v5.858a1.953 1.953 0 01-1.953 1.952h-10.739a1.954 1.954 0 01-1.953-1.952v-10.74a1.955 1.955 0 011.953-1.952h5.857m3.906-2.93h5.858v5.858m-10.74 4.882l10.739-10.74" stroke="#000" stroke-width="1.193" stroke-linecap="round" stroke-linejoin="round"/><path d="M350.352 284.388h-2.505a2.45 2.45 0 00-.28-.863 2.188 2.188 0 00-.543-.652 2.38 2.38 0 00-.767-.412 2.937 2.937 0 00-.932-.143c-.606 0-1.134.151-1.584.452-.45.297-.799.732-1.047 1.304-.247.568-.371 1.258-.371 2.07 0 .835.124 1.536.371 2.104.252.568.603.997 1.053 1.287.45.29.97.435 1.561.435.332 0 .639-.044.921-.132a2.203 2.203 0 001.309-1.006c.149-.244.252-.523.309-.835l2.505.011a4.544 4.544 0 01-.486 1.556c-.256.495-.601.94-1.035 1.332a4.884 4.884 0 01-1.544.927c-.595.225-1.268.337-2.019.337-1.045 0-1.979-.236-2.802-.709-.82-.473-1.468-1.157-1.945-2.053-.473-.896-.709-1.981-.709-3.254 0-1.277.24-2.364.721-3.26.48-.896 1.132-1.578 1.956-2.047.823-.473 1.749-.709 2.779-.709a5.99 5.99 0 011.887.286c.583.19 1.1.468 1.55.834.45.363.816.807 1.098 1.333.286.526.469 1.129.549 1.807zm5.733 7.784c-.903 0-1.681-.183-2.333-.549a3.761 3.761 0 01-1.498-1.567c-.351-.679-.527-1.482-.527-2.408 0-.904.176-1.697.527-2.379a3.884 3.884 0 011.481-1.596c.64-.381 1.391-.572 2.253-.572.579 0 1.119.094 1.618.281.504.183.942.459 1.316.829.377.37.671.835.88 1.395.21.557.315 1.209.315 1.956v.669H352.7v-1.51h5.124c0-.35-.077-.661-.229-.932a1.649 1.649 0 00-.635-.635 1.812 1.812 0 00-.932-.234c-.37 0-.698.086-.984.257a1.806 1.806 0 00-.663.681c-.16.282-.242.597-.246.944v1.435c0 .435.08.81.24 1.127.164.316.395.56.692.732.298.171.65.257 1.058.257.271 0 .519-.038.744-.114a1.49 1.49 0 00.943-.904l2.254.149a3.08 3.08 0 01-.704 1.418c-.351.4-.804.713-1.361.938-.553.221-1.191.332-1.916.332zm10.294-8.956v1.83h-5.29v-1.83h5.29zm-4.089-2.105h2.436v8.19c0 .225.035.4.103.526a.566.566 0 00.286.257c.126.05.271.075.435.075.114 0 .229-.01.343-.029l.263-.052.383 1.813a7.081 7.081 0 01-.514.132c-.222.053-.49.086-.807.097-.587.023-1.102-.055-1.544-.234a2.165 2.165 0 01-1.024-.835c-.244-.378-.364-.854-.36-1.43v-8.51zm9.941 5.033c0-1.418.189-2.724.566-3.918a10.83 10.83 0 011.744-3.317h2.328a7.12 7.12 0 00-.829 1.384 12.242 12.242 0 00-.669 1.785c-.191.648-.34 1.319-.446 2.013-.107.69-.161 1.374-.161 2.053 0 .903.092 1.817.275 2.739.187.919.438 1.773.755 2.562.32.789.679 1.436 1.075 1.939h-2.328a10.83 10.83 0 01-1.744-3.317c-.377-1.193-.566-2.501-.566-3.923zm16.432-1.756h-2.505a2.45 2.45 0 00-.28-.863 2.176 2.176 0 00-.544-.652 2.364 2.364 0 00-.766-.412 2.941 2.941 0 00-.932-.143c-.606 0-1.134.151-1.584.452-.45.297-.799.732-1.047 1.304-.248.568-.372 1.258-.372 2.07 0 .835.124 1.536.372 2.104.252.568.603.997 1.052 1.287.45.29.971.435 1.562.435.331 0 .638-.044.92-.132a2.4 2.4 0 00.761-.383c.221-.171.404-.379.549-.623.149-.244.252-.523.309-.835l2.505.011a4.544 4.544 0 01-.486 1.556c-.256.495-.601.94-1.035 1.332a4.878 4.878 0 01-1.545.927c-.594.225-1.267.337-2.018.337-1.045 0-1.979-.236-2.803-.709-.819-.473-1.467-1.157-1.944-2.053-.473-.896-.709-1.981-.709-3.254 0-1.277.24-2.364.72-3.26.481-.896 1.133-1.578 1.956-2.047.824-.473 1.75-.709 2.78-.709a6 6 0 011.887.286c.583.19 1.1.468 1.55.834.45.363.816.807 1.098 1.333.286.526.469 1.129.549 1.807zm5.733 7.784c-.904 0-1.681-.183-2.333-.549a3.77 3.77 0 01-1.499-1.567c-.35-.679-.526-1.482-.526-2.408 0-.904.176-1.697.526-2.379a3.893 3.893 0 011.482-1.596c.64-.381 1.391-.572 2.253-.572.579 0 1.119.094 1.618.281.503.183.942.459 1.316.829.377.37.671.835.88 1.395.21.557.315 1.209.315 1.956v.669h-7.418v-1.51h5.125c0-.35-.077-.661-.229-.932a1.649 1.649 0 00-.635-.635 1.815 1.815 0 00-.932-.234c-.37 0-.698.086-.984.257a1.806 1.806 0 00-.663.681c-.16.282-.242.597-.246.944v1.435c0 .435.08.81.24 1.127.164.316.395.56.692.732.297.171.65.257 1.058.257.271 0 .519-.038.743-.114a1.49 1.49 0 00.944-.904l2.253.149a3.078 3.078 0 01-.703 1.418c-.351.4-.805.713-1.361.938-.553.221-1.192.332-1.916.332zm8.058-5.25V292h-2.436v-8.784h2.322v1.55h.102a2.46 2.46 0 01.978-1.213c.458-.301 1.013-.452 1.665-.452.61 0 1.141.134 1.595.401.454.267.807.648 1.058 1.144.252.491.378 1.078.378 1.761V292h-2.437v-5.158c.004-.538-.133-.957-.411-1.259-.279-.305-.662-.457-1.15-.457-.328 0-.618.07-.869.211a1.485 1.485 0 00-.584.618c-.137.267-.207.589-.211.967zm12.254-3.706v1.83h-5.29v-1.83h5.29zm-4.089-2.105h2.436v8.19c0 .225.035.4.103.526a.566.566 0 00.286.257c.126.05.271.075.435.075.114 0 .229-.01.343-.029l.263-.052.383 1.813a6.996 6.996 0 01-.515.132 4.113 4.113 0 01-.806.097c-.587.023-1.102-.055-1.544-.234a2.165 2.165 0 01-1.024-.835c-.244-.378-.364-.854-.36-1.43v-8.51zM416.295 292v-8.784h2.362v1.532h.091c.161-.545.429-.957.807-1.235a2.12 2.12 0 011.304-.423 3.741 3.741 0 01.766.086v2.161a3.274 3.274 0 00-.475-.091 4.207 4.207 0 00-.554-.04 1.95 1.95 0 00-.961.234c-.278.153-.5.366-.664.641-.16.274-.24.591-.24.949V292h-2.436zm8.843.166c-.561 0-1.06-.097-1.498-.292a2.406 2.406 0 01-1.041-.875c-.252-.389-.378-.873-.378-1.452 0-.488.09-.898.269-1.23.179-.332.423-.599.732-.801.309-.202.66-.354 1.052-.457a8.028 8.028 0 011.247-.217c.511-.054.923-.103 1.235-.149.313-.05.54-.122.681-.217a.48.48 0 00.211-.424v-.034c0-.362-.114-.642-.343-.841-.225-.198-.545-.297-.96-.297-.439 0-.788.097-1.047.292a1.34 1.34 0 00-.515.72l-2.253-.183c.114-.534.339-.995.675-1.384a3.233 3.233 0 011.298-.903c.534-.214 1.151-.321 1.853-.321.488 0 .955.058 1.401.172.45.114.848.292 1.195.532.351.24.628.549.83.926.202.374.303.822.303 1.344V292h-2.311v-1.218h-.068a2.48 2.48 0 01-.567.726c-.236.206-.52.368-.852.486a3.502 3.502 0 01-1.149.172zm.698-1.682c.358 0 .674-.07.949-.211.274-.145.49-.339.646-.583a1.51 1.51 0 00.235-.83v-.932c-.077.05-.181.095-.315.137-.13.039-.276.075-.44.109-.164.031-.328.059-.492.086l-.446.063a2.987 2.987 0 00-.749.2c-.214.091-.38.215-.498.372a.905.905 0 00-.177.572c0 .331.12.585.36.76.244.172.553.257.927.257zm8.575-10.196V292h-2.436v-11.712h2.436zM440.136 292v-11.712h7.892v2.041h-5.416v2.791h5.01v2.042h-5.01v2.796h5.439V292h-7.915zm15.448-3.74v-5.044h2.436V292h-2.339v-1.596h-.092a2.59 2.59 0 01-.989 1.241c-.457.313-1.016.469-1.676.469-.587 0-1.103-.133-1.549-.4a2.756 2.756 0 01-1.047-1.138c-.248-.492-.374-1.081-.377-1.767v-5.593h2.436v5.158c.004.519.143.929.417 1.23.275.301.643.452 1.104.452.294 0 .568-.067.824-.201.255-.137.461-.339.617-.606.16-.267.239-.596.235-.989zm4.385 3.74v-8.784h2.362v1.532h.091c.16-.545.429-.957.806-1.235a2.123 2.123 0 011.304-.423c.122 0 .254.008.395.023.141.015.265.036.372.063v2.161a3.302 3.302 0 00-.475-.091 4.21 4.21 0 00-.555-.04 1.95 1.95 0 00-.96.234c-.279.153-.5.366-.664.641-.16.274-.24.591-.24.949V292h-2.436zm10.149.172c-.888 0-1.656-.189-2.304-.567a3.873 3.873 0 01-1.493-1.589c-.351-.683-.526-1.474-.526-2.374 0-.907.175-1.7.526-2.379a3.833 3.833 0 011.493-1.59c.648-.381 1.416-.572 2.304-.572.889 0 1.655.191 2.299.572a3.828 3.828 0 011.499 1.59c.35.679.526 1.472.526 2.379 0 .9-.176 1.691-.526 2.374a3.867 3.867 0 01-1.499 1.589c-.644.378-1.41.567-2.299.567zm.012-1.888c.404 0 .741-.114 1.012-.343.271-.232.475-.549.612-.949a4.1 4.1 0 00.212-1.367c0-.511-.071-.966-.212-1.367-.137-.4-.341-.717-.612-.949-.271-.233-.608-.349-1.012-.349-.408 0-.751.116-1.03.349-.274.232-.482.549-.623.949a4.214 4.214 0 00-.206 1.367c0 .511.069.967.206 1.367.141.4.349.717.623.949.279.229.622.343 1.03.343zm5.896 5.01v-12.078h2.402v1.475h.109c.106-.236.261-.476.463-.72a2.45 2.45 0 01.8-.618c.332-.168.744-.252 1.236-.252.64 0 1.231.168 1.773.504.541.331.974.833 1.298 1.504.324.667.486 1.504.486 2.51 0 .98-.158 1.808-.475 2.482-.312.671-.739 1.18-1.281 1.527a3.288 3.288 0 01-1.807.515c-.473 0-.875-.078-1.207-.235a2.483 2.483 0 01-.806-.589 2.96 2.96 0 01-.48-.726h-.075v4.701h-2.436zm2.385-7.686c0 .522.072.978.217 1.367.145.389.355.692.629.909.275.214.608.32 1.001.32.396 0 .732-.108 1.006-.326.275-.221.483-.526.624-.915.145-.392.217-.844.217-1.355 0-.507-.07-.953-.212-1.338-.141-.385-.348-.687-.623-.904-.274-.217-.612-.326-1.012-.326-.397 0-.732.105-1.007.315-.27.209-.478.507-.623.892-.145.385-.217.839-.217 1.361zm11.809 4.564c-.903 0-1.681-.183-2.333-.549a3.761 3.761 0 01-1.498-1.567c-.351-.679-.527-1.482-.527-2.408 0-.904.176-1.697.527-2.379a3.884 3.884 0 011.481-1.596c.64-.381 1.391-.572 2.253-.572.579 0 1.119.094 1.618.281.504.183.942.459 1.316.829.377.37.671.835.88 1.395.21.557.315 1.209.315 1.956v.669h-7.417v-1.51h5.124c0-.35-.077-.661-.229-.932a1.649 1.649 0 00-.635-.635 1.812 1.812 0 00-.932-.234c-.37 0-.698.086-.984.257a1.806 1.806 0 00-.663.681c-.16.282-.242.597-.246.944v1.435c0 .435.08.81.24 1.127.164.316.395.56.692.732.298.171.65.257 1.058.257.271 0 .519-.038.744-.114a1.49 1.49 0 00.943-.904l2.254.149a3.08 3.08 0 01-.704 1.418c-.351.4-.804.713-1.361.938-.553.221-1.191.332-1.916.332zm8.127-.006c-.561 0-1.06-.097-1.499-.292a2.409 2.409 0 01-1.04-.875c-.252-.389-.378-.873-.378-1.452 0-.488.09-.898.269-1.23.179-.332.423-.599.732-.801a3.55 3.55 0 011.052-.457 8.028 8.028 0 011.247-.217c.511-.054.923-.103 1.235-.149.313-.05.54-.122.681-.217a.48.48 0 00.211-.424v-.034c0-.362-.114-.642-.343-.841-.225-.198-.545-.297-.961-.297-.438 0-.787.097-1.046.292a1.34 1.34 0 00-.515.72l-2.253-.183c.114-.534.339-.995.675-1.384a3.233 3.233 0 011.298-.903c.534-.214 1.151-.321 1.853-.321.488 0 .955.058 1.401.172.45.114.848.292 1.195.532.351.24.627.549.829.926.203.374.304.822.304 1.344V292h-2.311v-1.218h-.068c-.142.274-.33.516-.567.726-.236.206-.52.368-.852.486a3.502 3.502 0 01-1.149.172zm.697-1.682c.359 0 .675-.07.95-.211.274-.145.49-.339.646-.583.156-.244.234-.521.234-.83v-.932a1.29 1.29 0 01-.314.137c-.13.039-.276.075-.44.109-.164.031-.328.059-.492.086l-.446.063a2.987 2.987 0 00-.749.2c-.214.091-.38.215-.498.372a.905.905 0 00-.177.572c0 .331.12.585.36.76.244.172.553.257.926.257zm8.576-3.562V292h-2.436v-8.784h2.322v1.55h.102a2.46 2.46 0 01.978-1.213c.458-.301 1.013-.452 1.665-.452.61 0 1.141.134 1.595.401.454.267.807.648 1.058 1.144.252.491.378 1.078.378 1.761V292h-2.437v-5.158c.004-.538-.133-.957-.411-1.259-.279-.305-.662-.457-1.15-.457-.328 0-.618.07-.869.211a1.477 1.477 0 00-.583.618c-.138.267-.208.589-.212.967zm10.909-4.593v-2.041h9.619v2.041h-3.586V292h-2.448v-9.671h-3.585zM529.686 292v-8.784h2.436V292h-2.436zm1.224-9.917c-.362 0-.673-.12-.932-.36a1.166 1.166 0 01-.383-.875c0-.335.127-.623.383-.863.259-.244.57-.366.932-.366.362 0 .671.122.927.366.259.24.388.528.388.863 0 .339-.129.631-.388.875-.256.24-.565.36-.927.36zm3.164 9.917v-8.784h2.322v1.55h.103a2.44 2.44 0 01.915-1.219c.427-.297.938-.446 1.533-.446.602 0 1.115.151 1.538.452.423.298.705.702.846 1.213h.092c.179-.504.503-.906.972-1.207.473-.305 1.031-.458 1.676-.458.819 0 1.485.262 1.996.784.514.518.772 1.254.772 2.207V292h-2.431v-5.427c0-.488-.13-.854-.389-1.098-.259-.244-.583-.366-.972-.366-.442 0-.787.141-1.035.423-.248.278-.372.646-.372 1.104V292h-2.362v-5.479c0-.431-.124-.774-.371-1.029-.244-.256-.567-.383-.967-.383-.271 0-.515.068-.732.206a1.408 1.408 0 00-.509.566c-.126.24-.189.522-.189.846V292h-2.436zm18.692.172c-.903 0-1.681-.183-2.333-.549a3.761 3.761 0 01-1.498-1.567c-.351-.679-.527-1.482-.527-2.408 0-.904.176-1.697.527-2.379a3.884 3.884 0 011.481-1.596c.64-.381 1.391-.572 2.253-.572.58 0 1.119.094 1.618.281.504.183.942.459 1.316.829.377.37.671.835.881 1.395.209.557.314 1.209.314 1.956v.669h-7.417v-1.51h5.124c0-.35-.076-.661-.229-.932a1.642 1.642 0 00-.635-.635 1.812 1.812 0 00-.932-.234c-.37 0-.698.086-.984.257a1.806 1.806 0 00-.663.681c-.16.282-.242.597-.246.944v1.435c0 .435.08.81.24 1.127.164.316.395.56.692.732.298.171.65.257 1.058.257.271 0 .519-.038.744-.114a1.49 1.49 0 00.943-.904l2.254.149a3.08 3.08 0 01-.704 1.418c-.351.4-.804.713-1.361.938-.553.221-1.191.332-1.916.332zm9.728-4.867c0 1.422-.191 2.73-.572 3.923a10.728 10.728 0 01-1.738 3.317h-2.328a7.12 7.12 0 00.829-1.384c.256-.545.479-1.14.669-1.784.191-.648.34-1.32.446-2.013.107-.694.161-1.381.161-2.059 0-.904-.094-1.815-.281-2.734a13.944 13.944 0 00-.755-2.562c-.316-.789-.672-1.435-1.069-1.939h2.328a10.728 10.728 0 011.738 3.317c.381 1.194.572 2.5.572 3.918zm-215.819 80.059a1.673 1.673 0 00-.755-1.258c-.442-.301-.999-.451-1.67-.451-.48 0-.896.076-1.247.228a1.925 1.925 0 00-.818.618c-.19.259-.286.555-.286.886 0 .279.065.519.195.721.133.202.307.372.52.509.218.133.45.246.698.337.248.088.486.16.715.218l1.144.297c.373.092.756.215 1.149.372.393.156.757.362 1.092.617.336.256.607.572.813.95.209.377.314.829.314 1.355 0 .664-.171 1.253-.515 1.767-.339.515-.833.921-1.481 1.218-.644.298-1.424.446-2.339.446-.877 0-1.635-.139-2.276-.417-.64-.278-1.142-.673-1.504-1.184-.362-.515-.562-1.125-.6-1.83h1.772c.035.423.172.776.412 1.058.244.278.555.486.932.623.382.134.799.201 1.253.201.499 0 .943-.079 1.332-.235.393-.16.702-.381.927-.663.225-.286.337-.62.337-1.001 0-.347-.099-.631-.297-.852a2.21 2.21 0 00-.795-.549 7.68 7.68 0 00-1.127-.383l-1.384-.378c-.938-.255-1.681-.631-2.23-1.126-.545-.496-.818-1.152-.818-1.968 0-.675.183-1.264.549-1.767.366-.503.862-.894 1.487-1.172.625-.282 1.331-.423 2.116-.423.793 0 1.493.139 2.099.417.61.278 1.09.662 1.441 1.15.351.484.534 1.04.549 1.669h-1.704zm3.976 8.636v-11.712h7.343v1.521h-5.576v3.569h5.193v1.515h-5.193v3.586h5.644V376h-7.411zm9.703 0v-11.712h7.343v1.521h-5.576v3.569h5.193v1.515h-5.193v3.586h5.645V376h-7.412zm13.966-11.712h2.144l3.729 9.104h.137l3.729-9.104h2.145V376h-1.682v-8.475h-.108l-3.455 8.458h-1.395l-3.454-8.464h-.109V376h-1.681v-11.712zm24.627 5.856c0 1.25-.229 2.326-.686 3.225-.458.896-1.085 1.586-1.882 2.071-.793.48-1.695.72-2.705.72-1.014 0-1.92-.24-2.716-.72-.794-.485-1.419-1.177-1.876-2.076-.458-.9-.687-1.973-.687-3.22 0-1.251.229-2.324.687-3.22.457-.9 1.082-1.59 1.876-2.07.796-.484 1.702-.726 2.716-.726 1.01 0 1.912.242 2.705.726.797.48 1.424 1.17 1.882 2.07.457.896.686 1.969.686 3.22zm-1.75 0c0-.953-.155-1.756-.463-2.408-.305-.656-.725-1.151-1.259-1.487a3.27 3.27 0 00-1.801-.509 3.28 3.28 0 00-1.807.509c-.53.336-.95.831-1.258 1.487-.305.652-.458 1.455-.458 2.408 0 .953.153 1.757.458 2.413.308.652.728 1.148 1.258 1.487.53.336 1.132.503 1.807.503a3.29 3.29 0 001.801-.503c.534-.339.954-.835 1.259-1.487.308-.656.463-1.46.463-2.413zM401.15 376v-11.712h4.175c.907 0 1.66.156 2.259.469.602.312 1.052.745 1.349 1.298.298.549.446 1.184.446 1.904 0 .717-.15 1.348-.451 1.893-.298.542-.748.963-1.35 1.264-.599.301-1.352.452-2.259.452h-3.162v-1.521h3.002c.572 0 1.037-.082 1.395-.246.363-.164.628-.403.795-.715.168-.313.252-.688.252-1.127 0-.442-.086-.825-.257-1.149a1.667 1.667 0 00-.795-.744c-.359-.175-.83-.263-1.413-.263h-2.219V376h-1.767zm5.782-5.284l2.894 5.284h-2.014l-2.836-5.284h1.956zM411.53 376v-11.712h7.343v1.521h-5.576v3.569h5.193v1.515h-5.193v3.586h5.644V376h-7.411zm13.388-10.191v-1.521h9.064v1.521h-3.654V376h-1.762v-10.191h-3.648zm12.834-1.521V376h-1.767v-11.712h1.767zm2.574 0h2.144l3.729 9.104h.137l3.729-9.104h2.145V376h-1.682v-8.475h-.108l-3.455 8.458h-1.395l-3.454-8.464h-.109V376h-1.681v-11.712zM454.779 376v-11.712h7.343v1.521h-5.576v3.569h5.193v1.515h-5.193v3.586h5.645V376h-7.412zm13.662 0v-1.178l6.159-9.013h-6.21v-1.521h8.372v1.178l-6.159 9.013h6.211V376h-8.373zm20.212-5.856c0 1.25-.229 2.326-.686 3.225-.458.896-1.085 1.586-1.882 2.071-.793.48-1.694.72-2.705.72-1.014 0-1.919-.24-2.716-.72-.793-.485-1.418-1.177-1.876-2.076-.457-.9-.686-1.973-.686-3.22 0-1.251.229-2.324.686-3.22.458-.9 1.083-1.59 1.876-2.07.797-.484 1.702-.726 2.716-.726 1.011 0 1.912.242 2.705.726.797.48 1.424 1.17 1.882 2.07.457.896.686 1.969.686 3.22zm-1.75 0c0-.953-.154-1.756-.463-2.408-.305-.656-.724-1.151-1.258-1.487a3.273 3.273 0 00-1.802-.509c-.674 0-1.277.17-1.807.509-.53.336-.949.831-1.258 1.487-.305.652-.457 1.455-.457 2.408 0 .953.152 1.757.457 2.413.309.652.728 1.148 1.258 1.487.53.336 1.133.503 1.807.503.671 0 1.272-.167 1.802-.503.534-.339.953-.835 1.258-1.487.309-.656.463-1.46.463-2.413zm13.407-5.856V376h-1.624l-5.954-8.59h-.108V376h-1.768v-11.712h1.636l5.959 8.601h.109v-8.601h1.75zM502.888 376v-11.712h7.343v1.521h-5.576v3.569h5.192v1.515h-5.192v3.586h5.644V376h-7.411zm16.091-8.636a1.673 1.673 0 00-.755-1.258c-.442-.301-.999-.451-1.67-.451-.48 0-.896.076-1.246.228a1.92 1.92 0 00-.818.618 1.455 1.455 0 00-.286.886c0 .279.065.519.194.721.134.202.307.372.521.509.217.133.45.246.697.337.248.088.486.16.715.218l1.144.297c.374.092.757.215 1.149.372.393.156.757.362 1.093.617.335.256.606.572.812.95.21.377.314.829.314 1.355 0 .664-.171 1.253-.514 1.767-.34.515-.833.921-1.481 1.218-.645.298-1.424.446-2.34.446-.876 0-1.635-.139-2.276-.417-.64-.278-1.141-.673-1.504-1.184-.362-.515-.562-1.125-.6-1.83h1.773c.034.423.171.776.411 1.058.244.278.555.486.933.623.381.134.798.201 1.252.201.5 0 .944-.079 1.333-.235.392-.16.701-.381.926-.663.225-.286.337-.62.337-1.001 0-.347-.099-.631-.297-.852a2.192 2.192 0 00-.795-.549 7.707 7.707 0 00-1.126-.383l-1.384-.378c-.938-.255-1.682-.631-2.231-1.126-.545-.496-.818-1.152-.818-1.968 0-.675.183-1.264.549-1.767.366-.503.862-.894 1.487-1.172.626-.282 1.331-.423 2.116-.423.793 0 1.493.139 2.099.417.61.278 1.091.662 1.441 1.15.351.484.534 1.04.549 1.669h-1.704z" fill="#6A6A6A"/><path d="M347.955 307.648V325h-3.668v-13.869h-.102l-3.973 2.491v-3.254l4.295-2.72h3.448zm11.673 0V325h-3.668v-13.869h-.102l-3.974 2.491v-3.254l4.296-2.72h3.448zm6.268 15.336a1.98 1.98 0 01-1.441-.594 1.96 1.96 0 01-.593-1.44c0-.553.198-1.028.593-1.423a1.978 1.978 0 011.441-.593c.542 0 1.016.197 1.423.593.407.395.61.87.61 1.423 0 .373-.096.715-.288 1.025a2.183 2.183 0 01-.737.737 1.939 1.939 0 01-1.008.272zm0-8.515c-.559 0-1.04-.198-1.441-.593a1.965 1.965 0 01-.593-1.441c0-.553.198-1.025.593-1.414a1.98 1.98 0 011.441-.594c.542 0 1.016.198 1.423.594.407.389.61.861.61 1.414 0 .379-.096.723-.288 1.034a2.117 2.117 0 01-.737.729c-.305.18-.641.271-1.008.271zm11.376 10.768c-1.265 0-2.392-.217-3.38-.652-.983-.441-1.76-1.045-2.33-1.813-.565-.774-.856-1.666-.873-2.678h3.694c.023.424.161.797.415 1.119.26.316.604.562 1.034.737.429.175.912.263 1.449.263.559 0 1.053-.099 1.482-.297a2.432 2.432 0 001.008-.822c.243-.35.365-.754.365-1.211 0-.464-.13-.873-.39-1.229-.254-.361-.621-.644-1.101-.847-.475-.203-1.04-.305-1.695-.305h-1.618v-2.694h1.618c.554 0 1.042-.096 1.466-.288a2.37 2.37 0 001-.797c.237-.344.355-.745.355-1.203a2.082 2.082 0 00-1.177-1.923c-.367-.187-.797-.28-1.288-.28-.497 0-.952.091-1.364.271a2.395 2.395 0 00-.991.754 1.984 1.984 0 00-.399 1.153h-3.516c.017-1 .303-1.881.856-2.644.554-.762 1.299-1.358 2.237-1.787.943-.435 2.008-.653 3.194-.653 1.197 0 2.245.218 3.143.653.898.435 1.596 1.022 2.093 1.762.503.734.751 1.559.745 2.474.006.971-.296 1.782-.906 2.431-.605.65-1.392 1.062-2.364 1.237v.136c1.277.164 2.248.607 2.915 1.33.672.717 1.005 1.616.999 2.694.006.989-.279 1.867-.855 2.635-.571.768-1.359 1.373-2.364 1.813-1.006.441-2.158.661-3.457.661zm16.117.144c-1.458-.005-2.711-.364-3.762-1.076-1.045-.711-1.85-1.742-2.415-3.092-.559-1.35-.836-2.974-.83-4.872 0-1.892.28-3.505.839-4.838.565-1.333 1.37-2.346 2.414-3.041 1.051-.701 2.302-1.051 3.754-1.051 1.451 0 2.7.35 3.745 1.051 1.05.7 1.858 1.717 2.423 3.05.564 1.327.844 2.937.838 4.829 0 1.904-.282 3.53-.847 4.88-.559 1.35-1.361 2.381-2.406 3.093-1.045.711-2.296 1.067-3.753 1.067zm0-3.041c.994 0 1.787-.5 2.38-1.5.594-1 .887-2.499.882-4.499 0-1.316-.136-2.412-.407-3.287-.266-.876-.644-1.534-1.135-1.974a2.475 2.475 0 00-1.72-.661c-.989 0-1.779.494-2.373 1.483-.593.988-.892 2.468-.898 4.439 0 1.333.133 2.446.399 3.338.271.887.652 1.554 1.143 2 .492.44 1.068.661 1.729.661zm18.237 2.66h-3.932l5.99-17.352h4.728L424.394 325h-3.932l-4.346-13.386h-.136L411.626 325zm-.246-6.82h9.286v2.863h-9.286v-2.863zm15.102-10.532h4.524l4.779 11.659h.203l4.779-11.659h4.524V325h-3.559v-11.294h-.144l-4.49 11.209h-2.423l-4.491-11.251h-.144V325h-3.558v-17.352zm35.394 7.244v2.864h-7.914v-2.864h7.914zm16.112-7.244V325h-3.669v-13.869h-.101l-3.974 2.491v-3.254l4.296-2.72h3.448zM482.112 325v-2.643l6.176-5.719c.526-.509.966-.966 1.322-1.373.362-.406.635-.805.822-1.194a2.97 2.97 0 00.279-1.28c0-.508-.115-.946-.347-1.313a2.285 2.285 0 00-.949-.856 2.979 2.979 0 00-1.364-.305c-.531 0-.994.108-1.389.322a2.215 2.215 0 00-.915.924c-.215.401-.322.878-.322 1.432h-3.483c0-1.136.257-2.121.771-2.957.514-.836 1.235-1.483 2.161-1.94.926-.458 1.994-.687 3.203-.687 1.242 0 2.324.221 3.244.661.927.435 1.647 1.039 2.161 1.813s.771 1.661.771 2.661c0 .655-.13 1.301-.39 1.94-.254.638-.709 1.347-1.364 2.126-.655.774-1.579 1.703-2.77 2.788l-2.534 2.482v.119h7.287V325h-12.37zm17.171-2.016a1.977 1.977 0 01-1.44-.594 1.96 1.96 0 01-.593-1.44c0-.553.198-1.028.593-1.423a1.976 1.976 0 011.44-.593c.543 0 1.017.197 1.424.593.406.395.61.87.61 1.423 0 .373-.096.715-.288 1.025a2.192 2.192 0 01-.737.737 1.94 1.94 0 01-1.009.272zm0-8.515a1.98 1.98 0 01-1.44-.593 1.965 1.965 0 01-.593-1.441c0-.553.198-1.025.593-1.414a1.977 1.977 0 011.44-.594c.543 0 1.017.198 1.424.594.406.389.61.861.61 1.414 0 .379-.096.723-.288 1.034a2.125 2.125 0 01-.737.729c-.305.18-.641.271-1.009.271zm11.377 10.768c-1.265 0-2.392-.217-3.381-.652-.983-.441-1.759-1.045-2.33-1.813-.564-.774-.855-1.666-.872-2.678h3.694c.022.424.161.797.415 1.119.26.316.604.562 1.033.737.43.175.913.263 1.449.263.559 0 1.054-.099 1.483-.297a2.438 2.438 0 001.008-.822c.243-.35.364-.754.364-1.211 0-.464-.129-.873-.389-1.229-.254-.361-.622-.644-1.102-.847-.474-.203-1.039-.305-1.694-.305h-1.618v-2.694h1.618c.553 0 1.042-.096 1.466-.288.429-.192.762-.458.999-.797.238-.344.356-.745.356-1.203a2.082 2.082 0 00-1.178-1.923c-.367-.187-.796-.28-1.287-.28-.497 0-.952.091-1.364.271a2.398 2.398 0 00-.992.754 1.99 1.99 0 00-.398 1.153h-3.516c.017-1 .302-1.881.856-2.644.553-.762 1.299-1.358 2.236-1.787.944-.435 2.008-.653 3.195-.653 1.197 0 2.245.218 3.143.653.898.435 1.595 1.022 2.093 1.762.502.734.751 1.559.745 2.474.006.971-.296 1.782-.906 2.431-.605.65-1.393 1.062-2.364 1.237v.136c1.276.164 2.248.607 2.914 1.33.672.717 1.006 1.616 1 2.694.006.989-.28 1.867-.856 2.635-.57.768-1.358 1.373-2.363 1.813-1.006.441-2.158.661-3.457.661zm16.116.144c-1.457-.005-2.711-.364-3.761-1.076-1.045-.711-1.85-1.742-2.415-3.092-.559-1.35-.836-2.974-.83-4.872 0-1.892.279-3.505.838-4.838.565-1.333 1.37-2.346 2.415-3.041 1.051-.701 2.302-1.051 3.753-1.051 1.452 0 2.7.35 3.745 1.051 1.051.7 1.859 1.717 2.423 3.05.565 1.327.845 2.937.839 4.829 0 1.904-.282 3.53-.847 4.88-.559 1.35-1.361 2.381-2.406 3.093-1.045.711-2.296 1.067-3.754 1.067zm0-3.041c.995 0 1.788-.5 2.381-1.5.593-1 .887-2.499.881-4.499 0-1.316-.135-2.412-.406-3.287-.266-.876-.644-1.534-1.136-1.974a2.473 2.473 0 00-1.72-.661c-.988 0-1.779.494-2.372 1.483-.593.988-.892 2.468-.898 4.439 0 1.333.133 2.446.398 3.338.271.887.653 1.554 1.144 2a2.51 2.51 0 001.728.661zm15.247 2.66v-17.352h6.845c1.316 0 2.437.252 3.364.755.926.497 1.632 1.188 2.118 2.075.491.881.737 1.898.737 3.05 0 1.153-.249 2.169-.746 3.05-.497.882-1.217 1.568-2.16 2.059-.938.492-2.073.737-3.406.737h-4.363v-2.94h3.77c.706 0 1.288-.121 1.745-.364.463-.248.808-.59 1.034-1.025.232-.441.347-.946.347-1.517 0-.576-.115-1.078-.347-1.508a2.32 2.32 0 00-1.034-1.008c-.463-.243-1.05-.364-1.762-.364h-2.474V325h-3.668zm15.447-17.352h4.524l4.779 11.659h.203l4.778-11.659h4.525V325h-3.559v-11.294h-.144l-4.49 11.209h-2.423l-4.491-11.251h-.144V325h-3.558v-17.352z" fill="#2D2A21"/><path fill="#DFDFDF" d="M313 342h341v2H313z"/><rect x="339.565" y="235.565" width="84.871" height="30.871" rx="15.435" fill="#fff"/><g clip-path="url(#clip2_1_113)"><path d="M352.551 241.824a9.18 9.18 0 00-8.999 10.966 9.175 9.175 0 0018.175-1.79 9.187 9.187 0 00-9.176-9.176zm4.37 7.569l-5.176 4.941a.709.709 0 01-.976 0l-2.588-2.471a.704.704 0 01-.022-.998.707.707 0 01.998-.023l2.1 2.005 4.688-4.475a.705.705 0 11.976 1.021z" fill="#174EA6"/></g><path d="M366.994 246.625h2.003l2.682 6.547h.106l2.682-6.547h2.003v9.035h-1.571v-6.207h-.084l-2.496 6.18h-1.174l-2.497-6.193h-.083v6.22h-1.571v-9.035zm12.18 11.575a3.27 3.27 0 01-.605-.052 2.293 2.293 0 01-.436-.115l.37-1.244c.233.068.44.1.622.097a.76.76 0 00.481-.172c.141-.109.26-.291.357-.547l.137-.366-2.457-6.917h1.694l1.562 5.117h.07l1.566-5.117h1.699l-2.713 7.596a3.05 3.05 0 01-.503.922 2.041 2.041 0 01-.768.591c-.3.138-.659.207-1.076.207zm8.919-10.203v-1.372h7.209v1.372h-2.793v7.663h-1.623v-7.663h-2.793zm8.528 7.663v-6.776h1.596v6.776h-1.596zm.802-7.738a.935.935 0 01-.653-.251.812.812 0 01-.273-.613c0-.242.091-.446.273-.614.183-.17.4-.255.653-.255.256 0 .474.085.653.255a.8.8 0 01.274.614.81.81 0 01-.274.613.923.923 0 01-.653.251zm2.437 7.738v-6.776h1.526v1.151h.079c.141-.388.375-.691.702-.909.326-.22.716-.33 1.169-.33.458 0 .845.111 1.16.335.317.22.541.522.67.904h.071c.15-.376.403-.676.759-.9.358-.226.783-.339 1.275-.339.623 0 1.132.197 1.526.591.394.394.591.969.591 1.725v4.548h-1.601v-4.301c0-.421-.112-.728-.336-.922a1.196 1.196 0 00-.82-.296c-.385 0-.687.121-.904.362-.215.238-.322.548-.322.931v4.226h-1.566v-4.368c0-.35-.106-.629-.318-.838-.209-.209-.482-.313-.821-.313-.229 0-.438.059-.626.176a1.236 1.236 0 00-.45.49 1.527 1.527 0 00-.168.732v4.121h-1.596zm14.148.132c-.68 0-1.266-.141-1.76-.424a2.865 2.865 0 01-1.134-1.208c-.265-.524-.397-1.14-.397-1.849 0-.697.132-1.308.397-1.835a3 3 0 011.12-1.235c.48-.297 1.043-.445 1.69-.445.417 0 .812.067 1.182.203.374.132.703.338.988.617.288.279.515.635.68 1.068.164.429.247.941.247 1.535v.489h-5.554v-1.076h4.023a1.71 1.71 0 00-.199-.816 1.44 1.44 0 00-.542-.569 1.529 1.529 0 00-.803-.207c-.327 0-.613.079-.86.238-.247.156-.44.362-.578.617a1.783 1.783 0 00-.208.834v.94c0 .394.073.732.217 1.014.144.28.345.494.604.644.259.147.562.221.909.221.232 0 .442-.032.631-.097.188-.068.351-.166.489-.296.138-.129.243-.289.313-.481l1.491.168a2.319 2.319 0 01-.538 1.032 2.612 2.612 0 01-1.006.68c-.408.159-.876.238-1.402.238z" fill="#2D2A21"/><rect x="339.565" y="235.565" width="84.871" height="30.871" rx="15.435" stroke="#E8D296" stroke-width="1.129"/></g><defs><clipPath id="clip0_1_113"><path fill="#fff" transform="translate(0 218)" d="M0 0h447v250H0z"/></clipPath><clipPath id="clip1_1_113"><path d="M194 0h731v428c0 22.091-17.909 40-40 40H194V0z" fill="#fff"/></clipPath><clipPath id="clip2_1_113"><path fill="#fff" transform="translate(341.259 239.707)" d="M0 0h22.586v22.586H0z"/></clipPath><filter id="filter0_d_1_113" x="186.423" y="0" width="855.265" height="544.256" filterUnits="userSpaceOnUse" color-interpolation-filters="sRGB"><feFlood flood-opacity="0" result="BackgroundImageFix"/><feColorMatrix in="SourceAlpha" values="0 0 0 0 0 0 0 0 0 0 0 0 0 0 0 0 0 0 127 0" result="hardAlpha"/><feOffset dx="-8" dy="12"/><feComposite in2="hardAlpha" operator="out"/><feColorMatrix values="0 0 0 0 0 0 0 0 0 0 0 0 0 0 0 0 0 0 0.15 0"/><feBlend in2="BackgroundImageFix" result="effect1_dropShadow_1_113"/><feBlend in="SourceGraphic" in2="effect1_dropShadow_1_113" result="shape"/></filter><filter id="filter1_d_1_113" x="305" y="216" width="349" height="197" filterUnits="userSpaceOnUse" color-interpolation-filters="sRGB"><feFlood flood-opacity="0" result="BackgroundImageFix"/><feColorMatrix in="SourceAlpha" values="0 0 0 0 0 0 0 0 0 0 0 0 0 0 0 0 0 0 127 0" result="hardAlpha"/><feOffset dx="-8" dy="8"/><feComposite in2="hardAlpha" operator="out"/><feColorMatrix values="0 0 0 0 0 0 0 0 0 0 0 0 0 0 0 0 0 0 0.15 0"/><feBlend in2="BackgroundImageFix" result="effect1_dropShadow_1_113"/><feBlend in="SourceGraphic" in2="effect1_dropShadow_1_113" result="shape"/></filter></defs></svg>